<?xml version="1.0" encoding="UTF-8"?>
<!DOCTYPE svg PUBLIC "-//W3C//DTD SVG 1.1//EN" "http://www.w3.org/Graphics/SVG/1.1/DTD/svg11.dtd">
<!-- Creator: CorelDRAW X7 -->
<svg xmlns="http://www.w3.org/2000/svg" xml:space="preserve" width="69.4692mm" height="48.8242mm" version="1.1" style="shape-rendering:geometricPrecision; text-rendering:geometricPrecision; image-rendering:optimizeQuality; fill-rule:evenodd; clip-rule:evenodd"
viewBox="0 0 6530 4590"
 xmlns:xlink="http://www.w3.org/1999/xlink">
 <defs>
  <style type="text/css">
   <![CDATA[
    .str0 {stroke:#FEFEFE;stroke-width:12.4083}
    .fil1 {fill:none}
    .fil2 {fill:#FEFEFE}
    .fil3 {fill:#FEFEFE;fill-rule:nonzero}
    .fil0 {fill:url(#id0)}
   ]]>
  </style>
  <radialGradient id="id0" gradientUnits="userSpaceOnUse" gradientTransform="matrix(0.721085 -0 -0 0.721085 911 627)" cx="3265.14" cy="2249.03" r="65.1814" fx="3265.14" fy="2249.03">
   <stop offset="0" style="stop-opacity:1; stop-color:#1B93BF"/>
   <stop offset="1" style="stop-opacity:1; stop-color:#006E96"/>
  </radialGradient>
 </defs>
 <g id="Layer_x0020_1">
  <metadata id="CorelCorpID_0Corel-Layer"/>
  <polygon class="fil0" points="6,6 6524,6 6524,4583 6,4583 "/>
  <polygon class="fil1 str0" points="6,6 6524,6 6524,4583 6,4583 "/>
  <g id="_1959459656336">
   <g>
    <path class="fil2" d="M1701 1966l4 -1 0 92 51 0 0 -112c197,-79 386,-170 588,-244 18,46 55,66 121,46 -93,81 -178,165 -254,252l0 -47 -18 0c48,-33 -4,-84 -4,-127 -61,39 -15,85 -23,127l-5 0 0 105 19 0c-7,45 -18,90 -37,135 -23,-50 -33,-100 -41,-150 -7,50 -18,100 -40,150 -22,-50 -32,-100 -40,-150 -8,50 -18,100 -40,150 -22,-50 -33,-100 -40,-150 -8,50 -19,100 -40,150 -23,-50 -33,-100 -41,-150 -7,50 -18,100 -40,150 -22,-50 -32,-100 -40,-150 -7,50 -18,100 -40,150 -22,-50 -32,-100 -40,-150l0 0 0 -76 0 0zm764 -219c2,-1 4,-2 6,-3 2,5 4,9 5,12 29,56 82,52 148,15l0 67 0 -67 1 0c67,37 120,40 147,-17 2,-3 4,-6 5,-10 2,1 4,2 6,3 93,81 178,165 254,252l0 3 0 55 26 0c-7,45 -17,90 -37,135 -23,-50 -33,-100 -40,-150 -8,50 -19,100 -41,150 -22,-50 -32,-100 -40,-150 -7,50 -18,100 -40,150 -23,-50 -33,-100 -40,-150 -8,50 -18,100 -40,150 -23,-50 -33,-100 -40,-150 -8,50 -19,100 -40,150 -23,-50 -33,-100 -41,-150 -7,50 -18,100 -40,150 -22,-50 -32,-100 -40,-150 -8,50 -18,100 -40,150 -23,-50 -33,-100 -40,-150 -8,50 -18,100 -40,150 -23,-50 -33,-100 -40,-150 -8,50 -19,100 -41,150 -22,-50 -32,-100 -40,-150 -7,50 -18,100 -40,150 -23,-50 -33,-100 -40,-150 -8,50 -18,100 -40,150 -20,-45 -31,-90 -38,-135l26 0 0 -49 0 -9c76,-87 161,-171 254,-252l0 0zm318 0c66,20 103,0 122,-46 202,74 390,165 588,244l0 112 50 0 0 -92 5 1 0 76 0 0c-8,50 -19,100 -40,150 -23,-50 -33,-100 -41,-150 -7,50 -18,100 -40,150 -23,-50 -33,-100 -40,-150 -8,50 -18,100 -40,150 -23,-50 -33,-100 -40,-150 -8,50 -18,100 -40,150 -23,-50 -33,-100 -40,-150 -8,50 -19,100 -41,150 -22,-50 -33,-100 -40,-150 -7,50 -18,100 -40,150 -20,-45 -30,-90 -38,-135l19 0 0 -105 -4 0c-8,-42 37,-88 -24,-127 0,43 -53,94 -3,127l-19 0 0 47c-76,-87 -161,-171 -254,-252l0 0zm-178 243c7,-42 -38,-89 23,-127 0,42 53,94 4,127l18 0 0 67 -50 0 0 -67 5 0 0 0z"/>
    <path id="_1" class="fil2" d="M1701 1966l4 -1 0 92 51 0 0 -112c197,-79 386,-170 588,-244 18,46 55,66 121,46 -93,81 -178,165 -254,252l0 -47 -18 0c48,-33 -4,-84 -4,-127 -61,39 -15,85 -23,127l-5 0 0 105 19 0c-7,45 -18,90 -37,135 -23,-50 -33,-100 -41,-150 -7,50 -18,100 -40,150 -22,-50 -32,-100 -40,-150 -8,50 -18,100 -40,150 -22,-50 -33,-100 -40,-150 -8,50 -19,100 -40,150 -23,-50 -33,-100 -41,-150 -7,50 -18,100 -40,150 -22,-50 -32,-100 -40,-150 -7,50 -18,100 -40,150 -22,-50 -32,-100 -40,-150l0 0 0 -76 0 0zm764 -219c2,-1 4,-2 6,-3 2,5 4,9 5,12 29,56 82,52 148,15l0 67 0 -67 1 0c67,37 120,40 147,-17 2,-3 4,-6 5,-10 2,1 4,2 6,3 93,81 178,165 254,252l0 3 0 55 26 0c-7,45 -17,90 -37,135 -23,-50 -33,-100 -40,-150 -8,50 -19,100 -41,150 -22,-50 -32,-100 -40,-150 -7,50 -18,100 -40,150 -23,-50 -33,-100 -40,-150 -8,50 -18,100 -40,150 -23,-50 -33,-100 -40,-150 -8,50 -19,100 -40,150 -23,-50 -33,-100 -41,-150 -7,50 -18,100 -40,150 -22,-50 -32,-100 -40,-150 -8,50 -18,100 -40,150 -23,-50 -33,-100 -40,-150 -8,50 -18,100 -40,150 -23,-50 -33,-100 -40,-150 -8,50 -19,100 -41,150 -22,-50 -32,-100 -40,-150 -7,50 -18,100 -40,150 -23,-50 -33,-100 -40,-150 -8,50 -18,100 -40,150 -20,-45 -31,-90 -38,-135l26 0 0 -49 0 -9c76,-87 161,-171 254,-252l0 0zm318 0c66,20 103,0 122,-46 202,74 390,165 588,244l0 112 50 0 0 -92 5 1 0 76 0 0c-8,50 -19,100 -40,150 -23,-50 -33,-100 -41,-150 -7,50 -18,100 -40,150 -23,-50 -33,-100 -40,-150 -8,50 -18,100 -40,150 -23,-50 -33,-100 -40,-150 -8,50 -18,100 -40,150 -23,-50 -33,-100 -40,-150 -8,50 -19,100 -41,150 -22,-50 -33,-100 -40,-150 -7,50 -18,100 -40,150 -20,-45 -30,-90 -38,-135l19 0 0 -105 -4 0c-8,-42 37,-88 -24,-127 0,43 -53,94 -3,127l-19 0 0 47c-76,-87 -161,-171 -254,-252l0 0zm-178 243c7,-42 -38,-89 23,-127 0,42 53,94 4,127l18 0 0 67 -50 0 0 -67 5 0 0 0z"/>
    <path id="_2" class="fil1" d="M2088 1804l95 25m6 2l144 38m0 0l266 71m54 14l333 88m0 1l51 13m3 1l22 6m7 2l70 18m15 4l61 16m24 7l51 13m35 10l40 10m48 13l25 7m64 17l10 2m-352 -378l-95 25m-7 2l-143 38m0 0l-264 70m-49 13l-339 90m0 1l-52 13m-3 1l-22 6m-8 2l-69 18m-15 4l-61 16m-24 7l-51 13m-35 10l-40 10m-48 13l-26 7m-63 17l-9 2"/>
    <path class="fil2" d="M1709 1922c9,-42 -37,-88 24,-127 0,43 53,94 4,127l-28 0z"/>
    <path class="fil2" d="M3538 1922c-7,-42 38,-88 -23,-127 0,43 -53,94 -4,127l27 0 0 0z"/>
    <path class="fil2" d="M2443 1388c65,-24 132,-45 204,-62 71,17 139,38 204,62 -15,34 -42,49 -93,32 -19,49 -59,47 -111,19 -52,28 -92,30 -112,-19 -50,17 -78,2 -92,-32z"/>
    <path id="_1_0" class="fil2" d="M2443 1388c65,-24 132,-45 204,-62 71,17 139,38 204,62 -15,34 -42,49 -93,32 -19,49 -59,47 -111,19 -52,28 -92,30 -112,-19 -50,17 -78,2 -92,-32z"/>
    <path id="_2_1" class="fil1" d="M2536 1356l218 71m3 -71l-218 72"/>
    <polygon class="fil2" points="1978,1549 2015,1549 2015,1647 1978,1647 "/>
    <path class="fil2" d="M1981 1549c6,-31 -27,-65 18,-92 0,30 37,68 2,92l-20 0z"/>
    <polygon class="fil2" points="3315,1549 3279,1549 3279,1647 3315,1647 "/>
    <path class="fil2" d="M3312 1549c-6,-31 27,-65 -18,-92 0,30 -37,68 -2,92l20 0z"/>
    <polygon class="fil2" points="2310,1570 2346,1570 2346,1647 2310,1647 "/>
    <path class="fil2" d="M2313 1570c6,-30 -27,-64 18,-92 0,31 37,69 2,92l-20 0z"/>
    <polygon class="fil2" points="2983,1570 2947,1570 2947,1647 2983,1647 "/>
    <path class="fil2" d="M2980 1570c-5,-30 27,-64 -17,-92 0,31 -38,69 -3,92l20 0 0 0z"/>
    <polygon class="fil2" points="2629,1598 2665,1598 2665,1647 2629,1647 "/>
    <path class="fil2" d="M2632 1598c7,-31 -27,-64 18,-92 0,31 38,68 2,92l-20 0z"/>
    <path class="fil2" d="M2613 1315c-1,-75 14,-146 34,-216 19,70 35,141 33,216l-33 11 -34 -11z"/>
   </g>
   <g>
    <path class="fil3" d="M1570 3120l6 0c59,0 105,22 140,67 14,22 21,50 21,84 0,55 -20,97 -61,126 -24,15 -54,23 -90,23 -21,0 -43,-3 -64,-9l0 1c11,22 33,39 65,50 10,4 19,6 25,6l73 0 1 1 0 19 -1 1 -109 0c-28,0 -61,-10 -97,-31 -15,-11 -26,-22 -34,-35 -22,-39 -32,-87 -32,-146l0 -13c0,-36 10,-65 32,-86 8,-9 16,-17 24,-22 34,-24 68,-36 101,-36zm-76 150c0,44 15,79 46,103 13,8 25,12 35,12 29,0 53,-19 71,-56 8,-19 12,-39 12,-61 0,-40 -14,-73 -41,-98 -14,-11 -27,-16 -41,-16 -28,0 -51,18 -69,54 -9,19 -13,40 -13,62z"/>
    <path class="fil3" d="M2594 3127l93 0c13,0 29,4 47,11 26,12 44,30 55,54 3,7 5,14 6,21 3,12 4,21 4,27l0 10c44,-9 69,-14 77,-16 16,-6 26,-15 32,-25 2,-6 4,-11 4,-15l0 -2 0 0c3,8 5,16 5,23 0,19 -11,36 -32,50 -6,5 -13,8 -21,11 -6,1 -14,3 -25,5 -14,2 -27,5 -40,7l0 125c0,12 2,23 6,35 3,5 6,10 10,14 6,5 12,7 18,7l18 0 0 1 0 20 0 1 -63 0c-24,0 -41,-14 -50,-40 -2,-4 -4,-10 -6,-19l-1 -4c-40,40 -81,60 -123,60 -15,0 -31,-3 -46,-8 -6,-3 -11,-6 -17,-10 -20,-17 -30,-36 -30,-59l0 -2c0,-16 5,-34 16,-52 10,-14 23,-27 40,-39 11,-7 23,-14 35,-20 15,-7 34,-14 55,-21 17,-5 30,-7 38,-7 9,-1 19,-3 31,-5l0 -28c0,-13 -3,-27 -9,-43 -2,-5 -5,-10 -9,-15 -5,-7 -11,-11 -20,-14 -1,-1 -8,-1 -20,-2l-78 -2 0 0 0 -33 0 -1zm0 263l0 1c0,13 4,26 13,38 8,10 20,16 34,16 11,0 23,-4 35,-11l54 -39 0 -96c-23,4 -42,9 -59,15 -22,7 -37,14 -45,20 -9,7 -16,14 -21,22 -7,11 -11,23 -11,34z"/>
    <path class="fil3" d="M1995 3127l93 0c13,0 29,4 46,11 26,12 45,30 55,54 3,7 6,14 7,21 3,12 4,21 4,27l0 10c43,-9 69,-14 76,-16 16,-6 27,-15 32,-25 3,-6 4,-11 4,-15l0 -2 1 0c3,8 5,16 5,23 0,19 -11,36 -32,50 -6,5 -13,8 -21,11 -6,1 -14,3 -25,5 -14,2 -27,5 -40,7l0 125c0,12 2,23 6,35 2,5 5,10 10,14 6,5 11,7 18,7l18 0 0 1 0 20 0 1 -63 0c-24,0 -41,-14 -51,-40 -2,-4 -3,-10 -5,-19l-1 -4c-40,40 -81,60 -123,60 -16,0 -31,-3 -47,-8 -5,-3 -10,-6 -16,-10 -20,-17 -31,-36 -31,-59l0 -2c0,-16 6,-34 17,-52 9,-14 23,-27 40,-39 11,-7 22,-14 35,-20 15,-7 34,-14 55,-21 17,-5 30,-7 37,-7 9,-1 20,-3 31,-5l0 -28c0,-13 -3,-27 -8,-43 -2,-5 -5,-10 -9,-15 -5,-7 -11,-11 -20,-14 -1,-1 -8,-1 -21,-2l-77 -2 0 0 0 -33 0 -1zm0 263l0 1c0,13 4,26 12,38 9,10 20,16 35,16 11,0 23,-4 35,-11l53 -39 0 -96c-22,4 -42,9 -59,15 -21,7 -36,14 -45,20 -8,7 -15,14 -21,22 -7,11 -10,23 -10,34z"/>
    <path class="fil3" d="M3125 3129l8 0c36,0 67,13 93,39 26,29 39,62 39,99l0 130c0,37 7,59 21,66 0,2 6,4 16,5l42 0 1 2 0 19 -1 1 -98 0c-27,0 -45,-20 -53,-59 -1,-5 -2,-10 -2,-15l0 -140c0,-46 -16,-76 -49,-90 -14,-5 -28,-7 -43,-7 -27,1 -54,14 -80,41 -10,12 -15,23 -15,35l0 235 -1 1 -72 0 -1 -1 0 -275c0,-24 -10,-39 -29,-48l-13 -2 -34 0 -1 -1 0 -31 1 -1 90 0c23,0 41,13 53,38l4 12c38,-35 80,-53 124,-53z"/>
    <path class="fil3" d="M2266 3005l100 0c23,0 39,14 49,43 4,12 5,23 5,31l0 58 64 0 1 1 0 32 -1 2 -64 0 0 231c0,22 9,37 28,45 5,2 11,3 19,3l36 0 1 1 0 35 -1 1 -93 0c-19,0 -36,-8 -50,-25 -10,-12 -15,-31 -15,-57l0 -318c0,-29 -10,-47 -31,-53l-13 -1 -35 0 -2 -1 0 -27 2 -1z"/>
    <path class="fil3" d="M1794 3088c0,-14 -3,-26 -9,-37 -8,-8 -22,-11 -42,-9l-14 0 0 -27 65 0c19,-1 35,4 48,15 11,9 16,28 16,58l0 309c0,37 7,59 20,66 0,1 4,3 14,5l36 0 1 1 0 19 -1 1 -86 0c-24,0 -40,-19 -47,-59 -1,-4 -1,-9 -1,-14l0 -328z"/>
    <path class="fil3" d="M1260 3140l113 0 2 1 0 30 -2 2 -106 0c-18,0 -32,6 -42,20 -2,5 -3,10 -3,14l0 1c0,21 18,41 53,60 10,6 30,17 60,32 12,7 25,18 39,33 16,21 24,39 24,54 0,27 -3,43 -9,48 -16,24 -37,40 -63,48 -12,3 -25,4 -38,4l-63 0 -2 -1 0 -18 2 -1 55 0c23,0 42,-10 54,-29 4,-6 5,-12 5,-17l0 -6c0,-17 -10,-33 -32,-48 -33,-14 -66,-33 -99,-56 -30,-27 -46,-53 -46,-79l0 -4c0,-21 10,-42 30,-64 20,-16 43,-24 68,-24z"/>
   </g>
   <g>
    <path class="fil3" d="M2025 2307l164 0c23,0 50,6 81,18 46,21 78,53 98,96 5,13 9,25 11,37 5,20 7,36 7,47l0 18c76,-16 121,-25 135,-29 28,-10 47,-25 56,-44 5,-10 7,-19 7,-27l0 -2 1 0c5,14 8,27 8,40 0,34 -18,64 -55,89 -11,7 -23,13 -37,18 -11,3 -25,6 -44,9 -25,4 -49,9 -71,13l0 220c0,21 4,41 11,61 4,9 9,17 17,25 10,9 21,13 31,13l32 0 1 0 0 37 -1 1 -110 0c-43,0 -73,-24 -90,-70 -3,-7 -6,-18 -9,-33l-2 -9c-70,72 -143,107 -217,107 -27,0 -54,-5 -82,-15 -9,-5 -18,-11 -28,-18 -36,-29 -54,-63 -54,-103l0 -3c0,-29 10,-60 29,-92 17,-25 40,-47 70,-68 19,-13 40,-25 62,-35 27,-13 59,-26 97,-37 30,-9 52,-13 66,-13 16,-2 34,-5 55,-9l0 -50c0,-21 -6,-47 -16,-75 -3,-8 -9,-17 -15,-27 -9,-11 -20,-19 -35,-24 -3,-1 -15,-2 -36,-3l-137 -4 0 -1 0 -58 0 0zm0 463l0 0c0,24 7,46 22,68 15,18 35,27 60,27 20,0 41,-6 63,-18l94 -70 0 -169c-40,8 -74,17 -105,27 -38,13 -64,25 -79,36 -15,12 -27,25 -36,39 -13,19 -19,39 -19,60z"/>
    <path class="fil3" d="M4833 2307l163 0c23,0 51,6 82,18 46,21 78,53 97,96 5,13 9,25 12,37 4,20 6,36 6,47l1 18c76,-16 120,-25 134,-29 28,-10 47,-25 56,-44 5,-10 7,-19 7,-27l0 -2 1 0c6,14 9,27 9,40 0,34 -19,64 -56,89 -11,7 -23,13 -37,18 -10,3 -25,6 -44,9 -25,4 -48,9 -70,13l0 220c0,21 3,41 10,61 4,9 10,17 17,25 10,9 21,13 31,13l32 0 1 0 0 37 -1 1 -110 0c-43,0 -72,-24 -89,-70 -3,-7 -7,-18 -10,-33l-1 -9c-71,72 -144,107 -218,107 -27,0 -54,-5 -81,-15 -10,-5 -19,-11 -29,-18 -36,-29 -54,-63 -54,-103l0 -3c0,-29 10,-60 30,-92 16,-25 39,-47 69,-68 19,-13 40,-25 63,-35 26,-13 59,-26 97,-37 29,-9 51,-13 65,-13 16,-2 34,-5 55,-9l0 -50c0,-21 -5,-47 -16,-75 -3,-8 -8,-17 -15,-27 -8,-11 -20,-19 -35,-24 -3,-1 -15,-2 -36,-3l-136 -4 -1 -1 0 -58 1 0zm-1 463l0 0c0,24 7,46 22,68 15,18 35,27 60,27 20,0 41,-6 63,-18l94 -70 0 -169c-39,8 -74,17 -104,27 -39,13 -65,25 -79,36 -16,12 -28,25 -37,39 -13,19 -19,39 -19,60z"/>
    <path class="fil3" d="M1269 2942l-136 0 -3 -2 0 -31 3 -2 21 0c6,0 15,-2 25,-5 58,-29 88,-86 88,-173l2 2 0 -480c0,-44 -6,-75 -18,-93 -15,-24 -43,-35 -84,-35l-29 0 0 -26 131 0c53,0 87,10 105,29 18,20 27,62 27,125l0 116c58,-26 119,-39 183,-39 91,0 162,31 211,93 45,55 68,130 68,222 0,91 -23,165 -67,222 -47,61 -113,92 -198,92 -88,0 -154,-24 -197,-71l-7 0 -6 15c-10,10 -18,19 -24,25l-26 8 -69 10 0 -2zm132 -114c39,52 90,78 154,78 55,0 98,-26 128,-77 27,-46 40,-108 40,-186 0,-176 -61,-264 -183,-264 -34,0 -81,13 -139,39l0 410z"/>
    <path class="fil3" d="M3993 2092l139 0c53,0 84,37 92,111l0 243c0,19 0,62 0,130 65,-31 107,-46 125,-46l23 -5 7 0c55,0 87,-21 99,-61 9,-46 18,-81 27,-104 14,-36 50,-55 106,-58 -27,20 -45,46 -55,78 -4,71 -14,123 -32,156l-28 30c55,31 83,73 83,124l0 131c0,56 10,87 31,93l20 4 49 0 4 4 0 15 -4 4 -125 0c-47,-5 -71,-34 -71,-85l0 -157c0,-48 -26,-79 -77,-95l-42 -4c-74,6 -120,28 -138,67l-2 11 0 145c0,63 -25,103 -75,118l-26 3 -134 0 0 -5 0 -43 0 -4 60 0c34,0 53,-23 58,-69l0 -609c0,-49 -23,-73 -71,-73l-43 0 -4 -4 0 -41 4 -4z"/>
    <path class="fil3" d="M3640 2270c125,-28 188,-62 188,-104l4 0 2 25c0,56 -21,96 -63,118l19 5 0 7c67,33 100,85 100,155 0,141 -90,211 -268,211 -99,0 -149,16 -149,49 0,33 50,50 149,50 91,0 164,17 218,51 61,38 91,94 91,167 0,145 -103,218 -309,218 -207,0 -311,-73 -311,-218 0,-88 52,-149 155,-183 -37,-19 -56,-47 -56,-85 0,-29 16,-55 49,-77 -70,-35 -105,-96 -105,-183 0,-140 89,-211 268,-211l18 5zm-81 565c-80,32 -121,88 -121,169 0,107 62,161 184,161 122,0 183,-54 183,-161 0,-94 -56,-148 -170,-162l-76 -7zm162 -482c-24,-26 -57,-39 -99,-39 -94,0 -141,54 -141,162 0,108 47,162 141,162 94,0 140,-54 140,-162 0,-54 -13,-95 -41,-123z"/>
    <path class="fil3" d="M2961 2309l13 0c63,0 118,23 164,70 45,50 68,108 68,173l0 230c0,66 13,104 38,116 0,3 9,6 28,9l73 0 2 2 0 34 -2 2 -173 0c-47,0 -78,-35 -93,-104 -1,-8 -2,-16 -2,-25l0 -247c0,-82 -30,-135 -88,-159 -24,-8 -48,-13 -75,-13 -47,2 -95,26 -141,72 -18,21 -26,42 -26,63l0 413 -2 2 -126 0 -3 -2 0 -485c0,-41 -16,-68 -50,-83l-24 -3 -59 0 -2 -2 0 -55 2 -2 158 0c41,0 72,22 93,66l7 22c68,-61 142,-93 220,-94z"/>
   </g>
  </g>
 </g>
</svg>
