<?xml version="1.0" encoding="UTF-8"?>
<!DOCTYPE svg PUBLIC "-//W3C//DTD SVG 1.1//EN" "http://www.w3.org/Graphics/SVG/1.1/DTD/svg11.dtd">
<!-- Creator: CorelDRAW X8 -->
<svg xmlns="http://www.w3.org/2000/svg" xml:space="preserve" width="69.4528mm" height="48.8154mm" version="1.1" style="shape-rendering:geometricPrecision; text-rendering:geometricPrecision; image-rendering:optimizeQuality; fill-rule:evenodd; clip-rule:evenodd"
viewBox="0 0 11906 8368"
 xmlns:xlink="http://www.w3.org/1999/xlink">
 <defs>
  <style type="text/css">
   <![CDATA[
    .str0 {stroke:#FEFEFE;stroke-width:22.6282}
    .fil4 {fill:none}
    .fil2 {fill:#FEFEFE}
    .fil3 {fill:#16B0E8}
    .fil1 {fill:#FEFEFE;fill-rule:nonzero}
    .fil0 {fill:url(#id1)}
   ]]>
  </style>
   <clipPath id="id0">
    <path d="M11 11l11884 0 0 8346 -11884 0 0 -8346z"/>
   </clipPath>
  <radialGradient id="id1" gradientUnits="objectBoundingBox" cx="50%" cy="50%" r="50%" fx="50%" fy="50%">
   <stop offset="0" style="stop-opacity:1; stop-color:#1AB3EB"/>
   <stop offset="1" style="stop-opacity:1; stop-color:#009DD6"/>
  </radialGradient>
 </defs>
 <g id="Layer_x0020_1">
  <metadata id="CorelCorpID_0Corel-Layer"/>
  <polygon class="fil0" points="11,11 11895,11 11895,8357 11,8357 "/>
  <g style="clip-path:url(#id0)">
   <g id="_582224104">
    <g>
     <path id="1" class="fil1" d="M8087 5178c-45,-182 46,-363 46,-544 0,-137 -46,-182 -182,-137 -90,182 -136,409 -227,590 -181,363 -317,45 -226,-227 45,-136 136,-453 226,-589 46,-46 182,0 182,90 227,-181 408,-90 499,91 45,91 0,182 -46,318 -45,181 -45,408 91,589 91,91 -317,91 -363,-181l0 0 0 0 0 0z"/>
     <path class="fil1" d="M6863 4588c0,136 -46,227 -46,363 0,45 -45,363 46,136 90,-181 181,-363 272,-544 91,-363 317,-227 272,-91 0,227 -181,454 -91,681 46,90 91,181 227,181 45,-45 -45,45 -136,91 -181,45 -272,-136 -272,-272 -136,226 -408,544 -544,90 -46,-181 45,-453 90,-635 136,-317 272,-227 182,0l0 0 0 0 0 0z"/>
     <path class="fil1" d="M5094 4860c0,-181 45,-317 0,-453 0,-91 -136,-136 -182,-46 -90,227 -90,590 -272,772 -45,90 -181,90 -181,90 -91,-45 0,-272 0,-317 45,-182 136,-408 181,-771 46,-182 182,-136 227,45l91 -45c45,-91 136,-91 226,-46 273,46 182,590 318,998 0,136 91,91 181,136 46,0 -45,91 -181,136 -318,136 -408,-272 -408,-499l0 0 0 0 0 0 0 0 0 0z"/>
     <path class="fil1" d="M3552 2048c-227,408 -545,1043 -681,1270 817,-45 1089,499 590,1180 -318,408 -816,544 -1179,861 -91,454 -363,408 -318,-45l0 -590 136 -589c-136,-182 -90,-363 91,-499 136,-545 317,-1134 590,-1633 589,-1134 1315,-998 771,45l0 0 0 0 0 0 0 0zm-907 1860c-91,227 -273,907 -318,1225l363 -273c227,-181 771,-544 680,-907 -45,-317 -544,-227 -725,-45l0 0 0 0 0 0z"/>
     <path class="fil1" d="M5819 2955c46,318 182,817 273,1134 -545,-136 -771,318 -499,817 136,317 408,453 680,544 0,317 227,317 227,0 0,-227 45,-499 0,-771 136,-91 91,-227 0,-318 -91,-453 -182,-1043 -408,-1406 -136,-181 -318,-317 -273,0l0 0 0 0 0 0zm91 1724c-91,91 -181,227 -136,317 45,0 91,0 136,0 46,0 46,0 91,46 0,0 91,45 91,45 136,-91 181,-272 90,-363 0,0 0,0 0,0 136,46 454,-136 272,-272 0,-45 -45,-45 -45,-91 0,-90 -91,-136 -181,-90 -46,45 -136,90 -136,181 -91,-272 -273,-272 -363,-136 0,45 0,91 -46,91 -136,136 -45,272 227,272l0 0 0 0 0 0 0 0 0 0zm182 -181c-46,0 -46,0 -46,45 0,0 0,0 46,0 0,0 0,0 0,0 0,-45 0,-45 0,-45l0 0zm-136 136c0,0 0,45 0,45 0,0 0,0 0,0 45,0 45,0 45,0 0,0 0,-45 -45,-45zm0 -46c-46,0 -46,46 -46,46 0,0 0,0 46,0 0,0 0,0 0,0 0,0 0,-46 0,-46l0 0zm-46 -45c0,0 0,0 0,45 0,0 0,0 46,0 0,0 0,0 0,-45 0,0 0,0 -46,0l0 0zm46 -45c0,0 0,0 0,0 0,45 0,45 0,45 45,0 45,0 45,-45 0,0 -45,0 -45,0l0 0zm45 0c0,0 0,0 0,0 0,0 0,45 45,45 0,0 0,-45 0,-45 0,0 0,0 -45,0l0 0zm45 226c-45,0 0,-90 0,-90 0,0 -45,0 -45,0 -91,-46 45,-137 91,-46 0,0 0,0 0,46 0,-46 90,-91 90,-46 0,0 -90,46 -90,46 0,45 0,45 -46,0 0,0 0,90 0,90l0 0 0 0z"/>
     <path class="fil1" d="M4504 5450c272,272 499,544 771,771 318,272 817,499 1225,499 998,0 2132,-771 2404,-1361 -363,0 -499,-181 -408,-453 90,-363 453,-499 725,-681 46,-272 227,-181 182,46 0,181 -91,453 -136,635 0,45 90,-136 181,-182 181,-90 272,91 91,227 -91,45 -318,181 -363,318 -1043,1768 -3765,2993 -4581,408 -46,-91 -136,-91 -227,-46 -91,46 -136,91 -181,136 -46,46 -91,46 -91,0 45,-181 317,-408 408,-317l0 0 0 0 0 0 0 0 0 0zm4581 -454c91,-136 91,-408 136,-589 -136,91 -862,544 -499,725 136,46 318,0 363,-136l0 0 0 0 0 0z"/>
     <path class="fil1" d="M4232 4271c181,-136 136,272 91,363 -91,136 -136,272 -136,408 0,181 226,227 226,227 0,226 -453,272 -498,-46 0,-90 0,-227 45,-453l0 0c-91,136 -272,363 -454,363 -136,0 -226,-46 -181,-273 0,-90 91,-226 136,-317 227,-227 771,-454 771,-272 -136,0 -454,272 -590,408 -136,136 0,227 136,45 91,-90 273,-317 454,-453l0 0 0 0 0 0 0 0 0 0z"/>
     <circle class="fil2" cx="9811" cy="4724" r="136"/>
     <path class="fil3" d="M5910 4679c-91,91 -181,227 -136,317 45,0 91,0 136,0 46,0 46,0 91,46 0,0 91,45 91,45 136,-91 181,-272 90,-363 0,0 0,0 0,0 136,46 454,-136 272,-272 0,-45 -45,-45 -45,-91 0,-90 -91,-136 -181,-90 -46,45 -136,90 -136,181 -91,-272 -273,-272 -363,-136 0,45 0,91 -46,91 -136,136 -45,272 227,272l0 0 0 0 0 0 0 0 0 0zm182 -181c-46,0 -46,0 -46,45 0,0 0,0 46,0 0,0 0,0 0,0 0,-45 0,-45 0,-45l0 0zm-136 136c0,0 0,45 0,45 0,0 0,0 0,0 45,0 45,0 45,0 0,0 0,-45 -45,-45zm0 -46c-46,0 -46,46 -46,46 0,0 0,0 46,0 0,0 0,0 0,0 0,0 0,-46 0,-46l0 0zm-46 -45c0,0 0,0 0,45 0,0 0,0 46,0 0,0 0,0 0,-45 0,0 0,0 -46,0l0 0zm46 -45c0,0 0,0 0,0 0,45 0,45 0,45 45,0 45,0 45,-45 0,0 -45,0 -45,0l0 0zm45 0c0,0 0,0 0,0 0,0 0,45 45,45 0,0 0,-45 0,-45 0,0 0,0 -45,0l0 0zm45 226c-45,0 0,-90 0,-90 0,0 -45,0 -45,0 -91,-46 45,-137 91,-46 0,0 0,0 0,46 0,-46 90,-91 90,-46 0,0 -90,46 -90,46 0,45 0,45 -46,0 0,0 0,90 0,90l0 0 0 0z"/>
     <path class="fil3" d="M6228 4724c0,46 0,91 45,136 45,91 91,227 45,363 -45,227 136,182 91,46 0,-91 0,-227 -45,-318 -46,-91 -91,-181 -136,-227l0 0 0 0 0 0 0 0z"/>
    </g>
   </g>
  </g>
  <polygon class="fil4 str0" points="11,11 11895,11 11895,8357 11,8357 "/>
 </g>
</svg>
