<?xml version="1.0" encoding="UTF-8"?>
<!DOCTYPE svg PUBLIC "-//W3C//DTD SVG 1.1//EN" "http://www.w3.org/Graphics/SVG/1.1/DTD/svg11.dtd">
<!-- Creator: CorelDRAW X8 -->
<svg xmlns="http://www.w3.org/2000/svg" xml:space="preserve" width="69.3243mm" height="48.6857mm" version="1.1" style="shape-rendering:geometricPrecision; text-rendering:geometricPrecision; image-rendering:optimizeQuality; fill-rule:evenodd; clip-rule:evenodd"
viewBox="0 0 37215 26136"
 xmlns:xlink="http://www.w3.org/1999/xlink">
 <defs>
  <style type="text/css">
   <![CDATA[
    .fil1 {fill:#FEFEFE}
    .fil0 {fill:#38CCB2}
   ]]>
  </style>
 </defs>
 <g id="Layer_x0020_1">
  <metadata id="CorelCorpID_0Corel-Layer"/>
  <polygon class="fil0" points="0,0 37215,0 37215,26136 0,26136 "/>
  <g id="_282930544">
   <path class="fil1" d="M13093 12888c795,0 1503,369 1962,946 491,630 837,2259 -402,2203l-2580 0c600,1163 2443,-13 2659,1055 104,508 -760,847 -1639,811 -1383,-57 -2507,-1123 -2507,-2508 0,-1385 1122,-2507 2507,-2507zm-128 1247c404,0 733,266 747,598l-1493 0c14,-332 343,-598 746,-598z"/>
   <path class="fil1" d="M16402 11296l0 0c393,0 715,322 715,715l0 2451 126 112 1680 -1598c233,-221 604,-212 825,21l0 0c222,233 212,604 -20,826l-1608 1528 1730 1534c241,214 263,584 50,825l0 0c-213,240 -584,262 -824,49l-1805 -1600 -154 146 0 867c0,393 -322,714 -715,714l0 0c-393,0 -714,-321 -714,-714l0 -805c-4,-40 -4,-81 0,-121l0 -4235c0,-393 321,-715 714,-715z"/>
   <path class="fil1" d="M22555 12803c1401,0 2536,1136 2536,2537 0,84 -4,168 -12,251 1,13 1,26 1,39l0 1749c0,290 -237,527 -526,527l0 0c-281,0 -513,-223 -526,-501 -416,297 -924,471 -1473,471 -1401,0 -2537,-1135 -2537,-2536 0,-1401 1136,-2537 2537,-2537zm0 1407c632,0 1144,512 1144,1144 0,632 -512,1145 -1144,1145 -632,0 -1145,-513 -1145,-1145 0,-632 513,-1144 1145,-1144z"/>
   <path class="fil1" d="M7938 12867c1358,0 2459,1128 2459,2519 0,1392 -1101,2520 -2459,2520 -1358,0 -2459,-1128 -2459,-2520 0,-296 4,-577 4,-871l0 -2158c0,-397 325,-721 721,-721l1 0c396,0 721,324 721,721l0 733c309,-143 651,-223 1012,-223zm-10 1529c640,0 1159,519 1159,1159 0,640 -519,1159 -1159,1159 -640,0 -1159,-519 -1159,-1159 0,-640 519,-1159 1159,-1159z"/>
   <path class="fil1" d="M28788 13080l-2099 0c-50,0 -98,6 -144,17 -1609,253 -1853,2642 144,3088l1312 0c456,-5 524,467 0,467l-1837 0c-345,0 -627,282 -627,627l0 0c0,345 282,627 627,627l1837 0 262 0 244 0c1734,-285 1246,-3078 0,-3032l-1636 0c-485,-33 -471,-525 -43,-540l43 0 1917 0c345,0 627,-282 627,-627l0 0c0,-345 -282,-627 -627,-627z"/>
   <path class="fil1" d="M30805 15518c1637,-4242 953,-6271 -793,-7288l0 8983c94,797 1023,811 1339,517 255,-237 201,-1002 -546,-884l0 -1328zm9 -6274c674,778 896,1687 565,2756 -119,131 145,-756 -114,-1641 -211,-723 -541,-1155 -451,-1115z"/>
  </g>
 </g>
</svg>
