<?xml version="1.0" encoding="UTF-8"?>
<!DOCTYPE svg PUBLIC "-//W3C//DTD SVG 1.1//EN" "http://www.w3.org/Graphics/SVG/1.1/DTD/svg11.dtd">
<!-- Creator: CorelDRAW X7 -->
<svg xmlns="http://www.w3.org/2000/svg" xml:space="preserve" width="69.4332mm" height="48.7902mm" version="1.1" style="shape-rendering:geometricPrecision; text-rendering:geometricPrecision; image-rendering:optimizeQuality; fill-rule:evenodd; clip-rule:evenodd"
viewBox="0 0 1654 1162"
 xmlns:xlink="http://www.w3.org/1999/xlink">
 <defs>
  <style type="text/css">
   <![CDATA[
    .str0 {stroke:#FEFEFE;stroke-width:3.14502}
    .str1 {stroke:#009B4C;stroke-width:4.76518}
    .fil4 {fill:none}
    .fil2 {fill:#FEFEFE}
    .fil3 {fill:#FEFEFE;fill-rule:nonzero}
    .fil1 {fill:url(#id0)}
    .fil0 {fill:url(#id1)}
   ]]>
  </style>
  <radialGradient id="id0" gradientUnits="userSpaceOnUse" gradientTransform="matrix(0.721501 -0 -0 0.721501 230 159)" cx="827.154" cy="569.641" r="16.5113" fx="827.154" fy="569.641">
   <stop offset="0" style="stop-opacity:1; stop-color:#22B368"/>
   <stop offset="1" style="stop-opacity:1; stop-color:#009B4C"/>
  </radialGradient>
  <radialGradient id="id1" gradientUnits="userSpaceOnUse" gradientTransform="matrix(0.000832661 -0 -0 0.000832661 612 419)" cx="612.502" cy="418.931" r="16.5113" fx="612.502" fy="418.931">
   <stop offset="0" style="stop-opacity:1; stop-color:#1AB3EB"/>
   <stop offset="1" style="stop-opacity:1; stop-color:#009DD6"/>
  </radialGradient>
 </defs>
 <g id="Layer_x0020_1">
  <metadata id="CorelCorpID_0Corel-Layer"/>
  <polygon class="fil0" points="2,2 1653,2 1653,1161 2,1161 "/>
  <polygon class="fil1 str0" points="2,2 1653,2 1653,1161 2,1161 "/>
  <path class="fil2" d="M832 808l53 81 -16 17 -56 -83 -87 77 0 0 0 0 0 0 0 0 -90 -72 -9 4 -15 16 24 21 -8 11 -24 -19 -31 43 -20 5 -2 -14 35 -47 -15 -18 4 -11 11 -2 11 15 17 -21 -6 -3 0 -385c-2,2 -2,6 -2,8 -39,-10 -53,-45 -59,-91 33,17 55,37 61,63l0 -46 118 -102 0 0 0 0 0 0 0 0 119 90 0 141 0 -50 42 -79 35 0 -77 140 0 300 -13 11 0 0z"/>
  <g id="_2994051610240">
   <path class="fil3" d="M202 654c-1,0 -1,-1 -2,-1 -1,-1 -1,-1 -1,-2 0,-1 0,-1 1,-2 0,-1 1,-1 2,-1 1,0 1,0 2,1 0,0 1,1 1,2 0,1 -1,1 -1,2 -1,0 -1,1 -2,1zm-7 0c-1,0 -2,0 -3,-1 0,0 -1,-1 -1,-2 0,-1 1,-2 1,-3 1,0 2,-1 3,-1 1,0 2,1 2,1 1,1 1,2 1,3 0,1 0,2 -1,2 0,1 -1,1 -2,1zm0 -7c-1,0 -2,-1 -2,-1 -1,-1 -1,-1 -1,-2 0,-1 0,-2 1,-2 0,-1 1,-1 2,-1 0,0 1,0 2,1 0,0 0,1 0,2 0,1 0,1 0,2 -1,0 -1,1 -2,1zm-53 7c-2,0 -4,0 -5,-2 -2,-1 -2,-3 -2,-5 0,-2 0,-3 2,-5 1,-1 3,-2 5,-2 2,0 3,1 5,2 1,2 2,3 2,5 0,2 -1,4 -2,5 -2,2 -3,2 -5,2zm7 0c0,-2 0,-5 2,-7 -2,-2 -2,-4 -2,-7 2,0 5,1 7,2 2,-1 4,-2 7,-2 0,3 -1,5 -2,7 1,2 2,5 2,7l0 0c-3,0 -5,0 -7,-2 -2,2 -5,2 -7,2zm28 0c-4,0 -7,-1 -10,-4 -3,-3 -4,-6 -4,-10 4,0 7,2 10,4 3,3 4,6 4,10l0 0zm0 0c0,-4 1,-7 4,-10 3,-2 6,-4 10,-4 0,4 -1,7 -4,10 -3,3 -6,4 -10,4zm25 -7c-1,0 -2,0 -3,-1 0,0 -1,-1 -1,-2 0,-1 1,-2 1,-3 1,-1 2,-1 3,-1 1,0 2,0 2,1 1,1 1,2 1,3 0,1 0,2 -1,2 0,1 -1,1 -2,1zm17 7c-3,0 -7,-1 -10,-4 -2,-3 -4,-6 -4,-10 4,0 8,2 10,4 3,3 5,6 5,10l-1 0zm1 0c0,-4 1,-7 4,-10 2,-2 6,-4 10,-4 0,4 -2,7 -4,10 -3,3 -7,4 -10,4zm-22 -19c0,0 0,-1 -1,-1 0,0 0,-1 0,-1 0,0 0,-1 0,-1 1,0 1,0 1,0 1,0 1,0 1,0 1,0 1,1 1,1 0,0 0,1 -1,1 0,0 0,1 -1,1zm0 2c1,0 2,0 3,-1 1,-1 2,-2 2,-3 0,-1 -1,-2 -2,-3 -1,-1 -2,-1 -3,-1 -1,0 -2,0 -3,1 -1,1 -1,2 -1,3 0,1 0,2 1,3 1,1 2,1 3,1zm-49 3l7 -14 7 14 -14 0zm14 0c0,-4 1,-7 4,-10 3,-3 6,-4 10,-4 0,4 -1,7 -4,10 -3,3 -6,4 -10,4zm28 0c-4,0 -7,-1 -10,-4 -3,-3 -4,-6 -4,-10 4,0 7,1 10,4 3,3 4,6 4,10zm7 0c-2,0 -3,-1 -5,-2 -1,-1 -2,-3 -2,-5 0,-2 1,-3 2,-5 2,-1 3,-2 5,-2 2,0 4,1 5,2 2,2 2,3 2,5 0,2 0,4 -2,5 -1,1 -3,2 -5,2zm7 0c0,-4 2,-7 4,-10 3,-3 7,-4 11,-4 0,4 -2,7 -5,10 -2,3 -6,4 -10,4zm29 0c-4,0 -8,-1 -10,-4 -3,-3 -4,-6 -4,-10 3,0 7,1 10,4 2,3 4,6 4,10zm0 0c0,-4 1,-7 4,-10 3,-3 6,-4 10,-4 0,4 -1,7 -4,10 -3,3 -6,4 -10,4zm-85 -14c0,-4 1,-7 4,-10 3,-3 6,-4 10,-4 0,4 -1,7 -4,10 -3,3 -6,4 -10,4zm71 0c0,-4 1,-7 4,-10 2,-3 6,-4 10,-4 0,4 -2,7 -4,10 -3,3 -7,4 -10,4zm28 0c-4,0 -7,-1 -10,-4 -3,-3 -4,-6 -4,-10 4,0 7,1 10,4 3,3 4,6 4,10zm-43 -7c2,0 4,-1 5,-2 2,-1 3,-3 3,-5 0,-2 -1,-4 -3,-5 -1,-2 -3,-2 -5,-2l-28 0c-2,0 -4,0 -5,2 -1,1 -2,3 -2,5 0,2 1,4 2,5 1,1 3,2 5,2l28 0zm15 -7c0,-2 0,-4 2,-5 1,-2 3,-2 5,-2 0,2 -1,3 -3,5 -1,1 -2,2 -4,2zm14 0c-2,0 -4,-1 -5,-2 -2,-2 -2,-3 -2,-5 2,0 3,0 5,2 1,1 2,3 2,5zm-71 0c-4,0 -7,-2 -10,-4 -3,-3 -4,-6 -4,-10 4,0 7,1 10,4 3,3 4,6 4,10zm64 -7c-2,0 -4,-1 -5,-2 -2,-2 -2,-3 -2,-5 2,0 3,0 4,2 2,1 3,3 3,5zm0 0c0,-2 0,-4 2,-5 1,-2 3,-2 5,-2 0,2 -1,3 -2,5 -2,1 -3,2 -5,2zm7 7l0 -14 7 14 -7 0zm-71 -14c0,-2 1,-4 2,-5 1,-2 3,-2 5,-2 0,2 -1,3 -2,5 -1,1 -3,2 -5,2zm14 0c-2,0 -4,-1 -5,-2 -1,-2 -2,-3 -2,-5 2,0 4,0 5,2 1,1 2,3 2,5zm-28 0c0,-3 0,-5 2,-7 -2,-2 -2,-5 -2,-7 2,0 5,0 7,2 2,-2 4,-2 7,-2 0,2 -1,5 -2,7 1,2 2,4 2,7 -3,0 -5,-1 -7,-2 -2,1 -5,2 -7,2zm21 -7c-2,0 -4,-1 -5,-2 -1,-2 -2,-3 -2,-5 2,0 4,0 5,2 1,1 2,3 2,5zm0 0c0,-2 1,-4 2,-5 1,-2 3,-2 5,-2 0,2 -1,3 -2,5 -1,1 -3,2 -5,2zm7 7c0,-4 1,-7 4,-10 3,-3 6,-4 10,-4 0,3 -1,7 -4,10 -3,2 -6,4 -10,4zm28 0c0,-3 1,-5 2,-7 -1,-2 -2,-5 -2,-7 3,0 5,0 8,2 2,-2 4,-2 7,-2 0,2 -1,5 -2,7 1,2 2,4 2,7 -3,0 -5,-1 -7,-2 -3,1 -5,2 -8,2zm15 0l0 -14c0,3 1,7 4,10 2,2 6,4 10,4l-14 0zm-57 -14c0,-2 1,-4 2,-5 1,-2 3,-3 5,-3 0,2 -1,4 -2,6 -1,1 -3,2 -5,2zm14 0c-2,0 -4,-1 -5,-2 -1,-2 -2,-4 -2,-6 2,0 4,1 5,3 1,1 2,3 2,5zm-28 0c0,-3 0,-5 2,-8 -2,-2 -2,-4 -2,-7 2,0 5,1 7,2 2,-1 4,-2 7,-2 0,3 -1,5 -2,7 1,3 2,5 2,8 -3,0 -5,-1 -7,-2 -2,1 -5,2 -7,2zm21 -8c-2,0 -4,0 -5,-2 -1,-1 -2,-3 -2,-5 2,0 4,1 5,3 1,1 2,3 2,4zm0 0c0,-1 1,-3 2,-4 1,-2 3,-3 5,-3 0,2 -1,4 -2,5 -1,2 -3,2 -5,2zm21 8c-4,0 -7,-2 -10,-4 -3,-3 -4,-7 -4,-11 4,0 7,2 10,5 3,2 4,6 4,10zm14 0c0,-3 1,-5 2,-8 -1,-2 -2,-4 -2,-7 3,0 5,1 8,2 2,-1 4,-2 7,-2 0,3 -1,5 -2,7 1,3 2,5 2,8 -3,0 -5,-1 -7,-2 -3,1 -5,2 -8,2zm15 0l0 -15 14 0c-4,0 -8,2 -10,5 -3,2 -4,6 -4,10zm0 -15c0,-2 0,-3 2,-5 1,-1 3,-2 5,-2 0,2 -1,4 -3,5 -1,2 -2,2 -4,2zm14 0c-2,0 -4,0 -5,-2 -2,-1 -2,-3 -2,-5 2,0 3,1 5,2 1,2 2,3 2,5zm-85 0c0,-3 1,-7 4,-10 3,-2 6,-4 10,-4 0,4 -1,8 -4,10 -3,3 -6,4 -10,4zm78 -7c-2,0 -4,0 -5,-2 -2,-1 -2,-3 -2,-5 2,0 3,1 4,2 2,2 3,3 3,5zm0 0c0,-2 0,-3 2,-5 1,-1 3,-2 5,-2 0,2 -1,4 -2,5 -2,2 -3,2 -5,2zm7 7l0 -14 7 0 -7 14zm-29 -7c2,0 4,0 5,-2 2,-1 3,-3 3,-5 0,-2 -1,-3 -3,-5 -1,-1 -3,-2 -5,-2l-28 0c-2,0 -4,1 -5,2 -1,2 -2,3 -2,5 0,2 1,4 2,5 1,2 3,2 5,2l28 0zm-42 -7c-4,0 -7,-1 -10,-4 -3,-3 -4,-6 -4,-10 4,0 7,1 10,4 3,3 4,6 4,10zm14 71c-4,0 -7,-1 -10,-4 -3,-3 -4,-6 -4,-10 0,-4 1,-7 4,-10 3,-3 6,-4 10,-4l14 0 4 -7 -4 -7 4 -8 -4 -7 -14 0c-4,0 -7,-1 -10,-4 -3,-2 -4,-6 -4,-10 0,-4 1,-7 4,-10 3,-3 6,-4 10,-4l28 0c4,0 8,1 10,4 3,3 5,6 5,10 0,4 -2,8 -5,10 -2,3 -6,4 -10,4l-3 7 3 8 -3 7 3 7c4,0 8,1 10,4 3,3 5,6 5,10 0,4 -2,7 -5,10 -2,3 -6,4 -10,4l-28 0zm57 -71c-4,0 -8,-1 -10,-4 -3,-3 -4,-6 -4,-10 3,0 7,1 10,4 2,3 4,6 4,10zm0 0c0,-4 1,-7 4,-10 3,-3 6,-4 10,-4 0,4 -1,7 -4,10 -3,3 -6,4 -10,4zm-36 -19c0,0 0,-1 -1,-1 0,0 0,-1 0,-1 0,0 0,-1 0,-1 1,0 1,0 1,0 1,0 1,0 1,0 1,0 1,1 1,1 0,0 0,1 -1,1 0,0 0,1 -1,1zm0 2c1,0 2,0 3,-1 1,-1 2,-2 2,-3 0,-1 -1,-2 -2,-3 -1,-1 -2,-1 -3,-1 -1,0 -2,0 -3,1 -1,1 -1,2 -1,3 0,1 0,2 1,3 1,1 2,1 3,1zm-63 102l0 -7c2,0 3,-1 5,-2 1,-1 2,-3 2,-5l0 -85c0,-2 -1,-3 -2,-5 -2,-1 -3,-2 -5,-2l0 -7c4,0 7,1 10,4 2,3 4,6 4,10l0 85c0,4 -2,7 -4,10 -3,3 -6,4 -10,4zm21 -99l-7 -14 14 0 -7 14zm21 0c-4,0 -7,-1 -10,-4 -3,-3 -4,-6 -4,-10 4,0 7,1 10,4 3,3 4,6 4,10zm0 0c0,-4 1,-7 4,-10 3,-3 6,-4 10,-4 0,4 -1,7 -4,10 -3,3 -6,4 -10,4zm21 0c-2,0 -3,-1 -5,-2 -1,-1 -2,-3 -2,-5 0,-2 1,-4 2,-5 2,-1 3,-2 5,-2 2,0 4,1 5,2 2,1 2,3 2,5 0,2 0,4 -2,5 -1,1 -3,2 -5,2zm22 0c-4,0 -8,-1 -11,-4 -2,-3 -4,-6 -4,-10 4,0 8,1 10,4 3,3 5,6 5,10zm0 0c0,-4 1,-7 4,-10 2,-3 6,-4 10,-4 0,4 -2,7 -4,10 -3,3 -7,4 -10,4zm28 0c-4,0 -7,-1 -10,-4 -3,-3 -4,-6 -4,-10 4,0 7,1 10,4 3,3 4,6 4,10zm-46 -15c-1,0 -1,0 -2,0 -1,-1 -1,-2 -1,-3 0,0 0,-1 1,-1 0,-1 1,-1 2,-1 1,0 1,0 2,0 0,1 1,2 1,2 0,1 -1,2 -1,3 -1,0 -1,0 -2,0zm-7 1c-1,0 -2,0 -3,-1 0,-1 -1,-2 -1,-3 0,-1 1,-1 1,-2 1,-1 2,-1 3,-1 1,0 2,0 2,1 1,1 1,1 1,2 0,1 0,2 -1,3 0,1 -1,1 -2,1zm0 -8c-1,0 -2,0 -2,-1 -1,0 -1,-1 -1,-2 0,0 0,-1 1,-1 0,-1 1,-1 2,-1 0,0 1,0 2,0 0,1 0,2 0,2 0,1 0,2 0,2 -1,1 -1,1 -2,1zm-53 8c-2,0 -4,-1 -5,-2 -2,-1 -2,-3 -2,-5 0,-2 0,-4 2,-5 1,-1 3,-2 5,-2 2,0 3,1 5,2 1,1 2,3 2,5 0,2 -1,4 -2,5 -2,1 -3,2 -5,2zm7 0c0,-3 0,-5 2,-7 -2,-2 -2,-5 -2,-7 2,0 5,0 7,2 2,-2 4,-2 7,-2 0,2 -1,5 -2,7 1,2 2,4 2,7 -3,0 -5,-1 -7,-2 -2,1 -5,2 -7,2zm14 0c0,-4 1,-7 4,-10 3,-3 6,-4 10,-4 0,4 -1,7 -4,10 -3,3 -6,4 -10,4zm28 0c-4,0 -7,-1 -10,-4 -3,-3 -4,-6 -4,-10 4,0 7,1 10,4 3,3 4,6 4,10zm11 -7c-1,0 -2,0 -3,-1 0,-1 -1,-2 -1,-3 0,-1 1,-1 1,-2 1,-1 2,-1 3,-1 1,0 2,0 2,1 1,1 1,1 1,2 0,1 0,2 -1,3 0,1 -1,1 -2,1zm3 7c0,-4 2,-7 4,-10 3,-3 7,-4 11,-4 0,4 -2,7 -5,10 -2,3 -6,4 -10,4zm29 0c-4,0 -8,-1 -10,-4 -3,-3 -4,-6 -4,-10 3,0 7,1 10,4 2,3 4,6 4,10z"/>
   <path class="fil3" d="M301 654c-1,0 -1,-1 -2,-1 -1,-1 -1,-1 -1,-2 0,-1 0,-1 1,-2 0,-1 1,-1 2,-1 1,0 1,0 2,1 0,0 1,1 1,2 0,1 -1,1 -1,2 -1,0 -1,1 -2,1zm-7 0c-1,0 -2,0 -3,-1 0,0 -1,-1 -1,-2 0,-1 1,-2 1,-3 1,0 2,-1 3,-1 1,0 2,1 2,1 1,1 1,2 1,3 0,1 0,2 -1,2 0,1 -1,1 -2,1zm11 0l0 0c0,0 0,0 0,0l0 0 0 0 0 0c1,0 3,0 4,-2 2,-1 3,-3 3,-5 0,2 0,4 2,5 1,2 3,2 4,2l1 0 0 0 -1 0c0,0 1,0 1,0l0 0 -14 0zm14 0c0,-2 0,-3 2,-5 1,-1 3,-2 5,-2 0,2 -1,4 -2,5 -2,2 -3,2 -5,2zm14 0c-2,0 -4,0 -5,-2 -2,-1 -2,-3 -2,-5 2,0 3,1 5,2 1,2 2,3 2,5l0 0zm-50 -2c1,0 2,-1 3,-2 1,-1 1,-2 1,-3 0,-1 0,-2 -1,-3 -1,-1 -2,-1 -3,-1 -1,0 -2,0 -3,1 -1,1 -1,2 -1,3 0,1 0,2 1,3 1,1 2,2 3,2zm-14 0c1,0 2,-1 3,-2 1,-1 2,-2 2,-3 0,-1 -1,-2 -2,-3 -1,-1 -2,-1 -3,-2 -1,1 -2,1 -3,2 -1,1 -2,2 -2,3 0,1 1,2 2,3 1,1 2,2 3,2l0 0zm25 -5c-1,0 -1,-1 -2,-1 -1,-1 -1,-1 -1,-2 0,-1 0,-2 1,-2 0,-1 1,-1 2,-1 0,0 1,0 2,1 0,0 1,1 1,2 0,1 -1,1 -1,2 -1,0 -1,1 -2,1zm-32 7l0 -14 14 0 0 14 -14 0zm21 0c-2,0 -3,0 -5,-2 -1,-1 -2,-3 -2,-5 0,-2 1,-3 2,-5 2,-1 3,-2 5,-2 2,0 4,1 5,2 2,2 2,3 2,5 0,2 0,4 -2,5 -1,2 -3,2 -5,2zm18 -7c-1,0 -2,0 -3,-1 0,0 -1,-1 -1,-2 0,-1 1,-2 1,-3 1,-1 2,-1 3,-1 1,0 2,0 2,1 1,1 2,2 2,3 0,1 -1,2 -2,2 0,1 -1,1 -2,1zm4 7l0 -14c0,2 0,4 2,5 1,2 3,2 5,2 -2,0 -4,1 -5,2 -2,2 -2,3 -2,5zm14 0c0,-2 -1,-3 -3,-5 -1,-1 -3,-2 -4,-2 1,0 3,0 4,-2 2,-1 3,-3 3,-5l0 14zm7 -7c-2,0 -4,0 -5,-2 -2,-1 -2,-3 -2,-5 2,0 3,1 5,2 1,2 2,3 2,5zm0 0c0,-2 0,-3 2,-5 1,-1 3,-2 5,-2 0,2 -1,4 -2,5 -2,2 -3,2 -5,2zm7 7c0,-4 1,-7 4,-10 3,-2 6,-4 10,-4 0,4 -1,7 -4,10 -3,3 -6,4 -10,4zm28 0c-4,0 -7,-1 -10,-4 -3,-3 -4,-6 -4,-10 4,0 7,2 10,4 3,3 4,6 4,10l0 0zm-49 -7c0,-2 -1,-3 -3,-5 -1,-1 -3,-2 -4,-2 1,0 3,-1 4,-2 2,-1 3,-3 3,-5 0,2 0,4 2,5 1,1 3,2 5,2 -2,0 -4,1 -5,2 -2,2 -2,3 -2,5zm7 -7c0,-2 0,-3 2,-5 1,-1 3,-2 5,-2 0,2 -1,4 -2,5 -2,1 -3,2 -5,2zm14 0c-2,0 -4,-1 -5,-2 -2,-1 -2,-3 -2,-5 2,0 3,1 5,2 1,2 2,3 2,5zm-71 0c0,-2 1,-5 2,-7 -1,-2 -2,-4 -2,-7 3,0 5,1 7,2 2,-1 5,-2 7,-2 0,3 0,5 -2,7 2,2 2,5 2,7 -2,0 -5,0 -7,-2 -2,2 -4,2 -7,2zm21 0c-2,0 -3,-1 -5,-2 -1,-1 -2,-3 -2,-5 0,-2 1,-3 2,-5 2,-1 3,-2 5,-2 2,0 4,1 5,2 2,2 2,3 2,5 0,2 0,4 -2,5 -1,1 -3,2 -5,2zm14 0l-7 -14 15 0 -8 14zm8 0l0 -14c0,2 0,4 2,5 1,1 3,2 5,2 -2,0 -4,1 -5,2 -2,2 -2,3 -2,5zm7 -7c0,-2 -1,-3 -3,-5 -1,-1 -3,-2 -4,-2l14 0c-2,0 -4,1 -5,2 -2,2 -2,3 -2,5zm7 7c0,-2 -1,-3 -3,-5 -1,-1 -3,-2 -4,-2 1,0 3,-1 4,-2 2,-1 3,-3 3,-5l0 14zm7 -7c-2,0 -4,-1 -5,-2 -2,-1 -2,-3 -2,-5 2,0 3,1 5,2 1,2 2,3 2,5zm0 0c0,-2 0,-3 2,-5 1,-1 3,-2 5,-2 0,2 -1,4 -2,5 -2,1 -3,2 -5,2zm21 7c-4,0 -7,-1 -10,-4 -3,-3 -4,-6 -4,-10 4,0 7,1 10,4 3,3 4,6 4,10zm0 0c0,-4 1,-7 4,-10 3,-3 6,-4 10,-4 0,4 -1,7 -4,10 -3,3 -6,4 -10,4zm-85 -14c2,0 4,-1 5,-2 1,-1 2,-3 2,-5 0,2 1,4 2,5 1,1 3,2 5,2l-14 0zm21 -6c0,0 -1,0 -1,0 0,0 0,-1 0,-1 0,0 0,-1 0,-1 0,0 1,0 1,0 1,0 1,0 1,0 0,0 1,1 1,1 0,0 -1,1 -1,1 0,0 0,0 -1,0zm0 3c1,0 2,0 3,-1 1,-1 1,-2 1,-3 0,-1 0,-2 -1,-3 -1,-1 -2,-1 -3,-1 -1,0 -2,0 -3,1 -1,1 -1,2 -1,3 0,1 0,2 1,3 1,1 2,1 3,1zm-21 3l0 -14c0,2 1,4 2,5 1,1 3,2 5,2 -2,0 -4,1 -5,2 -1,1 -2,3 -2,5zm7 -7c0,-2 -1,-4 -2,-5 -1,-1 -3,-2 -5,-2l14 0c-2,0 -4,1 -5,2 -1,1 -2,3 -2,5zm7 7c0,-2 -1,-4 -2,-5 -1,-1 -3,-2 -5,-2 2,0 4,-1 5,-2 1,-1 2,-3 2,-5l0 14zm7 0c-2,0 -3,-1 -5,-2 -1,-1 -2,-3 -2,-5 0,-2 1,-4 2,-5 2,-1 3,-2 5,-2 2,0 4,1 5,2 2,1 2,3 2,5 0,2 0,4 -2,5 -1,1 -3,2 -5,2zm7 0c0,-3 1,-5 2,-7 -1,-2 -2,-5 -2,-7 3,0 5,0 7,2 2,-2 5,-2 8,-2 0,2 -1,5 -2,7 1,2 2,4 2,7 -3,0 -6,-1 -8,-2 -2,1 -4,2 -7,2zm-14 -14c0,-2 1,-4 2,-5 2,-2 3,-2 5,-2 0,2 0,3 -2,5 -1,1 -3,2 -5,2zm14 0c-2,0 -3,-1 -5,-2 -1,-2 -2,-3 -2,-5 2,0 4,0 5,2 2,1 2,3 2,5zm-14 0c-4,0 -7,-2 -10,-4 -3,-3 -4,-6 -4,-10 4,0 7,1 10,4 3,3 4,6 4,10zm7 -7c-2,0 -3,-1 -5,-2 -1,-2 -2,-3 -2,-5 2,0 4,0 5,2 2,1 2,3 2,5zm0 0c0,-2 1,-4 2,-5 2,-2 3,-2 5,-2 0,2 0,3 -2,5 -1,1 -3,2 -5,2zm7 7c0,-4 2,-7 4,-10 3,-3 7,-4 11,-4 0,4 -2,7 -5,10 -3,2 -6,4 -10,4zm-14 -14c0,-2 1,-4 2,-5 2,-2 3,-2 5,-2 0,2 0,3 -2,5 -1,1 -3,2 -5,2zm14 0c-2,0 -3,-1 -5,-2 -1,-2 -2,-3 -2,-5 2,0 4,0 5,2 2,1 2,3 2,5zm15 0c1,0 3,-1 4,-2 2,-2 3,-3 3,-5 0,2 0,3 2,5 1,1 3,2 5,2l-14 0zm14 0c0,-2 0,-4 2,-5 1,-2 3,-2 5,-2 0,2 -1,3 -2,5 -2,1 -3,2 -5,2zm14 0c-2,0 -4,-1 -5,-2 -2,-2 -2,-3 -2,-5 2,0 3,0 5,2 1,1 2,3 2,5zm21 -2c1,-1 2,-1 3,-2 1,-1 2,-2 2,-3 0,-1 -1,-2 -2,-3 -1,-1 -2,-2 -3,-2 -1,0 -2,1 -3,2 -1,1 -2,2 -2,3 0,1 1,2 2,3 1,1 2,1 3,2zm-92 2c0,-4 1,-7 4,-10 3,-3 6,-4 10,-4 0,3 -1,7 -4,10 -3,2 -6,4 -10,4zm21 -7c-2,0 -3,-1 -5,-2 -1,-2 -2,-3 -2,-5 2,0 4,0 5,2 2,1 2,3 2,5zm0 0c0,-2 1,-4 2,-5 2,-2 3,-2 5,-2 0,2 0,3 -2,5 -1,1 -3,2 -5,2zm22 7c-4,0 -8,-2 -11,-4 -2,-3 -4,-7 -4,-10 4,0 7,1 10,4 3,3 5,6 5,10zm0 0l0 -14c0,2 0,3 2,5 1,1 3,2 5,2 -2,0 -4,0 -5,2 -2,1 -2,3 -2,5zm7 -7c0,-2 -1,-4 -3,-5 -1,-2 -3,-2 -4,-2l14 0c-2,0 -4,0 -5,2 -2,1 -2,3 -2,5zm7 7c0,-2 -1,-4 -3,-5 -1,-2 -3,-2 -4,-2 1,0 3,-1 4,-2 2,-2 3,-3 3,-5l0 14zm7 -7c-2,0 -4,-1 -5,-2 -2,-2 -2,-3 -2,-5 2,0 3,0 5,2 1,1 2,3 2,5zm0 0c0,-2 0,-4 2,-5 1,-2 3,-2 5,-2 0,2 -1,3 -2,5 -2,1 -3,2 -5,2zm7 7c0,-4 1,-7 4,-10 3,-3 6,-4 10,-4 0,3 -1,7 -4,10 -3,2 -6,4 -10,4zm-71 -14c2,0 4,-1 5,-2 1,-2 2,-4 2,-6 0,2 1,4 2,6 1,1 3,2 5,2l-14 0zm21 -6c0,0 -1,0 -1,0 0,-1 0,-1 0,-2 0,0 0,0 0,0 0,-1 1,-1 1,-1 1,0 1,0 1,1 0,0 1,0 1,0 0,1 -1,1 -1,2 0,0 0,0 -1,0zm0 3c1,0 2,-1 3,-1 1,-1 1,-2 1,-4 0,-1 0,-2 -1,-2 -1,-1 -2,-2 -3,-2 -1,0 -2,1 -3,2 -1,0 -1,1 -1,2 0,2 0,3 1,4 1,0 2,1 3,1zm-21 3l0 -15c0,2 1,4 2,5 1,2 3,2 5,2 -2,0 -4,1 -5,3 -1,1 -2,3 -2,5zm7 -8c0,-1 -1,-3 -2,-4 -1,-2 -3,-3 -5,-3l14 0c-2,0 -4,1 -5,3 -1,1 -2,3 -2,4zm7 8c0,-2 -1,-4 -2,-5 -1,-2 -3,-3 -5,-3 2,0 4,0 5,-2 1,-1 2,-3 2,-5l0 15zm7 0c-2,0 -3,-1 -5,-2 -1,-2 -2,-4 -2,-6 0,-1 1,-3 2,-4 2,-2 3,-3 5,-3 2,0 4,1 5,3 2,1 2,3 2,4 0,2 0,4 -2,6 -1,1 -3,2 -5,2zm7 0c0,-3 1,-5 2,-8 -1,-2 -2,-4 -2,-7 3,0 5,1 7,2 2,-1 5,-2 8,-2 0,3 -1,5 -2,7 1,3 2,5 2,8 -3,0 -6,-1 -8,-2 -2,1 -4,2 -7,2zm43 -8c2,0 3,0 5,-2 1,-1 2,-3 2,-5 0,-2 -1,-3 -2,-5 -2,-1 -3,-2 -5,-2l-14 0c-2,0 -4,1 -5,2 -2,2 -2,3 -2,5 0,2 0,4 2,5 1,2 3,2 5,2l14 0zm-71 -7c0,-2 1,-5 2,-7 -1,-2 -2,-4 -2,-7 3,0 5,1 7,2 2,-1 5,-2 7,-2 0,3 0,5 -2,7 2,2 2,5 2,7 -2,0 -5,0 -7,-1 -2,1 -4,1 -7,1zm21 0c-2,0 -3,0 -5,-2 -1,-1 -2,-3 -2,-5 0,-2 1,-3 2,-5 2,-1 3,-2 5,-2 2,0 4,1 5,2 2,2 2,3 2,5 0,2 0,4 -2,5 -1,2 -3,2 -5,2zm7 0l7 -14 8 14 -15 0zm29 15c-4,0 -8,-2 -11,-4 -2,-3 -3,-7 -3,-11 0,-3 1,-7 3,-10 3,-2 7,-4 11,-4l14 0c4,0 7,2 10,4 3,3 4,7 4,10 0,4 -1,8 -4,11 -3,2 -6,4 -10,4l-14 0zm-18 -29c-1,0 -1,-1 -2,-1 -1,-1 -1,-1 -1,-2 0,-1 0,-2 1,-2 0,-1 1,-1 2,-1 1,0 1,0 2,1 0,0 1,1 1,2 0,1 -1,1 -1,2 -1,0 -1,1 -2,1zm-7 0c-1,0 -2,0 -3,-1 0,0 -1,-1 -1,-2 0,-1 1,-2 1,-3 1,-1 2,-1 3,-1 1,0 2,0 2,1 1,1 1,2 1,3 0,1 0,2 -1,2 0,1 -1,1 -2,1zm11 0c1,0 3,0 4,-2 2,-1 3,-3 3,-5 0,2 0,4 2,5 1,2 3,2 5,2l-14 0zm14 0c0,-2 0,-3 2,-5 1,-1 3,-2 5,-2 0,2 -1,4 -2,5 -2,2 -3,2 -5,2zm14 0c-2,0 -4,0 -5,-2 -2,-1 -2,-3 -2,-5 2,0 3,1 5,2 1,2 2,3 2,5zm-50 -2c1,0 2,-1 3,-2 1,-1 1,-2 1,-3 0,-1 0,-2 -1,-3 -1,-1 -2,-1 -3,-1 -1,0 -2,0 -3,1 -1,1 -1,2 -1,3 0,1 0,2 1,3 1,1 2,2 3,2zm-14 0c1,0 2,-1 3,-2 1,-1 2,-2 2,-3 0,-1 -1,-2 -2,-3 -1,-1 -2,-1 -3,-2 -1,1 -2,1 -3,2 -1,1 -2,2 -2,3 0,1 1,2 2,3 1,1 2,2 3,2l0 0zm85 0c1,0 2,-1 3,-2 1,-1 2,-2 2,-3 0,-1 -1,-2 -2,-3 -1,-1 -2,-1 -3,-2 -1,1 -2,1 -3,2 -1,1 -2,2 -2,3 0,1 1,2 2,3 1,1 2,2 3,2zm-60 -6c-1,0 -1,0 -2,0 -1,-1 -1,-2 -1,-2 0,-1 0,-2 1,-2 0,-1 1,-1 2,-1 0,0 1,0 2,1 0,0 1,1 1,2 0,0 -1,1 -1,2 -1,0 -1,0 -2,0zm-32 8l0 -14 14 0 0 14 -14 0zm21 0c-2,0 -3,0 -5,-2 -1,-1 -2,-3 -2,-5 0,-2 1,-3 2,-5 2,-1 3,-2 5,-2 2,0 4,1 5,2 2,2 2,3 2,5 0,2 0,4 -2,5 -1,2 -3,2 -5,2zm18 -7c-1,0 -2,0 -3,-1 0,-1 -1,-1 -1,-2 0,-1 1,-2 1,-3 1,-1 2,-1 3,-1 1,0 2,0 2,1 1,1 2,2 2,3 0,1 -1,1 -2,2 0,1 -1,1 -2,1zm4 7l0 -14c0,2 0,4 2,5 1,1 3,2 5,2 -2,0 -4,1 -5,2 -2,2 -2,3 -2,5zm7 -7c0,-2 -1,-3 -3,-5 -1,-1 -3,-2 -4,-2l14 0c-2,0 -4,1 -5,2 -2,2 -2,3 -2,5zm7 7c0,-2 -1,-3 -3,-5 -1,-1 -3,-2 -4,-2 1,0 3,-1 4,-2 2,-1 3,-3 3,-5l0 14zm7 -7c-2,0 -4,-1 -5,-2 -2,-1 -2,-3 -2,-5 2,0 3,1 5,2 1,2 2,3 2,5zm0 0c0,-2 0,-3 2,-5 1,-1 3,-2 5,-2 0,2 -1,4 -2,5 -2,1 -3,2 -5,2zm21 7c-4,0 -7,-1 -10,-4 -3,-3 -4,-6 -4,-10 4,0 7,1 10,4 3,3 4,6 4,10zm-28 71c-4,0 -8,-1 -11,-4 -2,-3 -3,-6 -3,-10 0,-4 1,-7 3,-10 3,-3 7,-4 11,-4l28 0 0 -14 4 -8 -4 -7 4 -7 -4 -7 0 -14 14 0 0 14 -3 7 3 7 -3 7 3 8 0 21 -42 0c-2,0 -4,0 -5,2 -2,1 -2,3 -2,5 0,2 0,4 2,5 1,1 3,2 5,2l42 0 0 7 -42 0z"/>
   <path class="fil3" d="M446 654c0,0 0,0 0,0l0 0 0 0zm14 0c0,0 0,0 0,0l0 0c0,0 0,0 0,0l0 0zm-85 0l0 -14 0 0c0,2 1,4 2,5 2,2 3,2 5,2 -2,0 -3,1 -5,2 -1,2 -2,3 -2,5zm99 0c0,-2 0,-3 -2,-5 -1,-1 -3,-2 -5,-2 2,0 4,0 5,-2 2,-1 2,-3 2,-5l0 14zm-99 -14l0 0c0,0 0,0 0,0zm14 0c0,-4 2,-7 4,-10 3,-2 7,-4 10,-4l1 0c0,4 -2,7 -5,10 -2,3 -6,4 -10,4zm0 0c-4,0 -7,-1 -10,-4 -2,-3 -4,-6 -4,-10 4,0 7,1 10,4 3,3 4,6 4,10zm-14 -14c0,-4 2,-7 4,-10 3,-3 6,-4 10,-4 0,4 -1,7 -4,10 -3,3 -6,4 -10,4zm29 0c-4,0 -8,-1 -11,-4 -2,-3 -4,-6 -4,-10 4,0 8,1 10,4 3,3 5,6 5,10zm42 0c0,-4 1,-7 4,-10 3,-3 6,-4 10,-4 0,4 -1,7 -4,10 -3,3 -6,4 -10,4zm28 0c-4,0 -7,-1 -10,-4 -2,-3 -4,-6 -4,-10 4,0 7,1 10,4 3,3 4,6 4,10zm-99 -14c0,-2 1,-4 2,-5 2,-2 3,-2 5,-2 0,2 0,3 -2,5 -1,1 -3,2 -5,2zm14 0c-2,0 -3,-1 -5,-2 -1,-2 -2,-3 -2,-5 2,0 4,0 5,2 2,1 2,3 2,5zm0 0c0,-2 1,-4 2,-5 2,-2 3,-2 6,-2 0,2 -1,3 -3,5 -1,1 -3,2 -5,2zm15 0c-2,0 -4,-1 -6,-2 -1,-2 -1,-3 -1,-5 1,0 3,0 4,2 2,1 3,3 3,5zm42 0c0,-2 1,-4 2,-5 1,-2 3,-2 5,-2 0,2 -1,3 -2,5 -1,1 -3,2 -5,2zm14 0c-2,0 -4,-1 -5,-2 -1,-2 -2,-3 -2,-5 2,0 4,0 5,2 1,1 2,3 2,5zm0 0c0,-2 1,-4 2,-5 2,-2 3,-2 5,-2 0,2 0,3 -2,5 -1,1 -3,2 -5,2zm14 0c-2,0 -3,-1 -5,-2 -1,-2 -2,-3 -2,-5 2,0 4,0 5,2 2,1 2,3 2,5zm-92 -7c-2,0 -3,-1 -5,-2 -1,-2 -2,-3 -2,-5 2,0 4,0 5,2 2,1 2,3 2,5zm0 0c0,-2 1,-4 2,-5 2,-2 3,-2 5,-2 0,2 0,3 -2,5 -1,1 -3,2 -5,2zm15 0c-3,0 -4,-1 -6,-2 -1,-2 -2,-3 -2,-5 2,0 4,0 5,2 2,1 3,3 3,5zm0 0c0,-2 0,-4 1,-5 2,-2 4,-2 6,-2 0,2 -1,3 -3,5 -1,1 -3,2 -4,2zm56 0c-2,0 -4,-1 -5,-2 -1,-2 -2,-3 -2,-5 2,0 4,0 5,2 1,1 2,3 2,5zm0 0c0,-2 1,-4 2,-5 1,-2 3,-2 5,-2 0,2 -1,3 -2,5 -1,1 -3,2 -5,2zm14 0c-2,0 -3,-1 -5,-2 -1,-2 -2,-3 -2,-5 2,0 4,0 5,2 2,1 2,3 2,5zm0 0c0,-2 1,-4 2,-5 2,-2 3,-2 5,-2 0,2 0,3 -2,5 -1,1 -3,2 -5,2zm-92 -7c0,-4 2,-7 4,-10 3,-3 6,-4 10,-4 0,3 -1,7 -4,10 -3,2 -6,4 -10,4zm29 0c-4,0 -8,-2 -11,-4 -2,-3 -4,-7 -4,-10 4,0 8,1 10,4 3,3 5,6 5,10zm42 0c0,-4 1,-7 4,-10 3,-3 6,-4 10,-4 0,3 -1,7 -4,10 -3,2 -6,4 -10,4zm28 0c-4,0 -7,-2 -10,-4 -2,-3 -4,-7 -4,-10 4,0 7,1 10,4 3,3 4,6 4,10zm-85 -14c-4,0 -7,-2 -10,-4 -2,-3 -4,-7 -4,-11 4,0 7,2 10,5 3,2 4,6 4,10zm0 0c0,-4 2,-8 4,-10 3,-3 7,-5 11,-5 0,4 -2,8 -5,11 -2,2 -6,4 -10,4zm-14 70c2,0 4,0 5,-2 2,-1 2,-3 2,-5 0,2 1,4 2,5 2,2 3,2 5,2 2,0 4,0 5,-2 2,-1 3,-3 3,-5 0,2 0,4 1,5 2,2 3,2 5,2l1 0c0,-2 -1,-3 -3,-5 -1,-1 -3,-2 -4,-2 1,0 3,0 4,-2 2,-1 3,-3 3,-5l-1 0c-2,0 -3,1 -5,2 -1,2 -1,3 -1,5 0,-2 -1,-3 -3,-5 -1,-1 -3,-2 -5,-2l0 0c0,2 1,4 2,5 2,2 3,2 6,2 -3,0 -4,1 -6,2 -1,2 -2,3 -2,5 0,-2 0,-3 -2,-5 -1,-1 -3,-2 -5,-2 2,0 4,0 5,-2 2,-1 2,-3 2,-5l0 0c-2,0 -3,1 -5,2 -1,2 -2,3 -2,5 0,-2 0,-3 -2,-5 -1,-1 -3,-2 -5,-2l29 0 0 -56c0,-4 1,-8 4,-10 2,-3 6,-5 10,-5l14 0c4,0 7,2 10,5 3,2 4,6 4,10l0 56 14 0c-4,0 -7,-1 -10,-4 -3,-3 -4,-6 -4,-10l0 0c4,0 7,2 10,4 3,3 4,6 4,10 0,-4 2,-7 4,-10 3,-2 6,-4 10,-4l0 0c0,4 -1,7 -4,10 -3,3 -6,4 -10,4l14 0 0 0 0 0c-2,0 -3,1 -5,2 -1,2 -2,3 -2,5 0,-2 0,-3 -2,-5 -1,-1 -3,-2 -5,-2l0 0c0,2 1,4 2,5 2,2 3,2 5,2 -2,0 -3,1 -5,2 -1,2 -2,3 -2,5 0,-2 -1,-3 -2,-5 -1,-1 -3,-2 -5,-2 2,0 4,0 5,-2 1,-1 2,-3 2,-5l0 0c-2,0 -4,1 -5,2 -1,2 -2,3 -2,5 0,-2 -1,-3 -2,-5 -1,-1 -3,-2 -5,-2l0 0c0,2 1,4 2,5 1,2 3,2 5,2 -2,0 -4,1 -5,2 -1,2 -2,3 -2,5l0 0c2,0 4,0 5,-2 1,-1 2,-3 2,-5 0,2 1,4 2,5 1,2 3,2 5,2l0 0c0,0 0,0 0,0l0 0c2,0 4,0 5,-2 2,-1 2,-3 2,-5 0,2 1,4 2,5 2,2 3,2 5,2l0 0 0 0 0 0 -35 0 0 -70c0,-2 -1,-4 -2,-5 -2,-2 -3,-3 -5,-3l-14 0c-2,0 -4,1 -5,3 -2,1 -2,3 -2,5l0 70 -36 0zm85 -70c-4,0 -7,-2 -10,-4 -3,-3 -4,-7 -4,-11 4,0 7,2 10,5 3,2 4,6 4,10zm0 0c0,-4 2,-8 4,-10 3,-3 6,-5 10,-5 0,4 -1,8 -4,11 -3,2 -6,4 -10,4zm-74 -15c-1,0 -2,-1 -2,-1 -1,-1 -1,-1 -1,-2 0,-1 0,-1 1,-2 0,-1 1,-1 2,-1 0,0 1,0 2,1 0,1 1,1 1,2 0,1 -1,1 -1,2 -1,0 -1,1 -2,1zm14 0c-1,0 -1,-1 -2,-1 -1,-1 -1,-1 -1,-2 0,-1 0,-1 1,-2 1,-1 1,-1 2,-1 1,0 1,0 2,1 0,1 1,1 1,2 0,1 -1,1 -1,2 -1,0 -1,1 -2,1zm57 0c-1,0 -2,-1 -2,-1 -1,-1 -1,-1 -1,-2 0,-1 0,-1 0,-2 1,-1 2,-1 3,-1 0,0 1,0 1,1 1,1 1,1 1,2 0,1 0,1 0,2 -1,0 -2,1 -2,1zm14 0c-1,0 -2,-1 -2,-1 -1,-1 -1,-1 -1,-2 0,-1 0,-1 1,-2 0,-1 1,-1 2,-1 0,0 1,0 2,1 0,1 0,1 0,2 0,1 0,1 0,2 -1,0 -1,1 -2,1zm-92 0c-1,0 -2,0 -3,-1 0,0 -1,-1 -1,-2 0,-1 1,-2 1,-3 1,0 2,-1 3,-1 1,0 2,1 2,1 1,1 1,2 1,3 0,1 0,2 -1,2 0,1 -1,1 -2,1zm14 0c-1,0 -2,0 -3,-1 0,0 -1,-1 -1,-2 0,-1 1,-2 1,-3 1,0 2,-1 3,-1 1,0 2,1 2,1 1,1 2,2 2,3 0,1 -1,2 -2,2 0,1 -1,1 -2,1zm57 0c-1,0 -2,0 -3,-1 -1,0 -1,-1 -1,-2 0,-1 0,-2 1,-3 1,0 2,-1 3,-1 0,0 1,1 2,1 1,1 1,2 1,3 0,1 0,2 -1,2 -1,1 -2,1 -2,1zm14 0c-1,0 -2,0 -3,-1 -1,0 -1,-1 -1,-2 0,-1 0,-2 1,-3 1,0 2,-1 3,-1 1,0 1,1 2,1 1,1 1,2 1,3 0,1 0,2 -1,2 -1,1 -1,1 -2,1zm-85 -7c-1,0 -2,-1 -2,-1 -1,-1 -1,-1 -1,-2 0,-1 0,-1 1,-2 0,-1 1,-1 2,-1 0,0 1,0 2,1 0,1 0,1 0,2 0,1 0,1 0,2 -1,0 -1,1 -2,1zm14 0c-1,0 -1,-1 -2,-1 -1,-1 -1,-1 -1,-2 0,-1 0,-1 1,-2 1,-1 1,-1 2,-1 1,0 1,0 2,1 0,1 1,1 1,2 0,1 -1,1 -1,2 -1,0 -1,1 -2,1zm57 0c-1,0 -2,-1 -2,-1 -1,-1 -1,-1 -1,-2 0,-1 0,-1 0,-2 1,-1 2,-1 3,-1 0,0 1,0 1,1 1,1 1,1 1,2 0,1 0,1 0,2 -1,0 -2,1 -2,1zm14 0c-1,0 -2,-1 -2,-1 -1,-1 -1,-1 -1,-2 0,-1 0,-1 1,-2 0,-1 1,-1 2,-1 0,0 1,0 2,1 0,1 0,1 0,2 0,1 0,1 0,2 -1,0 -2,1 -2,1zm-78 0c-1,0 -2,0 -3,-1 0,0 -1,-1 -1,-2 0,-1 1,-2 1,-3 1,0 2,-1 3,-1 1,0 2,1 2,1 1,1 1,2 1,3 0,1 0,2 -1,2 0,1 -1,1 -2,1zm14 0c-1,0 -2,0 -3,-1 0,0 0,-1 0,-2 0,-1 0,-2 0,-3 1,0 2,-1 3,-1 1,0 2,1 2,1 1,1 2,2 2,3 0,1 -1,2 -2,2 0,1 -1,1 -2,1zm4 7c0,-3 1,-7 4,-10 2,-2 6,-4 10,-4 0,4 -2,8 -4,10 -3,3 -7,4 -10,4zm14 0c0,-2 0,-5 2,-7 -2,-2 -2,-4 -2,-7 2,0 5,1 7,2 2,-1 4,-2 7,-2 0,3 -1,5 -2,7 1,2 2,5 2,7 -3,0 -5,0 -7,-1 -2,1 -5,1 -7,1zm28 0c-4,0 -7,-1 -10,-4 -3,-2 -4,-6 -4,-10 4,0 7,2 10,4 3,3 4,7 4,10zm11 -7c-1,0 -2,0 -3,-1 -1,0 -1,-1 -1,-2 0,-1 0,-2 1,-3 1,0 2,-1 3,-1 1,0 1,1 2,1 1,1 1,2 1,3 0,1 0,2 -1,2 -1,1 -1,1 -2,1zm14 0c-1,0 -2,0 -3,-1 0,0 -1,-1 -1,-2 0,-1 1,-2 1,-3 1,0 2,-1 3,-1 1,0 1,1 2,1 1,1 1,2 1,3 0,1 0,2 -1,2 -1,1 -1,1 -2,1zm-92 -7c-1,0 -2,0 -3,-1 0,0 -1,-1 -1,-2 0,-1 1,-2 1,-3 1,-1 2,-1 3,-1 1,0 2,0 2,1 1,1 1,2 1,3 0,1 0,2 -1,2 0,1 -1,1 -2,1zm7 0c-1,0 -2,0 -3,-1 0,0 -1,-1 -1,-2 0,-1 1,-2 1,-3 1,-1 2,-1 3,-1 1,0 2,0 2,1 1,1 1,2 1,3 0,1 0,2 -1,2 0,1 -1,1 -2,1zm7 0c-1,0 -2,0 -3,-1 0,0 -1,-1 -1,-2 0,-1 1,-2 1,-3 1,-1 2,-1 3,-1 1,0 2,0 2,1 1,1 2,2 2,3 0,1 -1,2 -2,2 0,1 -1,1 -2,1zm7 0c-1,0 -2,0 -3,-1 0,0 0,-1 0,-2 0,-1 0,-2 0,-3 1,-1 2,-1 3,-1 1,0 2,0 2,1 1,1 2,2 2,3 0,1 -1,2 -2,2 0,1 -1,1 -2,1zm50 0c-1,0 -2,0 -3,-1 -1,0 -1,-1 -1,-2 0,-1 0,-2 1,-3 1,-1 2,-1 3,-1 0,0 1,0 2,1 1,1 1,2 1,3 0,1 0,2 -1,2 -1,1 -2,1 -2,1zm7 0c-1,0 -2,0 -3,-1 -1,0 -1,-1 -1,-2 0,-1 0,-2 1,-3 1,-1 2,-1 3,-1 1,0 1,0 2,1 1,1 1,2 1,3 0,1 0,2 -1,2 -1,1 -1,1 -2,1zm7 0c-1,0 -2,0 -3,-1 -1,0 -1,-1 -1,-2 0,-1 0,-2 1,-3 1,-1 2,-1 3,-1 1,0 1,0 2,1 1,1 1,2 1,3 0,1 0,2 -1,2 -1,1 -1,1 -2,1zm7 0c-1,0 -2,0 -3,-1 0,0 -1,-1 -1,-2 0,-1 1,-2 1,-3 1,-1 2,-1 3,-1 1,0 1,0 2,1 1,1 1,2 1,3 0,1 0,2 -1,2 -1,1 -1,1 -2,1zm-92 -7c-1,0 -2,0 -3,-1 0,-1 -1,-1 -1,-2 0,-1 1,-2 1,-3 1,-1 2,-1 3,-1 1,0 2,0 2,1 1,1 1,2 1,3 0,1 0,1 -1,2 0,1 -1,1 -2,1zm7 0c-1,0 -2,0 -3,-1 0,-1 -1,-1 -1,-2 0,-1 1,-2 1,-3 1,-1 2,-1 3,-1 1,0 2,0 2,1 1,1 1,2 1,3 0,1 0,1 -1,2 0,1 -1,1 -2,1zm7 0c-1,0 -2,0 -3,-1 0,-1 -1,-1 -1,-2 0,-1 1,-2 1,-3 1,-1 2,-1 3,-1 1,0 2,0 2,1 1,1 2,2 2,3 0,1 -1,1 -2,2 0,1 -1,1 -2,1zm7 0c-1,0 -2,0 -3,-1 0,-1 0,-1 0,-2 0,-1 0,-2 0,-3 1,-1 2,-1 3,-1 1,0 2,0 2,1 1,1 2,2 2,3 0,1 -1,1 -2,2 0,1 -1,1 -2,1zm18 7c-4,0 -8,-1 -10,-4 -3,-3 -4,-6 -4,-10 3,0 7,1 10,4 2,3 4,6 4,10zm0 0c0,-2 0,-5 2,-7 -2,-2 -2,-4 -2,-7 2,0 5,1 7,2 2,-1 4,-2 7,-2 0,3 -1,5 -2,7 1,2 2,5 2,7 -3,0 -5,0 -7,-2 -2,2 -5,2 -7,2zm14 0c0,-4 1,-7 4,-10 3,-3 6,-4 10,-4 0,4 -1,7 -4,10 -3,3 -6,4 -10,4zm18 -7c-1,0 -2,0 -3,-1 -1,-1 -1,-1 -1,-2 0,-1 0,-2 1,-3 1,-1 2,-1 3,-1 0,0 1,0 2,1 1,1 1,2 1,3 0,1 0,1 -1,2 -1,1 -2,1 -2,1zm7 0c-1,0 -2,0 -3,-1 -1,-1 -1,-1 -1,-2 0,-1 0,-2 1,-3 1,-1 2,-1 3,-1 1,0 1,0 2,1 1,1 1,2 1,3 0,1 0,1 -1,2 -1,1 -1,1 -2,1zm7 0c-1,0 -2,0 -3,-1 -1,-1 -1,-1 -1,-2 0,-1 0,-2 1,-3 1,-1 2,-1 3,-1 1,0 1,0 2,1 1,1 1,2 1,3 0,1 0,1 -1,2 -1,1 -1,1 -2,1zm7 0c-1,0 -2,0 -3,-1 0,-1 -1,-1 -1,-2 0,-1 1,-2 1,-3 1,-1 2,-1 3,-1 1,0 1,0 2,1 1,1 1,2 1,3 0,1 0,1 -1,2 -1,1 -1,1 -2,1z"/>
   <path class="fil3" d="M570 710c-1,0 -2,0 -2,-1 -1,0 -1,-1 -1,-2 0,0 0,-1 1,-2 0,0 1,-1 2,-1 0,0 1,1 2,1 0,1 1,2 1,2 0,1 -1,2 -1,2 -1,1 -1,1 -2,1zm-82 1c2,0 4,-1 5,-2 2,-2 3,-3 3,-5 0,2 0,3 2,5 1,1 3,2 5,2l-15 0zm18 0c-1,0 -2,-1 -2,-1 -1,-1 -1,-2 -1,-3 0,-1 0,-2 1,-2 0,-1 1,-1 2,-1 1,0 2,0 3,1 0,0 1,1 1,2 0,1 -1,2 -1,3 -1,0 -2,1 -3,1zm7 0c-1,0 -2,-1 -2,-1 -1,-1 -1,-2 -1,-3 0,-1 0,-2 1,-2 0,-1 1,-1 2,-1 1,0 2,0 3,1 0,0 1,1 1,2 0,1 -1,2 -1,3 -1,0 -2,1 -3,1zm50 0c-1,0 -2,-1 -3,-1 0,-1 -1,-2 -1,-3 0,-1 1,-2 1,-2 1,-1 2,-1 3,-1 1,0 1,0 2,1 1,0 1,1 1,2 0,1 0,2 -1,3 -1,0 -1,1 -2,1zm0 -8c-1,0 -2,0 -2,-1 -1,0 -1,-1 -1,-2 0,0 0,-1 1,-2 0,0 1,-1 2,-1 0,0 1,1 2,1 0,1 0,2 0,2 0,1 0,2 0,2 -1,1 -1,1 -2,1zm-75 8l0 -14c0,2 1,3 2,5 2,1 4,2 6,2 -2,0 -4,0 -6,2 -1,1 -2,3 -2,5zm15 0c0,-2 -1,-4 -3,-5 -1,-2 -3,-2 -4,-2 1,0 3,-1 4,-2 2,-2 3,-3 3,-5l0 14zm3 -7c-1,0 -2,-1 -2,-1 -1,-1 -1,-2 -1,-3 0,-1 0,-2 1,-2 0,-1 1,-1 2,-1 1,0 2,0 3,1 0,0 1,1 1,2 0,1 -1,2 -1,3 -1,0 -2,1 -3,1zm7 0c-1,0 -2,-1 -2,-1 -1,-1 -1,-2 -1,-3 0,-1 0,-2 1,-2 0,-1 1,-1 2,-1 1,0 2,0 3,1 0,0 1,1 1,2 0,1 -1,2 -1,3 -1,0 -2,1 -3,1zm4 7c0,-3 0,-5 2,-7 -2,-2 -2,-5 -2,-7 2,0 5,0 7,1 2,-1 4,-1 7,-1 0,2 -1,5 -2,7 1,2 2,4 2,7 -3,0 -5,-1 -7,-2 -2,1 -5,2 -7,2zm14 0l7 -14 7 14 -14 0zm14 0c0,-3 1,-5 2,-7 -1,-2 -2,-5 -2,-7 3,0 5,0 7,1 2,-1 5,-1 7,-1 0,2 0,5 -2,7 2,2 2,4 2,7 -2,0 -5,-1 -7,-2 -2,1 -4,2 -7,2zm25 -7c-1,0 -2,-1 -3,-1 0,-1 -1,-2 -1,-3 0,-1 1,-2 1,-2 1,-1 2,-1 3,-1 1,0 2,0 2,1 1,0 1,1 1,2 0,1 0,2 -1,3 0,0 -1,1 -2,1zm-74 0c0,-2 -1,-4 -3,-5 -1,-2 -3,-2 -5,-2 2,0 4,-1 5,-3 2,-1 3,-2 3,-4 0,2 0,3 2,4 1,2 3,3 5,3 -2,0 -4,0 -5,2 -2,1 -2,3 -2,5zm10 -7c-1,0 -2,-1 -2,-1 -1,-1 -1,-2 -1,-3 0,-1 0,-2 1,-2 0,-1 1,-1 2,-1 1,0 2,0 3,1 0,0 1,1 1,2 0,1 -1,2 -1,3 -1,0 -2,1 -3,1zm7 0c-1,0 -2,-1 -2,-1 -1,-1 -1,-2 -1,-3 0,-1 0,-2 1,-2 0,-1 1,-1 2,-1 1,0 2,0 3,1 0,0 1,1 1,2 0,1 -1,2 -1,3 -1,0 -2,1 -3,1zm67 -2c2,-1 2,-2 3,-2 1,-1 2,-2 3,-3 -1,-2 -2,-3 -3,-3 -1,-1 -1,-2 -3,-3 -1,1 -2,2 -3,3 -1,0 -1,1 -2,3 1,1 1,2 2,3 1,0 2,1 3,2zm-92 2l0 -14c0,1 1,3 2,4 2,2 4,3 6,3 -2,0 -4,0 -6,2 -1,1 -2,3 -2,5zm36 -13c2,-1 4,-1 7,-1l-14 0c2,0 5,0 7,1zm21 13c0,-3 1,-5 2,-7 -1,-3 -2,-5 -2,-7 3,0 5,0 7,1 2,-1 5,-1 7,-1 0,2 0,4 -2,7 2,2 2,4 2,7 -2,0 -5,-1 -7,-2 -2,1 -4,2 -7,2zm28 0c-4,0 -7,-2 -10,-4 -2,-3 -4,-7 -4,-10 4,0 7,1 10,4 3,2 4,6 4,10zm-14 -14c0,-4 2,-8 4,-11 3,-2 6,-4 10,-4 0,4 -1,8 -4,10 -3,3 -6,5 -10,5zm21 28l-7 -14 0 -14 7 -15 8 15 0 14 -8 14zm0 -48c0,0 0,0 -1,-1 0,0 0,0 0,-1 0,0 0,0 0,-1 1,0 1,0 1,0 1,0 1,0 1,0 1,1 1,1 1,1 0,1 0,1 -1,1 0,1 0,1 -1,1zm0 3c2,0 2,-1 3,-2 1,-1 2,-2 2,-3 0,-1 -1,-2 -2,-3 -1,-1 -1,-1 -3,-1 -1,0 -2,0 -3,1 -1,1 -1,2 -1,3 0,1 0,2 1,3 1,1 2,2 3,2zm-7 2c-4,0 -7,-1 -10,-4 -2,-3 -4,-6 -4,-10 4,0 7,2 10,4 3,3 4,6 4,10zm7 0c-2,0 -3,0 -5,-2 -1,-1 -2,-3 -2,-5 0,-2 1,-3 2,-5 2,-1 3,-2 5,-2 2,0 4,1 5,2 2,2 3,3 3,5 0,2 -1,4 -3,5 -1,2 -3,2 -5,2zm-84 -16c1,0 2,-1 2,-2 1,-1 2,-2 3,-3 -1,-1 -2,-2 -3,-3 0,-1 -1,-1 -2,-2 -2,1 -3,1 -4,2 0,1 -1,2 -2,3 1,1 2,2 2,3 1,1 2,2 3,2l1 0zm7 2c0,-2 0,-5 1,-7 -1,-2 -1,-4 -1,-7 2,0 5,1 7,2 2,-1 4,-2 7,-2 0,3 -1,5 -2,7 1,2 2,5 2,7l0 0c-3,0 -5,0 -7,-2 -2,2 -5,2 -7,2zm14 0c0,-4 1,-7 4,-10 3,-2 6,-4 10,-4 0,4 -1,7 -4,10 -3,3 -6,4 -10,4zm42 0c-4,0 -7,-1 -10,-4 -3,-3 -4,-6 -4,-10 4,0 7,2 10,4 3,3 4,6 4,10l0 0zm0 0c0,-4 2,-7 4,-10 3,-2 6,-4 10,-4 0,4 -1,7 -4,10 -3,3 -6,4 -10,4zm28 0c-3,0 -7,-1 -10,-4 -2,-3 -4,-6 -4,-10 4,0 8,2 10,4 3,3 5,6 5,10l-1 0zm-91 -16c1,0 2,-1 2,-2 1,-1 2,-2 3,-3 -1,-1 -2,-2 -3,-3 0,-1 -1,-1 -2,-2 -2,1 -3,1 -4,2 0,1 -1,2 -2,3 1,1 2,2 2,3 1,1 2,2 3,2l1 0zm7 59c0,-2 -1,-4 -3,-5 -1,-2 -3,-2 -4,-2 1,0 3,-1 4,-3 2,-1 3,-3 3,-4 -2,0 -4,0 -5,2 -2,1 -2,3 -2,5 0,-2 -1,-4 -3,-5 -1,-2 -3,-2 -5,-2l0 -7 57 0c2,-1 4,-1 5,-3 1,-1 2,-3 2,-5 0,-2 -1,-3 -2,-5 -1,-1 -3,-2 -5,-2l-57 0 0 -35 15 0 0 28 28 0 7 -14 7 14c4,0 7,2 10,4 3,3 4,6 4,10 0,4 -1,8 -4,10 -3,3 -6,5 -10,5l-7 14 -7 -14c0,2 -1,4 -2,7 1,2 2,4 2,7 -3,0 -5,-1 -7,-2 -2,1 -5,2 -7,2 0,-3 0,-5 2,-7 -2,-3 -2,-5 -2,-7l-4 0c1,0 2,0 3,0 0,1 1,2 1,3 0,1 -1,2 -1,3 -1,0 -2,1 -3,1 -1,0 -2,-1 -2,-1 -1,-1 -1,-2 -1,-3 0,-1 0,-2 1,-3 0,0 1,0 2,0l-7 0c1,0 2,0 3,0 0,1 1,2 1,3 0,1 -1,2 -1,3 -1,0 -2,1 -3,1 -1,0 -2,-1 -2,-1 -1,-1 -1,-2 -1,-3 0,-1 0,-2 1,-3 0,0 1,0 2,0l-3 0 0 14zm0 -57c0,-2 0,-5 1,-7 -1,-2 -1,-4 -1,-7 2,0 5,1 7,2 2,-1 4,-2 7,-2 0,3 -1,5 -2,7 1,2 2,5 2,7 -3,0 -5,0 -7,-2 -2,2 -5,2 -7,2zm28 0c-4,0 -7,-1 -10,-4 -3,-3 -4,-6 -4,-10 4,0 7,1 10,4 3,3 4,6 4,10zm14 0c0,-4 1,-7 4,-10 3,-3 6,-4 10,-4 0,4 -1,7 -4,10 -3,3 -6,4 -10,4zm28 0c-4,0 -7,-1 -10,-4 -2,-3 -4,-6 -4,-10 4,0 7,1 10,4 3,3 4,6 4,10zm0 0c0,-4 2,-7 4,-10 3,-3 7,-4 11,-4 0,4 -2,7 -5,10 -2,3 -6,4 -10,4zm-85 -14c0,-4 2,-7 4,-10 3,-3 7,-4 11,-4 0,4 -2,7 -5,10 -2,3 -6,4 -10,4zm29 0c-4,0 -8,-1 -10,-4 -3,-3 -4,-6 -4,-10 3,0 7,1 10,4 2,3 4,6 4,10zm42 0c0,-4 2,-7 4,-10 3,-3 6,-4 10,-4 0,4 -1,7 -4,10 -3,3 -6,4 -10,4zm29 0c-4,0 -8,-1 -11,-4 -2,-3 -4,-6 -4,-10 4,0 8,1 10,4 3,3 5,6 5,10zm-85 -14c-4,0 -8,-2 -11,-4 -2,-3 -4,-6 -4,-10 4,0 8,1 10,4 3,3 5,6 5,10zm0 0c0,-4 1,-7 4,-10 2,-3 6,-4 10,-4 0,4 -2,7 -4,10 -3,2 -7,4 -10,4zm70 0c-4,0 -7,-2 -10,-4 -2,-3 -4,-6 -4,-10 4,0 7,1 10,4 3,3 4,6 4,10zm0 0c0,-4 2,-7 4,-10 3,-3 7,-4 11,-4 0,4 -2,7 -5,10 -2,2 -6,4 -10,4zm7 -20c0,0 0,0 -1,0 0,-1 0,-1 0,-1 0,-1 0,-1 0,-1 1,-1 1,-1 1,-1 1,0 1,0 1,1 1,0 1,0 1,1 0,0 0,0 -1,1 0,0 0,0 -1,0zm0 3c2,0 2,0 3,-1 1,-1 2,-2 2,-3 0,-1 -1,-2 -2,-3 -1,-1 -1,-2 -3,-2 -1,0 -2,1 -3,2 -1,1 -1,2 -1,3 0,1 0,2 1,3 1,1 2,1 3,1zm-92 3c0,-4 2,-7 4,-10 3,-3 7,-4 11,-4 0,3 -2,7 -5,10 -2,2 -6,4 -10,4zm29 0c-4,0 -8,-2 -10,-4 -3,-3 -4,-7 -4,-10 3,0 7,1 10,4 2,3 4,6 4,10zm42 0c0,-4 2,-7 4,-10 3,-3 6,-4 10,-4 0,3 -1,7 -4,10 -3,2 -6,4 -10,4zm21 0c-2,0 -3,-1 -5,-2 -1,-2 -2,-3 -2,-5 0,-2 1,-4 2,-5 2,-2 3,-2 5,-2 2,0 4,0 5,2 2,1 3,3 3,5 0,2 -1,3 -3,5 -1,1 -3,2 -5,2zm-35 21c2,0 4,-1 5,-2 1,-1 2,-3 2,-5l0 -28c0,-2 -1,-4 -2,-5 -1,-2 -3,-3 -5,-3l-14 0c-2,0 -4,1 -5,3 -1,1 -2,3 -2,5l0 28c0,2 1,4 2,5 1,1 3,2 5,2l14 0zm-42 -35c-4,0 -8,-2 -11,-4 -2,-3 -4,-7 -4,-11 4,0 8,2 10,5 3,2 5,6 5,10zm0 0c0,-4 1,-8 4,-10 2,-3 6,-5 10,-5 0,4 -2,8 -4,11 -3,2 -7,4 -10,4zm70 0c-4,0 -7,-2 -10,-4 -2,-3 -4,-7 -4,-11 4,0 7,2 10,5 3,2 4,6 4,10zm-85 -15c2,0 4,0 5,-2 2,-1 3,-3 3,-5 0,2 0,4 2,5 1,2 3,2 5,2l-15 0zm92 -1c2,-1 2,-2 3,-3 1,-1 2,-2 3,-3 -1,-1 -2,-2 -3,-3 -1,0 -1,-1 -3,-2 -1,1 -2,2 -3,2 -1,1 -1,2 -2,3 1,1 1,2 2,3 1,1 2,2 3,3zm-92 1l0 -14c0,2 1,4 2,5 2,2 4,2 6,2 -2,0 -4,1 -6,2 -1,2 -2,3 -2,5zm15 0c0,-2 -1,-3 -3,-5 -1,-1 -3,-2 -4,-2 1,0 3,0 4,-2 2,-1 3,-3 3,-5l0 14zm0 0c0,-2 0,-5 1,-7 -1,-2 -1,-4 -1,-7 2,0 5,1 7,2 2,-1 4,-2 7,-2 0,3 -1,5 -2,7 1,2 2,5 2,7 -3,0 -5,0 -7,-1 -2,1 -5,1 -7,1zm14 0c0,-3 1,-7 4,-10 3,-2 6,-4 10,-4 0,4 -1,8 -4,10 -3,3 -6,4 -10,4zm21 71l-7 -14c-4,0 -7,-1 -10,-4 -3,-3 -4,-6 -4,-10l0 -28c0,-4 1,-8 4,-10 3,-3 6,-5 10,-5l7 -14 7 14c4,0 7,2 10,5 3,2 4,6 4,10l0 28c0,4 -1,7 -4,10 -3,3 -6,4 -10,4l-7 14zm21 -71c-4,0 -7,-1 -10,-4 -3,-2 -4,-6 -4,-10 4,0 7,2 10,4 3,3 4,7 4,10zm7 0c-2,0 -3,0 -5,-2 -1,-1 -2,-3 -2,-5 0,-2 1,-3 2,-5 2,-1 3,-2 5,-2 2,0 4,1 5,2 2,2 2,3 2,5 0,2 0,4 -2,5 -1,2 -3,2 -5,2zm4 -14c-1,0 -2,-1 -2,-1 -1,-1 -1,-1 -1,-2 0,-1 0,-2 1,-2 0,-1 1,-1 2,-1 0,0 1,0 2,1 0,0 1,1 1,2 0,1 -1,1 -1,2 -1,0 -1,1 -2,1zm-74 7c0,-2 -1,-3 -3,-5 -1,-1 -3,-2 -5,-2 2,0 4,0 5,-2 2,-1 3,-3 3,-5 0,2 0,4 2,5 1,2 3,2 5,2 -2,0 -4,1 -5,2 -2,2 -2,3 -2,5zm67 -7c-1,0 -2,0 -3,-1 0,0 -1,-1 -1,-2 0,-1 1,-2 1,-3 1,-1 2,-1 3,-1 1,0 1,0 2,1 1,1 1,2 1,3 0,1 0,2 -1,2 -1,1 -1,1 -2,1zm0 -8c-1,0 -2,0 -2,0 -1,-1 -1,-2 -1,-2 0,-1 0,-2 1,-2 0,-1 1,-1 2,-1 0,0 1,0 2,1 0,0 0,1 0,2 0,0 0,1 0,2 -1,0 -1,0 -2,0zm-75 8l0 -14c0,2 1,4 2,5 2,1 4,2 6,2 -2,0 -4,1 -6,2 -1,2 -2,3 -2,5zm8 -7c0,-2 -1,-3 -3,-5 -1,-1 -3,-2 -5,-2l15 0c-2,0 -4,1 -5,2 -2,2 -2,3 -2,5zm7 7c0,-2 -1,-3 -3,-5 -1,-1 -3,-2 -4,-2 1,0 3,-1 4,-2 2,-1 3,-3 3,-5l0 14zm0 0c0,-2 0,-5 1,-7 -1,-2 -1,-4 -1,-7 2,0 5,1 7,2 2,-1 4,-2 7,-2 0,3 -1,5 -2,7 1,2 2,5 2,7 -3,0 -5,0 -7,-2 -2,2 -5,2 -7,2zm28 0c-4,0 -7,-1 -10,-4 -3,-3 -4,-6 -4,-10 4,0 7,1 10,4 3,3 4,6 4,10zm7 0l-7 -14 14 0 -7 14zm7 0c0,-4 1,-7 4,-10 3,-3 6,-4 10,-4 0,4 -1,7 -4,10 -3,3 -6,4 -10,4zm25 -7c-1,0 -2,0 -3,-1 0,-1 -1,-1 -1,-2 0,-1 1,-2 1,-3 1,-1 2,-1 3,-1 1,0 2,0 2,1 1,1 1,2 1,3 0,1 0,1 -1,2 0,1 -1,1 -2,1zm10 36l-7 -15 0 -14 7 -14 8 14 0 14 -8 15z"/>
   <path class="fil3" d="M955 654l0 0 0 0zm-70 0c0,-2 0,-3 2,-5 1,-1 3,-2 5,-2 0,2 -1,4 -2,5 -2,2 -3,2 -5,2zm14 0c-2,0 -4,0 -5,-2 -2,-1 -2,-3 -2,-5 2,0 3,1 5,2 1,2 2,3 2,5l0 0zm14 0c0,-2 1,-3 2,-5 1,-1 3,-2 5,-2 0,2 -1,4 -2,5 -1,2 -3,2 -5,2zm14 0c-2,0 -4,0 -5,-2 -1,-1 -2,-3 -2,-5 2,0 4,1 5,2 1,2 2,3 2,5l0 0zm50 -2c1,0 2,-1 3,-2 0,-1 1,-2 2,-3 -1,-1 -2,-2 -2,-3 -1,-1 -2,-1 -3,-2 -1,1 -3,1 -3,2 -1,1 -2,2 -3,3 1,1 2,2 3,3 0,1 2,2 3,2zm-85 -5c0,-2 0,-3 2,-5 1,-1 3,-2 5,-2l0 0c0,2 -1,4 -2,5 -2,2 -3,2 -5,2zm7 7l7 -14 7 14 -14 0zm21 -7c-2,0 -4,0 -5,-2 -1,-1 -2,-3 -2,-5l0 0c2,0 4,1 5,2 1,2 2,3 2,5zm0 0c0,-2 1,-3 2,-5 1,-1 3,-2 5,-2l0 0c0,2 -1,4 -2,5 -1,2 -3,2 -5,2zm35 7c0,-2 1,-5 2,-7 -1,-2 -2,-4 -2,-7l0 0c3,0 5,1 8,2 2,-1 4,-2 6,-2l1 0c0,3 -1,5 -2,7 1,2 2,5 2,7l-1 0c-2,0 -4,0 -6,-2 -3,2 -5,2 -8,2zm-63 -7c-2,0 -4,0 -5,-2 -2,-1 -2,-3 -2,-5 2,0 3,1 5,2 1,2 2,3 2,5zm14 -7l0 0 0 0zm49 14l-14 -14 14 0 0 14zm15 0l0 -14 14 0 0 14 -14 0zm-15 -14c2,0 4,-1 5,-2 2,-1 3,-3 3,-5 0,2 0,4 2,5 1,1 3,2 5,2l-15 0zm-56 0c-4,0 -7,-1 -10,-4 -3,-3 -4,-6 -4,-10 4,0 7,1 10,4 2,3 4,6 4,10zm7 0l-7 -14 14 0 -7 14zm7 0c0,-4 1,-7 4,-10 3,-3 6,-4 10,-4 0,4 -1,7 -4,10 -3,3 -6,4 -10,4zm14 14l0 -28 14 0 0 14 -7 -7 0 21 -7 0zm14 -14c0,-2 1,-5 2,-7 -1,-2 -2,-4 -2,-7 3,0 5,1 7,2 2,-1 5,-2 7,-2 0,3 0,5 -2,7 2,2 2,5 2,7 -2,0 -5,0 -7,-2 -2,2 -4,2 -7,2zm14 0l0 -14c0,2 1,4 2,5 2,1 3,2 6,2 -3,0 -4,1 -6,2 -1,2 -2,3 -2,5zm8 -7c0,-2 -1,-3 -3,-5 -1,-1 -3,-2 -5,-2l15 0c-2,0 -4,1 -5,2 -2,2 -2,3 -2,5zm7 7c0,-2 -1,-3 -3,-5 -1,-1 -3,-2 -4,-2 1,0 3,-1 4,-2 2,-1 3,-3 3,-5l0 14zm0 0c0,-2 0,-5 1,-7 -1,-2 -1,-4 -1,-7 2,0 4,1 7,2 2,-1 4,-2 7,-2 0,3 -1,5 -2,7 1,2 2,5 2,7 -3,0 -5,0 -7,-2 -3,2 -5,2 -7,2zm-29 -14c2,0 4,-1 5,-2 2,-1 2,-3 2,-5 0,2 1,4 2,5 2,1 3,2 5,2l-14 0zm-35 -6c0,0 -1,0 -1,0 0,0 -1,-1 -1,-1 0,0 1,-1 1,-1 0,0 1,0 1,0 0,0 1,0 1,0 0,0 0,1 0,1 0,0 0,1 0,1 0,0 -1,0 -1,0zm0 3c1,0 2,0 3,-1 1,-1 1,-2 1,-3 0,-1 0,-2 -1,-3 -1,-1 -2,-1 -3,-1 -1,0 -2,0 -3,1 -1,1 -1,2 -1,3 0,1 0,2 1,3 1,1 2,1 3,1zm28 0c1,0 2,0 3,-1 1,-1 1,-2 1,-3 0,-1 0,-2 -1,-3 -1,-1 -2,-1 -3,-1 -1,0 -2,0 -3,1 -1,1 -1,2 -1,3 0,1 0,2 1,3 1,1 2,1 3,1zm-49 3c0,-4 1,-7 4,-10 3,-3 6,-4 10,-4 0,4 -2,7 -4,10 -3,3 -6,4 -10,4zm21 0c-2,0 -4,-1 -5,-2 -1,-1 -2,-3 -2,-5 0,-2 1,-4 2,-5 1,-1 3,-2 5,-2 2,0 3,1 5,2 1,1 2,3 2,5 0,2 -1,4 -2,5 -2,1 -3,2 -5,2zm21 0c-4,0 -7,-1 -10,-4 -3,-3 -4,-6 -4,-10 4,0 7,1 10,4 3,3 4,6 4,10zm7 0c-2,0 -4,-1 -5,-2 -1,-1 -2,-3 -2,-5 0,-2 1,-4 2,-5 1,-1 3,-2 5,-2 2,0 4,1 5,2 2,1 2,3 2,5 0,2 0,4 -2,5 -1,1 -3,2 -5,2zm7 0l0 -14c0,2 1,4 2,5 2,1 3,2 5,2 -2,0 -3,1 -5,2 -1,1 -2,3 -2,5zm7 -7c0,-2 0,-4 -2,-5 -1,-1 -3,-2 -5,-2l14 0c-2,0 -3,1 -5,2 -1,1 -2,3 -2,5zm7 7c0,-2 0,-4 -2,-5 -1,-1 -3,-2 -5,-2 2,0 4,-1 5,-2 2,-1 2,-3 2,-5l0 14zm0 0c0,-3 1,-5 2,-7 -1,-2 -2,-5 -2,-7 3,0 5,0 8,2 2,-2 4,-2 7,-2 0,2 -1,5 -2,7 1,2 2,4 2,7 -3,0 -5,-1 -7,-2 -3,1 -5,2 -8,2zm15 0l0 -14 14 14 -14 0zm-61 -15c0,0 -1,0 -1,-1 -1,0 -1,-1 -1,-2 0,0 0,-1 0,-2 1,0 2,0 2,0 1,0 2,0 2,0 1,1 1,2 1,2 0,1 0,2 -1,2 0,1 -1,1 -2,1zm-7 1c-1,0 -2,0 -2,-1 -1,-1 -1,-2 -1,-3 0,-1 0,-1 1,-2 0,-1 1,-1 2,-1 1,0 2,0 3,1 1,1 1,1 1,2 0,1 0,2 -1,3 -1,1 -2,1 -3,1zm0 -8c0,0 -1,0 -2,-1 0,0 0,-1 0,-2 0,0 0,-1 0,-2 1,0 2,0 2,0 1,0 2,0 2,0 1,1 1,2 1,2 0,1 0,2 -1,2 0,1 -1,1 -2,1zm-3 8c-4,0 -7,-2 -10,-4 -3,-3 -4,-6 -4,-10 4,0 7,1 10,4 2,3 4,6 4,10zm10 -7c-1,0 -1,-1 -2,-1 -1,-1 -1,-2 -1,-3 0,-1 0,-1 1,-2 1,-1 1,-1 2,-1 1,0 2,0 3,1 1,1 1,1 1,2 0,1 0,2 -1,3 -1,0 -2,1 -3,1zm4 7c0,-4 1,-7 4,-10 3,-3 6,-4 10,-4 0,4 -1,7 -4,10 -3,2 -6,4 -10,4zm28 0l-14 -7 14 -7 7 3 7 -3 15 14 -15 0 -7 -4 -7 4zm-56 -14c0,-2 0,-4 2,-5 1,-2 3,-2 5,-2 0,2 -1,3 -2,5 -2,1 -3,2 -5,2zm14 0c-2,0 -4,-1 -5,-2 -2,-2 -2,-3 -2,-5 2,0 3,0 5,2 1,1 2,3 2,5zm0 0c2,0 3,-1 5,-2 1,-2 2,-3 2,-5 0,2 1,3 2,5 1,1 3,2 5,2l-14 0zm14 0c0,-2 1,-4 2,-5 1,-2 3,-2 5,-2 0,2 -1,3 -2,5 -1,1 -3,2 -5,2zm14 0c-2,0 -4,-1 -5,-2 -1,-2 -2,-3 -2,-5 2,0 4,0 5,2 1,1 2,3 2,5zm-35 -7c-2,0 -4,-1 -5,-2 -2,-2 -2,-3 -2,-5 2,0 3,0 5,2 1,1 2,3 2,5zm0 0c0,-2 0,-4 2,-5 1,-2 3,-2 5,-2 0,2 -1,3 -2,5 -2,1 -3,2 -5,2zm7 7l0 -14c0,2 1,3 2,5 1,1 3,2 5,2 -2,0 -4,0 -5,2 -1,1 -2,3 -2,5zm14 0c0,-2 -1,-4 -2,-5 -2,-2 -3,-2 -5,-2 2,0 3,-1 5,-2 1,-2 2,-3 2,-5l0 14zm7 -7c-2,0 -4,-1 -5,-2 -1,-2 -2,-3 -2,-5 2,0 4,0 5,2 1,1 2,3 2,5zm0 0c0,-2 1,-4 2,-5 1,-2 3,-2 5,-2 0,2 -1,3 -2,5 -1,1 -3,2 -5,2zm21 7l-14 -7 14 -7 7 3 7 -3 15 0 -15 14 -7 -4 -7 4zm-56 -14c0,-2 0,-4 2,-5 1,-2 3,-3 5,-3 0,2 -1,4 -2,6 -2,1 -3,2 -5,2zm14 0c-2,0 -4,-1 -5,-2 -2,-2 -2,-4 -2,-6 2,0 3,1 5,3 1,1 2,3 2,5zm7 7c0,-2 -1,-4 -2,-5 -2,-2 -3,-2 -5,-2 2,0 3,-1 5,-2 1,-2 2,-4 2,-6 0,2 1,4 2,6 1,1 3,2 5,2 -2,0 -4,0 -5,2 -1,1 -2,3 -2,5zm7 -7c0,-2 1,-4 2,-5 1,-2 3,-3 5,-3 0,2 -1,4 -2,6 -1,1 -3,2 -5,2zm14 0c-2,0 -4,-1 -5,-2 -1,-2 -2,-4 -2,-6 2,0 4,1 5,3 1,1 2,3 2,5zm14 0c2,0 4,-1 5,-2 2,-2 2,-4 2,-6 0,2 1,4 2,6 2,1 3,2 5,2l-14 0zm-7 -3c1,0 2,-1 3,-1 1,-1 1,-2 1,-4 0,-1 0,-2 -1,-2 -1,-1 -2,-2 -3,-2 -1,0 -2,1 -3,2 -1,0 -1,1 -1,2 0,2 0,3 1,4 1,0 2,1 3,1zm-42 -5c-2,0 -4,0 -5,-2 -2,-1 -2,-3 -2,-5 2,0 3,1 5,3 1,1 2,3 2,4zm0 0c0,-1 0,-3 2,-4 1,-2 3,-3 5,-3 0,2 -1,4 -2,5 -2,2 -3,2 -5,2zm7 8l0 -15c0,2 1,4 2,5 1,2 3,2 5,2 -2,0 -4,1 -5,3 -1,1 -2,3 -2,5zm7 -8c0,-1 -1,-3 -2,-4 -2,-2 -3,-3 -5,-3l14 0c-2,0 -4,1 -5,3 -1,1 -2,3 -2,4zm7 8c0,-2 -1,-4 -2,-5 -2,-2 -3,-3 -5,-3 2,0 3,0 5,-2 1,-1 2,-3 2,-5l0 15zm7 -8c-2,0 -4,0 -5,-2 -1,-1 -2,-3 -2,-5 2,0 4,1 5,3 1,1 2,3 2,4zm0 0c0,-1 1,-3 2,-4 1,-2 3,-3 5,-3 0,2 -1,4 -2,5 -1,2 -3,2 -5,2zm14 8c-2,0 -4,-1 -5,-2 -1,-2 -2,-4 -2,-6 0,-1 1,-3 2,-4 1,-2 3,-3 5,-3 2,0 4,1 5,3 2,1 2,3 2,4 0,2 0,4 -2,6 -1,1 -3,2 -5,2zm7 0l0 -15c0,2 1,4 2,5 2,2 3,2 5,2 -2,0 -3,1 -5,3 -1,1 -2,3 -2,5zm7 -8c0,-1 0,-3 -2,-4 -1,-2 -3,-3 -5,-3l14 0c-2,0 -3,1 -5,3 -1,1 -2,3 -2,4zm7 8c0,-2 0,-4 -2,-5 -1,-2 -3,-3 -5,-3 2,0 4,0 5,-2 2,-1 2,-3 2,-5l0 15zm0 0c0,-3 1,-5 2,-8 -1,-2 -2,-4 -2,-7 3,0 5,1 8,2 2,-1 4,-2 7,-2 0,3 -1,5 -2,7 1,3 2,5 2,8 -3,0 -5,-1 -7,-2 -3,1 -5,2 -8,2zm15 0l0 -15 14 0 -14 15zm-61 -15c0,0 -1,-1 -1,-1 -1,-1 -1,-1 -1,-2 0,-1 0,-1 0,-2 1,-1 2,-1 2,-1 1,0 2,0 2,1 1,1 1,1 1,2 0,1 0,1 -1,2 0,0 -1,1 -2,1zm-7 0c-1,0 -2,0 -2,-1 -1,0 -1,-1 -1,-2 0,-1 0,-2 1,-3 0,0 1,-1 2,-1 1,0 2,1 3,1 1,1 1,2 1,3 0,1 0,2 -1,2 -1,1 -2,1 -3,1zm53 0c2,0 4,0 5,-2 2,-1 3,-3 3,-5 0,2 0,4 2,5 1,2 3,2 5,2l-15 0zm-53 -7c0,0 -1,-1 -2,-1 0,-1 0,-1 0,-2 0,-1 0,-1 0,-2 1,-1 2,-1 2,-1 1,0 2,0 2,1 1,1 1,1 1,2 0,1 0,1 -1,2 0,0 -1,1 -2,1zm-17 7c0,-3 1,-7 4,-10 3,-2 6,-4 10,-4 0,4 -2,8 -4,10 -3,3 -6,4 -10,4zm24 -7c-1,0 -1,0 -2,-1 -1,0 -1,-1 -1,-2 0,-1 0,-2 1,-3 1,0 1,-1 2,-1 1,0 2,1 3,1 1,1 1,2 1,3 0,1 0,2 -1,2 -1,1 -2,1 -3,1zm18 7c-4,0 -7,-1 -10,-4 -3,-2 -4,-6 -4,-10 4,0 7,2 10,4 3,3 4,7 4,10zm14 0c0,-2 1,-5 2,-7 -1,-2 -2,-4 -2,-7 3,0 5,1 7,2 2,-1 5,-2 7,-2 0,3 0,5 -2,7 2,2 2,5 2,7 -2,0 -5,0 -7,-1 -2,1 -4,1 -7,1zm14 0l0 -14c0,2 1,4 2,5 2,2 3,2 6,2 -3,0 -4,1 -6,2 -1,2 -2,3 -2,5zm8 -7c0,-2 -1,-3 -3,-5 -1,-1 -3,-2 -5,-2l15 0c-2,0 -4,1 -5,2 -2,2 -2,3 -2,5zm7 7c0,-2 -1,-3 -3,-5 -1,-1 -3,-2 -4,-2 1,0 3,0 4,-2 2,-1 3,-3 3,-5l0 14zm0 0c0,-2 0,-5 1,-7 -1,-2 -1,-4 -1,-7 2,0 4,1 7,2 2,-1 4,-2 7,-2 0,3 -1,5 -2,7 1,2 2,5 2,7 -3,0 -5,0 -7,-1 -3,1 -5,1 -7,1zm-64 -19c0,0 -1,0 -1,-1 0,0 -1,0 -1,-1 0,0 1,0 1,-1 0,0 1,0 1,0 0,0 1,0 1,0 0,1 0,1 0,1 0,1 0,1 0,1 0,1 -1,1 -1,1zm0 3c1,0 2,-1 3,-2 1,-1 1,-2 1,-3 0,-1 0,-2 -1,-3 -1,-1 -2,-1 -3,-1 -1,0 -2,0 -3,1 -1,1 -1,2 -1,3 0,1 0,2 1,3 1,1 2,2 3,2zm71 0c1,0 2,-1 3,-2 0,-1 1,-2 2,-3 -1,-1 -2,-2 -2,-3 -1,-1 -2,-1 -3,-2 -1,1 -3,1 -3,2 -1,1 -2,2 -3,3 1,1 2,2 3,3 0,1 2,2 3,2zm-78 2c-4,0 -7,-1 -10,-4 -3,-3 -4,-6 -4,-10 4,0 7,1 10,4 2,3 4,6 4,10zm7 0c-2,0 -4,0 -5,-2 -1,-1 -2,-3 -2,-5 0,-2 1,-3 2,-5 1,-1 3,-2 5,-2 2,0 3,1 5,2 1,2 2,3 2,5 0,2 -1,4 -2,5 -2,2 -3,2 -5,2zm7 0c0,-4 1,-7 4,-10 3,-3 6,-4 10,-4 0,4 -1,7 -4,10 -3,3 -6,4 -10,4zm28 0l14 -14 0 14 -14 0zm14 0c0,-2 1,-5 2,-7 -1,-2 -2,-4 -2,-7 3,0 5,1 8,2 2,-1 4,-2 7,-2 0,3 -1,5 -2,7 1,2 2,5 2,7 -3,0 -5,0 -7,-2 -3,2 -5,2 -8,2zm15 0l0 -14 14 0 0 14 -14 0zm-85 -14c0,-4 1,-7 4,-10 3,-3 6,-4 10,-4 0,4 -2,7 -4,10 -3,3 -6,4 -10,4zm14 0l7 -14 7 14 -14 0zm28 0c-4,0 -7,-1 -10,-4 -3,-3 -4,-6 -4,-10 4,0 7,1 10,4 3,3 4,6 4,10zm-42 -14c0,-2 0,-4 2,-5 1,-1 3,-2 5,-2 0,2 -1,4 -2,5 -2,1 -3,2 -5,2zm14 0c-2,0 -4,-1 -5,-2 -2,-1 -2,-3 -2,-5 2,0 3,1 5,2 1,1 2,3 2,5zm14 0c0,-2 1,-4 2,-5 1,-1 3,-2 5,-2 0,2 -1,4 -2,5 -1,1 -3,2 -5,2zm14 0c-2,0 -4,-1 -5,-2 -1,-1 -2,-3 -2,-5 2,0 4,1 5,2 1,1 2,3 2,5zm-35 -7c-2,0 -4,-1 -5,-2 -2,-1 -2,-3 -2,-5 2,0 3,1 5,2 1,1 2,3 2,5zm0 0c0,-2 0,-4 2,-5 1,-1 3,-2 5,-2 0,2 -1,4 -2,5 -2,1 -3,2 -5,2zm14 7l-7 -14 14 0 -7 14zm14 -7c-2,0 -4,-1 -5,-2 -1,-1 -2,-3 -2,-5 2,0 4,1 5,2 1,1 2,3 2,5zm0 0c0,-2 1,-4 2,-5 1,-1 3,-2 5,-2 0,2 -1,4 -2,5 -1,1 -3,2 -5,2zm7 49l0 -56 7 0 0 49 7 -7 0 14 -14 0z"/>
   <path class="fil3" d="M998 654c2,0 3,0 5,-2 1,-1 2,-3 2,-5 0,2 1,4 2,5 1,2 3,2 5,2l0 0 -14 0zm64 -2c1,0 2,-1 2,-2 1,-1 2,-2 3,-3 -1,-1 -2,-2 -3,-3 0,-1 -1,-1 -2,-2 -2,1 -3,1 -4,2 0,1 -1,2 -2,3 1,1 2,2 2,3 1,1 2,2 4,2zm14 0c1,0 2,-1 3,-2 1,-1 1,-2 2,-3 -1,-1 -1,-2 -2,-3 -1,-1 -2,-1 -3,-2 -1,1 -2,1 -3,2 -1,1 -2,2 -3,3 1,1 2,2 3,3 1,1 2,2 3,2zm-78 2l0 -14 0 0c0,2 1,4 2,5 1,2 3,2 5,2 -2,0 -4,1 -5,2 -1,2 -2,3 -2,5zm14 0c0,-2 -1,-3 -2,-5 -1,-1 -3,-2 -5,-2 2,0 4,0 5,-2 1,-1 2,-3 2,-5l0 14zm14 0l7 -14 7 14 -14 0zm-28 -14l0 0 0 0c0,0 0,0 0,0zm14 0c0,0 0,0 0,0l0 0zm0 14c0,-4 1,-7 4,-10 3,-2 6,-4 10,-4l0 0c0,4 -1,7 -4,10 -3,3 -6,4 -10,4zm21 -14l0 0 0 0zm21 14c-4,0 -7,-1 -10,-4 -2,-3 -4,-6 -4,-10l0 0c4,0 8,2 10,4 3,3 5,6 5,10l-1 0zm-56 -14l0 0c0,0 0,0 0,0zm7 7c0,-2 -1,-3 -2,-5 -2,-1 -3,-2 -5,-2l14 0 0 0 0 0c-2,0 -4,1 -5,2 -1,2 -2,3 -2,5zm28 -7l0 0 0 0zm-35 0c0,-4 1,-7 4,-10 3,-3 6,-4 10,-4 0,4 -1,7 -4,10 -3,3 -6,4 -10,4zm28 0c-4,0 -7,-1 -10,-4 -3,-3 -4,-6 -4,-10 4,0 7,1 10,4 3,3 4,6 4,10zm14 0c0,-4 2,-7 4,-10 3,-3 7,-4 11,-4 0,4 -2,7 -5,10 -2,3 -6,4 -10,4zm-28 -14c-4,0 -7,-1 -10,-4 -3,-3 -4,-6 -4,-10 4,0 7,1 10,4 3,3 4,6 4,10zm43 28l0 -14 3 -7 -3 -7 7 -14 7 14 -4 7 4 7 3 -7 -3 -7 7 -14 7 14 -4 7 4 7 0 14 -28 0zm10 -43c-1,0 -1,0 -2,-1 0,0 -1,-1 -1,-2 0,0 0,-1 1,-2 1,0 1,0 2,0 1,0 1,0 2,0 1,1 1,2 1,2 0,1 0,2 -1,2 0,1 -1,1 -2,1zm14 0c0,0 -1,0 -2,-1 0,0 -1,-1 -1,-2 0,0 1,-1 1,-2 1,0 2,0 2,0 1,0 1,0 2,0 1,1 1,2 1,2 0,1 0,2 -1,2 0,1 -1,1 -2,1zm-39 8c2,0 4,-1 5,-2 2,-1 2,-3 2,-5 0,-2 0,-4 -2,-5 -1,-2 -3,-2 -5,-2l-14 0c-2,0 -4,0 -5,2 -1,1 -2,3 -2,5 0,2 1,4 2,5 1,1 3,2 5,2l14 0zm18 -7c-1,0 -2,0 -3,-1 0,-1 0,-2 0,-3 0,-1 0,-1 0,-2 1,-1 2,-1 3,-1 1,0 2,0 2,1 1,1 2,1 2,2 0,1 -1,2 -2,3 0,1 -1,1 -2,1zm14 0c-1,0 -2,0 -2,-1 -1,-1 -1,-2 -1,-3 0,-1 0,-1 1,-2 0,-1 1,-1 2,-1 1,0 2,0 3,1 0,1 1,1 1,2 0,1 -1,2 -1,3 -1,1 -2,1 -3,1zm-14 -8c-1,0 -1,0 -2,-1 -1,0 -1,-1 -1,-2 0,0 0,-1 1,-2 1,0 1,0 2,0 1,0 1,0 2,0 0,1 1,2 1,2 0,1 -1,2 -1,2 -1,1 -1,1 -2,1zm14 0c-1,0 -1,0 -2,-1 0,0 -1,-1 -1,-2 0,0 1,-1 1,-2 1,0 1,0 2,0 1,0 1,0 2,0 1,1 1,2 1,2 0,1 0,2 -1,2 0,1 -1,1 -2,1zm-74 8c0,-3 1,-5 2,-7 -1,-2 -2,-5 -2,-7 2,0 5,0 7,2 2,-2 4,-2 7,-2 0,2 -1,5 -2,7 1,2 2,4 2,7 -3,0 -5,-1 -7,-2 -2,1 -5,2 -7,2zm67 -7c-1,0 -2,-1 -3,-1 0,-1 0,-2 0,-3 0,-1 0,-1 0,-2 1,-1 2,-1 3,-1 1,0 2,0 3,1 0,1 1,1 1,2 0,1 -1,2 -1,3 -1,0 -2,1 -3,1zm14 0c-1,0 -2,-1 -2,-1 -1,-1 -1,-2 -1,-3 0,-1 0,-1 1,-2 0,-1 1,-1 2,-1 1,0 2,0 3,1 0,1 1,1 1,2 0,1 -1,2 -1,3 -1,0 -2,1 -3,1zm-81 -7c2,0 3,-1 5,-2 1,-2 2,-3 2,-5 0,2 1,3 2,5 1,1 3,2 5,2l-14 0zm35 -2c1,-1 2,-1 3,-2 1,-1 2,-2 2,-3 0,-1 -1,-2 -2,-3 -1,-1 -2,-2 -3,-2 -1,0 -2,1 -3,2 -1,1 -1,2 -2,3 1,1 1,2 2,3 1,1 2,1 3,2zm-35 2l0 -14c0,2 1,3 2,5 1,1 3,2 5,2 -2,0 -4,0 -5,2 -1,1 -2,3 -2,5zm21 -12c2,-2 5,-2 7,-2l-14 0c3,0 5,0 7,2zm36 12c-4,0 -8,-2 -11,-4 -2,-3 -4,-7 -4,-10 4,0 8,1 10,4 3,3 5,6 5,10zm0 0c0,-4 1,-7 3,-10 3,-3 7,-4 11,-4 0,3 -2,7 -5,10 -2,2 -6,4 -9,4zm28 0c-4,0 -8,-2 -10,-4 -3,-3 -4,-7 -4,-10 4,0 7,1 10,4 2,3 4,6 4,10zm-14 -14c-4,0 -8,-2 -11,-4 -2,-3 -3,-7 -3,-11 3,0 7,2 9,5 3,2 5,6 5,10zm0 0c0,-4 1,-8 4,-10 2,-3 6,-5 10,-5 0,4 -2,8 -4,11 -3,2 -6,4 -10,4zm-7 -20c-1,0 -1,0 -2,-1 0,0 0,0 0,-1 0,0 0,0 0,-1 1,0 1,0 2,0 0,0 0,0 0,0 1,1 1,1 1,1 0,1 0,1 -1,1 0,1 0,1 0,1zm14 0c-1,0 -1,0 -1,-1 -1,0 -1,0 -1,-1 0,0 0,0 1,-1 0,0 0,0 1,0 0,0 0,0 1,0 0,1 0,1 0,1 0,1 0,1 0,1 -1,1 -1,1 -1,1zm-14 3c1,0 2,-1 2,-2 1,-1 2,-2 2,-3 0,-1 -1,-2 -2,-3 0,0 -1,-1 -2,-1 -2,0 -3,1 -4,1 0,1 -1,2 -1,3 0,1 1,2 1,3 1,1 2,2 4,2zm14 0c1,0 2,-1 3,-2 1,-1 1,-2 1,-3 0,-1 0,-2 -1,-3 -1,0 -2,-1 -3,-1 -1,0 -2,1 -3,1 -1,1 -2,2 -2,3 0,1 1,2 2,3 1,1 2,2 3,2zm-14 2c-2,0 -4,0 -5,-2 -2,-1 -2,-3 -2,-5 0,-2 0,-3 2,-5 1,-1 3,-2 5,-2 2,0 3,1 4,2 2,2 3,3 3,5 0,2 -1,4 -3,5 -1,2 -2,2 -4,2zm14 0c-2,0 -4,0 -5,-2 -2,-1 -2,-3 -2,-5 0,-2 0,-3 2,-5 1,-1 3,-2 5,-2 2,0 3,1 5,2 1,2 2,3 2,5 0,2 -1,4 -2,5 -2,2 -3,2 -5,2zm-43 -16c1,0 2,-1 3,-2 1,-1 2,-2 2,-3 0,-1 -1,-2 -2,-3 -1,-1 -2,-1 -3,-2 -1,1 -2,1 -3,2 -1,1 -1,2 -2,3 1,1 1,2 2,3 1,1 2,2 3,2zm-35 2l0 -14 0 0c0,2 1,4 2,5 1,1 3,2 5,2 -2,0 -4,1 -5,2 -1,2 -2,3 -2,5zm7 -7c0,-2 -1,-3 -2,-5 -2,-1 -3,-2 -5,-2l14 0c-2,0 -4,1 -5,2 -1,2 -2,3 -2,5zm14 0c-2,0 -4,-1 -5,-2 -1,-1 -2,-3 -2,-5l0 0c2,0 4,1 5,2 1,2 2,3 2,5zm0 0c0,-2 1,-3 2,-5 1,-1 3,-2 5,-2 0,2 -1,4 -2,5 -1,1 -3,2 -5,2zm14 92l-7 -14c-4,0 -7,-1 -10,-4 -3,-3 -4,-6 -4,-10 0,-4 1,-7 4,-10 3,-3 6,-4 10,-4l0 -14c0,2 0,5 -2,7 2,2 2,4 2,7 -2,0 -5,-1 -7,-2 -2,1 -4,2 -7,2 0,-3 1,-5 2,-7 -1,-2 -2,-5 -2,-7l0 14c0,-2 -1,-4 -2,-5 -1,-2 -3,-2 -5,-2 2,0 4,-1 5,-2 1,-2 2,-3 2,-5 -2,0 -4,0 -5,2 -1,1 -2,3 -2,5 0,-2 -1,-4 -2,-5 -2,-2 -3,-2 -5,-2l0 -8 42 0c2,0 4,0 5,-2 2,-1 2,-3 2,-5 0,-2 0,-3 -2,-5 -1,-1 -3,-2 -5,-2l-42 0 0 -7c2,0 3,0 5,-2 1,-1 2,-3 2,-5 0,2 1,4 2,5 1,2 3,2 5,2 0,-2 -1,-3 -2,-5 -1,-1 -3,-2 -5,-2 2,0 4,-1 5,-2 1,-1 2,-3 2,-5l0 14c0,-2 1,-3 2,-5 1,-1 3,-2 5,-2 0,2 -1,4 -2,5 -1,2 -3,2 -5,2l14 0c-2,0 -4,0 -5,-2 -1,-1 -2,-3 -2,-5 2,0 4,1 5,2 1,2 2,3 2,5l0 -14 14 0 0 14c4,0 8,2 10,4 3,3 5,7 5,10 0,4 -2,8 -5,11 -2,2 -6,4 -10,4l0 14c4,0 8,1 10,4 3,3 5,6 5,10 0,4 -2,7 -5,10 -2,3 -6,4 -10,4l-7 14zm7 -85c0,-2 1,-5 2,-7 -1,-2 -2,-4 -2,-7 3,0 5,1 7,2 3,-1 5,-2 8,-2 0,3 -1,5 -2,7 1,2 2,5 2,7 -3,0 -5,0 -8,-2 -2,2 -4,2 -7,2zm29 0c-4,0 -8,-1 -11,-4 -2,-3 -3,-6 -3,-10 3,0 7,1 9,4 3,3 5,6 5,10zm0 0c0,-4 1,-7 4,-10 2,-3 6,-4 10,-4 0,4 -2,7 -4,10 -3,3 -6,4 -10,4z"/>
   <path class="fil3" d="M1097 711c2,0 4,-1 5,-2 1,-2 2,-3 2,-5 0,2 1,3 2,5 1,1 3,2 5,2l-14 0zm28 0c2,0 4,-1 5,-2 2,-2 2,-3 2,-5 0,2 1,3 2,5 2,1 3,2 5,2l-14 0zm-7 -2c1,-1 2,-1 3,-2 1,-1 2,-2 2,-3 0,-1 -1,-2 -2,-3 -1,-1 -2,-2 -3,-3 -1,1 -2,2 -3,3 -1,1 -1,2 -2,3 1,1 1,2 2,3 1,1 2,1 3,2zm57 0c1,-1 2,-1 3,-2 1,-1 1,-2 2,-3 -1,-1 -1,-2 -2,-3 -1,-1 -2,-2 -3,-3 -1,1 -2,2 -3,3 -1,1 -2,2 -2,3 0,1 1,2 2,3 1,1 2,1 3,2zm-78 2l0 -14c0,2 1,3 2,5 1,1 3,2 5,2 -2,0 -4,0 -5,2 -1,1 -2,3 -2,5zm42 0c0,-2 0,-4 -2,-5 -1,-2 -3,-2 -5,-2 2,0 4,-1 5,-2 2,-2 2,-3 2,-5l15 7 -15 7zm15 0c0,-3 0,-5 1,-7 -1,-2 -1,-5 -1,-7 2,0 4,0 7,1 2,-1 4,-1 7,-1 0,2 -1,5 -2,7 1,2 2,4 2,7 -3,0 -5,-1 -7,-2 -3,1 -5,2 -7,2zm28 0c0,-3 1,-5 2,-7 -1,-2 -2,-5 -2,-7 2,0 5,0 7,1 2,-1 4,-1 7,-1 0,2 -1,5 -2,7 1,2 2,4 2,7 -3,0 -5,-1 -7,-2 -2,1 -5,2 -7,2zm-18 -15c-1,0 -1,0 -2,-1 0,0 -1,-1 -1,-2 0,-1 1,-1 1,-2 1,0 1,-1 2,-1 1,0 1,1 2,1 1,1 1,1 1,2 0,1 0,2 -1,2 0,1 -1,1 -2,1zm29 0c-1,0 -2,0 -2,-1 -1,0 -1,-1 -1,-2 0,-1 0,-1 0,-2 1,0 2,-1 3,-1 0,0 1,1 1,1 1,1 1,1 1,2 0,1 0,2 0,2 -1,1 -2,1 -2,1zm-89 8c0,-2 -1,-4 -2,-5 -1,-2 -3,-2 -5,-2 2,0 4,-1 5,-3 1,-1 2,-2 2,-4 0,2 1,3 2,4 1,2 3,3 5,3 -2,0 -4,0 -5,2 -1,1 -2,3 -2,5zm28 0c0,-2 0,-4 -2,-5 -1,-2 -3,-2 -5,-2 2,0 4,-1 5,-3 2,-1 2,-2 2,-4 0,2 1,3 2,4 2,2 3,3 5,3 -2,0 -3,0 -5,2 -1,1 -2,3 -2,5zm25 -7c-1,0 -2,-1 -3,-1 0,-1 0,-2 0,-3 0,-1 0,-2 0,-2 1,-1 2,-1 3,-1 1,0 2,0 3,1 0,0 1,1 1,2 0,1 -1,2 -1,3 -1,0 -2,1 -3,1zm28 0c-1,0 -1,-1 -2,-1 -1,-1 -1,-2 -1,-3 0,-1 0,-2 1,-2 1,-1 1,-1 2,-1 1,0 2,0 3,1 1,0 1,1 1,2 0,1 0,2 -1,3 -1,0 -2,1 -3,1zm-67 -2c1,-1 2,-2 3,-2 1,-1 2,-2 2,-3 0,-2 -1,-3 -2,-3 -1,-1 -2,-2 -3,-3 -1,1 -2,2 -3,3 -1,0 -1,1 -2,3 1,1 1,2 2,3 1,0 2,1 3,2zm57 0c1,-1 2,-2 3,-2 1,-1 1,-2 2,-3 -1,-2 -1,-3 -2,-3 -1,-1 -2,-2 -3,-3 -1,1 -2,2 -3,3 -1,0 -2,1 -2,3 0,1 1,2 2,3 1,0 2,1 3,2zm-18 -6c-1,0 -1,0 -2,-1 0,0 -1,-1 -1,-2 0,-1 0,-1 1,-2 1,0 1,-1 2,-1 1,0 1,0 2,1 0,1 1,1 1,2 0,1 0,2 -1,2 0,1 -1,1 -2,1zm28 0c0,0 -1,0 -2,-1 0,0 0,-1 0,-2 0,-1 0,-1 0,-2 1,0 2,-1 2,-1 1,0 2,0 2,1 1,1 1,1 1,2 0,1 0,2 -1,2 0,1 -1,1 -2,1zm-88 8l0 -14c0,1 1,3 2,4 1,2 3,3 5,3 -2,0 -4,0 -5,2 -1,1 -2,3 -2,5zm42 0c0,-2 0,-4 -2,-5 -1,-2 -3,-2 -5,-2 2,0 4,-1 5,-3 2,-1 2,-3 2,-4l15 7 -15 7zm25 -7c-1,0 -2,-1 -2,-1 -1,-1 -1,-2 -1,-3 0,-1 0,-2 1,-3 0,0 1,0 2,0 1,0 2,0 3,0 0,1 1,2 1,3 0,1 -1,2 -1,3 -1,0 -2,1 -3,1zm29 0c-2,0 -2,-1 -3,-1 -1,-1 -1,-2 -1,-3 0,-1 0,-2 1,-3 1,0 1,0 3,0 0,0 1,0 2,0 1,1 1,2 1,3 0,1 0,2 -1,3 -1,0 -2,1 -2,1zm-39 -7c0,-4 1,-8 4,-11 2,-2 6,-4 10,-4 0,4 -2,8 -4,10 -3,3 -7,5 -10,5zm42 0c-4,0 -7,-2 -10,-5 -3,-2 -4,-6 -4,-10 4,0 7,2 10,4 3,3 4,7 4,11zm-85 28c0,-2 -1,-4 -2,-5 -1,-2 -3,-2 -5,-2 2,0 4,-1 5,-2 1,-2 2,-3 2,-5 0,-2 -1,-4 -2,-5 -1,-2 -3,-2 -5,-2 2,0 4,-1 5,-3 1,-1 2,-3 2,-4 -2,0 -4,0 -5,2 -1,1 -2,3 -2,5 0,-2 -1,-4 -2,-5 -1,-2 -3,-2 -5,-2l0 -7 42 0c2,-1 4,-1 5,-3 2,-1 3,-3 3,-5 0,-2 -1,-3 -3,-5 -1,-1 -3,-2 -5,-2l-42 0 0 -7 42 0c4,0 8,2 10,4 3,3 5,6 5,10 0,4 -2,8 -5,10 -2,3 -6,5 -10,5 -2,0 -3,0 -5,2 -1,1 -2,3 -2,5 0,-2 0,-4 -2,-5 -1,-2 -3,-2 -5,-2 0,1 1,3 2,4 2,2 3,3 5,3 -2,0 -3,0 -5,2 -1,1 -2,3 -2,5 0,2 1,3 2,5 2,1 3,2 5,2 -2,0 -3,0 -5,2 -1,1 -2,3 -2,5l-14 0zm57 -43c-4,0 -8,-1 -10,-4 -3,-3 -4,-6 -4,-10 3,0 7,2 10,4 2,3 4,6 4,10zm0 43l0 -28 3 -7 -3 -8 3 -7 -3 -7 14 0 -4 7 4 7 -4 8 4 7 0 28 -14 0zm14 -43c0,-4 1,-7 4,-10 3,-2 6,-4 10,-4 0,4 -1,7 -4,10 -3,3 -6,4 -10,4zm-57 -14c0,-2 1,-3 2,-5 2,-1 3,-2 5,-2 0,2 0,4 -2,5 -1,2 -3,2 -5,2zm14 0c-2,0 -3,0 -5,-2 -1,-1 -2,-3 -2,-5 2,0 4,1 5,2 2,2 2,3 2,5l0 0zm4 0c-1,0 -2,0 -3,-1 0,0 -1,-1 -1,-2 0,-1 1,-2 1,-3 1,0 2,-1 3,-1 1,0 2,1 2,1 1,1 2,2 2,3 0,1 -1,2 -2,2 0,1 -1,1 -2,1zm7 0c-1,0 -2,0 -3,-1 0,0 0,-1 0,-2 0,-1 0,-2 0,-3 1,0 2,-1 3,-1 1,0 2,1 3,1 0,1 1,2 1,3 0,1 -1,2 -1,2 -1,1 -2,1 -3,1zm25 -5c-1,0 -1,0 -1,-1 -1,0 -1,0 -1,-1 0,0 0,0 1,-1 0,0 0,0 1,0 0,0 0,0 1,0 0,1 0,1 0,1 0,1 0,1 0,1 -1,1 -1,1 -1,1zm0 3c1,0 2,-1 3,-2 1,-1 1,-2 1,-3 0,-1 0,-2 -1,-3 -1,-1 -2,-1 -3,-1 -1,0 -2,0 -3,1 -1,1 -2,2 -2,3 0,1 1,2 2,3 1,1 2,2 3,2zm-78 2c0,-4 1,-7 4,-10 3,-2 6,-4 10,-4 0,4 -1,7 -4,10 -3,3 -6,4 -10,4zm28 0c-4,0 -7,-1 -10,-4 -3,-3 -4,-6 -4,-10 4,0 7,2 10,4 3,3 4,6 4,10l0 0zm7 -7c-2,0 -3,0 -5,-2 -1,-1 -2,-3 -2,-5 2,0 4,1 5,2 2,2 2,3 2,5zm0 0c0,-2 1,-3 2,-5 2,-1 3,-2 5,-2 0,2 0,4 -2,5 -1,2 -3,2 -5,2zm11 0c-1,0 -2,0 -3,-1 0,0 -1,-1 -1,-2 0,-1 1,-2 1,-3 1,-1 2,-1 3,-1 1,0 2,0 2,1 1,1 2,2 2,3 0,1 -1,2 -2,2 0,1 -1,1 -2,1zm7 0c-1,0 -2,0 -3,-1 0,0 0,-1 0,-2 0,-1 0,-2 0,-3 1,-1 2,-1 3,-1 1,0 2,0 3,1 0,1 1,2 1,3 0,1 -1,2 -1,2 -1,1 -2,1 -3,1zm4 7c0,-4 1,-7 4,-10 2,-2 6,-4 10,-4 0,4 -2,7 -4,10 -3,3 -7,4 -10,4zm21 0c-2,0 -4,0 -5,-2 -2,-1 -2,-3 -2,-5 0,-2 0,-3 2,-5 1,-1 3,-2 5,-2 2,0 3,1 5,2 1,2 2,3 2,5 0,2 -1,4 -2,5 -2,2 -3,2 -5,2zm21 0c-4,0 -7,-1 -10,-4 -3,-3 -4,-6 -4,-10 4,0 7,2 10,4 3,3 4,6 4,10l0 0zm-18 -15c0,0 -1,0 -2,0 0,-1 -1,-2 -1,-2 0,-1 1,-2 1,-2 1,-1 2,-1 2,-1 1,0 2,0 2,1 1,0 1,1 1,2 0,0 0,1 -1,2 0,0 -1,0 -2,0zm-53 1c0,-2 1,-3 2,-5 2,-1 3,-2 5,-2 0,2 0,4 -2,5 -1,1 -3,2 -5,2zm14 0c-2,0 -3,-1 -5,-2 -1,-1 -2,-3 -2,-5 2,0 4,1 5,2 2,2 2,3 2,5zm4 0c-1,0 -2,0 -3,-1 0,-1 -1,-1 -1,-2 0,-1 1,-2 1,-3 1,-1 2,-1 3,-1 1,0 2,0 2,1 1,1 2,2 2,3 0,1 -1,1 -2,2 0,1 -1,1 -2,1zm7 0c-1,0 -2,0 -3,-1 0,-1 0,-1 0,-2 0,-1 0,-2 0,-3 1,-1 2,-1 3,-1 1,0 2,0 3,1 0,1 1,2 1,3 0,1 -1,1 -1,2 -1,1 -2,1 -3,1zm21 0c-1,0 -2,0 -2,-1 -1,-1 -1,-1 -1,-2 0,-1 0,-2 1,-3 0,-1 1,-1 2,-1 1,0 2,0 3,1 0,1 1,2 1,3 0,1 -1,1 -1,2 -1,1 -2,1 -3,1zm0 -8c0,0 -1,0 -2,0 0,-1 -1,-2 -1,-2 0,-1 1,-2 1,-2 1,-1 2,-1 2,-1 1,0 1,0 2,1 1,0 1,1 1,2 0,0 0,1 -1,2 0,0 -1,0 -2,0zm-60 8c0,-4 1,-7 4,-10 3,-2 6,-4 10,-4l0 0c0,4 -1,7 -4,10 -3,3 -6,4 -10,4zm21 -7c-2,0 -3,-1 -5,-2 -1,-1 -2,-3 -2,-5l0 0c2,0 4,1 5,2 2,2 2,3 2,5zm0 0c0,-2 1,-3 2,-5 2,-1 3,-2 5,-2l0 0c0,2 0,4 -2,5 -1,1 -3,2 -5,2zm36 7c-4,0 -8,-1 -10,-4 -3,-3 -4,-6 -4,-10l0 0c3,0 7,2 10,4 2,3 4,6 4,10zm14 0c0,-4 1,-7 4,-10 3,-2 6,-4 10,-4l0 0c0,4 -1,7 -4,10 -3,3 -6,4 -10,4zm-71 0c-4,0 -7,-1 -10,-4 -3,-3 -4,-6 -4,-10 4,0 7,1 10,4 3,3 4,6 4,10zm32 -7c-1,0 -2,0 -3,-1 0,-1 -1,-1 -1,-2 0,-1 1,-2 1,-3 1,-1 2,-1 3,-1 1,0 2,0 2,1 1,1 2,2 2,3 0,1 -1,1 -2,2 0,1 -1,1 -2,1zm7 0c-1,0 -2,0 -3,-1 0,-1 0,-1 0,-2 0,-1 0,-2 0,-3 1,-1 2,-1 3,-1 1,0 2,0 3,1 0,1 1,2 1,3 0,1 -1,1 -1,2 -1,1 -2,1 -3,1zm28 0c-1,0 -2,0 -2,-1 -1,-1 -1,-1 -1,-2 0,-1 0,-2 1,-3 0,-1 1,-1 2,-1 1,0 2,0 3,1 1,1 1,2 1,3 0,1 0,1 -1,2 -1,1 -2,1 -3,1zm0 -8c0,0 -1,0 -2,0 0,-1 -1,-2 -1,-3 0,0 1,-1 1,-1 1,-1 2,-1 2,-1 1,0 2,0 2,0 1,1 1,2 1,2 0,1 0,2 -1,3 0,0 -1,0 -2,0zm-24 1c0,-2 0,-4 2,-5 1,-1 3,-2 5,-2 0,2 -1,4 -3,5 -1,1 -2,2 -4,2zm14 0c-2,0 -4,-1 -5,-2 -2,-1 -2,-3 -2,-5 2,0 3,1 5,2 1,1 2,3 2,5zm3 0c-1,0 -2,0 -2,-1 -1,-1 -1,-2 -1,-3 0,0 0,-1 1,-2 0,-1 1,-1 2,-1 1,0 2,0 3,1 0,1 1,2 1,2 0,1 -1,2 -1,3 -1,1 -2,1 -3,1zm11 0c0,-2 1,-4 2,-5 1,-1 3,-2 5,-2 0,2 -1,4 -2,5 -2,1 -3,2 -5,2zm14 0c-2,0 -4,-1 -5,-2 -1,-1 -2,-3 -2,-5 2,0 4,1 5,2 1,1 2,3 2,5zm-25 -8c0,0 -1,0 -2,0 0,-1 -1,-2 -1,-3 0,0 1,-1 1,-1 1,-1 2,-1 2,-1 1,0 1,0 2,0 1,1 1,2 1,2 0,1 0,2 -1,3 0,0 -1,0 -2,0zm-74 8c0,-4 1,-7 4,-10 3,-3 6,-4 10,-4 0,4 -1,7 -4,10 -3,3 -6,4 -10,4zm28 0c-4,0 -7,-1 -10,-4 -3,-3 -4,-6 -4,-10 4,0 7,1 10,4 3,3 4,6 4,10zm36 -7c-2,0 -4,-1 -5,-2 -2,-1 -2,-3 -2,-5 2,0 3,1 4,2 2,1 3,3 3,5zm0 0c0,-2 0,-4 2,-5 1,-1 3,-2 5,-2 0,2 -1,4 -2,5 -2,1 -3,2 -5,2zm17 0c-1,0 -2,0 -2,-1 -1,-1 -1,-2 -1,-3 0,-1 0,-1 1,-2 0,-1 1,-1 2,-1 1,0 2,0 3,1 1,1 1,1 1,2 0,1 0,2 -1,3 -1,1 -2,1 -3,1zm11 0c-2,0 -4,-1 -5,-2 -1,-1 -2,-3 -2,-5 2,0 3,1 5,2 1,1 2,3 2,5zm0 0c0,-2 1,-4 2,-5 1,-1 3,-2 5,-2 0,2 -1,4 -2,5 -1,1 -3,2 -5,2zm-14 -13c-1,0 -1,0 -1,0 -1,0 -1,-1 -1,-1 0,-1 0,-1 1,-1 0,0 0,-1 1,-1 0,0 0,1 1,1 0,0 0,0 0,1 0,0 0,1 0,1 -1,0 -1,0 -1,0zm0 3c1,0 2,0 3,-1 1,-1 1,-2 1,-3 0,-1 0,-2 -1,-3 -1,-1 -2,-1 -3,-1 -1,0 -2,0 -3,1 -1,1 -2,2 -2,3 0,1 1,2 2,3 1,1 2,1 3,1zm-64 3c-4,0 -7,-2 -10,-4 -3,-3 -4,-6 -4,-10 4,0 7,1 10,4 3,3 4,6 4,10zm0 0c0,-4 1,-7 4,-10 3,-3 6,-4 10,-4 0,4 -1,7 -4,10 -3,2 -6,4 -10,4zm57 0c-4,0 -8,-2 -10,-4 -3,-3 -4,-6 -4,-10 3,0 7,1 10,4 2,3 4,6 4,10zm7 0c-2,0 -4,-1 -5,-2 -2,-2 -2,-3 -2,-5 0,-2 0,-4 2,-5 1,-2 3,-2 5,-2 2,0 3,0 5,2 1,1 2,3 2,5 0,2 -1,3 -2,5 -2,1 -3,2 -5,2zm7 0c0,-4 1,-7 4,-10 3,-3 6,-4 10,-4 0,4 -1,7 -4,10 -3,2 -6,4 -10,4zm-85 -14c0,-2 1,-4 2,-5 1,-2 3,-2 5,-2 0,2 -1,3 -2,5 -1,1 -3,2 -5,2zm14 0c-2,0 -4,-1 -5,-2 -1,-2 -2,-3 -2,-5 2,0 4,0 5,2 1,1 2,3 2,5zm0 0c0,-2 1,-4 2,-5 1,-2 3,-2 5,-2 0,2 -1,3 -2,5 -1,1 -3,2 -5,2zm14 0c-2,0 -3,-1 -5,-2 -1,-2 -2,-3 -2,-5 2,0 4,0 5,2 2,1 2,3 2,5zm-21 -7c-2,0 -4,-1 -5,-2 -1,-2 -2,-3 -2,-5 2,0 4,0 5,2 1,1 2,3 2,5zm0 0c0,-2 1,-4 2,-5 1,-2 3,-2 5,-2 0,2 -1,3 -2,5 -1,1 -3,2 -5,2zm14 0c-2,0 -4,-1 -5,-2 -1,-2 -2,-3 -2,-5 2,0 4,0 5,2 1,1 2,3 2,5zm0 0c0,-2 1,-4 2,-5 2,-2 3,-2 5,-2 0,2 0,3 -2,5 -1,1 -3,2 -5,2zm36 7c0,-4 1,-7 4,-10 2,-3 6,-4 10,-4 0,3 -2,7 -4,10 -3,2 -7,4 -10,4zm42 0c-4,0 -7,-2 -10,-4 -3,-3 -4,-7 -4,-10 4,0 7,1 10,4 3,3 4,6 4,10zm-92 -17c1,0 2,-1 3,-1 1,-1 1,-2 1,-4 0,-1 0,-2 -1,-2 -1,-1 -2,-2 -3,-2 -1,0 -2,1 -3,2 -1,0 -1,1 -1,2 0,2 0,3 1,4 1,0 2,1 3,1zm14 0c1,0 2,-1 3,-1 1,-1 1,-2 1,-4 0,-1 0,-2 -1,-2 -1,-1 -2,-2 -3,-2 -1,0 -2,1 -3,2 -1,0 -1,1 -1,2 0,2 0,3 1,4 1,0 2,1 3,1zm-14 3c-2,0 -4,-1 -5,-2 -1,-2 -2,-4 -2,-6 0,-1 1,-3 2,-4 1,-2 3,-3 5,-3 2,0 4,1 5,3 1,1 2,3 2,4 0,2 -1,4 -2,6 -1,1 -3,2 -5,2zm14 0c-2,0 -4,-1 -5,-2 -1,-2 -2,-4 -2,-6 0,-1 1,-3 2,-4 1,-2 3,-3 5,-3 2,0 4,1 5,3 2,1 2,3 2,4 0,2 0,4 -2,6 -1,1 -3,2 -5,2zm50 0c-4,0 -8,-2 -10,-4 -3,-3 -4,-7 -4,-11 3,0 7,2 10,5 2,2 4,6 4,10zm14 0c0,-4 1,-8 4,-10 3,-3 6,-5 10,-5 0,4 -1,8 -4,11 -3,2 -6,4 -10,4zm-18 -15c-1,0 -1,-1 -2,-1 0,-1 -1,-1 -1,-2 0,-1 1,-1 1,-2 1,-1 1,-1 2,-1 1,0 1,0 2,1 1,1 1,1 1,2 0,1 0,1 -1,2 0,0 -1,1 -2,1zm29 0c-1,0 -2,-1 -2,-1 -1,-1 -1,-1 -1,-2 0,-1 0,-1 0,-2 1,-1 2,-1 3,-1 0,0 1,0 1,1 1,1 1,1 1,2 0,1 0,1 0,2 -1,0 -2,1 -2,1zm-36 0c-1,0 -2,0 -3,-1 0,0 0,-1 0,-2 0,-1 0,-2 0,-3 1,0 2,-1 3,-1 1,0 2,1 3,1 0,1 1,2 1,3 0,1 -1,2 -1,2 -1,1 -2,1 -3,1zm28 0c-1,0 -1,0 -2,-1 -1,0 -1,-1 -1,-2 0,-1 0,-2 1,-3 1,0 1,-1 2,-1 1,0 2,1 3,1 1,1 1,2 1,3 0,1 0,2 -1,2 -1,1 -2,1 -3,1zm-81 -1c1,-1 2,-2 3,-3 1,-1 2,-2 2,-3 0,-1 -1,-2 -2,-3 -1,0 -2,-1 -3,-2 -1,1 -2,2 -3,2 -1,1 -2,2 -2,3 0,1 1,2 2,3 1,1 2,2 3,3l0 0zm14 0c1,-1 2,-2 3,-3 1,-1 2,-2 2,-3 0,-1 -1,-2 -2,-3 -1,0 -2,-1 -3,-2 -1,1 -2,2 -3,2 -1,1 -1,2 -2,3 1,1 1,2 2,3 1,1 2,2 3,3zm57 0c1,-1 2,-2 3,-3 1,-1 1,-2 2,-3 -1,-1 -1,-2 -2,-3 -1,0 -2,-1 -3,-2 -1,1 -2,2 -3,2 -1,1 -2,2 -2,3 0,1 1,2 2,3 1,1 2,2 3,3zm-18 -6c-1,0 -1,-1 -2,-1 0,-1 -1,-1 -1,-2 0,-1 0,-1 1,-2 1,-1 1,-1 2,-1 1,0 1,0 2,1 0,1 1,1 1,2 0,1 0,1 -1,2 0,0 -1,1 -2,1zm28 0c0,0 -1,-1 -2,-1 0,-1 0,-1 0,-2 0,-1 0,-1 0,-2 1,-1 2,-1 2,-1 1,0 2,0 2,1 1,1 1,1 1,2 0,1 0,1 -1,2 0,0 -1,1 -2,1zm-21 0c-1,0 -2,0 -2,-1 -1,0 -1,-1 -1,-2 0,-1 0,-2 1,-3 0,0 1,-1 2,-1 1,0 2,1 3,1 0,1 1,2 1,3 0,1 -1,2 -1,2 -1,1 -2,1 -3,1zm29 0c-2,0 -2,0 -3,-1 -1,0 -1,-1 -1,-2 0,-1 0,-2 1,-3 1,0 1,-1 3,-1 0,0 1,1 2,1 1,1 1,2 1,3 0,1 0,2 -1,2 -1,1 -2,1 -2,1zm-96 -7c0,-2 1,-3 2,-5 1,-1 3,-2 5,-2 0,2 -1,4 -2,5 -1,2 -3,2 -5,2zm14 0c-2,0 -4,0 -5,-2 -1,-1 -2,-3 -2,-5 2,0 4,1 5,2 1,2 2,3 2,5zm0 0c0,-2 1,-3 2,-5 1,-1 3,-2 5,-2 0,2 -1,4 -2,5 -1,2 -3,2 -5,2zm14 0c-2,0 -3,0 -5,-2 -1,-1 -2,-3 -2,-5 2,0 4,1 5,2 2,2 2,3 2,5zm50 -2c1,0 2,-1 3,-2 1,-1 1,-2 2,-3 -1,-1 -1,-2 -2,-3 -1,-1 -2,-1 -3,-2 -1,1 -2,1 -3,2 -1,1 -2,2 -2,3 0,1 1,2 2,3 1,1 2,2 3,2zm-71 -5c-2,0 -4,-1 -5,-2 -1,-1 -2,-3 -2,-5 2,0 4,1 5,2 1,2 2,3 2,5zm0 0c0,-2 1,-3 2,-5 1,-1 3,-2 5,-2 0,2 -1,4 -2,5 -1,1 -3,2 -5,2zm14 0c-2,0 -4,-1 -5,-2 -1,-1 -2,-3 -2,-5 2,0 4,1 5,2 1,2 2,3 2,5zm0 0c0,-2 1,-3 2,-5 2,-1 3,-2 5,-2 0,2 0,4 -2,5 -1,1 -3,2 -5,2zm21 78c-4,0 -7,-1 -10,-4 -2,-3 -4,-6 -4,-10l0 -43 -28 0 0 -14 28 0 0 -14 7 0 0 71c0,2 1,4 2,5 2,1 3,2 5,2 2,0 4,-1 5,-2 2,-1 3,-3 3,-5l0 -71 7 0 0 71c0,4 -2,7 -5,10 -2,3 -6,4 -10,4zm15 -71c0,-2 0,-5 1,-7 -1,-2 -1,-4 -1,-7 2,0 4,1 7,2 2,-1 4,-2 7,-2 0,3 -1,5 -2,7 1,2 2,5 2,7 -3,0 -5,0 -7,-2 -3,2 -5,2 -7,2zm14 43l3 -7 -3 -7 3 -8 -3 -7 0 -28 14 0 0 28 -4 7 4 8 -4 7 4 7 -14 0zm14 -43c0,-2 1,-5 2,-7 -1,-2 -2,-4 -2,-7 2,0 5,1 7,2 2,-1 4,-2 7,-2 0,3 -1,5 -2,7 1,2 2,5 2,7 -3,0 -5,0 -7,-2 -2,2 -5,2 -7,2z"/>
   <path class="fil3" d="M1210 654c2,0 4,0 5,-2 2,-1 2,-3 2,-5 0,2 1,4 2,5 2,2 3,2 5,2l0 0 -14 0zm64 -2c1,0 2,-1 3,-2 1,-1 1,-2 2,-3 -1,-1 -1,-2 -2,-3 -1,-1 -2,-1 -3,-2 -1,1 -2,1 -3,2 -1,1 -2,2 -2,3 0,1 1,2 2,3 1,1 2,2 3,2zm14 0c1,0 2,-1 3,-2 1,-1 2,-2 2,-3 0,-1 -1,-2 -2,-3 -1,-1 -2,-1 -3,-2 -1,1 -2,1 -3,2 -1,1 -2,2 -2,3 0,1 1,2 2,3 1,1 2,2 3,2zm-78 2l0 -14 0 0c0,2 1,4 2,5 2,2 3,2 5,2 -2,0 -3,1 -5,2 -1,2 -2,3 -2,5zm14 0c0,-2 0,-3 -2,-5 -1,-1 -3,-2 -5,-2 2,0 4,0 5,-2 1,-1 2,-3 2,-5l0 14zm15 0l7 -14 7 14 -14 0zm-29 -14l0 0 0 0c0,0 0,0 0,0zm14 0c0,0 0,0 0,0l0 0zm0 14c0,-4 2,-7 4,-10 3,-2 6,-4 10,-4l1 0c0,4 -2,7 -5,10 -3,3 -6,4 -10,4zm22 -14l0 0 0 0zm21 14c-4,0 -8,-1 -10,-4 -3,-3 -4,-6 -4,-10l0 0c4,0 7,2 10,4 2,3 4,6 4,10l0 0zm-57 -14l0 0c0,0 0,0 0,0zm7 7c0,-2 0,-3 -2,-5 -1,-1 -3,-2 -5,-2l14 0 0 0 0 0c-2,0 -3,1 -5,2 -1,2 -2,3 -2,5zm29 -7l0 0 0 0zm-36 0c0,-4 2,-7 4,-10 3,-3 6,-4 10,-4 0,4 -1,7 -4,10 -3,3 -6,4 -10,4zm29 0c-4,0 -8,-1 -11,-4 -2,-3 -4,-6 -4,-10 4,0 7,1 10,4 3,3 5,6 5,10zm14 0c0,-4 1,-7 4,-10 2,-3 6,-4 10,-4 0,4 -2,7 -4,10 -3,3 -6,4 -10,4zm-29 -14c-4,0 -7,-1 -10,-4 -2,-3 -4,-6 -4,-10 4,0 7,1 10,4 3,3 4,6 4,10zm43 28l0 -14 3 -7 -3 -7 7 -14 7 14 -4 7 4 7 4 -7 -4 -7 7 -14 7 14 -3 7 3 7 0 14 -28 0zm10 -43c0,0 -1,0 -2,-1 0,0 0,-1 0,-2 0,0 0,-1 0,-2 1,0 2,0 2,0 1,0 2,0 2,0 1,1 1,2 1,2 0,1 0,2 -1,2 0,1 -1,1 -2,1zm15 0c-1,0 -2,0 -2,-1 -1,0 -1,-1 -1,-2 0,0 0,-1 0,-2 1,0 2,0 3,0 0,0 1,0 1,0 1,1 1,2 1,2 0,1 0,2 0,2 -1,1 -2,1 -2,1zm-39 8c2,0 3,-1 5,-2 1,-1 2,-3 2,-5 0,-2 -1,-4 -2,-5 -2,-2 -3,-2 -5,-2l-14 0c-3,0 -4,0 -6,2 -1,1 -2,3 -2,5 0,2 1,4 2,5 2,1 3,2 6,2l14 0zm17 -7c-1,0 -2,0 -2,-1 -1,-1 -1,-2 -1,-3 0,-1 0,-1 1,-2 0,-1 1,-1 2,-1 1,0 2,0 3,1 1,1 1,1 1,2 0,1 0,2 -1,3 -1,1 -2,1 -3,1zm15 0c-2,0 -2,0 -3,-1 -1,-1 -1,-2 -1,-3 0,-1 0,-1 1,-2 1,-1 1,-1 3,-1 0,0 1,0 2,1 1,1 1,1 1,2 0,1 0,2 -1,3 -1,1 -2,1 -2,1zm-15 -8c0,0 -1,0 -2,-1 0,0 -1,-1 -1,-2 0,0 1,-1 1,-2 1,0 2,0 2,0 1,0 2,0 2,0 1,1 1,2 1,2 0,1 0,2 -1,2 0,1 -1,1 -2,1zm15 0c-1,0 -2,0 -2,-1 -1,0 -1,-1 -1,-2 0,0 0,-1 0,-2 1,0 2,0 3,0 0,0 1,0 1,0 1,1 1,2 1,2 0,1 0,2 0,2 -1,1 -2,1 -2,1zm-75 8c0,-3 1,-5 2,-7 -1,-2 -2,-5 -2,-7 3,0 5,0 7,2 2,-2 5,-2 7,-2 0,2 0,5 -2,7 2,2 2,4 2,7 -2,0 -5,-1 -7,-2 -2,1 -4,2 -7,2zm67 -7c-1,0 -1,-1 -2,-1 -1,-1 -1,-2 -1,-3 0,-1 0,-1 1,-2 1,-1 1,-1 2,-1 1,0 2,0 3,1 1,1 1,1 1,2 0,1 0,2 -1,3 -1,0 -2,1 -3,1zm15 0c-1,0 -2,-1 -3,-1 -1,-1 -1,-2 -1,-3 0,-1 0,-1 1,-2 1,-1 2,-1 3,-1 0,0 1,0 2,1 1,1 1,1 1,2 0,1 0,2 -1,3 -1,0 -2,1 -2,1zm-82 -7c2,0 4,-1 5,-2 2,-2 2,-3 2,-5 0,2 1,3 2,5 2,1 3,2 5,2l-14 0zm36 -2c1,-1 2,-1 2,-2 1,-1 2,-2 3,-3 -1,-1 -2,-2 -3,-3 0,-1 -1,-2 -2,-2 -2,0 -3,1 -4,2 0,1 -1,2 -2,3 1,1 2,2 2,3 1,1 2,1 4,2zm-36 2l0 -14c0,2 1,3 2,5 2,1 3,2 5,2 -2,0 -3,0 -5,2 -1,1 -2,3 -2,5zm21 -12c2,-2 5,-2 8,-2l-15 0c3,0 5,0 7,2zm36 12c-4,0 -8,-2 -10,-4 -3,-3 -4,-7 -4,-10 4,0 7,1 10,4 2,3 4,6 4,10zm0 0c0,-4 1,-7 4,-10 3,-3 6,-4 10,-4 0,3 -1,7 -4,10 -3,2 -6,4 -10,4zm28 0c-4,0 -7,-2 -10,-4 -3,-3 -4,-7 -4,-10 4,0 7,1 10,4 3,3 4,6 4,10zm-14 -14c-4,0 -7,-2 -10,-4 -3,-3 -4,-7 -4,-11 4,0 7,2 10,5 3,2 4,6 4,10zm0 0c0,-4 1,-8 4,-10 3,-3 6,-5 10,-5 0,4 -1,8 -4,11 -3,2 -6,4 -10,4zm-7 -20c-1,0 -1,0 -1,-1 -1,0 -1,0 -1,-1 0,0 0,0 1,-1 0,0 0,0 1,0 0,0 0,0 1,0 0,1 0,1 0,1 0,1 0,1 0,1 -1,1 -1,1 -1,1zm14 0c0,0 -1,0 -1,-1 0,0 0,0 0,-1 0,0 0,0 0,-1 0,0 1,0 1,0 0,0 1,0 1,0 0,1 0,1 0,1 0,1 0,1 0,1 0,1 -1,1 -1,1zm-14 3c1,0 2,-1 3,-2 1,-1 1,-2 1,-3 0,-1 0,-2 -1,-3 -1,0 -2,-1 -3,-1 -1,0 -2,1 -3,1 -1,1 -2,2 -2,3 0,1 1,2 2,3 1,1 2,2 3,2zm14 0c1,0 2,-1 3,-2 1,-1 1,-2 1,-3 0,-1 0,-2 -1,-3 -1,0 -2,-1 -3,-1 -1,0 -2,1 -3,1 -1,1 -1,2 -1,3 0,1 0,2 1,3 1,1 2,2 3,2zm-14 2c-2,0 -4,0 -5,-2 -2,-1 -2,-3 -2,-5 0,-2 0,-3 2,-5 1,-1 3,-2 5,-2 2,0 3,1 5,2 1,2 2,3 2,5 0,2 -1,4 -2,5 -2,2 -3,2 -5,2zm14 0c-2,0 -4,0 -5,-2 -1,-1 -2,-3 -2,-5 0,-2 1,-3 2,-5 1,-1 3,-2 5,-2 2,0 4,1 5,2 1,2 2,3 2,5 0,2 -1,4 -2,5 -1,2 -3,2 -5,2zm-42 -16c1,0 2,-1 2,-2 1,-1 2,-2 3,-3 -1,-1 -2,-2 -3,-3 0,-1 -1,-1 -2,-2 -2,1 -3,1 -4,2 0,1 -1,2 -2,3 1,1 2,2 2,3 1,1 2,2 4,2zm-36 2l0 -14 0 0c0,2 1,4 2,5 2,1 3,2 5,2 -2,0 -3,1 -5,2 -1,2 -2,3 -2,5zm7 -7c0,-2 0,-3 -2,-5 -1,-1 -3,-2 -5,-2l14 0c-2,0 -3,1 -5,2 -1,2 -2,3 -2,5zm14 0c-2,0 -3,-1 -5,-2 -1,-1 -2,-3 -2,-5l0 0c2,0 4,1 5,2 2,2 2,3 2,5zm0 0c0,-2 1,-3 2,-5 2,-1 3,-2 6,-2 0,2 -1,4 -3,5 -1,1 -3,2 -5,2zm15 92l-7 -14c-4,0 -8,-1 -11,-4 -2,-3 -4,-6 -4,-10 0,-4 2,-7 4,-10 3,-3 7,-4 11,-4l0 -14c0,2 -1,5 -2,7 1,2 2,4 2,7 -3,0 -6,-1 -8,-2 -2,1 -4,2 -7,2 0,-3 1,-5 2,-7 -1,-2 -2,-5 -2,-7l0 14c0,-2 0,-4 -2,-5 -1,-2 -3,-2 -5,-2 2,0 4,-1 5,-2 2,-2 2,-3 2,-5 -2,0 -3,0 -5,2 -1,1 -2,3 -2,5 0,-2 0,-4 -2,-5 -1,-2 -3,-2 -5,-2l0 -8 43 0c2,0 3,0 5,-2 1,-1 2,-3 2,-5 0,-2 -1,-3 -2,-5 -2,-1 -3,-2 -5,-2l-43 0 0 -7c2,0 4,0 5,-2 2,-1 2,-3 2,-5 0,2 1,4 2,5 2,2 3,2 5,2 0,-2 0,-3 -2,-5 -1,-1 -3,-2 -5,-2 2,0 4,-1 5,-2 2,-1 2,-3 2,-5l0 14c0,-2 1,-3 2,-5 2,-1 3,-2 5,-2 0,2 0,4 -2,5 -1,2 -3,2 -5,2l15 0c-3,0 -4,0 -6,-2 -1,-1 -2,-3 -2,-5 2,0 4,1 5,2 2,2 3,3 3,5l0 -14 14 0 0 14c4,0 7,2 10,4 2,3 4,7 4,10 0,4 -2,8 -4,11 -3,2 -6,4 -10,4l0 14c4,0 7,1 10,4 2,3 4,6 4,10 0,4 -2,7 -4,10 -3,3 -6,4 -10,4l-7 14zm7 -85c0,-2 0,-5 1,-7 -1,-2 -1,-4 -1,-7 2,0 5,1 7,2 2,-1 4,-2 7,-2 0,3 -1,5 -2,7 1,2 2,5 2,7 -3,0 -5,0 -7,-2 -2,2 -5,2 -7,2zm28 0c-4,0 -7,-1 -10,-4 -3,-3 -4,-6 -4,-10 4,0 7,1 10,4 3,3 4,6 4,10zm0 0c0,-4 1,-7 4,-10 3,-3 6,-4 10,-4 0,4 -1,7 -4,10 -3,3 -6,4 -10,4z"/>
   <path class="fil3" d="M1380 654c0,0 0,0 0,0l0 0 0 0zm14 0c0,0 0,0 0,0l0 0c0,0 0,0 0,0l0 0zm-85 0l0 -14 0 0c0,2 1,4 2,5 2,2 3,2 5,2 -2,0 -3,1 -5,2 -1,2 -2,3 -2,5zm99 0c0,-2 0,-3 -2,-5 -1,-1 -3,-2 -5,-2 2,0 4,0 5,-2 2,-1 2,-3 2,-5l0 14zm-99 -14l0 0c0,0 0,0 0,0zm14 0c0,-4 2,-7 4,-10 3,-2 7,-4 10,-4l1 0c0,4 -2,7 -5,10 -2,3 -6,4 -10,4zm0 0c-4,0 -7,-1 -10,-4 -2,-3 -4,-6 -4,-10 4,0 7,1 10,4 3,3 4,6 4,10zm-14 -14c0,-4 2,-7 4,-10 3,-3 6,-4 10,-4 0,4 -1,7 -4,10 -3,3 -6,4 -10,4zm29 0c-4,0 -8,-1 -11,-4 -2,-3 -4,-6 -4,-10 4,0 8,1 10,4 3,3 5,6 5,10zm42 0c0,-4 1,-7 4,-10 3,-3 6,-4 10,-4 0,4 -1,7 -4,10 -3,3 -6,4 -10,4zm28 0c-4,0 -7,-1 -10,-4 -3,-3 -4,-6 -4,-10 4,0 7,1 10,4 3,3 4,6 4,10zm-99 -14c0,-2 1,-4 2,-5 2,-2 3,-2 5,-2 0,2 0,3 -2,5 -1,1 -3,2 -5,2zm14 0c-2,0 -3,-1 -5,-2 -1,-2 -2,-3 -2,-5 2,0 4,0 5,2 2,1 2,3 2,5zm0 0c0,-2 1,-4 2,-5 2,-2 3,-2 6,-2 0,2 -1,3 -3,5 -1,1 -3,2 -5,2zm15 0c-3,0 -4,-1 -6,-2 -1,-2 -1,-3 -1,-5 1,0 3,0 4,2 2,1 3,3 3,5zm42 0c0,-2 1,-4 2,-5 1,-2 3,-2 5,-2 0,2 -1,3 -2,5 -1,1 -3,2 -5,2zm14 0c-2,0 -4,-1 -5,-2 -1,-2 -2,-3 -2,-5 2,0 4,0 5,2 1,1 2,3 2,5zm0 0c0,-2 1,-4 2,-5 1,-2 3,-2 5,-2 0,2 0,3 -2,5 -1,1 -3,2 -5,2zm14 0c-2,0 -3,-1 -5,-2 -1,-2 -2,-3 -2,-5 2,0 4,0 5,2 2,1 2,3 2,5zm-92 -7c-2,0 -3,-1 -5,-2 -1,-2 -2,-3 -2,-5 2,0 4,0 5,2 2,1 2,3 2,5zm0 0c0,-2 1,-4 2,-5 2,-2 3,-2 5,-2 0,2 0,3 -2,5 -1,1 -3,2 -5,2zm15 0c-3,0 -4,-1 -6,-2 -1,-2 -2,-3 -2,-5 2,0 4,0 5,2 2,1 3,3 3,5zm0 0c0,-2 0,-4 1,-5 2,-2 3,-2 6,-2 0,2 -1,3 -3,5 -1,1 -3,2 -4,2zm56 0c-2,0 -4,-1 -5,-2 -1,-2 -2,-3 -2,-5 2,0 4,0 5,2 1,1 2,3 2,5zm0 0c0,-2 1,-4 2,-5 1,-2 3,-2 5,-2 0,2 -1,3 -2,5 -1,1 -3,2 -5,2zm14 0c-2,0 -4,-1 -5,-2 -1,-2 -2,-3 -2,-5 2,0 4,0 5,2 2,1 2,3 2,5zm0 0c0,-2 1,-4 2,-5 2,-2 3,-2 5,-2 0,2 0,3 -2,5 -1,1 -3,2 -5,2zm-92 -7c0,-4 2,-7 4,-10 3,-3 6,-4 10,-4 0,3 -1,7 -4,10 -3,2 -6,4 -10,4zm29 0c-4,0 -8,-2 -11,-4 -2,-3 -4,-7 -4,-10 4,0 8,1 10,4 3,3 5,6 5,10zm42 0c0,-4 1,-7 4,-10 3,-3 6,-4 10,-4 0,3 -1,7 -4,10 -3,2 -6,4 -10,4zm28 0c-4,0 -7,-2 -10,-4 -3,-3 -4,-7 -4,-10 4,0 7,1 10,4 3,3 4,6 4,10zm-85 -14c-4,0 -7,-2 -10,-4 -2,-3 -4,-7 -4,-11 4,0 7,2 10,5 3,2 4,6 4,10zm0 0c0,-4 2,-8 4,-10 3,-3 7,-5 11,-5 0,4 -2,8 -5,11 -2,2 -6,4 -10,4zm-14 70c2,0 4,0 5,-2 2,-1 2,-3 2,-5 0,2 1,4 2,5 2,2 3,2 5,2 2,0 4,0 5,-2 2,-1 3,-3 3,-5 0,2 0,4 1,5 2,2 3,2 5,2l1 0c0,-2 -1,-3 -3,-5 -1,-1 -3,-2 -4,-2 1,0 3,0 4,-2 2,-1 3,-3 3,-5l-1 0c-2,0 -3,1 -5,2 -1,2 -1,3 -1,5 0,-2 -1,-3 -3,-5 -1,-1 -3,-2 -5,-2l0 0c0,2 1,4 2,5 2,2 3,2 6,2 -3,0 -4,1 -6,2 -1,2 -2,3 -2,5 0,-2 0,-3 -2,-5 -1,-1 -3,-2 -5,-2 2,0 4,0 5,-2 2,-1 2,-3 2,-5l0 0c-2,0 -3,1 -5,2 -1,2 -2,3 -2,5 0,-2 0,-3 -2,-5 -1,-1 -3,-2 -5,-2l29 0 0 -56c0,-4 1,-8 4,-10 2,-3 6,-5 10,-5l14 0c4,0 7,2 10,5 3,2 4,6 4,10l0 56 14 0c-4,0 -7,-1 -10,-4 -3,-3 -4,-6 -4,-10l0 0c4,0 7,2 10,4 3,3 4,6 4,10 0,-4 1,-7 4,-10 3,-2 6,-4 10,-4l0 0c0,4 -1,7 -4,10 -3,3 -6,4 -10,4l14 0 0 0 0 0c-2,0 -3,1 -5,2 -1,2 -2,3 -2,5 0,-2 0,-3 -2,-5 -1,-1 -3,-2 -5,-2l0 0c0,2 1,4 2,5 1,2 3,2 5,2 -2,0 -4,1 -5,2 -1,2 -2,3 -2,5 0,-2 -1,-3 -2,-5 -1,-1 -3,-2 -5,-2 2,0 4,0 5,-2 1,-1 2,-3 2,-5l0 0c-2,0 -4,1 -5,2 -1,2 -2,3 -2,5 0,-2 -1,-3 -2,-5 -1,-1 -3,-2 -5,-2l0 0c0,2 1,4 2,5 1,2 3,2 5,2 -2,0 -4,1 -5,2 -1,2 -2,3 -2,5l0 0c2,0 4,0 5,-2 1,-1 2,-3 2,-5 0,2 1,4 2,5 1,2 3,2 5,2l0 0c0,0 0,0 0,0l0 0c2,0 4,0 5,-2 2,-1 2,-3 2,-5 0,2 1,4 2,5 2,2 3,2 5,2l0 0 0 0 0 0 -35 0 0 -70c0,-2 -1,-4 -2,-5 -2,-2 -3,-3 -5,-3l-14 0c-2,0 -4,1 -5,3 -2,1 -2,3 -2,5l0 70 -36 0zm85 -70c-4,0 -7,-2 -10,-4 -3,-3 -4,-7 -4,-11 4,0 7,2 10,5 3,2 4,6 4,10zm0 0c0,-4 1,-8 4,-10 3,-3 6,-5 10,-5 0,4 -1,8 -4,11 -3,2 -6,4 -10,4zm-74 -15c-1,0 -2,-1 -2,-1 -1,-1 -1,-1 -1,-2 0,-1 0,-1 1,-2 0,-1 1,-1 2,-1 0,0 1,0 2,1 0,1 1,1 1,2 0,1 -1,1 -1,2 -1,0 -1,1 -2,1zm14 0c-1,0 -1,-1 -2,-1 -1,-1 -1,-1 -1,-2 0,-1 0,-1 1,-2 1,-1 1,-1 2,-1 1,0 1,0 2,1 0,1 1,1 1,2 0,1 -1,1 -1,2 -1,0 -1,1 -2,1zm57 0c-1,0 -2,-1 -2,-1 -1,-1 -1,-1 -1,-2 0,-1 0,-1 0,-2 1,-1 2,-1 3,-1 0,0 1,0 1,1 1,1 1,1 1,2 0,1 0,1 0,2 -1,0 -2,1 -2,1zm14 0c-1,0 -2,-1 -2,-1 -1,-1 -1,-1 -1,-2 0,-1 0,-1 1,-2 0,-1 1,-1 2,-1 0,0 1,0 2,1 0,1 0,1 0,2 0,1 0,1 0,2 -1,0 -1,1 -2,1zm-92 0c-1,0 -2,0 -3,-1 0,0 -1,-1 -1,-2 0,-1 1,-2 1,-3 1,0 2,-1 3,-1 1,0 2,1 2,1 1,1 1,2 1,3 0,1 0,2 -1,2 0,1 -1,1 -2,1zm14 0c-1,0 -2,0 -3,-1 0,0 -1,-1 -1,-2 0,-1 1,-2 1,-3 1,0 2,-1 3,-1 1,0 2,1 2,1 1,1 2,2 2,3 0,1 -1,2 -2,2 0,1 -1,1 -2,1zm57 0c-1,0 -2,0 -3,-1 -1,0 -1,-1 -1,-2 0,-1 0,-2 1,-3 1,0 2,-1 3,-1 0,0 1,1 2,1 1,1 1,2 1,3 0,1 0,2 -1,2 -1,1 -2,1 -2,1zm14 0c-1,0 -2,0 -3,-1 -1,0 -1,-1 -1,-2 0,-1 0,-2 1,-3 1,0 2,-1 3,-1 1,0 1,1 2,1 1,1 1,2 1,3 0,1 0,2 -1,2 -1,1 -1,1 -2,1zm-85 -7c-1,0 -2,-1 -2,-1 -1,-1 -1,-1 -1,-2 0,-1 0,-1 1,-2 0,-1 1,-1 2,-1 0,0 1,0 2,1 0,1 0,1 0,2 0,1 0,1 0,2 -1,0 -1,1 -2,1zm14 0c-1,0 -1,-1 -2,-1 -1,-1 -1,-1 -1,-2 0,-1 0,-1 1,-2 0,-1 1,-1 2,-1 1,0 1,0 2,1 0,1 1,1 1,2 0,1 -1,1 -1,2 -1,0 -1,1 -2,1zm57 0c-1,0 -2,-1 -2,-1 -1,-1 -1,-1 -1,-2 0,-1 0,-1 0,-2 1,-1 2,-1 3,-1 0,0 1,0 1,1 1,1 1,1 1,2 0,1 0,1 0,2 -1,0 -2,1 -2,1zm14 0c-1,0 -2,-1 -2,-1 -1,-1 -1,-1 -1,-2 0,-1 0,-1 0,-2 1,-1 2,-1 3,-1 0,0 1,0 1,1 1,1 1,1 1,2 0,1 0,1 0,2 -1,0 -2,1 -2,1zm-78 0c-1,0 -2,0 -3,-1 0,0 -1,-1 -1,-2 0,-1 1,-2 1,-3 1,0 2,-1 3,-1 1,0 2,1 2,1 1,1 1,2 1,3 0,1 0,2 -1,2 0,1 -1,1 -2,1zm14 0c-1,0 -2,0 -3,-1 0,0 0,-1 0,-2 0,-1 0,-2 0,-3 1,0 2,-1 3,-1 1,0 2,1 2,1 1,1 2,2 2,3 0,1 -1,2 -2,2 0,1 -1,1 -2,1zm4 7c0,-3 1,-7 4,-10 2,-2 6,-4 10,-4 0,4 -2,8 -4,10 -3,3 -7,4 -10,4zm14 0c0,-2 0,-5 1,-7 -1,-2 -1,-4 -1,-7 2,0 5,1 7,2 2,-1 4,-2 7,-2 0,3 -1,5 -2,7 1,2 2,5 2,7 -3,0 -5,0 -7,-1 -2,1 -5,1 -7,1zm28 0c-4,0 -7,-1 -10,-4 -3,-2 -4,-6 -4,-10 4,0 7,2 10,4 3,3 4,7 4,10zm11 -7c-1,0 -2,0 -3,-1 -1,0 -1,-1 -1,-2 0,-1 0,-2 1,-3 1,0 2,-1 3,-1 1,0 1,1 2,1 1,1 1,2 1,3 0,1 0,2 -1,2 -1,1 -1,1 -2,1zm14 0c-1,0 -2,0 -3,-1 0,0 -1,-1 -1,-2 0,-1 1,-2 1,-3 1,0 2,-1 3,-1 1,0 1,1 2,1 1,1 1,2 1,3 0,1 0,2 -1,2 -1,1 -1,1 -2,1zm-92 -7c-1,0 -2,0 -3,-1 0,0 -1,-1 -1,-2 0,-1 1,-2 1,-3 1,-1 2,-1 3,-1 1,0 2,0 2,1 1,1 1,2 1,3 0,1 0,2 -1,2 0,1 -1,1 -2,1zm7 0c-1,0 -2,0 -3,-1 0,0 -1,-1 -1,-2 0,-1 1,-2 1,-3 1,-1 2,-1 3,-1 1,0 2,0 2,1 1,1 1,2 1,3 0,1 0,2 -1,2 0,1 -1,1 -2,1zm7 0c-1,0 -2,0 -3,-1 0,0 -1,-1 -1,-2 0,-1 1,-2 1,-3 1,-1 2,-1 3,-1 1,0 2,0 2,1 1,1 2,2 2,3 0,1 -1,2 -2,2 0,1 -1,1 -2,1zm7 0c-1,0 -2,0 -3,-1 0,0 0,-1 0,-2 0,-1 0,-2 0,-3 1,-1 2,-1 3,-1 1,0 2,0 2,1 1,1 2,2 2,3 0,1 -1,2 -2,2 0,1 -1,1 -2,1zm50 0c-1,0 -2,0 -3,-1 -1,0 -1,-1 -1,-2 0,-1 0,-2 1,-3 1,-1 2,-1 3,-1 0,0 1,0 2,1 1,1 1,2 1,3 0,1 0,2 -1,2 -1,1 -2,1 -2,1zm7 0c-1,0 -2,0 -3,-1 -1,0 -1,-1 -1,-2 0,-1 0,-2 1,-3 1,-1 2,-1 3,-1 1,0 1,0 2,1 1,1 1,2 1,3 0,1 0,2 -1,2 -1,1 -1,1 -2,1zm7 0c-1,0 -2,0 -3,-1 -1,0 -1,-1 -1,-2 0,-1 0,-2 1,-3 1,-1 2,-1 3,-1 1,0 1,0 2,1 1,1 1,2 1,3 0,1 0,2 -1,2 -1,1 -1,1 -2,1zm7 0c-1,0 -2,0 -3,-1 0,0 -1,-1 -1,-2 0,-1 1,-2 1,-3 1,-1 2,-1 3,-1 1,0 1,0 2,1 1,1 1,2 1,3 0,1 0,2 -1,2 -1,1 -1,1 -2,1zm-92 -7c-1,0 -2,0 -3,-1 0,-1 -1,-1 -1,-2 0,-1 1,-2 1,-3 1,-1 2,-1 3,-1 1,0 2,0 2,1 1,1 1,2 1,3 0,1 0,1 -1,2 0,1 -1,1 -2,1zm7 0c-1,0 -2,0 -3,-1 0,-1 -1,-1 -1,-2 0,-1 1,-2 1,-3 1,-1 2,-1 3,-1 1,0 2,0 2,1 1,1 1,2 1,3 0,1 0,1 -1,2 0,1 -1,1 -2,1zm7 0c-1,0 -2,0 -3,-1 0,-1 -1,-1 -1,-2 0,-1 1,-2 1,-3 1,-1 2,-1 3,-1 1,0 2,0 2,1 1,1 2,2 2,3 0,1 -1,1 -2,2 0,1 -1,1 -2,1zm7 0c-1,0 -2,0 -3,-1 0,-1 0,-1 0,-2 0,-1 0,-2 0,-3 1,-1 2,-1 3,-1 1,0 2,0 2,1 1,1 2,2 2,3 0,1 -1,1 -2,2 0,1 -1,1 -2,1zm18 7c-4,0 -8,-1 -10,-4 -3,-3 -4,-6 -4,-10 3,0 7,1 10,4 2,3 4,6 4,10zm0 0c0,-2 0,-5 1,-7 -1,-2 -1,-4 -1,-7 2,0 5,1 7,2 2,-1 4,-2 7,-2 0,3 -1,5 -2,7 1,2 2,5 2,7 -3,0 -5,0 -7,-2 -2,2 -5,2 -7,2zm14 0c0,-4 1,-7 4,-10 3,-3 6,-4 10,-4 0,4 -1,7 -4,10 -3,3 -6,4 -10,4zm18 -7c-1,0 -2,0 -3,-1 -1,-1 -1,-1 -1,-2 0,-1 0,-2 1,-3 1,-1 2,-1 3,-1 0,0 1,0 2,1 1,1 1,2 1,3 0,1 0,1 -1,2 -1,1 -2,1 -2,1zm7 0c-1,0 -2,0 -3,-1 -1,-1 -1,-1 -1,-2 0,-1 0,-2 1,-3 1,-1 2,-1 3,-1 1,0 1,0 2,1 1,1 1,2 1,3 0,1 0,1 -1,2 -1,1 -1,1 -2,1zm7 0c-1,0 -2,0 -3,-1 -1,-1 -1,-1 -1,-2 0,-1 0,-2 1,-3 1,-1 2,-1 3,-1 1,0 1,0 2,1 1,1 1,2 1,3 0,1 0,1 -1,2 -1,1 -1,1 -2,1zm7 0c-1,0 -2,0 -3,-1 0,-1 -1,-1 -1,-2 0,-1 1,-2 1,-3 1,-1 2,-1 3,-1 1,0 1,0 2,1 1,1 1,2 1,3 0,1 0,1 -1,2 -1,1 -1,1 -2,1z"/>
   <path class="fil3" d="M1504 710c-1,0 -2,0 -2,-1 -1,0 -1,-1 -1,-2 0,0 0,-1 1,-2 0,0 1,-1 2,-1 0,0 1,1 2,1 0,1 1,2 1,2 0,1 -1,2 -1,2 -1,1 -1,1 -2,1zm-82 1c2,0 4,-1 5,-2 2,-2 3,-3 3,-5 0,2 0,3 2,5 1,1 3,2 5,2l-15 0zm18 0c-1,0 -2,-1 -3,-1 0,-1 0,-2 0,-3 0,-1 0,-2 0,-2 1,-1 2,-1 3,-1 1,0 2,0 3,1 0,0 1,1 1,2 0,1 -1,2 -1,3 -1,0 -2,1 -3,1zm7 0c-1,0 -2,-1 -2,-1 -1,-1 -1,-2 -1,-3 0,-1 0,-2 1,-2 0,-1 1,-1 2,-1 1,0 2,0 3,1 0,0 1,1 1,2 0,1 -1,2 -1,3 -1,0 -2,1 -3,1zm50 0c-1,0 -2,-1 -3,-1 0,-1 -1,-2 -1,-3 0,-1 1,-2 1,-2 1,-1 2,-1 3,-1 1,0 1,0 2,1 1,0 1,1 1,2 0,1 0,2 -1,3 -1,0 -1,1 -2,1zm0 -8c-1,0 -2,0 -2,-1 -1,0 -1,-1 -1,-2 0,0 0,-1 1,-2 0,0 1,-1 2,-1 0,0 1,1 2,1 0,1 0,2 0,2 0,1 0,2 0,2 -1,1 -2,1 -2,1zm-75 8l0 -14c0,2 1,3 2,5 2,1 3,2 6,2 -3,0 -4,0 -6,2 -1,1 -2,3 -2,5zm15 0c0,-2 -1,-4 -3,-5 -1,-2 -3,-2 -4,-2 1,0 3,-1 4,-2 2,-2 3,-3 3,-5l0 14zm3 -7c-1,0 -2,-1 -3,-1 0,-1 0,-2 0,-3 0,-1 0,-2 0,-2 1,-1 2,-1 3,-1 1,0 2,0 3,1 0,0 1,1 1,2 0,1 -1,2 -1,3 -1,0 -2,1 -3,1zm7 0c-1,0 -2,-1 -2,-1 -1,-1 -1,-2 -1,-3 0,-1 0,-2 1,-2 0,-1 1,-1 2,-1 1,0 2,0 3,1 0,0 1,1 1,2 0,1 -1,2 -1,3 -1,0 -2,1 -3,1zm4 7c0,-3 0,-5 2,-7 -2,-2 -2,-5 -2,-7 2,0 5,0 7,1 2,-1 4,-1 7,-1 0,2 -1,5 -2,7 1,2 2,4 2,7 -3,0 -5,-1 -7,-2 -2,1 -5,2 -7,2zm14 0l7 -14 7 14 -14 0zm14 0c0,-3 1,-5 2,-7 -1,-2 -2,-5 -2,-7 3,0 5,0 7,1 2,-1 5,-1 7,-1 0,2 0,5 -2,7 2,2 2,4 2,7 -2,0 -5,-1 -7,-2 -2,1 -4,2 -7,2zm25 -7c-1,0 -2,-1 -3,-1 0,-1 -1,-2 -1,-3 0,-1 1,-2 1,-2 1,-1 2,-1 3,-1 1,0 2,0 2,1 1,0 1,1 1,2 0,1 0,2 -1,3 0,0 -1,1 -2,1zm-74 0c0,-2 -1,-4 -3,-5 -1,-2 -3,-2 -5,-2 2,0 4,-1 5,-3 2,-1 3,-2 3,-4 0,2 0,3 2,4 1,2 3,3 5,3 -2,0 -4,0 -5,2 -2,1 -2,3 -2,5zm10 -7c-1,0 -2,-1 -3,-1 0,-1 0,-2 0,-3 0,-1 0,-2 0,-2 1,-1 2,-1 3,-1 1,0 2,0 3,1 0,0 1,1 1,2 0,1 -1,2 -1,3 -1,0 -2,1 -3,1zm7 0c-1,0 -2,-1 -2,-1 -1,-1 -1,-2 -1,-3 0,-1 0,-2 1,-2 0,-1 1,-1 2,-1 1,0 2,0 3,1 0,0 1,1 1,2 0,1 -1,2 -1,3 -1,0 -2,1 -3,1zm67 -2c1,-1 2,-2 3,-2 1,-1 2,-2 3,-3 -1,-2 -2,-3 -3,-3 -1,-1 -2,-2 -3,-3 -1,1 -2,2 -3,3 -1,0 -1,1 -2,3 1,1 1,2 2,3 1,0 2,1 3,2zm-92 2l0 -14c0,1 1,3 2,4 2,2 3,3 6,3 -3,0 -4,0 -6,2 -1,1 -2,3 -2,5zm36 -13c2,-1 4,-1 7,-1l-14 0c2,0 5,0 7,1zm21 13c0,-3 1,-5 2,-7 -1,-3 -2,-5 -2,-7 3,0 5,0 7,1 2,-1 5,-1 7,-1 0,2 0,4 -2,7 2,2 2,4 2,7 -2,0 -5,-1 -7,-2 -2,1 -4,2 -7,2zm28 0c-4,0 -7,-2 -10,-4 -2,-3 -4,-7 -4,-10 4,0 7,1 10,4 3,2 4,6 4,10zm-14 -14c0,-4 2,-8 4,-11 3,-2 6,-4 10,-4 0,4 -1,8 -4,10 -3,3 -6,5 -10,5zm21 28l-7 -14 0 -14 7 -15 8 15 0 14 -8 14zm0 -48c0,0 0,0 -1,-1 0,0 0,0 0,-1 0,0 0,0 0,-1 1,0 1,0 1,0 1,0 1,0 1,0 1,1 1,1 1,1 0,1 0,1 -1,1 0,1 0,1 -1,1zm0 3c1,0 2,-1 3,-2 1,-1 2,-2 2,-3 0,-1 -1,-2 -2,-3 -1,-1 -2,-1 -3,-1 -1,0 -2,0 -3,1 -1,1 -1,2 -1,3 0,1 0,2 1,3 1,1 2,2 3,2zm-7 2c-4,0 -7,-1 -10,-4 -2,-3 -4,-6 -4,-10 4,0 7,2 10,4 3,3 4,6 4,10zm7 0c-2,0 -3,0 -5,-2 -1,-1 -2,-3 -2,-5 0,-2 1,-3 2,-5 2,-1 3,-2 5,-2 2,0 4,1 5,2 2,2 3,3 3,5 0,2 -1,4 -3,5 -1,2 -3,2 -5,2zm-84 -16c1,0 2,-1 2,-2 1,-1 2,-2 3,-3 -1,-1 -2,-2 -3,-3 0,-1 -1,-1 -2,-2 -2,1 -3,1 -4,2 0,1 -1,2 -2,3 1,1 2,2 2,3 1,1 2,2 3,2l1 0zm7 2c0,-2 0,-5 1,-7 -1,-2 -1,-4 -1,-7 2,0 4,1 7,2 2,-1 4,-2 7,-2 0,3 -1,5 -2,7 1,2 2,5 2,7l0 0c-3,0 -5,0 -7,-2 -3,2 -5,2 -7,2zm14 0c0,-4 1,-7 4,-10 3,-2 6,-4 10,-4 0,4 -1,7 -4,10 -3,3 -6,4 -10,4zm42 0c-4,0 -7,-1 -10,-4 -3,-3 -4,-6 -4,-10 4,0 7,2 10,4 3,3 4,6 4,10l0 0zm0 0c0,-4 2,-7 4,-10 3,-2 6,-4 10,-4 0,4 -1,7 -4,10 -3,3 -6,4 -10,4zm28 0c-4,0 -7,-1 -10,-4 -2,-3 -4,-6 -4,-10 4,0 8,2 10,4 3,3 5,6 5,10l-1 0zm-91 -16c1,0 2,-1 2,-2 1,-1 2,-2 3,-3 -1,-1 -2,-2 -3,-3 0,-1 -1,-1 -2,-2 -2,1 -3,1 -4,2 0,1 -1,2 -2,3 1,1 2,2 2,3 1,1 2,2 3,2l1 0zm7 59c0,-2 -1,-4 -3,-5 -1,-2 -3,-2 -4,-2 1,0 3,-1 4,-3 2,-1 3,-3 3,-4 -2,0 -4,0 -5,2 -2,1 -2,3 -2,5 0,-2 -1,-4 -3,-5 -1,-2 -3,-2 -5,-2l0 -7 57 0c2,-1 4,-1 5,-3 1,-1 2,-3 2,-5 0,-2 -1,-3 -2,-5 -1,-1 -3,-2 -5,-2l-57 0 0 -35 15 0 0 28 28 0 7 -14 7 14c4,0 7,2 10,4 3,3 4,6 4,10 0,4 -1,8 -4,10 -3,3 -6,5 -10,5l-7 14 -7 -14c0,2 -1,4 -2,7 1,2 2,4 2,7 -3,0 -5,-1 -7,-2 -2,1 -5,2 -7,2 0,-3 0,-5 2,-7 -2,-3 -2,-5 -2,-7l-4 0c1,0 2,0 3,0 0,1 1,2 1,3 0,1 -1,2 -1,3 -1,0 -2,1 -3,1 -1,0 -2,-1 -2,-1 -1,-1 -1,-2 -1,-3 0,-1 0,-2 1,-3 0,0 1,0 2,0l-7 0c1,0 2,0 3,0 0,1 1,2 1,3 0,1 -1,2 -1,3 -1,0 -2,1 -3,1 -1,0 -2,-1 -3,-1 0,-1 0,-2 0,-3 0,-1 0,-2 0,-3 1,0 2,0 3,0l-3 0 0 14zm0 -57c0,-2 0,-5 1,-7 -1,-2 -1,-4 -1,-7 2,0 4,1 7,2 2,-1 4,-2 7,-2 0,3 -1,5 -2,7 1,2 2,5 2,7 -3,0 -5,0 -7,-2 -3,2 -5,2 -7,2zm28 0c-4,0 -7,-1 -10,-4 -3,-3 -4,-6 -4,-10 4,0 7,1 10,4 3,3 4,6 4,10zm14 0c0,-4 1,-7 4,-10 3,-3 6,-4 10,-4 0,4 -1,7 -4,10 -3,3 -6,4 -10,4zm28 0c-4,0 -7,-1 -10,-4 -2,-3 -4,-6 -4,-10 4,0 7,1 10,4 3,3 4,6 4,10zm0 0c0,-4 2,-7 4,-10 3,-3 7,-4 11,-4 0,4 -2,7 -5,10 -2,3 -6,4 -10,4zm-85 -14c0,-4 2,-7 4,-10 3,-3 7,-4 11,-4 0,4 -2,7 -5,10 -2,3 -6,4 -10,4zm29 0c-4,0 -8,-1 -10,-4 -3,-3 -4,-6 -4,-10 3,0 7,1 10,4 2,3 4,6 4,10zm42 0c0,-4 2,-7 4,-10 3,-3 6,-4 10,-4 0,4 -1,7 -4,10 -3,3 -6,4 -10,4zm29 0c-4,0 -8,-1 -11,-4 -2,-3 -4,-6 -4,-10 4,0 8,1 10,4 3,3 5,6 5,10zm-85 -14c-4,0 -8,-2 -11,-4 -2,-3 -4,-6 -4,-10 4,0 8,1 10,4 3,3 5,6 5,10zm0 0c0,-4 1,-7 4,-10 2,-3 6,-4 10,-4 0,4 -2,7 -4,10 -3,2 -7,4 -10,4zm70 0c-4,0 -7,-2 -10,-4 -2,-3 -4,-6 -4,-10 4,0 7,1 10,4 3,3 4,6 4,10zm0 0c0,-4 2,-7 4,-10 3,-3 7,-4 11,-4 0,4 -2,7 -5,10 -2,2 -6,4 -10,4zm7 -20c0,0 0,0 -1,0 0,-1 0,-1 0,-1 0,-1 0,-1 0,-1 1,-1 1,-1 1,-1 1,0 1,0 1,1 1,0 1,0 1,1 0,0 0,0 -1,1 0,0 0,0 -1,0zm0 3c1,0 2,0 3,-1 1,-1 2,-2 2,-3 0,-1 -1,-2 -2,-3 -1,-1 -2,-2 -3,-2 -1,0 -2,1 -3,2 -1,1 -1,2 -1,3 0,1 0,2 1,3 1,1 2,1 3,1zm-92 3c0,-4 2,-7 4,-10 3,-3 7,-4 11,-4 0,3 -2,7 -5,10 -2,2 -6,4 -10,4zm29 0c-4,0 -8,-2 -10,-4 -3,-3 -4,-7 -4,-10 3,0 7,1 10,4 2,3 4,6 4,10zm42 0c0,-4 2,-7 4,-10 3,-3 6,-4 10,-4 0,3 -1,7 -4,10 -3,2 -6,4 -10,4zm21 0c-2,0 -3,-1 -5,-2 -1,-2 -2,-3 -2,-5 0,-2 1,-4 2,-5 2,-2 3,-2 5,-2 2,0 4,0 5,2 2,1 3,3 3,5 0,2 -1,3 -3,5 -1,1 -3,2 -5,2zm-35 21c2,0 4,-1 5,-2 1,-1 2,-3 2,-5l0 -28c0,-2 -1,-4 -2,-5 -1,-2 -3,-3 -5,-3l-14 0c-2,0 -4,1 -5,3 -1,1 -2,3 -2,5l0 28c0,2 1,4 2,5 1,1 3,2 5,2l14 0zm-42 -35c-4,0 -8,-2 -11,-4 -2,-3 -4,-7 -4,-11 4,0 8,2 10,5 3,2 5,6 5,10zm0 0c0,-4 1,-8 4,-10 2,-3 6,-5 10,-5 0,4 -2,8 -4,11 -3,2 -7,4 -10,4zm70 0c-4,0 -7,-2 -10,-4 -2,-3 -4,-7 -4,-11 4,0 7,2 10,5 3,2 4,6 4,10zm-85 -15c2,0 4,0 5,-2 2,-1 3,-3 3,-5 0,2 0,4 2,5 1,2 3,2 5,2l-15 0zm92 -1c1,-1 2,-2 3,-3 1,-1 2,-2 3,-3 -1,-1 -2,-2 -3,-3 -1,0 -2,-1 -3,-2 -1,1 -2,2 -3,2 -1,1 -1,2 -2,3 1,1 1,2 2,3 1,1 2,2 3,3zm-92 1l0 -14c0,2 1,4 2,5 2,2 3,2 6,2 -3,0 -4,1 -6,2 -1,2 -2,3 -2,5zm15 0c0,-2 -1,-3 -3,-5 -1,-1 -3,-2 -4,-2 1,0 3,0 4,-2 2,-1 3,-3 3,-5l0 14zm0 0c0,-2 0,-5 1,-7 -1,-2 -1,-4 -1,-7 2,0 4,1 7,2 2,-1 4,-2 7,-2 0,3 -1,5 -2,7 1,2 2,5 2,7 -3,0 -5,0 -7,-1 -3,1 -5,1 -7,1zm14 0c0,-3 1,-7 4,-10 3,-2 6,-4 10,-4 0,4 -1,8 -4,10 -3,3 -6,4 -10,4zm21 71l-7 -14c-4,0 -7,-1 -10,-4 -3,-3 -4,-6 -4,-10l0 -28c0,-4 1,-8 4,-10 3,-3 6,-5 10,-5l7 -14 7 14c4,0 7,2 10,5 3,2 4,6 4,10l0 28c0,4 -1,7 -4,10 -3,3 -6,4 -10,4l-7 14zm21 -71c-4,0 -7,-1 -10,-4 -3,-2 -4,-6 -4,-10 4,0 7,2 10,4 3,3 4,7 4,10zm7 0c-2,0 -3,0 -5,-2 -1,-1 -2,-3 -2,-5 0,-2 1,-3 2,-5 2,-1 3,-2 5,-2 2,0 4,1 5,2 2,2 2,3 2,5 0,2 0,4 -2,5 -1,2 -3,2 -5,2zm4 -14c-1,0 -2,-1 -2,-1 -1,-1 -1,-1 -1,-2 0,-1 0,-2 1,-2 0,-1 1,-1 2,-1 0,0 1,0 2,1 0,0 1,1 1,2 0,1 -1,1 -1,2 -1,0 -1,1 -2,1zm-74 7c0,-2 -1,-3 -3,-5 -1,-1 -3,-2 -5,-2 2,0 4,0 5,-2 2,-1 3,-3 3,-5 0,2 0,4 2,5 1,2 3,2 5,2 -2,0 -4,1 -5,2 -2,2 -2,3 -2,5zm67 -7c-1,0 -2,0 -3,-1 0,0 -1,-1 -1,-2 0,-1 1,-2 1,-3 1,-1 2,-1 3,-1 1,0 1,0 2,1 1,1 1,2 1,3 0,1 0,2 -1,2 -1,1 -1,1 -2,1zm0 -8c-1,0 -2,0 -2,0 -1,-1 -1,-2 -1,-2 0,-1 0,-2 1,-2 0,-1 1,-1 2,-1 0,0 1,0 2,1 0,0 0,1 0,2 0,0 0,1 0,2 -1,0 -2,0 -2,0zm-75 8l0 -14c0,2 1,4 2,5 2,1 3,2 6,2 -3,0 -4,1 -6,2 -1,2 -2,3 -2,5zm8 -7c0,-2 -1,-3 -3,-5 -1,-1 -3,-2 -5,-2l15 0c-2,0 -4,1 -5,2 -2,2 -2,3 -2,5zm7 7c0,-2 -1,-3 -3,-5 -1,-1 -3,-2 -4,-2 1,0 3,-1 4,-2 2,-1 3,-3 3,-5l0 14zm0 0c0,-2 0,-5 1,-7 -1,-2 -1,-4 -1,-7 2,0 4,1 7,2 2,-1 4,-2 7,-2 0,3 -1,5 -2,7 1,2 2,5 2,7 -3,0 -5,0 -7,-2 -3,2 -5,2 -7,2zm28 0c-4,0 -7,-1 -10,-4 -3,-3 -4,-6 -4,-10 4,0 7,1 10,4 3,3 4,6 4,10zm7 0l-7 -14 14 0 -7 14zm7 0c0,-4 1,-7 4,-10 3,-3 6,-4 10,-4 0,4 -1,7 -4,10 -3,3 -6,4 -10,4zm25 -7c-1,0 -2,0 -3,-1 0,-1 -1,-1 -1,-2 0,-1 1,-2 1,-3 1,-1 2,-1 3,-1 1,0 2,0 2,1 1,1 1,2 1,3 0,1 0,1 -1,2 0,1 -1,1 -2,1zm10 36l-7 -15 0 -14 7 -14 8 14 0 14 -8 15z"/>
  </g>
  <line class="fil4" x1="726" y1="255" x2="726" y2= "900" />
  <line class="fil4 str1" x1="726" y1="255" x2="726" y2= "900" />
 </g>
</svg>
