<?xml version="1.0" encoding="UTF-8"?>
<!DOCTYPE svg PUBLIC "-//W3C//DTD SVG 1.1//EN" "http://www.w3.org/Graphics/SVG/1.1/DTD/svg11.dtd">
<!-- Creator: CorelDRAW X8 -->
<svg xmlns="http://www.w3.org/2000/svg" xml:space="preserve" width="69.3208mm" height="48.6812mm" version="1.1" style="shape-rendering:geometricPrecision; text-rendering:geometricPrecision; image-rendering:optimizeQuality; fill-rule:evenodd; clip-rule:evenodd"
viewBox="0 0 171 120"
 xmlns:xlink="http://www.w3.org/1999/xlink">
 <defs>
  <style type="text/css">
   <![CDATA[
    .fil1 {fill:#FEFEFE}
    .fil0 {fill:#E61D4C}
   ]]>
  </style>
 </defs>
 <g id="Layer_x0020_1">
  <metadata id="CorelCorpID_0Corel-Layer"/>
  <polygon class="fil0" points="0,0 171,0 171,120 0,120 "/>
  <g id="_862996064">
   <path class="fil1" d="M132 69c6,0 11,5 11,11 0,1 0,1 0,2l0 8c0,1 -1,2 -2,2l0 0c-1,0 -2,-1 -2,-2l0 -1c-2,1 -5,2 -7,2 -7,0 -12,-5 -12,-11 0,-6 5,-11 12,-11zm0 4c4,0 7,3 7,7 0,4 -3,8 -7,8 -4,0 -8,-4 -8,-8 0,-4 4,-7 8,-7z"/>
   <path class="fil1" d="M61 91l0 -26c0,-3 0,-4 3,-4l7 0c1,0 11,4 5,14 9,6 5,19 -5,19l-7 0c-3,0 -3,-1 -3,-3zm4 -17l0 -9 5 0c5,1 5,9 0,9l-5 0zm0 16l0 -12 7 0c7,1 6,12 0,12l-7 0z"/>
   <path class="fil1" d="M88 61l0 0c1,0 2,1 2,2l0 27 0 0c0,0 0,0 0,0l1 0c1,0 2,1 2,2l0 0c0,1 -1,2 -2,2l0 0c-1,0 -1,0 -1,0l-2 0c0,0 0,0 0,0 0,0 0,0 0,0l0 0c-1,0 -2,-1 -2,-2l0 0c0,0 0,0 0,0l0 0c0,0 0,0 0,0l0 -29c0,-1 1,-2 2,-2z"/>
   <path class="fil1" d="M98 93l0 0c-1,0 -2,-1 -2,-2l0 -19c0,-1 1,-2 2,-2l0 0c2,0 3,1 3,2l0 19c0,1 -1,2 -3,2z"/>
   <circle class="fil1" cx="99" cy="66" r="3"/>
   <path class="fil1" d="M109 61l0 0c2,0 3,1 3,2l0 7 2 0c1,0 2,1 2,3l0 0c0,1 -1,2 -2,2l-2 0 0 1c0,0 0,0 -1,0 0,3 0,7 0,9 0,3 2,4 4,4 4,0 4,4 1,4 -1,0 -8,1 -9,-8l0 -10 -1 0c-1,0 -2,-1 -2,-2l0 0c0,-2 1,-3 2,-3l1 0 0 -7c0,-1 1,-2 2,-2z"/>
   <path class="fil1" d="M150 70l0 0c1,0 2,1 2,2l0 0c3,-2 7,-3 11,-2 4,2 2,6 -1,4 -6,-1 -10,1 -10,7l0 9c0,2 -1,2 -2,2l0 0c-2,0 -3,0 -3,-2l0 -18c0,-1 1,-2 3,-2z"/>
   <g>
    <path class="fil1" d="M28 64c2,-2 0,0 1,-1 0,-1 0,0 0,-1 0,0 1,-1 1,-1 0,-1 0,-4 0,-5 0,-1 0,0 -1,-1 0,0 0,0 0,-1 -1,0 -1,0 -1,0 -1,-1 0,-2 -1,-2l0 0c0,0 0,0 1,0 1,-1 1,-1 3,-1 1,-1 3,-1 4,-2 0,0 0,0 1,0 0,0 1,0 1,0 1,1 2,1 2,1 1,0 2,0 3,0 1,0 0,0 0,1 1,0 1,0 1,0 1,0 1,0 1,0l0 1 0 0c0,1 0,0 -2,2 -1,2 0,1 0,2 -1,1 -1,0 -1,1 1,2 0,2 1,5 1,0 0,0 1,0 0,1 0,1 0,1l3 3 0 0 0 -1c0,0 0,0 0,0l0 0c-1,-1 -2,-1 -2,-2 -1,-1 0,-1 -1,-1 0,-1 0,0 -1,-1 0,-2 0,-4 0,-6 1,-1 2,-1 2,-2l1 0c0,-2 0,-2 0,-3 -1,0 -1,1 -1,1 -1,0 0,0 -1,0 0,0 0,0 0,0l0 -2c-1,0 -1,0 -1,0 0,-1 0,-1 0,-2l0 1 -1 -1c0,0 0,0 0,0 0,-1 0,-1 0,-1 -1,0 -1,0 -1,0 0,-1 0,-1 0,-1 0,0 0,0 0,-1 -1,0 0,0 -1,0l0 -1c0,0 0,0 0,0 0,-1 0,-1 0,-1 0,-1 -1,0 -1,-2 0,-1 0,-1 0,-2 0,0 0,0 1,0 -1,-1 -2,-1 -2,-2 0,0 0,0 0,0 0,0 0,0 0,0 0,0 -1,0 -1,0l-1 -1c0,0 -1,1 -1,1 -1,1 -2,2 -2,2l0 0c0,0 1,0 1,0 0,1 0,1 -1,2 1,1 0,2 0,2 0,1 0,0 0,1l0 1c-1,0 0,0 -1,0l0 1 0 0c0,1 0,1 0,1l-1 0 0 1 0 0 0 1c-1,0 -1,0 -1,0 0,1 0,1 0,1 0,0 0,0 -1,0l0 2c0,0 0,0 -1,0 0,0 0,0 -1,0 0,2 0,2 1,2 0,1 0,0 0,1 1,0 1,1 2,1 0,1 0,1 0,1 1,2 1,5 0,6 -1,1 0,1 -1,1 0,1 -1,1 -1,1 -1,0 -1,1 -1,1 0,0 0,0 0,0l0 0c1,0 1,0 2,-1zm6 -24c0,0 0,0 0,0 2,-1 1,0 3,0 0,-1 -1,-1 -2,-1 0,0 0,0 -1,0 0,1 0,1 0,1zm-4 17c2,0 1,-1 3,0 0,-1 0,-1 0,-1 -1,0 -1,0 -2,0 0,0 -1,0 -1,1zm7 -20c0,0 0,0 0,0 0,1 0,2 0,2 1,1 1,0 1,2l0 1c0,1 0,0 1,1l0 0c0,1 0,1 0,1l0 0c0,1 0,1 1,1 0,1 -1,1 -1,1l1 0c0,1 0,1 0,1l1 0 0 1c0,0 0,0 0,0 1,0 0,0 1,0 -1,1 -1,1 -1,1 1,0 1,0 1,0l0 1c-1,0 -2,0 -3,-1 0,0 -1,0 -2,0 -2,0 -1,-1 -2,-1 0,1 -1,1 -2,1 0,0 0,0 -1,1l-1 0c-1,0 -1,1 -2,1l0 -1c0,0 1,0 1,-1 0,0 0,0 0,0l0 0 0 -1 0 0 1 0c0,-1 0,-1 0,-1 0,0 0,0 1,-1 -1,0 -1,-1 0,-1l0 -2c0,0 0,0 0,0l0 0c1,-1 0,0 1,-1 0,0 0,0 0,-1 0,0 0,-1 0,-1 0,0 1,0 1,-1 0,-1 0,-1 -1,-2 1,0 0,0 1,0 0,0 1,-1 1,-1 1,0 1,1 2,1zm0 26c0,0 0,0 0,-1l0 -4c0,-1 0,-1 0,-2l0 0c0,3 0,5 0,7zm-4 -19c1,0 2,-1 2,-1 1,0 2,0 3,0 0,0 -2,-1 -3,-1 0,0 -2,1 -2,2zm-1 20l1 -1c1,-1 0,-5 0,-6l0 0 0 6c0,0 -1,0 -1,1zm4 -8c3,0 3,0 5,0l0 1c0,-1 0,-1 0,-1 0,0 -1,0 -2,0 0,0 -1,-1 -1,-1 0,0 -2,1 -2,1zm-4 -9c1,0 1,0 2,0 0,-1 1,-1 1,-1 1,0 4,1 5,1 -1,-1 -2,-1 -2,-1 -1,0 -2,0 -2,-1 -1,0 -4,1 -4,2zm-2 6c1,0 2,-1 3,-1 3,-1 2,0 5,0 1,0 3,0 3,1l0 -1c-1,0 -4,-1 -6,-1 0,0 -4,1 -5,2zm5 0l0 3c0,1 0,1 0,1 0,1 0,7 0,7 0,1 0,1 0,1 0,-2 0,-3 0,-4l0 -7c0,0 0,-1 0,-2 0,0 0,0 0,1zm4 10c0,-1 0,-5 -1,-6 2,0 2,0 2,3 0,1 0,2 0,3l0 0c0,-1 0,-1 0,-2l0 -4 -2 0c0,1 0,2 0,3l0 2c0,1 0,1 1,1zm-8 -6c0,2 0,4 0,6l0 0c0,-1 0,-1 0,-2 0,-1 0,-2 0,-3 0,0 1,-1 1,-1 0,3 0,5 0,7 0,0 0,0 0,-2 0,0 0,-4 0,-5 0,0 -1,0 -1,0z"/>
    <path class="fil1" d="M32 21c14,0 26,12 26,26 0,15 -12,26 -26,26 -15,0 -26,-11 -26,-26 0,-14 11,-26 26,-26zm5 6c11,0 20,9 20,21 0,11 -9,20 -20,20 -12,0 -21,-9 -21,-20 0,-12 9,-21 21,-21z"/>
    <g>
     <path class="fil1" d="M45 73c-7,5 -20,5 -28,0l4 7c6,4 13,6 19,5l5 -12z"/>
     <path class="fil1" d="M37 89c-5,-1 -9,-2 -13,-4l8 13 5 -9z"/>
    </g>
   </g>
  </g>
 </g>
</svg>
