<?xml version="1.0" encoding="utf-8"?>
<!-- Generator: Adobe Illustrator 16.0.0, SVG Export Plug-In . SVG Version: 6.00 Build 0)  -->
<!DOCTYPE svg PUBLIC "-//W3C//DTD SVG 1.1//EN" "http://www.w3.org/Graphics/SVG/1.1/DTD/svg11.dtd">
<svg version="1.1" id="Layer_1" xmlns="http://www.w3.org/2000/svg" xmlns:xlink="http://www.w3.org/1999/xlink" x="0px" y="0px"
	 width="196.504px" height="138.006px" viewBox="0 0 196.504 138.006" enable-background="new 0 0 196.504 138.006"
	 xml:space="preserve">
<g id="Layer_x0020_1">
	
		<radialGradient id="SVGID_1_" cx="20267.4785" cy="-13882.0713" r="10691.0684" gradientTransform="matrix(0.0049 0 0 -0.0035 -326.3409 -194.4265)" gradientUnits="userSpaceOnUse">
		<stop  offset="0" style="stop-color:#DE7DAF"/>
		<stop  offset="1" style="stop-color:#B04B87"/>
	</radialGradient>
	<rect y="0" fill="url(#SVGID_1_)" width="196.504" height="138.006"/>
	<g id="_499304560">
		<g>
			<path fill="#FEFEFE" d="M61.137,60.747c-5.553,6.169-3.703,15.118,1.85,25.612c-0.925-4.63-0.307-9.566-0.617-14.506
				C62.062,68.151,60.52,65.373,61.137,60.747z"/>
			<path fill="#FEFEFE" d="M56.819,71.238c-1.854,5.555-0.31,12.344,4.01,17.896c4.011,5.863,10.796,10.186,15.732,7.717
				C67.923,99.008,60.83,87.283,56.819,71.238z"/>
			<path fill="#FEFEFE" d="M75.944,51.489c-1.232,6.787-7.403,10.491-10.489,17.281c-3.393,7.095-3.7,18.822,2.16,24.376
				c-4.317-5.862-2.774-12.034-0.924-16.664c1.542-3.394,4.01-5.554,5.86-8.64C75.329,63.523,77.179,57.35,75.944,51.489
				L75.944,51.489z"/>
			<path fill="#FEFEFE" d="M73.786,49.02c0-6.791-2.467-13.27-6.478-19.133c1.232,6.173,1.542,11.728,0,16.046
				c-0.311,0.618-1.236,0.308-1.543,1.543c-0.311,0.618,0.615,1.543,0.307,2.161c0,0.616-0.925,0.308-1.231,1.233
				c-0.311,0.925,0.614,1.543,0.307,2.161c0,0.618-1.235,0.308-1.235,1.233c-0.308,0.928,0.31,1.236,0.31,1.854
				c-0.31,0.615-1.235,0.615-1.542,1.232c0,1.236,0.924,1.543,0.307,2.779c-1.85,3.701,0,7.713,0.31,11.724
				c1.232-6.787,7.096-12.034,9.871-16.661C74.711,53.031,75.329,50.563,73.786,49.02L73.786,49.02z M67.923,47.17
				c-0.615,0-0.925,0.307-0.925,0.925c0,0.615,0.311,1.233,0.925,1.233c0.618,0,1.235-0.618,1.235-1.233
				C69.158,47.476,68.541,47.17,67.923,47.17z M72.861,49.945c-0.618,0-1.236,0.618-1.236,1.235c0,0.615,0.618,0.925,1.236,0.925
				c0.614,0,0.924-0.31,0.924-0.925C73.786,50.563,73.476,49.945,72.861,49.945z M64.53,57.043c-0.618,0-0.925,0.618-0.925,1.232
				c0,0.618,0.308,0.928,0.925,0.928s0.925-0.31,0.925-0.928C65.455,57.66,65.147,57.043,64.53,57.043z M65.765,53.956
				c-0.618,0-1.235,0.308-1.235,0.925c0,0.618,0.618,1.236,1.235,1.236c0.615,0,0.925-0.618,0.925-1.236
				C66.69,54.264,66.38,53.956,65.765,53.956z M66.998,50.563c-0.618,0-1.232,0.618-1.232,1.233c0,0.618,0.615,0.925,1.232,0.925
				c0.617,0,0.925-0.307,0.925-0.925C67.923,51.18,67.615,50.563,66.998,50.563z"/>
		</g>
		<path fill="#FEFEFE" d="M50.956,92.838c-36.094,8.948-30.233-35.488,0.925-24.068l-0.307-5.247
			c-38.562-8.331-45.04,41.657-1.236,33.635L50.956,92.838z"/>
		<path fill="#FEFEFE" d="M109.263,72.471c-0.308,0,0.31-1.851-0.308-3.701h-6.789l-0.925,24.683h7.096
			c0.618-4.319,0.309-10.49,1.232-14.501c0.928-4.013,5.553-8.023,8.332-4.013c2.468,3.395,0,13.889,0.308,18.207l7.405,0.307
			c0.307-8.33-1.234-22.832,9.254-19.438c3.086,4.629,0,13.578,0.617,19.438h7.096c0.617-4.937,0.617-9.255,0.925-13.885
			c0.925-15.738-15.425-11.726-17.585-6.786C123.455,69.077,115.126,65.683,109.263,72.471z"/>
		<path fill="#FEFEFE" d="M161.399,71.238c-7.711,8.948,10.182,9.874,7.714,14.812c-3.086,3.084-8.947,4.011-12.649,3.393v3.396
			c5.246,0.925,12.341,1.233,16.352-3.086c4.318-4.937-0.311-8.333-3.395-10.491c-9.564-7.098,4.01-8.641,5.553-6.173l1.234-4.011
			C172.198,67.842,164.177,67.842,161.399,71.238L161.399,71.238z"/>
		<path fill="#FEFEFE" d="M96.613,70.62c-4.011-3.704-15.117-2.778-20.669-0.926l-0.615,4.319
			c4.625-1.232,10.489-3.394,14.807-0.618c0.311,1.235,0,2.469-0.307,3.396c-5.864,1.851-17.585,2.775-18.203,9.566
			c-0.618,7.094,7.713,8.331,12.649,7.404c0.925,0,2.16-0.311,2.467-0.311c0,0,0-1.85,0.308-4.011
			c-7.711,1.854-9.564-0.614-8.021-3.086c2.468-4.32,6.171-2.774,11.417-5.551l-0.928,12.647h8.021
			C96.924,87.592,99.082,72.781,96.613,70.62L96.613,70.62z"/>
		<polygon fill="#FEFEFE" points="147.269,68.747 153.933,68.747 153.012,93.599 146.347,93.599 		"/>
		<polygon fill="#FEFEFE" points="148.775,59.827 155.439,59.827 154.518,64.837 147.854,64.837 		"/>
	</g>
</g>
</svg>
