<?xml version="1.0" encoding="UTF-8"?>
<!DOCTYPE svg PUBLIC "-//W3C//DTD SVG 1.1//EN" "http://www.w3.org/Graphics/SVG/1.1/DTD/svg11.dtd">
<!-- Creator: CorelDRAW X7 -->
<svg xmlns="http://www.w3.org/2000/svg" xml:space="preserve" width="116.881mm" height="82.0654mm" version="1.1" style="shape-rendering:geometricPrecision; text-rendering:geometricPrecision; image-rendering:optimizeQuality; fill-rule:evenodd; clip-rule:evenodd"
viewBox="0 0 67764 47579"
 xmlns:xlink="http://www.w3.org/1999/xlink">
 <defs>
  <style type="text/css">
   <![CDATA[
    .fil1 {fill:#FEFEFE}
    .fil0 {fill:url(#id0)}
   ]]>
  </style>
  <radialGradient id="id0" gradientUnits="userSpaceOnUse" gradientTransform="matrix(1 -0 -0 0.702125 0 7086)" cx="33882" cy="23789.5" r="18024.2" fx="33882" fy="23789.5">
   <stop offset="0" style="stop-opacity:1; stop-color:#DE7DAF"/>
   <stop offset="1" style="stop-opacity:1; stop-color:#B04B87"/>
  </radialGradient>
 </defs>
 <g id="Layer_x0020_1">
  <metadata id="CorelCorpID_0Corel-Layer"/>
  <rect class="fil0" width="67764" height="47579"/>
  <g id="_499304560">
   <g>
    <path class="fil1" d="M21083 20943c-1915,2127 -1277,5212 638,8830 -319,-1596 -106,-3298 -213,-5001 -106,-1276 -638,-2234 -425,-3829z"/>
    <path class="fil1" d="M19594 24560c-639,1915 -107,4255 1383,6170 1383,2021 3723,3511 5425,2660 -2979,744 -5425,-3298 -6808,-8830z"/>
    <path class="fil1" d="M26189 17751c-425,2340 -2553,3617 -3617,5958 -1170,2446 -1276,6489 745,8404 -1489,-2021 -957,-4149 -319,-5745 532,-1170 1383,-1915 2021,-2979 958,-1489 1596,-3617 1170,-5638l0 0z"/>
    <path class="fil1" d="M25445 16900c0,-2341 -851,-4575 -2234,-6596 425,2128 532,4043 0,5532 -107,213 -426,106 -532,532 -107,213 212,532 106,745 0,212 -319,106 -425,425 -107,319 212,532 106,745 0,213 -426,106 -426,425 -106,320 107,426 107,639 -107,212 -426,212 -532,425 0,426 319,532 106,958 -638,1276 0,2659 107,4042 425,-2340 2447,-4149 3404,-5744 532,-745 745,-1596 213,-2128l0 0zm-2022 -638c-212,0 -319,106 -319,319 0,212 107,425 319,425 213,0 426,-213 426,-425 0,-213 -213,-319 -426,-319zm1703 957c-213,0 -426,213 -426,426 0,212 213,319 426,319 212,0 319,-107 319,-319 0,-213 -107,-426 -319,-426zm-2873 2447c-213,0 -319,213 -319,425 0,213 106,320 319,320 213,0 319,-107 319,-320 0,-212 -106,-425 -319,-425zm426 -1064c-213,0 -426,106 -426,319 0,213 213,426 426,426 212,0 319,-213 319,-426 0,-213 -107,-319 -319,-319zm425 -1170c-213,0 -425,213 -425,425 0,213 212,319 425,319 213,0 319,-106 319,-319 0,-212 -106,-425 -319,-425z"/>
   </g>
   <path class="fil1" d="M17572 32007c-12447,3085 -10426,-12235 319,-8298l-106 -1809c-13298,-2872 -15532,14362 -426,11596l213 -1489z"/>
   <path class="fil1" d="M37679 24985c-106,0 107,-638 -106,-1276l-2341 0 -319 8510 2447 0c213,-1489 106,-3617 425,-5000 320,-1383 1915,-2766 2873,-1383 851,1170 0,4788 106,6277l2554 106c106,-2872 -426,-7872 3191,-6702 1064,1596 0,4681 213,6702l2447 0c213,-1702 213,-3191 319,-4787 319,-5426 -5319,-4043 -6064,-2340 -851,-1277 -3723,-2447 -5745,-107z"/>
   <path class="fil1" d="M55658 24560c-2659,3085 3511,3404 2660,5106 -1064,1064 -3085,1383 -4362,1170l0 1171c1809,319 4256,425 5639,-1064 1489,-1702 -107,-2873 -1171,-3617 -3298,-2447 1383,-2979 1915,-2128l426 -1383c-1383,-426 -4149,-426 -5107,745l0 0z"/>
   <path class="fil1" d="M33317 24347c-1383,-1277 -5213,-958 -7128,-319l-212 1489c1595,-425 3617,-1170 5106,-213 107,426 0,851 -106,1171 -2022,638 -6064,957 -6277,3298 -213,2446 2660,2872 4362,2553 319,0 745,-107 851,-107 0,0 0,-638 106,-1383 -2659,639 -3298,-212 -2766,-1064 851,-1489 2128,-957 3937,-1914l-320 4361 2766 0c-212,-2021 532,-7127 -319,-7872l0 0z"/>
   <rect class="fil1" transform="matrix(0.10266 -0 -0.00401019 0.108192 50785.2 23701.5)" width="22386" height="79188"/>
   <rect class="fil1" transform="matrix(0.10266 -0 -0.00401019 0.0218128 51304.7 20626)" width="22386" height="79188"/>
  </g>
 </g>
</svg>
