<?xml version="1.0" encoding="utf-8"?>
<!-- Generator: Adobe Illustrator 16.0.0, SVG Export Plug-In . SVG Version: 6.00 Build 0)  -->
<!DOCTYPE svg PUBLIC "-//W3C//DTD SVG 1.1//EN" "http://www.w3.org/Graphics/SVG/1.1/DTD/svg11.dtd">
<svg version="1.1" id="Layer_1" xmlns="http://www.w3.org/2000/svg" xmlns:xlink="http://www.w3.org/1999/xlink" x="0px" y="0px"
	 width="196.504px" height="138.006px" viewBox="0 0 196.504 138.006" enable-background="new 0 0 196.504 138.006"
	 xml:space="preserve">
<g id="Layer_x0020_1">
	<polygon fill="#00A2E9" points="0.002,4.038 190.752,4.038 190.752,138.006 0.002,138.006 	"/>
	<g id="_2149052660992">
		<g id="_1932454908112">
			<path fill="#FEFEFE" d="M76.98,58.37c-0.521-6.54-2.085-24.312,1.798-29.941c1.329-1.98,5.159-2.84,6.958-0.338
				c-1.746,1.954-4.274,2.944-4.352,7.062C81.202,41.746,91,57.51,76.98,58.37z M68.98,21.706c1.746,3.284,6.515,3.518,11.309,3.309
				c-2.892,2.033-3.7,2.007-5.264,5.968c-4.117,10.371,2.319,26.397-3.022,34.006c-6.437,9.199-26.476-5.342-34.137-10.371
				c-3.7-2.371-20.847-14.202-23.062-15.009c1.173,4.507,6.854,20.638,8.756,26.189c1.798,5.315,3.466,7.191,8,9.563
				c10.476,5.603,25.485,8.391,29.655,23.166c1.407,5.056,1.407,10.137,2.033,15.479c0.234,2.502,0.469,5.395,1.746,7.114
				c1.511,2.11,4.117,1.98,6.149,0.6c-1.85-3.439-5.577-7.141-4.065-13.16c1.746-7.01,11.648-13.264,17.329-17.798
				c3.518-2.814,6.254-5.082,8.912-8.729c5.524-7.609,5.811-19.206-0.052-26.84c-2.371-2.997-5.211-6.437-7.01-10.606
				c-1.902-4.352-1.98-10.944,1.694-13.368c-1.407,4.457,3.101,8.964,7.296,6.307c-0.704-2.658-5.159-4.769-6.958-6.437
				c0.469-0.808,0.234-0.756,1.329-1.277c1.746-0.808,2.71-0.234,4.925-2.658c-4.534-2.371-6.905-2.319-12.508-2.658
				c2.658-1.511,3.127-1.225,5.264-3.387c1.746-1.824,2.215-3.857,1.902-6.932c-1.277,0.442-3.7,3.518-8.339,5.785
				C76.407,22.149,74.192,21.992,68.98,21.706L68.98,21.706z"/>
			<path fill="#FEFEFE" d="M108.042,122.058v-5.498c-1.564,0.912-5.682,4.3-9.668-0.052c-2.918-3.153-1.928-7.557,0.964-9.642
				c3.388-2.476,8.026-0.678,9.459,2.267c1.146,2.32,0.652,10.137,0.652,13.29h4.795c0-6.957,1.094-13.446-2.789-17.85
				c-3.309-3.778-10.189-4.821-15.062-1.408C86.492,110.072,94.126,127.74,108.042,122.058z"/>
			<path fill="#FEFEFE" d="M115.912,122.475l4.43,0.104c0.34-3.543-2.866-16.626,4.743-16.808c6.671-0.156,4.978,8.339,4.978,16.703
				l4.978,0.104c0-8.521,2.318-22.02-9.955-21.784c-4.586,0.104-7.869,3.179-8.912,6.671
				C115.574,109.472,115.651,119.869,115.912,122.475L115.912,122.475z"/>
			<path fill="#FEFEFE" d="M163.678,101.133h-4.926v11.779c0,5.107-6.384,5.784-8.808,2.788c-1.382-1.747-0.704-11.544-0.704-14.488
				l-4.82-0.131c0,3.31-0.392,12.534,0.26,14.958c2.424,8.625,15.349,8.469,18.527,0.182
				C164.2,113.59,163.678,104.573,163.678,101.133L163.678,101.133z"/>
			<path fill="#FEFEFE" d="M84.042,117.419c-10.006,1.329-10.866-7.243-6.462-10.709c2.241-1.798,3.648-1.381,6.358-0.887
				l-0.104-4.847c-17.459-2.684-17.329,22.02-1.876,21.498C84.563,122.398,84.042,122.528,84.042,117.419L84.042,117.419z"/>
			<path fill="#FEFEFE" d="M134.595,123.988v3.647c7.114,1.042,8.626-1.511,8.626-8.286c-0.052-5.525,0.392-12.639-0.104-18.033
				l-4.43-0.052C138.635,116.143,142.179,123.988,134.595,123.988z"/>
			<path fill="#FEFEFE" d="M164.641,122.293l5.161,0.286c0-8.912-1.851-18.085,6.044-17.042c0-1.199,0.392-3.597-0.233-4.509
				c-0.887-1.276-6.386-0.338-9.381,3.831C163.599,108.455,164.641,117.186,164.641,122.293z"/>
			<polygon fill="#FEFEFE" points="85.319,122.423 86.831,122.423 89.958,122.423 89.958,102.201 85.319,102.201 			"/>
			<path fill="#FEFEFE" d="M86.961,95.453c-3.935,1.225-1.798,6.331,1.615,5.237C91.312,99.804,90.791,94.254,86.961,95.453z"/>
			<path fill="#FEFEFE" d="M142.231,95.165c-5.916-0.469-4.403,4.587-2.215,5.16c1.642,0.47,3.075-0.286,3.439-1.615
				C143.977,96.808,143.091,96.208,142.231,95.165L142.231,95.165z"/>
		</g>
	</g>
</g>
</svg>
