<?xml version="1.0" encoding="UTF-8"?>
<!DOCTYPE svg PUBLIC "-//W3C//DTD SVG 1.1//EN" "http://www.w3.org/Graphics/SVG/1.1/DTD/svg11.dtd">
<!-- Creator: CorelDRAW X7 -->
<svg xmlns="http://www.w3.org/2000/svg" xml:space="preserve" width="69.3226mm" height="48.6856mm" version="1.1" style="shape-rendering:geometricPrecision; text-rendering:geometricPrecision; image-rendering:optimizeQuality; fill-rule:evenodd; clip-rule:evenodd"
viewBox="0 0 7320 5141"
 xmlns:xlink="http://www.w3.org/1999/xlink">
 <defs>
  <style type="text/css">
   <![CDATA[
    .fil0 {fill:#00A2E9}
    .fil1 {fill:#FEFEFE}
   ]]>
  </style>
 </defs>
 <g id="Layer_x0020_1">
  <metadata id="CorelCorpID_0Corel-Layer"/>
  <polygon class="fil0" points="0,0 7320,0 7320,5141 0,5141 "/>
  <g id="_2149052660992">
   <g id="_1932454908112">
    <path class="fil1" d="M2954 2085c-20,-251 -80,-933 69,-1149 51,-76 198,-109 267,-13 -67,75 -164,113 -167,271 -7,253 369,858 -169,891zm-307 -1407c67,126 250,135 434,127 -111,78 -142,77 -202,229 -158,398 89,1013 -116,1305 -247,353 -1016,-205 -1310,-398 -142,-91 -800,-545 -885,-576 45,173 263,792 336,1005 69,204 133,276 307,367 402,215 978,322 1138,889 54,194 54,389 78,594 9,96 18,207 67,273 58,81 158,76 236,23 -71,-132 -214,-274 -156,-505 67,-269 447,-509 665,-683 135,-108 240,-195 342,-335 212,-292 223,-737 -2,-1030 -91,-115 -200,-247 -269,-407 -73,-167 -76,-420 65,-513 -54,171 119,344 280,242 -27,-102 -198,-183 -267,-247 18,-31 9,-29 51,-49 67,-31 104,-9 189,-102 -174,-91 -265,-89 -480,-102 102,-58 120,-47 202,-130 67,-70 85,-148 73,-266 -49,17 -142,135 -320,222 -171,84 -256,78 -456,67l0 0z"/>
    <path class="fil1" d="M4146 4529l0 -211c-60,35 -218,165 -371,-2 -112,-121 -74,-290 37,-370 130,-95 308,-26 363,87 44,89 25,389 25,510l184 0c0,-267 42,-516 -107,-685 -127,-145 -391,-185 -578,-54 -380,265 -87,943 447,725z"/>
    <path class="fil1" d="M4448 4545l170 4c13,-136 -110,-638 182,-645 256,-6 191,320 191,641l191 4c0,-327 89,-845 -382,-836 -176,4 -302,122 -342,256 -23,77 -20,476 -10,576l0 0z"/>
    <path class="fil1" d="M6281 3726l-189 0 0 452c0,196 -245,222 -338,107 -53,-67 -27,-443 -27,-556l-185 -5c0,127 -15,481 10,574 93,331 589,325 711,7 38,-101 18,-447 18,-579l0 0z"/>
    <path class="fil1" d="M3225 4351c-384,51 -417,-278 -248,-411 86,-69 140,-53 244,-34l-4 -186c-670,-103 -665,845 -72,825 100,-3 80,2 80,-194l0 0z"/>
    <path class="fil1" d="M5165 4603l0 140c273,40 331,-58 331,-318 -2,-212 15,-485 -4,-692l-170 -2c-2,571 134,872 -157,872z"/>
    <path class="fil1" d="M6318 4538l198 11c0,-342 -71,-694 232,-654 0,-46 15,-138 -9,-173 -34,-49 -245,-13 -360,147 -101,138 -61,473 -61,669z"/>
    <polygon class="fil1" points="3274,4543 3332,4543 3452,4543 3452,3767 3274,3767 "/>
    <path class="fil1" d="M3337 3508c-151,47 -69,243 62,201 105,-34 85,-247 -62,-201z"/>
    <path class="fil1" d="M5458 3497c-227,-18 -169,176 -85,198 63,18 118,-11 132,-62 20,-73 -14,-96 -47,-136l0 0z"/>
   </g>
  </g>
 </g>
</svg>
