<?xml version="1.0" encoding="utf-8"?>
<!-- Generator: Adobe Illustrator 16.0.0, SVG Export Plug-In . SVG Version: 6.00 Build 0)  -->
<!DOCTYPE svg PUBLIC "-//W3C//DTD SVG 1.1//EN" "http://www.w3.org/Graphics/SVG/1.1/DTD/svg11.dtd">
<svg version="1.1" id="Layer_1" xmlns="http://www.w3.org/2000/svg" xmlns:xlink="http://www.w3.org/1999/xlink" x="0px" y="0px"
	 width="196.504px" height="138.006px" viewBox="0 0 196.504 138.006" enable-background="new 0 0 196.504 138.006"
	 xml:space="preserve">
<g id="Layer_x0020_1">
	<polygon fill="#00A2E9" points="0.002,0 196.502,0 196.502,132.503 0.002,132.503 	"/>
	<g id="_2149052660992">
		<g id="_1932454908112">
			<path fill="#FEFEFE" d="M79.3,53.738c-0.537-6.468-2.148-24.046,1.853-29.613c1.369-1.959,5.314-2.81,7.167-0.334
				c-1.798,1.932-4.402,2.912-4.483,6.984C83.649,37.296,93.742,52.888,79.3,53.738z M71.059,17.475
				c1.799,3.247,6.711,3.479,11.65,3.272c-2.979,2.01-3.811,1.985-5.422,5.902c-4.241,10.258,2.389,26.109-3.113,33.635
				c-6.631,9.099-27.274-5.283-35.167-10.258c-3.812-2.345-21.476-14.046-23.757-14.845c1.208,4.458,7.06,20.412,9.02,25.902
				c1.853,5.257,3.57,7.113,8.241,9.458c10.792,5.541,26.253,8.299,30.549,22.913c1.45,5.001,1.45,10.025,2.094,15.31
				c0.242,2.474,0.483,5.336,1.799,7.036c1.557,2.087,4.241,1.959,6.335,0.593c-1.906-3.401-5.745-7.062-4.188-13.016
				c1.798-6.934,12-13.119,17.851-17.604c3.625-2.783,6.442-5.026,9.181-8.635c5.691-7.526,5.986-18.995-0.054-26.546
				c-2.442-2.964-5.368-6.367-7.221-10.491c-1.959-4.305-2.041-10.825,1.745-13.222c-1.45,4.408,3.195,8.865,7.517,6.237
				c-0.725-2.629-5.315-4.717-7.167-6.366c0.483-0.799,0.242-0.748,1.369-1.263c1.799-0.799,2.792-0.231,5.073-2.628
				c-4.671-2.346-7.113-2.293-12.885-2.629c2.738-1.495,3.221-1.212,5.422-3.35c1.799-1.804,2.282-3.815,1.959-6.856
				c-1.315,0.438-3.812,3.479-8.59,5.722C78.71,17.912,76.428,17.758,71.059,17.475L71.059,17.475z"/>
			<path fill="#FEFEFE" d="M111.299,116.73v-5.438c-1.612,0.902-5.854,4.253-9.96-0.052c-3.007-3.118-1.986-7.474,0.993-9.535
				c3.49-2.449,8.269-0.671,9.744,2.241c1.181,2.295,0.672,10.026,0.672,13.145h4.939c0-6.881,1.127-13.299-2.873-17.654
				c-3.408-3.737-10.496-4.769-15.516-1.393C89.099,104.874,96.963,122.349,111.299,116.73z"/>
			<path fill="#FEFEFE" d="M119.406,117.142l4.562,0.104c0.351-3.505-2.952-16.444,4.887-16.624
				c6.872-0.155,5.127,8.247,5.127,16.521l5.128,0.104c0-8.429,2.389-21.779-10.255-21.547c-4.725,0.104-8.106,3.145-9.181,6.599
				C119.057,104.281,119.137,114.565,119.406,117.142L119.406,117.142z"/>
			<path fill="#FEFEFE" d="M168.612,96.033h-5.074v11.65c0,5.052-6.576,5.721-9.073,2.758c-1.424-1.728-0.726-11.418-0.726-14.33
				l-4.965-0.13c0,3.273-0.404,12.397,0.268,14.795c2.496,8.53,15.811,8.376,19.085,0.18
				C169.149,108.354,168.612,99.436,168.612,96.033L168.612,96.033z"/>
			<path fill="#FEFEFE" d="M86.575,112.142c-10.308,1.314-11.194-7.164-6.657-10.593c2.308-1.777,3.758-1.366,6.549-0.876
				l-0.107-4.794c-17.985-2.655-17.852,21.778-1.933,21.263C87.112,117.066,86.575,117.194,86.575,112.142L86.575,112.142z"/>
			<path fill="#FEFEFE" d="M138.652,118.638v3.607c7.329,1.03,8.887-1.494,8.887-8.195c-0.054-5.465,0.403-12.501-0.108-17.836
				l-4.562-0.052C142.814,110.879,146.464,118.638,138.652,118.638z"/>
			<path fill="#FEFEFE" d="M169.604,116.962l5.316,0.283c0-8.814-1.906-17.887,6.227-16.855c0-1.187,0.403-3.558-0.241-4.46
				c-0.913-1.263-6.578-0.334-9.663,3.789C168.53,103.276,169.604,111.91,169.604,116.962z"/>
			<polygon fill="#FEFEFE" points="87.891,117.09 89.448,117.09 92.669,117.09 92.669,97.09 87.891,97.09 			"/>
			<path fill="#FEFEFE" d="M89.582,90.416c-4.054,1.21-1.853,6.262,1.664,5.18C94.065,94.719,93.527,89.23,89.582,90.416z"/>
			<path fill="#FEFEFE" d="M146.518,90.131c-6.095-0.464-4.536,4.536-2.281,5.104c1.69,0.464,3.168-0.283,3.543-1.598
				C148.317,91.755,147.405,91.162,146.518,90.131L146.518,90.131z"/>
		</g>
	</g>
</g>
</svg>
