<?xml version="1.0" encoding="UTF-8"?>
<!DOCTYPE svg PUBLIC "-//W3C//DTD SVG 1.1//EN" "http://www.w3.org/Graphics/SVG/1.1/DTD/svg11.dtd">
<!-- Creator: CorelDRAW X7 -->
<svg xmlns="http://www.w3.org/2000/svg" xml:space="preserve" width="734px" height="516px" version="1.1" style="shape-rendering:geometricPrecision; text-rendering:geometricPrecision; image-rendering:optimizeQuality; fill-rule:evenodd; clip-rule:evenodd"
viewBox="0 0 564 396"
 xmlns:xlink="http://www.w3.org/1999/xlink">
 <defs>
  <style type="text/css">
   <![CDATA[
    .fil3 {fill:none}
    .fil1 {fill:#FEFEFE}
    .fil0 {fill:#AECF38}
    .fil2 {fill:#FEFEFE;fill-rule:nonzero}
   ]]>
  </style>
   <clipPath id="id0">
    <path d="M0 396l564 0 0 -396 -564 0 0 396z"/>
   </clipPath>
 </defs>
 <g id="Layer_x0020_1">
  <metadata id="CorelCorpID_0Corel-Layer"/>
  <polygon class="fil0" points="0,396 564,396 564,0 0,0 "/>
  <g style="clip-path:url(#id0)">
   <g id="_1612795471760">
    <g>
     <g id="_2232578900016">
      <path id="1" class="fil1" d="M190 198c6,3 10,9 10,15 0,9 -8,16 -17,17 0,0 -2,0 -6,-1 -6,-1 -11,-4 -15,-8l-20 -23 20 -22c4,-4 9,-7 15,-9 4,-1 6,0 6,0 9,1 17,7 17,16 0,7 -4,13 -10,15z"/>
      <g>
      </g>
      <g>
      </g>
      <g>
      </g>
      <g>
      </g>
      <g>
      </g>
      <g>
      </g>
      <g>
      </g>
      <g>
      </g>
      <g>
      </g>
      <g>
      </g>
      <g>
      </g>
      <g>
      </g>
      <g>
      </g>
      <g>
      </g>
      <g>
      </g>
     </g>
     <g id="_2232578915984">
      <path class="fil1" d="M89 198c-6,-2 -10,-8 -10,-15 0,-9 8,-16 17,-17 0,0 3,0 7,1 5,1 10,4 14,9l20 22 -20 22c-4,5 -9,8 -14,9 -4,1 -7,1 -7,1 -9,-1 -17,-8 -17,-17 0,-7 4,-12 10,-15z"/>
      <g>
      </g>
      <g>
      </g>
      <g>
      </g>
      <g>
      </g>
      <g>
      </g>
      <g>
      </g>
      <g>
      </g>
      <g>
      </g>
      <g>
      </g>
      <g>
      </g>
      <g>
      </g>
      <g>
      </g>
      <g>
      </g>
      <g>
      </g>
      <g>
      </g>
     </g>
     <g id="_2232578909776">
      <path class="fil1" d="M140 248c-3,6 -9,11 -16,11 -9,0 -15,-8 -16,-17 0,0 -1,-3 0,-7 2,-6 5,-11 9,-14l23 -21 22 21c4,3 7,8 8,14 1,4 1,7 1,7 -1,9 -7,17 -17,17 -6,0 -12,-5 -14,-11z"/>
      <g>
      </g>
      <g>
      </g>
      <g>
      </g>
      <g>
      </g>
      <g>
      </g>
      <g>
      </g>
      <g>
      </g>
      <g>
      </g>
      <g>
      </g>
      <g>
      </g>
      <g>
      </g>
      <g>
      </g>
      <g>
      </g>
      <g>
      </g>
      <g>
      </g>
     </g>
     <g id="_2232578904912">
      <path class="fil1" d="M140 148c2,-6 8,-10 15,-10 9,0 16,7 16,17 0,0 1,2 0,6 -2,6 -5,11 -9,15l-22 20 -22 -20c-5,-4 -8,-9 -9,-15 -1,-4 -1,-6 -1,-6 1,-10 8,-17 17,-17 7,0 12,4 15,10z"/>
      <g>
      </g>
      <g>
      </g>
      <g>
      </g>
      <g>
      </g>
      <g>
      </g>
      <g>
      </g>
      <g>
      </g>
      <g>
      </g>
      <g>
      </g>
      <g>
      </g>
      <g>
      </g>
      <g>
      </g>
      <g>
      </g>
      <g>
      </g>
      <g>
      </g>
     </g>
     <g>
      <path class="fil2" d="M241 215c0,1 0,1 0,2 0,0 0,1 0,1 0,0 -1,1 -1,1 0,0 0,0 0,1 0,0 -1,1 -1,2 -1,0 -2,1 -3,2 -1,1 -2,1 -4,2 -1,0 -3,1 -4,1 -3,0 -6,-1 -8,-3 -2,-1 -4,-4 -6,-7 -2,-3 -3,-7 -4,-12 -1,-4 -1,-10 -1,-16 0,-6 1,-12 1,-17 1,-4 3,-9 4,-12 2,-3 4,-6 6,-8 3,-2 5,-2 8,-2 2,0 3,0 4,0 1,1 2,1 3,2 1,0 2,1 3,2 1,1 1,1 2,2 0,0 0,1 0,1 0,0 0,1 0,1 1,0 1,1 1,1 0,1 0,1 0,2 0,1 0,1 0,2 0,1 -1,1 -1,1 0,1 0,1 0,1 0,0 0,0 0,0 -1,0 -1,0 -2,-1 0,0 -1,-1 -2,-2 -1,-1 -2,-2 -3,-3 -1,0 -3,-1 -5,-1 -2,0 -4,1 -5,2 -2,2 -3,4 -4,6 -1,3 -2,6 -3,10 0,3 -1,8 -1,13 0,4 0,9 1,12 1,4 2,7 3,9 1,3 2,5 4,6 1,1 3,2 5,2 2,0 4,-1 5,-1 1,-1 2,-2 3,-3 1,-1 2,-1 2,-2 1,-1 2,-1 2,-1 0,0 0,0 0,0 0,0 0,0 1,1 0,0 0,0 0,1 0,0 0,1 0,2z"/>
      <path id="1" class="fil2" d="M253 224c0,1 0,1 0,1 0,0 0,0 0,1 0,0 -1,0 -1,0 0,0 -1,0 -1,0 -1,0 -1,0 -2,0 0,0 0,0 -1,0 0,-1 0,-1 0,-1 0,0 0,0 0,-1l0 -52c0,0 0,-1 0,-1 0,0 0,0 0,0 1,-1 1,-1 1,-1 1,0 1,0 2,0 0,0 1,0 1,0 0,0 1,0 1,1 0,0 0,0 0,0 0,0 0,1 0,1l0 52zm1 -70c0,3 0,4 -1,5 0,1 -1,1 -2,1 -2,0 -3,0 -3,-1 -1,-1 -1,-2 -1,-5 0,-2 0,-3 1,-4 0,-1 1,-1 3,-1 1,0 2,0 2,1 1,1 1,2 1,4z"/>
      <path id="2" class="fil2" d="M279 220c0,2 0,2 0,3 0,1 0,1 0,2 0,0 -1,0 -1,0 0,1 -1,1 -1,1 -1,0 -1,0 -2,0 0,1 -1,1 -1,1 -2,0 -3,-1 -4,-1 -1,-1 -2,-2 -3,-4 -1,-1 -1,-3 -2,-5 0,-2 0,-5 0,-8l0 -31 -4 0c-1,0 -1,0 -1,0 0,-1 0,-2 0,-4 0,0 0,-1 0,-1 0,-1 0,-1 0,-2 0,0 0,0 0,0 0,0 1,-1 1,-1l4 0 0 -12c0,0 0,0 0,-1 0,0 0,0 1,0 0,0 0,-1 0,-1 1,0 1,0 2,0 0,0 1,0 1,0 1,0 1,1 1,1 0,0 0,0 0,0 1,1 1,1 1,1l0 12 7 0c1,0 1,1 1,1 0,0 0,0 0,0 0,1 0,1 0,2 0,0 0,1 0,1 0,2 0,3 0,4 0,0 0,0 -1,0l-7 0 0 30c0,3 0,6 1,8 0,2 1,2 3,2 0,0 1,0 1,0 1,0 1,0 1,0 1,-1 1,-1 1,-1 0,0 1,0 1,0 0,0 0,0 0,0 0,0 0,0 0,1 0,0 0,0 0,1 0,0 0,1 0,1z"/>
      <path id="3" class="fil2" d="M309 224c0,1 0,1 0,1 -1,1 -1,1 -1,1 0,0 -1,0 -2,0 0,0 -1,0 -1,0 0,0 0,0 -1,-1 0,0 0,0 0,-1l0 -5c-1,3 -3,4 -4,6 -2,1 -4,2 -6,2 -1,0 -3,-1 -4,-1 -1,-1 -2,-2 -3,-3 -1,-2 -2,-3 -2,-5 -1,-2 -1,-5 -1,-7 0,-3 0,-6 1,-8 1,-2 2,-4 3,-5 1,-2 3,-3 5,-3 2,-1 4,-2 6,-2l4 0 0 -4c0,-2 0,-3 0,-5 0,-2 -1,-3 -1,-4 -1,-1 -1,-2 -2,-2 -1,-1 -2,-1 -4,-1 -1,0 -2,0 -3,1 -1,0 -2,1 -3,2 -1,0 -2,1 -2,2 -1,0 -1,1 -1,1 -1,0 -1,-1 -1,-1 0,0 0,0 0,0 0,-1 0,-1 0,-2 -1,0 -1,-1 -1,-1 0,-1 0,-2 1,-2 0,-1 0,-2 0,-2 0,-1 1,-1 2,-2 0,-1 1,-1 2,-2 1,0 2,-1 3,-1 2,-1 3,-1 4,-1 2,0 4,1 5,2 2,0 3,2 4,3 1,2 2,4 2,6 1,3 1,6 1,9l0 35zm-6 -24l-4 0c-2,0 -3,1 -4,1 -1,0 -2,1 -3,2 -1,1 -1,2 -2,3 0,1 0,3 0,4 0,3 0,5 1,7 1,1 3,2 4,2 2,0 3,0 4,-2 2,-1 3,-3 4,-6l0 -11z"/>
      <path id="4" class="fil2" d="M359 205c0,3 -1,6 -1,9 -1,3 -2,5 -3,7 -2,2 -3,3 -5,4 -2,1 -4,2 -6,2 -1,0 -3,0 -4,-1 -1,0 -2,-1 -3,-1 -1,-1 -2,-2 -3,-2 -1,-1 -1,-2 -1,-2 -1,-1 -1,-1 -1,-2 0,-1 0,-1 0,-3 0,-1 0,-1 0,-2 0,0 0,-1 0,-1 0,-1 0,-1 1,-1 0,0 0,0 0,0 0,0 1,0 1,1 1,1 2,1 3,2 1,1 2,2 3,2 1,1 3,1 4,1 2,0 3,0 4,-1 1,0 2,-1 2,-2 1,-1 2,-2 2,-4 1,-2 1,-3 1,-5 0,-2 0,-4 -1,-6 -1,-1 -1,-3 -2,-4 -1,-1 -2,-2 -3,-3 -2,-1 -3,-2 -4,-3 -1,-1 -3,-2 -4,-3 -1,-1 -2,-3 -3,-4 -1,-2 -1,-4 -2,-6 -1,-2 -1,-5 -1,-8 0,-3 0,-6 1,-8 1,-3 2,-5 3,-6 1,-2 2,-3 4,-4 2,-1 3,-2 5,-2 1,0 2,1 3,1 1,0 2,1 3,1 1,0 2,1 2,2 1,0 1,1 2,1 0,0 0,1 0,1 0,0 0,0 0,1 0,0 0,1 0,1 0,0 0,1 0,2 0,0 0,1 0,2 0,0 0,1 0,1 0,0 0,1 0,1 0,0 0,0 -1,0 0,0 0,0 -1,-1 0,0 -1,-1 -2,-2 0,0 -1,-1 -2,-1 -1,-1 -3,-1 -4,-1 -1,0 -2,0 -3,1 -1,0 -2,1 -2,2 -1,1 -1,2 -2,3 0,1 0,3 0,4 0,2 0,4 1,6 0,1 1,2 2,4 1,1 2,2 3,3 1,1 3,2 4,3 1,1 2,2 4,3 1,1 2,3 3,4 1,2 1,4 2,6 1,2 1,5 1,8z"/>
      <path id="5" class="fil2" d="M392 196c0,1 0,2 0,3 -1,1 -1,1 -2,1l-20 0c0,3 0,6 1,8 0,2 1,4 1,6 1,2 2,3 4,4 1,1 2,1 4,1 2,0 3,0 4,-1 1,0 2,0 3,-1 1,0 1,-1 2,-1 0,-1 1,-1 1,-1 0,0 0,0 1,0 0,0 0,1 0,1 0,0 0,1 0,1 0,1 0,1 0,2 0,0 0,1 0,1 0,0 0,1 0,1 0,0 0,1 0,1 0,0 0,0 -1,1 0,0 0,0 -1,1 0,0 -1,1 -2,1 -1,0 -2,1 -3,1 -2,1 -3,1 -4,1 -3,0 -5,-1 -7,-2 -2,-1 -3,-3 -5,-5 -1,-3 -2,-6 -3,-9 0,-4 -1,-8 -1,-13 0,-4 1,-8 1,-12 1,-3 2,-6 3,-9 2,-2 3,-4 5,-6 2,-1 4,-2 6,-2 2,0 4,1 6,2 2,2 3,3 4,6 1,2 2,4 3,7 0,3 0,7 0,10l0 2zm-5 -3c0,-5 -1,-9 -2,-12 -2,-3 -4,-4 -6,-4 -2,0 -3,0 -4,1 -1,1 -2,2 -2,4 -1,1 -2,3 -2,5 0,2 -1,4 -1,6l17 0z"/>
      <path id="6" class="fil2" d="M427 224c0,1 0,1 0,1 0,0 0,0 -1,1 0,0 0,0 0,0 -1,0 -1,0 -2,0 0,0 -1,0 -1,0 -1,0 -1,0 -1,0 0,-1 0,-1 0,-1 -1,0 -1,0 -1,-1l0 -30c0,-3 0,-6 0,-8 0,-1 -1,-3 -1,-4 -1,-2 -1,-3 -2,-3 -1,-1 -2,-1 -3,-1 -1,0 -3,0 -4,2 -2,2 -3,4 -5,8l0 36c0,1 0,1 0,1 0,0 0,0 0,1 0,0 -1,0 -1,0 0,0 -1,0 -1,0 -1,0 -1,0 -2,0 0,0 0,0 -1,0 0,-1 0,-1 0,-1 0,0 0,0 0,-1l0 -77c0,-1 0,-1 0,-1 0,0 0,-1 0,-1 1,0 1,0 1,0 1,0 1,0 2,0 0,0 1,0 1,0 0,0 1,0 1,0 0,0 0,1 0,1 0,0 0,0 0,1l0 31c2,-3 4,-5 5,-7 2,-1 4,-2 5,-2 2,0 4,1 5,2 2,1 3,3 4,5 0,2 1,4 1,7 1,2 1,6 1,9l0 32z"/>
      <path id="7" class="fil2" d="M460 224c0,1 0,1 0,1 0,1 -1,1 -1,1 0,0 -1,0 -1,0 -1,0 -1,0 -2,0 0,0 0,0 0,-1 -1,0 -1,0 -1,-1l0 -5c-1,3 -2,4 -4,6 -2,1 -3,2 -5,2 -2,0 -3,-1 -5,-1 -1,-1 -2,-2 -3,-3 -1,-2 -2,-3 -2,-5 -1,-2 -1,-5 -1,-7 0,-3 0,-6 1,-8 1,-2 2,-4 3,-5 1,-2 3,-3 5,-3 2,-1 4,-2 6,-2l5 0 0 -4c0,-2 -1,-3 -1,-5 0,-2 0,-3 -1,-4 -1,-1 -1,-2 -2,-2 -1,-1 -2,-1 -3,-1 -2,0 -3,0 -4,1 -1,0 -2,1 -3,2 -1,0 -1,1 -2,2 -1,0 -1,1 -1,1 0,0 -1,-1 -1,-1 0,0 0,0 0,0 0,-1 0,-1 0,-2 0,0 0,-1 0,-1 0,-1 0,-2 0,-2 0,-1 0,-2 0,-2 1,-1 1,-1 2,-2 1,-1 2,-1 2,-2 1,0 3,-1 4,-1 1,-1 2,-1 3,-1 2,0 4,1 6,2 1,0 2,2 3,3 1,2 2,4 2,6 1,3 1,6 1,9l0 35zm-5 -24l-5 0c-2,0 -3,1 -4,1 -1,0 -2,1 -3,2 -1,1 -1,2 -2,3 0,1 0,3 0,4 0,3 0,5 1,7 1,1 3,2 5,2 1,0 2,0 4,-2 1,-1 2,-3 4,-6l0 -11z"/>
      <path id="8" class="fil2" d="M485 220c0,2 0,2 0,3 0,1 0,1 0,2 0,0 -1,0 -1,0 0,1 -1,1 -1,1 -1,0 -1,0 -2,0 0,1 -1,1 -1,1 -2,0 -3,-1 -4,-1 -1,-1 -2,-2 -3,-4 -1,-1 -1,-3 -2,-5 0,-2 0,-5 0,-8l0 -31 -4 0c-1,0 -1,0 -1,0 0,-1 0,-2 0,-4 0,0 0,-1 0,-1 0,-1 0,-1 0,-2 0,0 0,0 0,0 0,0 1,-1 1,-1l4 0 0 -12c0,0 0,0 0,-1 0,0 0,0 1,0 0,0 0,-1 0,-1 1,0 1,0 2,0 0,0 1,0 1,0 1,0 1,1 1,1 0,0 0,0 0,0 1,1 1,1 1,1l0 12 7 0c1,0 1,1 1,1 0,0 0,0 0,0 0,1 0,1 0,2 0,0 0,1 0,1 0,2 0,3 0,4 0,0 0,0 -1,0l-7 0 0 30c0,3 0,6 1,8 0,2 1,2 3,2 0,0 1,0 1,0 1,0 1,0 1,0 1,-1 1,-1 1,-1 0,0 0,0 1,0 0,0 0,0 0,0 0,0 0,0 0,1 0,0 0,0 0,1 0,0 0,1 0,1z"/>
     </g>
     <g>
      <path class="fil2" d="M309 244c0,0 0,0 0,0 0,0 0,0 0,0 -1,0 -1,0 -1,0 0,0 0,0 0,0l-5 0 0 4 5 0c0,0 0,0 0,0 0,0 0,1 0,1 0,0 0,0 0,0 0,0 0,0 0,0 0,0 0,0 0,0 0,0 0,1 0,1 0,0 0,0 0,0 0,0 0,0 0,0l-5 0 0 5c0,0 0,0 0,0 0,0 0,0 0,0 0,0 0,0 0,0 -1,0 -1,0 -1,0 0,0 0,0 0,0 0,0 -1,0 -1,0 0,0 0,0 0,0 0,0 0,0 0,0l0 -11c0,-1 0,-1 0,-1 1,0 1,0 1,0l6 0c0,0 0,0 0,0 0,0 0,0 1,0 0,0 0,0 0,0 0,1 0,1 0,1z"/>
      <path id="1" class="fil2" d="M320 250c0,1 0,2 0,2 0,1 -1,1 -1,2 -1,0 -1,0 -2,1 0,0 -1,0 -2,0 -1,0 -1,0 -2,0 -1,0 -1,-1 -2,-1 0,-1 0,-1 0,-2 -1,0 -1,-1 -1,-1 0,-1 0,-2 1,-2 0,-1 0,-1 1,-2 0,0 0,0 1,-1 1,0 1,0 2,0 1,0 2,0 2,0 1,1 2,1 2,1 0,1 1,1 1,2 0,0 0,1 0,1zm-2 1c0,-1 0,-1 0,-2 0,0 0,0 0,-1 -1,0 -1,0 -1,0 -1,-1 -1,-1 -2,-1 0,0 -1,0 -1,1 -1,0 -1,0 -1,0 0,0 -1,1 -1,1 0,1 0,1 0,1 0,1 0,1 0,2 0,0 1,1 1,1 0,0 0,0 1,0 0,1 1,1 1,1 1,0 1,0 2,0 0,-1 0,-1 1,-1 0,0 0,-1 0,-1 0,-1 0,-1 0,-1z"/>
      <path id="2" class="fil2" d="M331 255c0,0 0,0 0,0 0,0 0,0 0,0 0,0 0,0 0,0 0,0 0,0 -1,0 0,0 0,0 0,0 0,0 0,0 0,0 0,0 0,0 0,0 0,0 0,0 0,0l0 -1c-1,0 -2,0 -2,1 -1,0 -1,0 -2,0 0,0 -1,0 -1,0 -1,0 -1,-1 -1,-1 -1,0 -1,-1 -1,-1 0,0 0,-1 0,-2l0 -5c0,0 0,0 0,0 0,0 0,0 0,0 0,0 0,0 0,0 0,0 0,0 1,0 0,0 0,0 0,0 0,0 0,0 0,0 0,0 0,0 1,0 0,0 0,0 0,0l0 5c0,1 0,1 0,1 0,1 0,1 0,1 0,0 0,0 1,1 0,0 0,0 1,0 0,0 1,0 1,-1 0,0 1,0 1,-1l0 -6c0,0 0,0 0,0 0,0 1,0 1,0 0,0 0,0 0,0 0,0 0,0 0,0 1,0 1,0 1,0 0,0 0,0 0,0 0,0 0,0 0,0 0,0 0,0 0,0l0 9z"/>
      <path id="3" class="fil2" d="M343 255c0,0 0,0 0,0 0,0 0,0 0,0 0,0 0,0 0,0 -1,0 -1,0 -1,0 0,0 0,0 0,0 0,0 0,0 -1,0 0,0 0,0 0,0 0,0 0,0 0,0l0 -5c0,-1 0,-1 0,-1 0,-1 0,-1 0,-1 0,0 -1,0 -1,-1 0,0 0,0 -1,0 0,0 -1,0 -1,1 -1,0 -1,0 -2,1l0 6c0,0 0,0 0,0 0,0 0,0 0,0 0,0 0,0 0,0 0,0 0,0 -1,0 0,0 0,0 0,0 0,0 0,0 0,0 0,0 0,0 0,0 0,0 0,0 0,0l0 -9c0,0 0,0 0,0 0,0 0,0 0,0 0,0 0,0 0,0 0,0 0,0 0,0 1,0 1,0 1,0 0,0 0,0 0,0 0,0 0,0 0,0 0,0 0,0 0,0l0 2c1,-1 1,-1 2,-2 0,0 1,0 2,0 0,0 1,0 1,0 1,0 1,1 1,1 1,0 1,1 1,1 0,1 0,1 0,2l0 5z"/>
      <path id="4" class="fil2" d="M355 255c0,0 0,0 0,0 0,0 0,0 0,0 0,0 -1,0 -1,0 0,0 0,0 0,0 0,0 0,0 0,0 0,0 -1,0 -1,0 0,0 0,0 0,0 0,0 0,0 0,0l0 -1c0,0 -1,0 -1,1 -1,0 -2,0 -2,0 -1,0 -2,0 -2,0 -1,-1 -1,-1 -1,-1 -1,-1 -1,-1 -1,-2 0,0 0,-1 0,-1 0,-1 0,-2 0,-2 0,-1 0,-1 1,-2 0,0 1,0 1,-1 1,0 1,0 2,0 1,0 1,0 2,0 0,1 1,1 1,1l0 -4c0,-1 0,-1 0,-1 0,0 0,0 0,0 0,0 0,0 0,0 1,0 1,0 1,0 0,0 0,0 0,0 0,0 1,0 1,0 0,0 0,0 0,0 0,0 0,0 0,1l0 12zm-2 -6c0,-1 -1,-1 -1,-1 -1,-1 -1,-1 -2,-1 0,0 -1,0 -1,1 0,0 -1,0 -1,0 0,1 0,1 0,1 0,1 0,1 0,1 0,1 0,1 0,2 0,0 0,0 0,1 0,0 1,0 1,0 0,1 1,1 1,1 0,0 1,0 1,0 0,0 0,0 0,-1 1,0 1,0 1,0 0,0 1,-1 1,-1l0 -3z"/>
      <path id="5" class="fil2" d="M366 255c0,0 0,0 -1,0 0,0 0,0 0,0 0,0 0,0 0,0 0,0 -1,0 -1,0 0,0 0,0 0,0 0,0 0,0 0,0l0 -1c0,0 -1,0 -1,1 -1,0 -2,0 -2,0 -1,0 -1,0 -2,0 0,0 0,0 -1,-1 0,0 0,0 0,0 0,-1 -1,-1 -1,-1 0,-1 1,-1 1,-2 0,0 0,0 1,-1 0,0 1,0 1,0 1,0 2,0 2,0l2 0 0 -1c0,0 0,0 0,-1 0,0 -1,0 -1,0 0,0 0,-1 0,-1 -1,0 -1,0 -1,0 -1,0 -1,0 -2,0 0,0 0,1 -1,1 0,0 0,0 0,0 0,0 -1,0 -1,0 0,0 0,0 0,0 0,0 0,0 0,0 0,0 0,0 0,0 0,0 0,0 0,0 0,-1 0,-1 0,-1 0,0 0,0 0,0 0,0 0,0 1,0 0,0 0,-1 1,-1 0,0 0,0 1,0 0,0 0,0 1,0 0,0 1,0 1,0 1,0 1,1 2,1 0,0 0,0 0,1 1,0 1,1 1,1l0 6zm-2 -4l-2 0c0,0 -1,0 -1,0 0,0 -1,0 -1,0 0,0 0,1 0,1 -1,0 -1,0 -1,0 0,1 1,1 1,1 0,1 1,1 1,1 1,0 1,0 2,0 0,-1 0,-1 1,-1l0 -2z"/>
      <path id="6" class="fil2" d="M377 246c0,0 1,0 1,0 0,0 0,1 0,1l0 8c0,0 0,0 0,0 0,0 0,0 0,0 0,0 -1,0 -1,0 0,0 0,0 0,0 0,0 0,0 -1,0 0,0 0,0 0,0 0,0 0,0 0,0 0,0 0,0 0,0l0 -8 -5 0 0 5c0,1 0,1 0,1 0,1 1,1 1,1 0,0 1,0 1,0 0,0 0,0 0,0 0,0 0,0 0,0 0,-1 1,-1 1,-1 0,0 0,0 0,0 0,1 0,1 0,1 0,0 0,0 0,0 0,0 0,0 0,0 0,0 0,0 0,0 0,1 0,1 0,1 0,0 0,0 -1,0 0,0 0,0 0,0 0,0 0,0 0,0 -1,0 -1,0 -1,0 -1,0 -1,0 -1,0 -1,0 -1,0 -1,-1 0,0 -1,0 -1,-1 0,0 0,0 0,-1l0 -5 -1 0c0,0 0,0 -1,0 0,0 0,0 0,0 0,0 0,0 0,0 0,-1 0,-1 0,-1 0,0 1,0 1,0 0,0 0,0 0,0l1 0 0 -2c0,0 0,0 0,0 0,0 0,0 0,0 0,0 0,0 1,0 0,0 0,0 0,0 0,0 0,0 0,0 1,0 1,0 1,0 0,0 0,0 0,0 0,0 0,0 0,0l0 2 6 0zm1 -2c0,0 0,0 0,0 0,1 -1,1 -1,1 -1,0 -1,0 -1,-1 0,0 0,0 0,0 0,-1 0,-1 0,-1 0,0 0,0 1,0 0,0 1,0 1,0 0,0 0,0 0,1z"/>
      <path id="7" class="fil2" d="M390 250c0,1 0,2 0,2 0,1 -1,1 -1,2 0,0 -1,0 -2,1 0,0 -1,0 -2,0 -1,0 -1,0 -2,0 0,0 -1,-1 -1,-1 -1,-1 -1,-1 -1,-2 0,0 -1,-1 -1,-1 0,-1 1,-2 1,-2 0,-1 0,-1 1,-2 0,0 1,0 1,-1 1,0 2,0 3,0 0,0 1,0 2,0 0,1 1,1 1,1 1,1 1,1 1,2 0,0 0,1 0,1zm-2 1c0,-1 0,-1 0,-2 0,0 0,0 0,-1 0,0 -1,0 -1,0 0,-1 -1,-1 -2,-1 0,0 -1,0 -1,1 0,0 -1,0 -1,0 0,0 0,1 0,1 -1,1 -1,1 -1,1 0,1 0,1 1,2 0,0 0,1 0,1 0,0 1,0 1,0 0,1 1,1 1,1 1,0 1,0 2,0 0,-1 0,-1 1,-1 0,0 0,-1 0,-1 0,-1 0,-1 0,-1z"/>
      <path id="8" class="fil2" d="M401 255c0,0 0,0 0,0 0,0 0,0 0,0 0,0 0,0 0,0 0,0 0,0 0,0 -1,0 -1,0 -1,0 0,0 0,0 0,0 0,0 0,0 0,0 0,0 0,0 0,0l0 -5c0,-1 0,-1 0,-1 -1,-1 -1,-1 -1,-1 0,0 0,0 0,-1 -1,0 -1,0 -1,0 -1,0 -1,0 -2,1 0,0 -1,0 -1,1l0 6c0,0 0,0 0,0 0,0 0,0 0,0 0,0 -1,0 -1,0 0,0 0,0 0,0 0,0 0,0 -1,0 0,0 0,0 0,0 0,0 0,0 0,0 0,0 0,0 0,0l0 -9c0,0 0,0 0,0 0,0 0,0 0,0 0,0 0,0 0,0 1,0 1,0 1,0 0,0 0,0 0,0 0,0 0,0 0,0 1,0 1,0 1,0 0,0 0,0 0,0l0 2c0,-1 1,-1 1,-2 1,0 1,0 2,0 1,0 1,0 2,0 0,0 0,1 1,1 0,0 0,1 0,1 0,1 0,1 0,2l0 5z"/>
     </g>
    </g>
   </g>
  </g>
  <polygon class="fil3" points="0,396 564,396 564,0 0,0 "/>
 </g>
</svg>
