<?xml version="1.0" encoding="utf-8"?>
<!-- Generator: Adobe Illustrator 16.0.0, SVG Export Plug-In . SVG Version: 6.00 Build 0)  -->
<!DOCTYPE svg PUBLIC "-//W3C//DTD SVG 1.1//EN" "http://www.w3.org/Graphics/SVG/1.1/DTD/svg11.dtd">
<svg version="1.1" id="Layer_1" xmlns="http://www.w3.org/2000/svg" xmlns:xlink="http://www.w3.org/1999/xlink" x="0px" y="0px"
	 width="262px" height="184px" viewBox="0 0 262 184" enable-background="new 0 0 262 184" xml:space="preserve">
<rect y="0.042" fill="#8EC641" width="262" height="183.958"/>
<rect x="10.095" y="30.532" fill="none" width="232.805" height="112.384"/>
<g id="_226884776">
	<path fill="#FFFFFF" d="M144.575,85.397c0-1.138-0.604-3.2-1.598-3.2c-1.166,0-2.123-0.185-2.944,1.539
		c-1.372,2.88-1.927,10.943-1.495,14.261c0.35,2.696,0.341,4.363,2.676,4.363c4.404,0-0.378-10.354,6.915-15.172
		c0.719-0.479,1.422-1.098,2.049-1.15c0,3.024,0.232,5.621,0.705,8.254c0.205,1.147,1.255,6.148,2.975,6.148
		c1.986,0,2.062-0.893,2.699-2.901c0.753-2.369,2.558-10.101,5.139-10.703c0,0.811-0.167,1.249-0.162,2.264
		c0.021,3.435-0.583,8.514,0.525,11.299c0.245,0.623,0.525,1.048,0.926,1.473l0.762,0.518c1.355,0.604,1.926,0.369,2.235-1.027
		c0.988-4.466,0.676-11.406,0.676-16.125c0-0.982-0.501-1.725-1.073-2.289c-1.367-1.348-3.109-1.226-4.668-0.57
		c-0.153,0.065-0.511,0.229-0.66,0.3c-1.627,0.778-2.188,1.635-3.143,2.777l-2.3,3.781c-0.02-0.966-0.158-1.047-0.162-2.232
		c-0.021-4.175,0.292-7.588-4.595-5.725c-0.815,0.311-2.688,1.52-3.404,2.194c-0.034,0.035-0.128,0.126-0.163,0.159l-0.254,0.225
		C145.624,84.392,145.215,84.969,144.575,85.397z"/>
	<path fill="#FFFFFF" d="M196.899,97.239c0.162-0.698,0.514-0.938,0.853-1.548l1.294-2.228c0.174-0.287,0.33-0.489,0.512-0.77
		c1.032-1.401,4.243-5.543,5.812-5.382c1.28,0.134,0.52,3.25,0.235,4.068c-0.482,1.386-1.313,2.296-2.428,3.173
		C201.58,95.806,198.935,97.239,196.899,97.239z M187.779,93.878c0,4.106,0.96,4.12,0.96,4.962l-1.677,3.764
		c-0.202,0.525-0.369,0.945-0.541,1.376c-1.421,3.521-4.96,11.748-0.667,14.229c0.028,0.015,0.072,0.041,0.102,0.058l1.983,0.574
		c0.6-1.129,2.268-7.456,2.923-9.398l1.558-4.525c1.237-3.735,1.291-2.195,3.644-2.596c12.169,0.028,18.883-19.165,8.837-19.165
		c-0.567,0-2.115,0.725-2.616,1.062c-3.868,2.917-6.729,5.713-9.953,9.25c-0.347,0.461-0.286,0.574-0.871,0.729
		c-0.562-0.673,0.462-2.847,0.752-3.567c0.415-1.022,0.321-0.589,0.736-1.341c1.386-2.499,4.113-4.69,4.113-6.773
		c0-0.251-0.289-2.032-1.956-0.836C191.611,84.187,188.641,89.802,187.779,93.878z"/>
	<path fill="#FFFFFF" d="M33.684,61.555c0,4.04,2.936,4.322,6.4,4.322l0.437,7.404c0.185,1.354-0.028,8.864-0.125,10.027
		c-0.127,1.553-0.346,3.467-0.461,4.979l-0.971,9.751c-0.881-0.207-4.492-0.604-4.802-1.76c-1.58,1.059-1.66,4.156,0.545,5.059
		c3.499,1.429,6.167,0.688,10.326,0.373c2.752-0.211,1.522-0.213,4.49,0.043c0.374-1.638,0.714-2.831,0.322-4.513
		c-1.036-0.497-3.172,0.16-5.121,0.16c0-1.062,0.08-1.537,0.155-2.405c0.068-0.776,0.116-1.653,0.233-2.491
		c0.536-3.853,1.053-11.419,1.053-15.269c0-2.259-0.127-4.036-0.155-6.245l-0.232-2.967c-0.113-0.753-0.253-2.252-0.253-2.948
		c1-0.482,2.076-0.435,3.879-2.041c0.735-0.654,1.964-1.853,2.318-2.815c0.249-0.672-0.054-0.714-0.857-0.806
		c-1.155-0.128-2.129,0.182-3.055,0.585c-4.434,1.939-3.856,1.217-5.91,0.243c-0.262-0.124-0.352-0.219-0.649-0.332
		C38.854,59.006,33.684,58.894,33.684,61.555z"/>
	<path fill="#FFFFFF" d="M63.287,79.797c0,0.78,1.293,4.783,1.58,5.621c0.775,2.292,1.582,6.677,0.979,9.26
		c-1.149-0.309-3.478-4.279-4.387-5.534c-1.24-1.717-2.064-3.203-3.498-4.822c-1.876-2.115-3.135-1.127-4.164,1.346
		c-0.513,1.232-0.75,2.132-1.14,3.501c-0.79,2.782-2.578,10.133,0.04,12.106c2.979,2.245,3.544-4.866,3.549-6.598l0.329-3.992
		c0.066-0.708,0.17-0.52,0.313-1.127c0.799,0.211,1.538,2.069,1.945,2.854c1.49,2.857,5.334,11.616,9.67,6.519
		c2.218-2.606,2.147-5.263,2.147-8.255c0-1.554-0.376-2.637-0.703-3.935c-0.34-1.349-0.844-2.354-1.377-3.425
		c-0.884-1.774-0.874-1.519-1.92-2.882c-0.888-1.154-1.639-1.758-3.041-1.758C63.535,78.983,63.287,79.59,63.287,79.797z"/>
	<path fill="#FFFFFF" d="M130.814,86.677c0.578,1.205,0.802,3.177,0.802,4.962c-0.414,0.168-1.536,0.186-2.577,0.17
		c-1.566-0.023-1.024-0.396-0.582-1.406C129.026,89.099,129.763,87.381,130.814,86.677z M122.013,91.956h-3.038
		c-0.111,0.472-0.162,0.489-0.162,1.122c1.291,0.108,1.761,0.956,1.761,2.08c0,0.19-0.452,0.914-0.594,1.167
		c-0.963,1.726-1.955,4.215-0.722,6.068c0.205,0.307,0.358,0.532,0.738,0.701c1.003,0.444,2.419,0.45,3.09-0.941
		c0.881-1.842,1.523-4.194,2.368-5.309c0.291-0.386,0.439-0.567,1.037-0.567c6.475,0,5.632-0.5,5.601,1.922
		c-0.016,1.141-0.093,1.322,0.312,2.09c1.062,2.014,3.279,3.252,3.554,1.295c0.487-3.449-0.189-11.299-0.798-14.932
		c-0.429-2.562-1.049-7.336-4.187-7.336c-0.625,0-0.146,0.278-1.425,1.776C126.261,84.681,124.345,87.551,122.013,91.956z"/>
	<path fill="#FFFFFF" d="M210.344,94.357c0,1.61,0.373,4.214,1.048,5.193c2.185,3.17,6.435,2.505,9.422,0.477
		c0.491-0.336,0.647-0.552,1.145-0.935c0.254-0.198,0.295-0.226,0.502-0.458l0.293-0.346c1.21-1.443,1.305-1.682,2.095-3.346
		l0.376-0.746c0,0.945,0.099,1.462,0.232,2.327c0.215,1.392-0.48,4.793,1.264,5.299c1.266,0.364,2.521,0.295,3.105-0.943
		c1.042-2.195-0.902-10.547-1.78-13.18c-0.433-1.293-0.939-3.498-2.022-4.222c-1.483,0.346-2.234,2.78-2.72,4.001
		c-1.044,2.648-3.234,10.706-6.634,10.162c-3.313-0.535-0.441-8.715-0.05-10.126c0.307-1.106,0.664-2.34,1.082-3.395
		c0.501-1.254,2.054-4.481,0.161-4.481c-0.775,0-1.188,0.731-1.562,1.159C213.054,84.504,210.344,89,210.344,94.357z"/>
	<path fill="#FFFFFF" d="M180.259,86.677c0.802,1.667,0.802,3.336,0.802,5.121c-4.195,0-4.226,0.625-2.615-2.615
		C178.903,88.263,179.49,87.193,180.259,86.677z M171.456,91.956h-3.039c-0.111,0.472-0.16,0.489-0.16,1.122
		c1.309,0.108,1.92,1.315,1.92,1.92c0,0.367-0.282,0.484-0.531,0.909c-1.296,2.215-1.389,2.846-1.389,5.012
		c0,2.21,2.217,2.823,3.581,2.14c0.303-0.152,0.245-0.099,0.444-0.354l0.668-1.572c0.204-0.459,0.291-0.588,0.498-1.104
		c0.148-0.379,0.284-0.701,0.406-1.031c1.249-3.392,0.795-2.722,7.202-2.722c1.354,0-0.677,2.722,1.794,5.407
		c0.965,1.049,1.599,0.854,2.366,0.675c1.019-4.359-0.214-11.521-0.636-15.684c-0.089-0.85-1.49-6.119-2.28-6.842
		c-0.712-0.644-1.024-0.517-1.884-0.517c-0.695,0-0.249,0.382-0.953,1.286l-1.078,1.163c-1.235,1.38-1.728,1.682-2.857,3.384
		l-3.556,5.885C171.743,91.42,171.702,91.595,171.456,91.956z"/>
	<path fill="#FFFFFF" d="M82.92,97.468c-0.694-0.114-1.307-0.117-1.872-0.39c-0.534-3.484-0.059-7.29,0-10.243
		c-1.108,0-1.797,0.228-2.465,0.735l-0.262,0.218c-0.023,0.023-0.059,0.057-0.082,0.08c-1.572,1.632-1.513,5.374-1.513,7.611
		c-1.383-0.325-2.499-1.613-3.2-2.081c-0.325,1.39-2.261,2.968,1.563,6.118c0.429,0.353,1.438,1.104,1.957,1.243
		c0,1.487,0.047,2.701,2.403,2.571c0.83-0.045,1.194-0.31,1.639-0.771c0.786-0.809,0.423-0.682,1.879-0.68
		c5.884,0.002,14.399-5.576,11.1-12.223c-0.631-1.271-1.834-2.866-2.937-3.784c-0.025-0.022-0.063-0.051-0.087-0.071
		c-3.002-2.454-4.603-3.54-9.017-4.424c-1.92-0.381-8.239-1.002-9.458,1.299c-0.513,0.967-0.249,1.908,0.64,2.559
		C82.13,79.263,100.215,96.131,82.92,97.468z"/>
	<path fill="#FFFFFF" d="M105.21,94.197c0.659-0.982,2.554-0.895,2.879,0.321c-0.688,0.16-1.719,0.817-2.506,0.266
		C105.088,94.437,105.343,94.446,105.21,94.197z M101.667,81.533c-1.124,0.407-2.582,1.076-2.858,2.264
		c1.223,2.309,2.37,0.529,4.635,0.472c3.233-0.077,10.162,1.296,8.599,5.878c-0.374,1.097-0.771,1.263-1.231,2.129
		c-1.305-0.303-2.669-0.942-4.473-0.795c-1.939,0.157-4.76,1.524-2.898,4.006c1.675,2.233,6.041,0.697,6.412,0.791
		c0.33,0.085,3.537,4.181,4.07,4.891c1.228,1.634,1.652,2.721,2.979,2.167c2.612-1.088,0.562-3.793,0.021-4.688l-2.072-3.208
		c-0.295-0.354-0.602-0.727-0.839-1.081c2.283-1.528,2.982-3.683,2.882-5.66C116.52,81.343,107.064,79.585,101.667,81.533z"/>
	<path fill="#FFFFFF" d="M93.208,125.721c-1.307,0-2.16-1.524-1.085-2.844c0.807-0.99,2.844-1.317,4.126-1.317
		c-0.121,0.516-0.749,2.045-1.021,2.499C94.819,124.74,94.19,125.721,93.208,125.721z M93.849,114.359
		c0,0.799,0.352,1.636,0.747,2.135c1.244,1.559,3.253,1.318,3.253-0.214c0-1.207-1.6-0.018-1.6-2.4c0-0.823,0.877-1.848,1.841-1.997
		c0.979-0.15,1.814,0.402,1.202,1.997l-1.077,2.766c-0.208,0.499-0.364,0.825-0.573,1.35c-0.202,0.51-0.386,1.046-0.595,1.487
		c-3.593,0-5.953,0.426-7.298,2.78c-1.223,2.138-0.125,5.702,3.3,5.702c1.82,0,2.996-1.05,3.715-2.206
		c0.517-0.836,1.653-3.202,1.883-4.196c1.838,0,3.203,0.411,3.203-1.281c0-0.903-1.447-0.799-2.402-0.799
		c0.51-0.96,0.873-2.076,1.328-3.153c0.633-1.497,1.074-2.329,1.074-4.049c0-2.037-3.533-3.932-6.489-1.207
		C94.529,111.838,93.849,113.225,93.849,114.359z"/>
	<path fill="#FFFFFF" d="M38.163,113.721c0.271-0.515,0.52-1.761,1.121-1.761c0.369,0,0.959,0.179,0.959,0.479
		C40.244,113.664,39.396,113.721,38.163,113.721z M34.803,111.96h1.6l-3.043,7.675c-0.566,1.285-1.886,4.538-4.076,3.451
		c-1.741-0.861-1.639-5.085,3.254-5.713c0.778-0.098,1.785-0.164,1.785-1.093c0-2.671-8.481-0.979-8.481,5.44
		c0,3.957,4.823,4.879,7.165,2.688c2.191-2.054,3.089-5.964,4.357-8.609c1.444,0,2.7,0.05,3.618-0.541
		c1.762-1.138,2.919-5.377-1.859-5.377C37.383,109.881,33.055,109.35,34.803,111.96z"/>
	<path fill="#FFFFFF" d="M96.73,99.317c0,0.707,0.507,1.44,0.914,1.808c0.72,0.659,1.467,0.754,2.446,0.754
		c1.719,0,1.526-2.294,1.712-3.728c0.473-3.658,0.566-5.726,1.395-9.488c0.623-2.826,1.671-3.588-1.506-3.588
		c-0.63,0-1.444,0.311-1.794,0.608c-0.563,0.482-1.76,4.326-1.982,5.218c-0.333,1.336-0.667,2.558-0.835,3.963
		C96.902,96.343,96.73,97.725,96.73,99.317z"/>
	<path fill="#FFFFFF" d="M82.167,114.999c-1.731,0-2.399,0.094-2.399,1.281c0,0.784,0.824,0.64,1.601,0.64
		c-0.339,0.708-0.661,1.651-0.961,2.4c-0.332,0.832-0.63,1.648-1.012,2.505c-0.378,0.84-0.626,1.517-0.974,2.388
		c-0.3,0.748-0.894,1.805-0.894,2.63c0,0.572,1.252,1.616,2.245-0.477c0.468-0.984,0.872-2.116,1.298-3.181l2.538-6.266
		c0.973,0,3.04,0.333,3.04-1.122c0-0.921-1.296-0.801-2.241-0.801c0.37-0.769,0.813-2.47,1.437-2.881
		c0.898-0.589,2.884,0.063,2.884-1.438c0-0.941-1.452-0.8-2.08-0.8C83.374,109.881,83.226,112.796,82.167,114.999z"/>
	<path fill="#FFFFFF" d="M50.964,119.799c-0.43,0-0.44-0.074-0.799-0.16c-0.388-1.619,0.621-2.878,1.601-2.878
		c0.433,0,0.44,0.075,0.799,0.159c0,0.871-0.248,1.108-0.499,1.74C51.869,119.154,51.687,119.799,50.964,119.799z M47.924,119.162
		c0,2.719,2.203,2.397,3.52,2.397c0.237,0,0.706-0.344,0.961-0.479c0.256,0.712,0.983,0.479,2.56,0.479
		c0.571,0,1.11-0.792,0.801-1.438c-0.343-0.468,0.038-0.228-0.718-0.402c-0.433-0.102-0.577-0.078-1.042-0.078
		c0.045-0.562,0.435-1.33,0.616-1.782c0.132-0.327,1.467-2.858-0.138-2.858c-0.651,0-0.859,0.253-1.119,0.642
		c-0.963-0.645-2.027-1.376-3.649,0.03c-0.065,0.056-0.293,0.259-0.34,0.302C48.553,116.767,47.924,117.985,47.924,119.162z"/>
	<path fill="#FFFFFF" d="M105.691,119.799c-1.495,0-0.855-3.038,1.12-3.038C108.13,116.761,106.684,119.799,105.691,119.799z
		 M102.81,118.84c0,2.98,1.521,2.72,3.202,2.72c0.591,0,0.722-0.155,0.959-0.479c0.925,0.621,0.09,0.479,2.561,0.479
		c1.155,0,2.261-1.919-0.801-1.919c0.285-1.221,2.572-4.642,0.48-4.642c-0.278,0-0.79,0.175-0.96,0.643
		c-0.553-0.372-0.813-0.774-1.739-0.748C104.457,114.951,102.81,117.072,102.81,118.84z"/>
	<path fill="#FFFFFF" d="M119.611,119.799c-1.198,0-0.755-3.038,1.283-3.038c0.98,0,0.247,1.425-0.016,2.066
		C120.656,119.369,120.403,119.799,119.611,119.799z M116.893,118.681c0,2.911,1.023,2.879,3.199,2.879
		c0.593,0,0.721-0.156,0.96-0.479c0.928,0.62,0.091,0.479,2.561,0.479c1.155,0,2.262-1.921-0.799-1.921
		c0.405-1.746,1.82-3.486,1.228-4.253c-0.569-0.736-1.378-0.234-1.869,0.095c-1.036-0.55-2.069-0.992-3.461,0.059
		C117.935,116.129,116.893,117.405,116.893,118.681z"/>
	<path fill="#FFFFFF" d="M43.604,117.562c0.146-0.546,0.484-0.855,1.138-0.808c0.812,0.059,0.223-0.075,0.46,0.176
		C45.771,117.53,44.26,117.562,43.604,117.562z M41.044,118.84c0,3.311,2.524,2.72,5.44,2.72c1.194,0,1.98-1.557,0.269-1.866
		c-2.053-0.369-3.339,0.558-3.629-0.53c2.668,0,4.16,0.099,4.16-2.401c0-0.794-0.708-1.454-1.375-1.666
		C43.374,114.284,41.044,116.354,41.044,118.84z"/>
	<path fill="#FFFFFF" d="M56.087,117.882c0,0.681,0.961,1.057,1.556,0.444c0.826-0.848,0.017-1.406,1.484-1.406
		c-0.448,0.668-1.28,1.488-1.28,2.562c0,2.51,2.228,2.078,3.999,2.078c0.75,0,1.121-0.37,1.121-1.119c0-1.52-2.882,0.021-2.882-1.44
		c0-0.73,1.006-1.806,1.259-1.944c0.508-0.269,0.667-0.014,1.188-0.42c0.153-0.116,0.275-0.245,0.339-0.464
		c0.159-0.543-0.095-0.871-0.504-1.054c-0.232-0.103-0.567-0.121-0.992-0.128c-0.687-0.008-1.398,0.009-2.089,0.009
		c-0.349-0.659-0.344-1.119-1.122-1.119C57.19,113.88,56.087,117.61,56.087,117.882z"/>
	<path fill="#FFFFFF" d="M74.488,119c0-2.541,2.559-2.686,2.559-1.439C77.046,120.517,74.488,119.885,74.488,119z M72.409,118.521
		c0,5.003,6.719,3.546,6.719-0.32c0-1.115,0.067-2.054-1.278-2.884C75.684,113.98,72.409,116.059,72.409,118.521z"/>
	<path fill="#FFFFFF" d="M63.287,120.6c0,1.266,1.646,0.96,3.2,0.96c1.203,0,2.196-1.921-0.8-1.921
		c0.433-0.899,3.521-8.477,3.521-8.959c0-0.205-1.149-2.425-2.651,1.348C65.912,113.643,63.287,119.752,63.287,120.6z"/>
	<path fill="#FFFFFF" d="M113.211,118.36c0-1.604,0.693-3.361-0.641-3.361c-1.353,0-1.247,2.089-1.396,3.247
		c-0.191,1.494-0.51,3.474,1.235,3.474c1.055,0,1.817-1.503,2.77-2.67c0.423-0.52,2.191-2.662,2.191-3.252
		c0-0.4-1.02-1.817-2.307,0.093L113.211,118.36z"/>
	<path fill="#FFFFFF" d="M135.454,121.881c1.638,0,1.472-2.399,0.32-2.399c-0.799,0-1.657,0.13-1.533,1.236
		C134.304,121.29,134.906,121.881,135.454,121.881z"/>
	<path fill="#FFFFFF" d="M138.655,120.6c0,1.697,2.4,1.775,2.4-0.16C141.056,119.333,138.655,118.896,138.655,120.6z"/>
	<path fill="#FFFFFF" d="M129.854,120.6c0,1.596,2.398,1.772,2.398,0C132.252,118.979,129.854,119.19,129.854,120.6z"/>
	<path fill="#FFFFFF" d="M194.02,129.882h-0.641v0.161c0.089,0,0.264,0.002,0.311-0.011
		C193.973,129.951,193.866,129.98,194.02,129.882z"/>
	<path fill="#FFFFFF" d="M190.661,130.682h0.638v-0.159c-0.088,0-0.26-0.006-0.306,0.01
		C190.708,130.614,190.812,130.584,190.661,130.682z"/>
	<path fill="#FFFFFF" d="M190.661,130.682h-0.643v0.159c0.09,0,0.263,0.006,0.311-0.011
		C190.613,130.75,190.507,130.779,190.661,130.682z"/>
	<polygon fill="#FFFFFF" points="191.46,130.523 191.938,130.523 191.938,130.361 191.46,130.361 	"/>
	<polygon fill="#FFFFFF" points="192.1,130.361 192.579,130.361 192.579,130.202 192.1,130.202 	"/>
	<polygon fill="#FFFFFF" points="192.74,130.202 193.22,130.202 193.22,130.042 192.74,130.042 	"/>
	<path fill="#FFFFFF" d="M194.02,129.882h0.482v-0.16C193.652,129.722,194.261,129.725,194.02,129.882z"/>
	<path fill="#FFFFFF" d="M232.905,104.758c0.163-0.175,0.159,0.281,0.159-0.478C232.901,104.457,232.905,103.998,232.905,104.758z"
		/>
	<path fill="#FFFFFF" d="M194.98,129.722c0.163,0.164,0.579-0.23,0.186-0.087C195.162,129.637,194.712,129.454,194.98,129.722z"/>
	<path fill="#FFFFFF" d="M196.74,129.241c0.166,0.163,0.579-0.229,0.188-0.085C196.921,129.154,196.471,128.972,196.74,129.241z"/>
	<path fill="#FFFFFF" d="M189.538,131c0.166,0.163,0.581-0.229,0.189-0.084C189.724,130.916,189.27,130.732,189.538,131z"/>
	<path fill="#FFFFFF" d="M32.723,61.233c0,0.398,0.255,0.042,0.099,0C32.819,61.233,32.723,60.781,32.723,61.233z"/>
	<path fill="#FFFFFF" d="M32.562,61.715c0,0.396,0.256,0.04,0.099,0C32.659,61.713,32.562,61.259,32.562,61.715z"/>
	<polygon fill="#FFFFFF" points="232.424,105.72 232.265,105.72 232.397,105.906 	"/>
	<polygon fill="#FFFFFF" points="29.202,129.882 29.202,130.042 29.389,129.909 	"/>
	<polygon fill="#FFFFFF" points="228.423,112.919 228.584,112.919 228.45,112.733 	"/>
	<polygon fill="#FFFFFF" points="228.104,113.4 227.945,113.4 228.077,113.587 	"/>
	<polygon fill="#FFFFFF" points="29.202,129.882 29.202,129.722 29.015,129.855 	"/>
	<polygon fill="#FFFFFF" points="228.423,112.919 228.263,112.919 228.398,113.106 	"/>
	<polygon fill="#FFFFFF" points="228.104,113.4 228.263,113.4 228.13,113.213 	"/>
	<polygon fill="#FFFFFF" points="26.481,127.48 26.481,127.32 26.296,127.454 	"/>
	<polygon fill="#FFFFFF" points="26.641,127.642 26.641,127.802 26.828,127.668 	"/>
	<polygon fill="#FFFFFF" points="27.763,128.76 27.763,128.603 27.575,128.736 	"/>
	<polygon fill="#FFFFFF" points="28.083,129.081 28.083,129.241 28.268,129.109 	"/>
	<polygon fill="#FFFFFF" points="231.144,108.12 231.305,108.12 231.172,107.933 	"/>
	<polygon fill="#FFFFFF" points="230.824,108.759 230.665,108.759 230.797,108.945 	"/>
	<path fill="#FFFFFF" d="M28.722,129.722c0.017,0.017,0.047-0.071,0.047-0.049l0,0C28.768,129.679,28.706,129.705,28.722,129.722z"
		/>
	<path fill="#FFFFFF" d="M231.305,107.8c0.016,0.016,0.05-0.07,0.05-0.049l0,0C231.349,107.753,231.288,107.784,231.305,107.8z"/>
	<path fill="#FFFFFF" d="M231.786,106.839c0.014,0.018,0.046-0.067,0.048-0.048l0,0
		C231.829,106.794,231.769,106.824,231.786,106.839z"/>
	<path fill="#FFFFFF" d="M29.522,130.202c0.016,0.016,0.047-0.069,0.047-0.048l0,0C29.567,130.157,29.505,130.185,29.522,130.202z"
		/>
	<path fill="#FFFFFF" d="M195.619,129.562c0.02,0.016,0.05-0.069,0.05-0.047l0,0C195.667,129.519,195.604,129.545,195.619,129.562z"
		/>
	<path fill="#FFFFFF" d="M230.344,109.561c0.019,0.015,0.048-0.07,0.048-0.048l0,0C230.389,109.515,230.328,109.543,230.344,109.561
		z"/>
	<path fill="#FFFFFF" d="M29.844,130.361c0.014,0.016,0.047-0.07,0.047-0.047l0,0C29.887,130.316,29.826,130.348,29.844,130.361z"/>
	<path fill="#FFFFFF" d="M32.883,60.914l0.047-0.048C32.929,60.87,32.866,60.899,32.883,60.914z"/>
	<path fill="#FFFFFF" d="M32.401,62.354l0.047-0.049C32.447,62.309,32.388,62.338,32.401,62.354z"/>
	<path fill="#FFFFFF" d="M231.624,107.159l0.05-0.048C231.668,107.115,231.609,107.145,231.624,107.159z"/>
	<path fill="#FFFFFF" d="M232.103,106.199l0.048-0.045C232.148,106.154,232.09,106.183,232.103,106.199z"/>
	<path fill="#FFFFFF" d="M230.184,109.881l0.048-0.049C230.229,109.836,230.169,109.863,230.184,109.881z"/>
	<path fill="#FFFFFF" d="M230.503,109.238l0.048-0.047C230.549,109.195,230.488,109.221,230.503,109.238z"/>
	<path fill="#FFFFFF" d="M230.022,110.198l0.047-0.046C230.069,110.154,230.01,110.184,230.022,110.198z"/>
	<path fill="#FFFFFF" d="M231.466,107.479l0.046-0.047C231.508,107.437,231.447,107.462,231.466,107.479z"/>
	<path fill="#FFFFFF" d="M231.944,106.521l0.048-0.048C231.989,106.475,231.928,106.503,231.944,106.521z"/>
	<path fill="#FFFFFF" d="M196.262,129.401l0.048-0.048C196.305,129.357,196.244,129.385,196.262,129.401z"/>
	<path fill="#FFFFFF" d="M232.424,105.72l0.161-0.321L232.424,105.72z"/>
	<path fill="#FFFFFF" d="M232.585,105.398l0.16-0.32L232.585,105.398z"/>
	<path fill="#FFFFFF" d="M233.547,103.316l0.158-0.318L233.547,103.316z"/>
	<path fill="#FFFFFF" d="M28.083,129.081l-0.16-0.161L28.083,129.081z"/>
	<path fill="#FFFFFF" d="M27.923,128.922l-0.16-0.162L27.923,128.922z"/>
	<path fill="#FFFFFF" d="M233.705,102.998l0.159-0.318L233.705,102.998z"/>
	<line fill="none" x1="228.744" y1="112.439" x2="228.744" y2="112.439"/>
	<path fill="#FFFFFF" d="M233.863,102.68l0.16-0.32L233.863,102.68z"/>
	<path fill="#FFFFFF" d="M234.025,102.359l0.158-0.321L234.025,102.359z"/>
	<path fill="#FFFFFF" d="M234.183,102.038l0.162-0.32L234.183,102.038z"/>
	<path fill="#FFFFFF" d="M233.386,103.638l0.161-0.321L233.386,103.638z"/>
	<path fill="#FFFFFF" d="M234.345,101.718l0.161-0.271L234.345,101.718z"/>
	<path fill="#FFFFFF" d="M233.224,103.959l0.162-0.321L233.224,103.959z"/>
	<path fill="#FFFFFF" d="M233.064,104.28l0.159-0.321L233.064,104.28z"/>
	<path fill="#FFFFFF" d="M232.743,105.078l0.162-0.32L232.743,105.078z"/>
	<path fill="#FFFFFF" d="M230.824,108.759l0.16-0.319L230.824,108.759z"/>
	<path fill="#FFFFFF" d="M230.984,108.439l0.16-0.319L230.984,108.439z"/>
	<path fill="#FFFFFF" d="M26.641,127.642l-0.16-0.162L26.641,127.642z"/>
</g>
</svg>
