<?xml version="1.0" encoding="UTF-8"?>
<!DOCTYPE svg PUBLIC "-//W3C//DTD SVG 1.1//EN" "http://www.w3.org/Graphics/SVG/1.1/DTD/svg11.dtd">
<!-- Creator: CorelDRAW X8 -->
<svg xmlns="http://www.w3.org/2000/svg" xml:space="preserve" width="74.4045mm" height="35.9181mm" version="1.1" style="shape-rendering:geometricPrecision; text-rendering:geometricPrecision; image-rendering:optimizeQuality; fill-rule:evenodd; clip-rule:evenodd"
viewBox="0 0 100549 48539"
 xmlns:xlink="http://www.w3.org/1999/xlink">
 <defs>
  <style type="text/css">
   <![CDATA[
    .fil0 {fill:none}
    .fil1 {fill:#FEFEFE}
   ]]>
  </style>
 </defs>
 <g id="Layer_x0020_1">
  <metadata id="CorelCorpID_0Corel-Layer"/>
  <rect class="fil0" width="100549" height="48539"/>
  <g id="_226884776">
   <path class="fil1" d="M57197 19564c0,-547 -291,-1538 -769,-1538 -560,0 -1020,-89 -1415,739 -659,1384 -926,5260 -718,6855 168,1296 164,2097 1286,2097 2117,0 -182,-4976 3323,-7292 346,-230 684,-528 985,-553 0,1453 113,2702 339,3967 99,552 603,2955 1430,2955 955,0 991,-428 1298,-1394 362,-1138 1229,-4855 2470,-5144 0,390 -80,600 -78,1088 10,1651 -280,4092 252,5431 118,299 252,504 445,708l367 248c651,291 925,178 1074,-493 475,-2147 325,-5482 325,-7751 0,-472 -241,-829 -516,-1100 -657,-648 -1494,-589 -2243,-274 -73,31 -246,110 -317,144 -782,374 -1052,786 -1511,1335l-1105 1818c-10,-464 -76,-504 -78,-1073 -10,-2007 140,-3648 -2209,-2752 -392,149 -1292,731 -1636,1055 -16,16 -62,60 -79,76l-122 108c-294,257 -491,534 -798,740z"/>
   <path class="fil1" d="M82347 25256c78,-335 247,-450 410,-744l622 -1070c83,-138 158,-236 246,-370 496,-674 2039,-2665 2793,-2587 616,64 250,1562 113,1955 -231,666 -631,1103 -1167,1525 -767,602 -2039,1291 -3017,1291zm-4384 -1616c0,1974 462,1981 462,2385l-806 1809c-97,252 -177,455 -261,662 -682,1693 -2383,5646 -320,6838 14,8 34,20 49,28l953 277c288,-543 1090,-3584 1405,-4518l749 -2174c595,-1796 620,-1056 1751,-1248 5850,14 9077,-9212 4248,-9212 -273,0 -1017,349 -1258,511 -1860,1402 -3235,2746 -4784,4445 -167,222 -137,276 -419,351 -270,-324 222,-1368 362,-1715 199,-491 154,-283 354,-645 666,-1201 1976,-2254 1976,-3255 0,-121 -138,-977 -940,-402 -1679,1205 -3106,3904 -3521,5863z"/>
   <path class="fil1" d="M3896 8104c0,1942 1411,2077 3076,2077l210 3559c89,650 -14,4260 -60,4820 -61,746 -167,1666 -222,2393l-466 4687c-424,-99 -2159,-290 -2308,-846 -759,509 -798,1998 262,2431 1682,687 2964,331 4963,179 1323,-101 732,-102 2158,21 180,-787 343,-1361 155,-2169 -498,-239 -1525,77 -2461,77 0,-510 38,-739 74,-1156 33,-373 56,-795 112,-1197 258,-1852 506,-5489 506,-7339 0,-1086 -61,-1940 -74,-3002l-112 -1426c-54,-361 -122,-1082 -122,-1417 481,-231 998,-209 1865,-981 353,-314 944,-890 1114,-1353 120,-323 -26,-343 -412,-387 -555,-62 -1023,87 -1468,281 -2131,932 -1853,585 -2841,117 -126,-60 -169,-106 -312,-160 -1152,-434 -3637,-488 -3637,791z"/>
   <path class="fil1" d="M18125 16872c0,375 622,2299 759,2702 373,1101 760,3210 471,4451 -552,-148 -1672,-2057 -2109,-2660 -596,-825 -992,-1540 -1681,-2318 -902,-1016 -1507,-541 -2002,647 -246,592 -360,1024 -548,1683 -380,1337 -1239,4870 19,5818 1432,1080 1704,-2338 1706,-3170l158 -1919c32,-341 82,-250 150,-542 384,102 739,995 935,1372 716,1373 2564,5583 4648,3134 1066,-1253 1032,-2530 1032,-3968 0,-747 -181,-1268 -338,-1892 -163,-648 -406,-1131 -662,-1646 -425,-853 -420,-730 -923,-1385 -427,-555 -788,-845 -1462,-845 -34,147 -153,439 -153,538z"/>
   <path class="fil1" d="M50582 20179c278,579 385,1527 385,2385 -198,81 -738,89 -1238,82 -753,-11 -492,-191 -280,-676 274,-626 628,-1452 1133,-1791zm-4230 2538l-1461 0c-53,227 -77,235 -77,539 621,51 846,460 846,1000 0,91 -217,439 -285,561 -463,829 -940,2025 -347,2916 98,148 172,257 355,337 482,213 1163,217 1485,-453 424,-885 732,-2015 1138,-2551 140,-185 211,-272 499,-272 3112,0 2707,-241 2692,923 -7,549 -44,636 150,1004 510,969 1576,1564 1708,623 234,-1658 -91,-5431 -384,-7177 -206,-1231 -504,-3526 -2012,-3526 -300,0 -71,134 -685,854 -1580,1725 -2501,3104 -3622,5222z"/>
   <path class="fil1" d="M88808 23871c0,774 180,2026 504,2496 1050,1524 3093,1204 4529,229 237,-161 312,-265 550,-449 122,-95 142,-109 242,-220l140 -167c581,-693 627,-808 1007,-1608l181 -358c0,454 48,702 112,1119 103,668 -231,2303 607,2546 608,176 1211,142 1493,-453 501,-1056 -434,-5070 -856,-6336 -208,-622 -452,-1681 -971,-2029 -714,166 -1076,1336 -1308,1923 -502,1273 -1555,5146 -3189,4884 -1593,-257 -213,-4189 -24,-4867 147,-532 319,-1125 521,-1632 241,-603 987,-2154 77,-2154 -373,0 -572,352 -751,557 -1560,1783 -2864,3944 -2864,6519z"/>
   <path class="fil1" d="M74348 20179c385,801 385,1604 385,2462 -2016,0 -2031,300 -1257,-1257 221,-443 503,-957 872,-1205zm-4230 2538l-1461 0c-53,227 -77,235 -77,539 629,52 923,632 923,923 0,176 -136,232 -256,437 -623,1064 -667,1367 -667,2409 0,1062 1065,1357 1721,1029 146,-73 119,-48 214,-171l321 -756c98,-220 140,-282 239,-530 72,-182 138,-337 196,-496 600,-1630 381,-1307 3462,-1307 651,0 -325,1307 862,2599 464,504 769,410 1138,324 488,-2095 -103,-5538 -307,-7539 -42,-408 -715,-2941 -1096,-3288 -341,-310 -492,-249 -905,-249 -334,0 -120,184 -458,618l-519 559c-593,663 -829,809 -1372,1627l-1710 2828c-111,186 -131,270 -248,444z"/>
   <path class="fil1" d="M27562 25366c-334,-54 -628,-57 -900,-187 -257,-1675 -29,-3504 0,-4923 -533,0 -864,109 -1185,353l-126 105c-11,11 -28,27 -39,38 -756,784 -727,2583 -727,3658 -665,-156 -1201,-775 -1538,-1000 -156,668 -1087,1426 751,2941 206,169 691,530 941,597 0,715 23,1299 1155,1236 399,-22 574,-149 788,-370 378,-389 203,-328 903,-327 2828,1 6921,-2680 5335,-5875 -303,-611 -882,-1378 -1412,-1819 -12,-10 -30,-24 -42,-34 -1443,-1179 -2212,-1701 -4334,-2126 -923,-184 -3960,-482 -4546,624 -247,465 -120,917 307,1230 4289,-2871 12982,5236 4669,5879z"/>
   <path class="fil1" d="M38276 23794c317,-473 1228,-430 1384,154 -331,77 -826,393 -1204,128 -239,-167 -117,-162 -180,-282zm-1703 -6087c-540,195 -1241,517 -1374,1088 588,1110 1139,254 2228,227 1554,-37 4884,623 4133,2825 -180,527 -371,607 -592,1024 -627,-146 -1283,-453 -2150,-383 -932,75 -2288,733 -1393,1926 805,1074 2903,334 3082,380 159,41 1700,2010 1956,2351 590,784 794,1307 1432,1041 1256,-523 270,-1823 10,-2253l-996 -1542c-142,-171 -289,-350 -403,-520 1097,-734 1433,-1770 1385,-2721 -179,-3535 -4724,-4379 -7318,-3443z"/>
   <path class="fil1" d="M32507 38946c-628,0 -1038,-732 -521,-1367 388,-476 1367,-633 1983,-633 -58,247 -360,982 -491,1201 -197,327 -499,799 -971,799zm308 -5461c0,384 169,787 359,1026 598,749 1564,634 1564,-103 0,-580 -769,-8 -769,-1153 0,-396 422,-889 885,-960 471,-72 872,193 578,959l-518 1330c-100,239 -175,396 -275,648 -97,245 -185,504 -286,715 -1727,0 -2861,204 -3508,1336 -588,1028 -60,2740 1586,2740 875,0 1440,-504 1786,-1060 249,-401 794,-1539 905,-2017 883,0 1539,198 1539,-615 0,-435 -695,-384 -1154,-384 245,-462 419,-998 638,-1516 304,-720 516,-1120 516,-1946 0,-979 -1698,-1890 -3119,-580 -400,368 -727,1034 -727,1580z"/>
   <path class="fil1" d="M6049 33178c131,-247 250,-846 539,-846 177,0 461,86 461,230 0,589 -407,616 -1000,616zm-1615 -846l769 0 -1463 3689c-272,617 -906,2181 -1959,1659 -837,-415 -788,-2444 1564,-2746 374,-47 858,-79 858,-526 0,-1284 -4076,-470 -4076,2615 0,1902 2318,2345 3444,1291 1053,-986 1484,-2866 2094,-4137 694,0 1298,24 1739,-260 847,-547 1403,-2585 -893,-2585 -837,0 -2917,-255 -2077,1000z"/>
   <path class="fil1" d="M34200 26255c0,340 244,692 439,869 346,316 705,362 1176,362 826,0 734,-1103 823,-1792 227,-1759 272,-2752 670,-4560 299,-1358 803,-1724 -724,-1724 -303,0 -694,149 -862,292 -271,231 -846,2079 -953,2508 -160,642 -321,1230 -402,1905 -85,710 -167,1375 -167,2140z"/>
   <path class="fil1" d="M27200 33793c-832,0 -1153,44 -1153,615 0,377 396,308 769,308 -163,340 -318,794 -462,1154 -160,400 -303,792 -487,1204 -181,403 -301,728 -468,1147 -144,360 -429,867 -429,1264 0,275 602,776 1079,-229 225,-473 419,-1017 624,-1529l1220 -3011c468,0 1461,159 1461,-539 0,-443 -623,-384 -1077,-384 178,-370 391,-1188 691,-1386 432,-283 1386,31 1386,-691 0,-452 -698,-384 -1000,-384 -1574,0 -1645,1402 -2154,2461z"/>
   <path class="fil1" d="M12202 36100c-207,0 -212,-36 -384,-77 -187,-779 298,-1384 769,-1384 208,0 212,37 384,77 0,419 -119,532 -240,836 -94,238 -182,548 -529,548zm-1461 -307c0,1307 1059,1153 1692,1153 114,0 339,-166 462,-230 123,342 472,230 1230,230 275,0 534,-381 385,-692 -165,-225 18,-109 -345,-193 -208,-49 -278,-38 -501,-38 22,-270 209,-639 296,-857 63,-157 705,-1373 -66,-1373 -313,0 -413,121 -538,308 -463,-310 -974,-661 -1754,14 -31,27 -141,125 -163,146 -396,381 -698,967 -698,1532z"/>
   <path class="fil1" d="M38507 36100c-718,0 -411,-1461 538,-1461 635,0 -61,1461 -538,1461zm-1385 -461c0,1432 731,1307 1539,1307 284,0 347,-75 461,-230 445,298 43,230 1231,230 555,0 1087,-923 -385,-923 137,-586 1236,-2230 231,-2230 -134,0 -380,83 -462,308 -266,-179 -391,-372 -836,-359 -987,28 -1779,1047 -1779,1897z"/>
   <path class="fil1" d="M45198 36100c-576,0 -363,-1461 616,-1461 471,0 119,685 -7,993 -107,261 -229,468 -609,468zm-1307 -538c0,1399 492,1384 1538,1384 285,0 347,-75 461,-230 446,298 44,230 1231,230 555,0 1087,-923 -384,-923 195,-840 875,-1676 590,-2045 -273,-354 -662,-113 -898,46 -498,-264 -994,-477 -1663,28 -374,283 -875,897 -875,1510z"/>
   <path class="fil1" d="M8664 35024c70,-262 233,-411 547,-388 390,28 107,-36 221,85 274,288 -453,303 -768,303zm-1230 615c0,1591 1213,1307 2615,1307 574,0 952,-749 129,-898 -987,-177 -1605,268 -1744,-255 1282,0 1999,47 1999,-1154 0,-382 -340,-699 -661,-801 -1218,-389 -2338,606 -2338,1801z"/>
   <path class="fil1" d="M14664 35177c0,328 462,508 748,215 397,-407 8,-676 713,-676 -215,320 -615,714 -615,1231 0,1206 1071,999 1922,999 360,0 539,-179 539,-538 0,-731 -1385,10 -1385,-692 0,-351 483,-869 605,-934 244,-130 320,-7 571,-202 73,-57 132,-118 163,-223 76,-261 -46,-419 -242,-507 -112,-49 -273,-58 -477,-61 -330,-5 -672,4 -1004,4 -168,-317 -166,-538 -539,-538 -468,0 -999,1792 -999,1922z"/>
   <path class="fil1" d="M23509 35716c0,-1222 1230,-1291 1230,-692 0,1421 -1230,1117 -1230,692zm-1000 -231c0,2405 3230,1704 3230,-154 0,-536 32,-987 -614,-1386 -1041,-642 -2616,357 -2616,1540z"/>
   <path class="fil1" d="M18125 36485c0,608 791,461 1538,461 578,0 1055,-923 -385,-923 208,-433 1692,-4074 1692,-4307 0,-98 -552,-1165 -1274,648 -309,777 -1571,3713 -1571,4121z"/>
   <path class="fil1" d="M42122 35408c0,-771 333,-1615 -308,-1615 -650,0 -600,1004 -671,1560 -92,719 -245,1670 594,1670 507,0 873,-722 1331,-1283 204,-249 1053,-1280 1053,-1563 0,-192 -490,-874 -1109,45l-890 1186z"/>
   <path class="fil1" d="M52813 37100c787,0 707,-1153 153,-1153 -383,0 -796,62 -736,594 30,275 319,559 583,559z"/>
   <path class="fil1" d="M54351 36485c0,815 1154,854 1154,-77 0,-532 -1154,-743 -1154,77z"/>
   <path class="fil1" d="M50121 36485c0,767 1153,852 1153,0 0,-780 -1153,-678 -1153,0z"/>
   <path class="fil1" d="M80963 40946l-308 0 0 77c43,0 126,1 149,-5 136,-39 85,-25 159,-72z"/>
   <path class="fil1" d="M79348 41330l307 0 0 -76c-42,0 -125,-2 -148,5 -136,39 -86,25 -159,71z"/>
   <path class="fil1" d="M79348 41330l-308 0 0 77c43,0 126,2 149,-5 136,-39 85,-25 159,-72z"/>
   <polygon class="fil1" points="79732,41254 79963,41254 79963,41177 79732,41177 "/>
   <polygon class="fil1" points="80040,41177 80271,41177 80271,41100 80040,41100 "/>
   <polygon class="fil1" points="80348,41100 80578,41100 80578,41023 80348,41023 "/>
   <path class="fil1" d="M80963 40946l231 0 0 -77c-407,0 -115,1 -231,77z"/>
   <path class="fil1" d="M99653 28870c79,-84 77,135 77,-230 -79,85 -77,-135 -77,230z"/>
   <path class="fil1" d="M81424 40869c79,79 279,-111 90,-42 -2,1 -219,-87 -90,42z"/>
   <path class="fil1" d="M82271 40638c79,79 278,-110 89,-41 -2,0 -219,-88 -89,41z"/>
   <path class="fil1" d="M78809 41484c79,79 279,-110 90,-41 -2,0 -219,-88 -90,41z"/>
   <path class="fil1" d="M3434 7950c0,191 123,20 48,0 -1,0 -48,-218 -48,0z"/>
   <path class="fil1" d="M3357 8181c0,191 123,19 48,0 -1,-1 -48,-219 -48,0z"/>
   <polygon class="fil1" points="99422,29332 99345,29332 99409,29422 "/>
   <polygon class="fil1" points="1742,40946 1742,41023 1832,40959 "/>
   <polygon class="fil1" points="97499,32793 97576,32793 97512,32703 "/>
   <polygon class="fil1" points="97346,33024 97269,33024 97333,33114 "/>
   <polygon class="fil1" points="1742,40946 1742,40869 1652,40933 "/>
   <polygon class="fil1" points="97499,32793 97422,32793 97487,32883 "/>
   <polygon class="fil1" points="97346,33024 97422,33024 97358,32934 "/>
   <polygon class="fil1" points="434,39792 434,39715 345,39779 "/>
   <polygon class="fil1" points="511,39869 511,39946 601,39882 "/>
   <polygon class="fil1" points="1050,40407 1050,40331 960,40395 "/>
   <polygon class="fil1" points="1204,40561 1204,40638 1293,40574 "/>
   <polygon class="fil1" points="98807,30486 98884,30486 98820,30396 "/>
   <polygon class="fil1" points="98653,30793 98576,30793 98640,30883 "/>
   <path class="fil1" d="M1511 40869c8,8 23,-34 23,-23l0 0c-1,2 -30,15 -23,23z"/>
   <path class="fil1" d="M98884 30332c7,8 23,-34 23,-23l0 0c-2,1 -31,15 -23,23z"/>
   <path class="fil1" d="M99115 29870c7,8 22,-33 23,-23l0 0c-2,2 -31,16 -23,23z"/>
   <path class="fil1" d="M1896 41100c8,7 23,-34 23,-23l0 0c-2,1 -31,15 -23,23z"/>
   <path class="fil1" d="M81732 40792c8,8 23,-34 23,-23l0 0c-1,2 -31,15 -23,23z"/>
   <path class="fil1" d="M98422 31178c8,7 23,-34 23,-23l0 0c-1,1 -30,15 -23,23z"/>
   <path class="fil1" d="M2050 41177c7,7 23,-34 23,-23l0 0c-2,1 -31,15 -23,23z"/>
   <path class="fil1" d="M3511 7796l23 -23c-1,2 -31,16 -23,23z"/>
   <path class="fil1" d="M3280 8488l23 -23c-1,2 -30,16 -23,23z"/>
   <path class="fil1" d="M99038 30024l23 -23c-2,2 -31,16 -23,23z"/>
   <path class="fil1" d="M99268 29563l23 -23c-1,1 -30,15 -23,23z"/>
   <path class="fil1" d="M98345 31332l23 -23c-1,1 -30,15 -23,23z"/>
   <path class="fil1" d="M98499 31024l23 -23c-1,2 -30,15 -23,23z"/>
   <path class="fil1" d="M98268 31485l23 -22c-1,1 -30,15 -23,22z"/>
   <path class="fil1" d="M98961 30178l23 -23c-2,2 -31,15 -23,23z"/>
   <path class="fil1" d="M99191 29717l23 -23c-1,1 -30,15 -23,23z"/>
   <path class="fil1" d="M82040 40715l23 -23c-2,2 -31,15 -23,23z"/>
   <polygon class="fil1" points="99422,29332 99499,29178 "/>
   <polygon class="fil1" points="99499,29178 99576,29024 "/>
   <polygon class="fil1" points="99961,28178 100038,28024 "/>
   <polygon class="fil1" points="1204,40561 1127,40484 "/>
   <polygon class="fil1" points="1127,40484 1050,40407 "/>
   <polygon class="fil1" points="100038,28024 100114,27871 "/>
   <line class="fil1" x1="97653" y1="32562" x2="97653" y2= "32562" />
   <polygon class="fil1" points="100114,27871 100191,27717 "/>
   <polygon class="fil1" points="100191,27717 100268,27563 "/>
   <polygon class="fil1" points="100268,27563 100345,27409 "/>
   <polygon class="fil1" points="99884,28332 99961,28178 "/>
   <polygon class="fil1" points="100345,27409 100422,27279 "/>
   <polygon class="fil1" points="99807,28486 99884,28332 "/>
   <polygon class="fil1" points="99730,28640 99807,28486 "/>
   <polygon class="fil1" points="99576,29024 99653,28870 "/>
   <polygon class="fil1" points="98653,30793 98730,30640 "/>
   <polygon class="fil1" points="98730,30640 98807,30486 "/>
   <polygon class="fil1" points="511,39869 434,39792 "/>
  </g>
 </g>
</svg>
