<?xml version="1.0" encoding="utf-8"?>
<!-- Generator: Adobe Illustrator 16.0.0, SVG Export Plug-In . SVG Version: 6.00 Build 0)  -->
<!DOCTYPE svg PUBLIC "-//W3C//DTD SVG 1.1//EN" "http://www.w3.org/Graphics/SVG/1.1/DTD/svg11.dtd">
<svg version="1.1" id="Layer_1" xmlns="http://www.w3.org/2000/svg" xmlns:xlink="http://www.w3.org/1999/xlink" x="0px" y="0px"
	 width="235px" height="165px" viewBox="0 0 235 165" enable-background="new 0 0 235 165" xml:space="preserve">
<rect fill="#8DC63F" width="235" height="165"/>
<rect x="9.146" y="25.965" fill="none" width="210.911" height="101.814"/>
<g id="_226884776">
	<path fill="#FFFFFF" d="M130.979,75.67c0-1.031-0.547-2.899-1.447-2.899c-1.057,0-1.924-0.167-2.667,1.394
		c-1.243,2.609-1.746,9.914-1.354,12.92c0.316,2.442,0.309,3.953,2.424,3.953c3.99,0-0.343-9.38,6.265-13.745
		c0.651-0.434,1.288-0.995,1.856-1.042c0,2.739,0.211,5.092,0.639,7.478c0.186,1.039,1.137,5.569,2.695,5.569
		c1.799,0,1.867-0.808,2.445-2.628c0.682-2.146,2.316-9.151,4.655-9.696c0,0.735-0.151,1.131-0.147,2.051
		c0.02,3.112-0.527,7.713,0.477,10.236c0.223,0.564,0.476,0.95,0.839,1.335l0.69,0.469c1.228,0.547,1.744,0.334,2.024-0.931
		c0.896-4.046,0.612-10.333,0.612-14.609c0-0.89-0.454-1.563-0.973-2.074c-1.238-1.221-2.816-1.11-4.229-0.517
		c-0.139,0.059-0.463,0.208-0.598,0.272c-1.475,0.705-1.983,1.481-2.848,2.516l-2.083,3.426c-0.019-0.875-0.144-0.949-0.147-2.022
		c-0.019-3.783,0.265-6.875-4.162-5.187c-0.739,0.281-2.437,1.377-3.084,1.988c-0.031,0.031-0.117,0.114-0.148,0.144l-0.23,0.204
		C131.93,74.76,131.559,75.282,130.979,75.67z"/>
	<path fill="#FFFFFF" d="M178.383,86.398c0.146-0.633,0.465-0.851,0.771-1.402l1.173-2.017c0.157-0.261,0.299-0.444,0.464-0.698
		c0.936-1.27,3.844-5.022,5.266-4.876c1.16,0.121,0.471,2.944,0.213,3.685c-0.437,1.256-1.189,2.08-2.199,2.875
		C182.623,85.1,180.227,86.398,178.383,86.398z M170.12,83.354c0,3.72,0.87,3.732,0.87,4.494l-1.52,3.41
		c-0.184,0.477-0.334,0.857-0.49,1.247c-1.287,3.19-4.494,10.644-0.604,12.89c0.026,0.015,0.065,0.037,0.093,0.053l1.797,0.521
		c0.543-1.022,2.055-6.755,2.647-8.515l1.411-4.1c1.121-3.385,1.17-1.989,3.301-2.352c11.025,0.025,17.107-17.363,8.007-17.363
		c-0.515,0-1.917,0.657-2.371,0.962c-3.505,2.643-6.097,5.176-9.017,8.379c-0.314,0.418-0.26,0.521-0.79,0.661
		c-0.509-0.609,0.419-2.579,0.682-3.231c0.376-0.926,0.291-0.534,0.667-1.215c1.256-2.264,3.727-4.249,3.727-6.136
		c0-0.228-0.262-1.841-1.772-0.757C173.592,74.573,170.9,79.66,170.12,83.354z"/>
	<path fill="#FFFFFF" d="M30.516,54.07c0,3.66,2.66,3.915,5.798,3.915l0.396,6.708c0.167,1.226-0.026,8.03-0.113,9.084
		c-0.115,1.407-0.314,3.141-0.418,4.51L35.3,87.122c-0.799-0.188-4.07-0.547-4.351-1.595c-1.431,0.959-1.504,3.766,0.494,4.582
		c3.17,1.295,5.587,0.623,9.355,0.338c2.493-0.19,1.379-0.192,4.067,0.039c0.339-1.483,0.647-2.564,0.292-4.088
		c-0.938-0.45-2.874,0.145-4.639,0.145c0-0.961,0.072-1.393,0.14-2.179c0.062-0.703,0.105-1.498,0.211-2.256
		c0.486-3.491,0.954-10.346,0.954-13.833c0-2.047-0.115-3.656-0.14-5.658l-0.211-2.688c-0.102-0.682-0.229-2.04-0.229-2.671
		c0.906-0.436,1.881-0.394,3.515-1.849c0.666-0.592,1.779-1.678,2.1-2.55c0.226-0.609-0.049-0.647-0.777-0.73
		c-1.046-0.117-1.928,0.164-2.767,0.53c-4.017,1.757-3.493,1.103-5.354,0.22c-0.238-0.113-0.319-0.199-0.588-0.301
		C35.2,51.761,30.516,51.659,30.516,54.07z"/>
	<path fill="#FFFFFF" d="M57.335,70.596c0,0.707,1.172,4.333,1.431,5.092c0.703,2.076,1.433,6.05,0.888,8.39
		c-1.041-0.279-3.151-3.877-3.975-5.014c-1.123-1.555-1.87-2.902-3.168-4.368c-1.7-1.916-2.84-1.021-3.773,1.219
		c-0.464,1.116-0.679,1.931-1.033,3.172c-0.716,2.521-2.335,9.181,0.036,10.968c2.699,2.034,3.211-4.408,3.216-5.977l0.298-3.617
		c0.06-0.642,0.154-0.471,0.283-1.021c0.724,0.192,1.393,1.875,1.762,2.586c1.35,2.588,4.833,10.523,8.761,5.906
		c2.009-2.361,1.945-4.768,1.945-7.479c0-1.408-0.341-2.389-0.637-3.565c-0.308-1.222-0.765-2.132-1.248-3.103
		c-0.801-1.607-0.792-1.376-1.74-2.61c-0.805-1.046-1.485-1.593-2.755-1.593C57.56,69.859,57.335,70.409,57.335,70.596z"/>
	<path fill="#FFFFFF" d="M118.512,76.829c0.523,1.092,0.727,2.878,0.727,4.496c-0.375,0.153-1.391,0.168-2.334,0.154
		c-1.419-0.021-0.928-0.359-0.528-1.273C116.892,79.024,117.56,77.468,118.512,76.829z M110.539,81.612h-2.753
		c-0.1,0.428-0.146,0.443-0.146,1.017c1.17,0.097,1.595,0.866,1.595,1.885c0,0.172-0.409,0.827-0.538,1.057
		c-0.873,1.563-1.771,3.818-0.654,5.498c0.185,0.277,0.324,0.482,0.669,0.635c0.909,0.402,2.192,0.408,2.799-0.854
		c0.799-1.668,1.38-3.799,2.145-4.809c0.264-0.35,0.398-0.514,0.94-0.514c5.866,0,5.103-0.453,5.075,1.74
		c-0.015,1.034-0.084,1.198,0.282,1.894c0.961,1.825,2.971,2.946,3.219,1.174c0.441-3.125-0.171-10.237-0.723-13.528
		c-0.389-2.32-0.95-6.646-3.793-6.646c-0.566,0-0.133,0.252-1.291,1.609C114.387,75.021,112.651,77.621,110.539,81.612z"/>
	<path fill="#FFFFFF" d="M190.562,83.788c0,1.459,0.338,3.817,0.949,4.704c1.979,2.872,5.829,2.27,8.536,0.432
		c0.445-0.304,0.587-0.499,1.036-0.847c0.23-0.179,0.268-0.204,0.455-0.414l0.266-0.313c1.096-1.308,1.182-1.523,1.897-3.031
		l0.342-0.676c0,0.856,0.089,1.324,0.21,2.108c0.194,1.261-0.436,4.342,1.145,4.8c1.146,0.331,2.283,0.268,2.813-0.854
		c0.944-1.99-0.817-9.556-1.612-11.941c-0.393-1.172-0.852-3.169-1.832-3.825c-1.345,0.313-2.025,2.518-2.465,3.625
		c-0.945,2.399-2.931,9.699-6.01,9.206c-3.002-0.484-0.4-7.896-0.045-9.174c0.277-1.002,0.602-2.12,0.98-3.076
		c0.453-1.136,1.86-4.06,0.146-4.06c-0.702,0-1.077,0.663-1.415,1.05C193.018,74.861,190.562,78.934,190.562,83.788z"/>
	<path fill="#FFFFFF" d="M163.307,76.829c0.727,1.51,0.727,3.023,0.727,4.64c-3.801,0-3.828,0.566-2.369-2.369
		C162.079,78.266,162.611,77.297,163.307,76.829z M155.332,81.612h-2.753c-0.101,0.428-0.146,0.443-0.146,1.017
		c1.186,0.098,1.74,1.191,1.74,1.739c0,0.332-0.257,0.438-0.482,0.823c-1.174,2.007-1.258,2.578-1.258,4.541
		c0,2.002,2.008,2.558,3.244,1.938c0.274-0.138,0.223-0.09,0.403-0.321l0.604-1.425c0.186-0.416,0.264-0.532,0.451-1
		c0.135-0.343,0.258-0.635,0.368-0.935c1.132-3.072,0.72-2.465,6.524-2.465c1.228,0-0.612,2.465,1.625,4.898
		c0.875,0.95,1.449,0.773,2.145,0.611c0.922-3.949-0.193-10.438-0.576-14.209c-0.08-0.77-1.35-5.543-2.066-6.198
		c-0.645-0.583-0.928-0.469-1.706-0.469c-0.63,0-0.226,0.347-0.863,1.165l-0.978,1.054c-1.118,1.25-1.564,1.524-2.588,3.066
		l-3.222,5.331C155.592,81.126,155.555,81.285,155.332,81.612z"/>
	<path fill="#FFFFFF" d="M75.122,86.605c-0.629-0.104-1.184-0.106-1.696-0.353c-0.484-3.157-0.054-6.605,0-9.28
		c-1.004,0-1.628,0.206-2.233,0.666l-0.238,0.198c-0.021,0.021-0.053,0.051-0.073,0.072c-1.425,1.478-1.371,4.868-1.371,6.896
		c-1.253-0.295-2.264-1.462-2.899-1.886c-0.294,1.259-2.049,2.688,1.416,5.543c0.388,0.319,1.302,0.999,1.773,1.126
		c0,1.348,0.043,2.447,2.177,2.329c0.752-0.041,1.082-0.28,1.485-0.698c0.712-0.732,0.383-0.617,1.702-0.615
		c5.331,0.002,13.045-5.052,10.056-11.074c-0.571-1.151-1.662-2.597-2.661-3.428c-0.023-0.02-0.057-0.046-0.079-0.064
		c-2.72-2.223-4.17-3.207-8.169-4.008c-1.74-0.346-7.464-0.908-8.569,1.177c-0.465,0.876-0.226,1.728,0.579,2.318
		C74.406,70.113,90.791,85.395,75.122,86.605z"/>
	<path fill="#FFFFFF" d="M95.316,83.643c0.597-0.891,2.314-0.811,2.609,0.291c-0.624,0.146-1.558,0.74-2.27,0.24
		C95.205,83.859,95.436,83.868,95.316,83.643z M92.106,72.169c-1.018,0.368-2.339,0.975-2.59,2.051
		c1.108,2.092,2.147,0.479,4.2,0.428c2.929-0.07,9.206,1.174,7.79,5.325c-0.339,0.994-0.699,1.144-1.116,1.929
		c-1.182-0.274-2.418-0.854-4.052-0.721c-1.757,0.142-4.313,1.381-2.626,3.629c1.517,2.023,5.472,0.631,5.809,0.717
		c0.299,0.076,3.204,3.787,3.687,4.431c1.112,1.479,1.497,2.464,2.699,1.963c2.367-0.985,0.509-3.437,0.019-4.247l-1.877-2.906
		c-0.268-0.32-0.545-0.658-0.76-0.979c2.068-1.384,2.701-3.337,2.611-5.128C105.562,71.997,96.996,70.405,92.106,72.169z"/>
	<path fill="#FFFFFF" d="M84.443,112.201c-1.184,0-1.957-1.381-0.983-2.576c0.731-0.896,2.577-1.193,3.738-1.193
		c-0.109,0.467-0.678,1.853-0.925,2.264C85.902,111.312,85.332,112.201,84.443,112.201z M85.023,101.908
		c0,0.724,0.319,1.482,0.677,1.934c1.127,1.412,2.948,1.195,2.948-0.193c0-1.094-1.45-0.016-1.45-2.174
		c0-0.746,0.795-1.675,1.668-1.81c0.887-0.136,1.644,0.364,1.089,1.81l-0.976,2.506c-0.189,0.451-0.33,0.746-0.519,1.222
		c-0.183,0.462-0.349,0.948-0.539,1.348c-3.255,0-5.393,0.386-6.612,2.519c-1.108,1.938-0.113,5.166,2.99,5.166
		c1.649,0,2.714-0.95,3.366-1.998c0.469-0.758,1.497-2.901,1.706-3.803c1.665,0,2.902,0.373,2.902-1.16
		c0-0.818-1.311-0.724-2.176-0.724c0.462-0.87,0.79-1.881,1.203-2.856c0.573-1.356,0.973-2.11,0.973-3.668
		c0-1.846-3.201-3.562-5.879-1.094C85.639,99.624,85.023,100.88,85.023,101.908z"/>
	<path fill="#FFFFFF" d="M34.574,101.33c0.246-0.467,0.471-1.596,1.016-1.596c0.334,0,0.869,0.162,0.869,0.435
		C36.459,101.279,35.691,101.33,34.574,101.33z M31.53,99.734h1.449l-2.757,6.953c-0.513,1.164-1.708,4.111-3.692,3.127
		c-1.578-0.78-1.485-4.606,2.948-5.176c0.705-0.089,1.617-0.148,1.617-0.99c0-2.42-7.683-0.887-7.683,4.929
		c0,3.585,4.369,4.421,6.491,2.435c1.985-1.859,2.798-5.402,3.947-7.799c1.308,0,2.446,0.045,3.278-0.49
		c1.596-1.031,2.645-4.871-1.684-4.871C33.867,97.852,29.946,97.37,31.53,99.734z"/>
	<path fill="#FFFFFF" d="M87.634,88.281c0,0.641,0.46,1.305,0.828,1.638c0.652,0.597,1.329,0.683,2.216,0.683
		c1.557,0,1.383-2.078,1.551-3.377c0.428-3.314,0.513-5.188,1.263-8.596c0.564-2.56,1.514-3.25-1.364-3.25
		c-0.571,0-1.308,0.281-1.625,0.55c-0.511,0.437-1.595,3.919-1.796,4.728c-0.302,1.21-0.604,2.318-0.757,3.591
		C87.789,85.586,87.634,86.839,87.634,88.281z"/>
	<path fill="#FFFFFF" d="M74.44,102.488c-1.568,0-2.173,0.084-2.173,1.16c0,0.711,0.746,0.58,1.45,0.58
		c-0.307,0.641-0.599,1.496-0.871,2.174c-0.301,0.755-0.571,1.494-0.917,2.271c-0.342,0.761-0.567,1.373-0.882,2.162
		c-0.272,0.679-0.809,1.636-0.809,2.383c0,0.519,1.134,1.464,2.033-0.432c0.424-0.892,0.79-1.917,1.176-2.882l2.299-5.676
		c0.882,0,2.754,0.301,2.754-1.017c0-0.835-1.174-0.726-2.03-0.726c0.335-0.696,0.737-2.237,1.302-2.61
		c0.814-0.533,2.613,0.058,2.613-1.302c0-0.854-1.315-0.725-1.885-0.725C75.533,97.852,75.399,100.492,74.44,102.488z"/>
	<path fill="#FFFFFF" d="M46.171,106.837c-0.39,0-0.399-0.067-0.724-0.146c-0.352-1.467,0.562-2.607,1.45-2.607
		c0.392,0,0.399,0.068,0.724,0.145c0,0.789-0.224,1.004-0.452,1.576C46.991,106.253,46.826,106.837,46.171,106.837z M43.417,106.259
		c0,2.464,1.996,2.173,3.189,2.173c0.215,0,0.639-0.312,0.871-0.434c0.232,0.645,0.89,0.434,2.319,0.434
		c0.518,0,1.006-0.718,0.726-1.304c-0.311-0.424,0.034-0.206-0.65-0.364c-0.392-0.092-0.523-0.07-0.944-0.07
		c0.041-0.51,0.394-1.205,0.558-1.615c0.119-0.296,1.329-2.589-0.125-2.589c-0.59,0-0.779,0.229-1.014,0.581
		c-0.873-0.584-1.836-1.246-3.306,0.027c-0.059,0.051-0.266,0.234-0.308,0.273C43.987,104.089,43.417,105.193,43.417,106.259z"/>
	<path fill="#FFFFFF" d="M95.752,106.837c-1.354,0-0.775-2.753,1.014-2.753C97.962,104.084,96.651,106.837,95.752,106.837z
		 M93.141,105.968c0,2.7,1.378,2.464,2.901,2.464c0.535,0,0.654-0.141,0.869-0.434c0.838,0.562,0.081,0.434,2.32,0.434
		c1.046,0,2.048-1.738-0.726-1.738c0.258-1.105,2.33-4.205,0.435-4.205c-0.252,0-0.716,0.158-0.87,0.582
		c-0.501-0.338-0.737-0.701-1.576-0.678C94.634,102.445,93.141,104.366,93.141,105.968z"/>
	<path fill="#FFFFFF" d="M108.363,106.837c-1.085,0-0.684-2.753,1.162-2.753c0.888,0,0.224,1.291-0.014,1.872
		C109.309,106.447,109.08,106.837,108.363,106.837z M105.9,105.823c0,2.638,0.927,2.608,2.899,2.608
		c0.537,0,0.653-0.142,0.869-0.435c0.841,0.562,0.083,0.435,2.32,0.435c1.046,0,2.049-1.74-0.724-1.74
		c0.367-1.582,1.649-3.158,1.112-3.854c-0.515-0.667-1.248-0.212-1.693,0.086c-0.938-0.497-1.874-0.898-3.135,0.053
		C106.844,103.512,105.9,104.668,105.9,105.823z"/>
	<path fill="#FFFFFF" d="M39.503,104.811c0.132-0.494,0.439-0.775,1.031-0.731c0.735,0.053,0.202-0.068,0.417,0.159
		C41.467,104.781,40.097,104.811,39.503,104.811z M37.184,105.968c0,2.999,2.287,2.464,4.929,2.464c1.082,0,1.794-1.41,0.243-1.691
		c-1.86-0.334-3.025,0.506-3.287-0.48c2.417,0,3.768,0.09,3.768-2.175c0-0.72-0.641-1.317-1.246-1.51
		C39.295,101.841,37.184,103.716,37.184,105.968z"/>
	<path fill="#FFFFFF" d="M50.812,105.1c0,0.616,0.871,0.957,1.41,0.402c0.748-0.768,0.015-1.273,1.344-1.273
		c-0.406,0.604-1.16,1.348-1.16,2.32c0,2.273,2.019,1.883,3.623,1.883c0.679,0,1.016-0.336,1.016-1.014
		c0-1.377-2.611,0.02-2.611-1.305c0-0.662,0.911-1.637,1.141-1.762c0.46-0.244,0.604-0.013,1.076-0.381
		c0.138-0.105,0.249-0.222,0.307-0.42c0.144-0.492-0.086-0.789-0.456-0.955c-0.211-0.093-0.514-0.109-0.899-0.115
		c-0.622-0.008-1.267,0.008-1.893,0.008c-0.316-0.598-0.312-1.014-1.016-1.014C51.812,101.475,50.812,104.854,50.812,105.1z"/>
	<path fill="#FFFFFF" d="M67.483,106.113c0-2.303,2.318-2.434,2.318-1.305C69.801,107.486,67.483,106.914,67.483,106.113z
		 M65.599,105.678c0,4.533,6.087,3.213,6.087-0.289c0-1.011,0.061-1.861-1.157-2.613C68.567,101.564,65.599,103.448,65.599,105.678z
		"/>
	<path fill="#FFFFFF" d="M57.335,107.562c0,1.146,1.491,0.869,2.899,0.869c1.089,0,1.989-1.74-0.725-1.74
		c0.392-0.815,3.189-7.68,3.189-8.116c0-0.187-1.041-2.197-2.401,1.221C59.714,101.26,57.335,106.794,57.335,107.562z"/>
	<path fill="#FFFFFF" d="M102.565,105.533c0-1.453,0.628-3.045-0.581-3.045c-1.225,0-1.13,1.893-1.265,2.941
		c-0.173,1.354-0.462,3.146,1.119,3.146c0.956,0,1.646-1.361,2.509-2.419c0.384-0.47,1.985-2.411,1.985-2.945
		c0-0.362-0.924-1.647-2.09,0.084L102.565,105.533z"/>
	<path fill="#FFFFFF" d="M122.716,108.723c1.483,0,1.333-2.174,0.29-2.174c-0.724,0-1.502,0.117-1.389,1.12
		C121.674,108.188,122.219,108.723,122.716,108.723z"/>
	<path fill="#FFFFFF" d="M125.615,107.562c0,1.537,2.175,1.608,2.175-0.146C127.79,106.415,125.615,106.018,125.615,107.562z"/>
	<path fill="#FFFFFF" d="M117.642,107.562c0,1.445,2.172,1.605,2.172,0C119.814,106.094,117.642,106.285,117.642,107.562z"/>
	<path fill="#FFFFFF" d="M175.773,115.971h-0.58v0.146c0.08,0,0.238,0.002,0.281-0.01
		C175.73,116.034,175.635,116.061,175.773,115.971z"/>
	<path fill="#FFFFFF" d="M172.73,116.695h0.578v-0.145c-0.08,0-0.235-0.004-0.277,0.01
		C172.773,116.635,172.868,116.607,172.73,116.695z"/>
	<path fill="#FFFFFF" d="M172.73,116.695h-0.582v0.145c0.082,0,0.238,0.006,0.281-0.009
		C172.688,116.758,172.591,116.784,172.73,116.695z"/>
	<polygon fill="#FFFFFF" points="173.454,116.552 173.889,116.552 173.889,116.406 173.454,116.406 	"/>
	<polygon fill="#FFFFFF" points="174.034,116.406 174.469,116.406 174.469,116.262 174.034,116.262 	"/>
	<polygon fill="#FFFFFF" points="174.615,116.262 175.049,116.262 175.049,116.116 174.615,116.116 	"/>
	<path fill="#FFFFFF" d="M175.773,115.971h0.437v-0.145C175.441,115.826,175.992,115.828,175.773,115.971z"/>
	<path fill="#FFFFFF" d="M211.002,93.21c0.148-0.158,0.145,0.255,0.145-0.433C210.999,92.938,211.002,92.521,211.002,93.21z"/>
	<path fill="#FFFFFF" d="M176.645,115.826c0.147,0.148,0.524-0.209,0.168-0.079C176.809,115.749,176.4,115.583,176.645,115.826z"/>
	<path fill="#FFFFFF" d="M178.238,115.391c0.15,0.148,0.525-0.207,0.17-0.076C178.402,115.312,177.994,115.146,178.238,115.391z"/>
	<path fill="#FFFFFF" d="M171.714,116.984c0.149,0.148,0.526-0.207,0.171-0.076C171.881,116.908,171.471,116.742,171.714,116.984z"
		/>
	<path fill="#FFFFFF" d="M29.645,53.779c0,0.36,0.231,0.038,0.09,0C29.733,53.779,29.645,53.369,29.645,53.779z"/>
	<path fill="#FFFFFF" d="M29.5,54.215c0,0.359,0.232,0.036,0.09,0C29.588,54.213,29.5,53.802,29.5,54.215z"/>
	<polygon fill="#FFFFFF" points="210.566,94.081 210.422,94.081 210.542,94.251 	"/>
	<polygon fill="#FFFFFF" points="26.456,115.971 26.456,116.116 26.625,115.996 	"/>
	<polygon fill="#FFFFFF" points="206.941,100.604 207.087,100.604 206.966,100.436 	"/>
	<polygon fill="#FFFFFF" points="206.652,101.04 206.509,101.04 206.628,101.209 	"/>
	<polygon fill="#FFFFFF" points="26.456,115.971 26.456,115.826 26.286,115.947 	"/>
	<polygon fill="#FFFFFF" points="206.941,100.604 206.797,100.604 206.92,100.773 	"/>
	<polygon fill="#FFFFFF" points="206.652,101.04 206.797,101.04 206.676,100.87 	"/>
	<polygon fill="#FFFFFF" points="23.991,113.796 23.991,113.65 23.823,113.771 	"/>
	<polygon fill="#FFFFFF" points="24.136,113.941 24.136,114.087 24.305,113.966 	"/>
	<polygon fill="#FFFFFF" points="25.152,114.955 25.152,114.812 24.982,114.934 	"/>
	<polygon fill="#FFFFFF" points="25.442,115.245 25.442,115.391 25.61,115.271 	"/>
	<polygon fill="#FFFFFF" points="209.406,96.256 209.553,96.256 209.432,96.086 	"/>
	<polygon fill="#FFFFFF" points="209.117,96.834 208.973,96.834 209.093,97.004 	"/>
	<path fill="#FFFFFF" d="M26.021,115.826c0.015,0.016,0.043-0.064,0.043-0.044l0,0C26.062,115.787,26.007,115.811,26.021,115.826z"
		/>
	<path fill="#FFFFFF" d="M209.553,95.966c0.014,0.015,0.045-0.063,0.045-0.044l0,0C209.592,95.924,209.537,95.951,209.553,95.966z"
		/>
	<path fill="#FFFFFF" d="M209.988,95.096c0.013,0.016,0.041-0.062,0.043-0.044l0,0C210.027,95.055,209.973,95.082,209.988,95.096z"
		/>
	<path fill="#FFFFFF" d="M26.746,116.262c0.015,0.014,0.043-0.063,0.043-0.044l0,0C26.786,116.221,26.731,116.246,26.746,116.262z"
		/>
	<path fill="#FFFFFF" d="M177.223,115.682c0.018,0.014,0.045-0.063,0.045-0.043l0,0
		C177.266,115.643,177.209,115.666,177.223,115.682z"/>
	<path fill="#FFFFFF" d="M208.682,97.561c0.017,0.014,0.043-0.063,0.043-0.043l0,0C208.723,97.52,208.668,97.545,208.682,97.561z"/>
	<path fill="#FFFFFF" d="M27.037,116.406c0.013,0.014,0.043-0.064,0.043-0.043l0,0C27.076,116.365,27.021,116.393,27.037,116.406z"
		/>
	<path fill="#FFFFFF" d="M29.791,53.489l0.043-0.043C29.832,53.449,29.775,53.476,29.791,53.489z"/>
	<path fill="#FFFFFF" d="M29.354,54.794l0.043-0.044C29.396,54.753,29.342,54.78,29.354,54.794z"/>
	<path fill="#FFFFFF" d="M209.842,95.385l0.045-0.043C209.882,95.346,209.828,95.372,209.842,95.385z"/>
	<path fill="#FFFFFF" d="M210.275,94.516l0.043-0.041C210.316,94.475,210.264,94.501,210.275,94.516z"/>
	<path fill="#FFFFFF" d="M208.536,97.852l0.044-0.045C208.578,97.811,208.523,97.836,208.536,97.852z"/>
	<path fill="#FFFFFF" d="M208.826,97.27l0.043-0.043C208.867,97.23,208.812,97.254,208.826,97.27z"/>
	<path fill="#FFFFFF" d="M208.391,98.139l0.043-0.041C208.434,98.1,208.379,98.125,208.391,98.139z"/>
	<path fill="#FFFFFF" d="M209.698,95.676l0.042-0.043C209.736,95.637,209.682,95.66,209.698,95.676z"/>
	<path fill="#FFFFFF" d="M210.132,94.807l0.043-0.043C210.172,94.766,210.117,94.791,210.132,94.807z"/>
	<path fill="#FFFFFF" d="M177.805,115.536l0.043-0.044C177.844,115.496,177.789,115.521,177.805,115.536z"/>
	<path fill="#FFFFFF" d="M210.566,94.081l0.146-0.291L210.566,94.081z"/>
	<path fill="#FFFFFF" d="M210.712,93.79l0.146-0.29L210.712,93.79z"/>
	<path fill="#FFFFFF" d="M211.583,91.904l0.144-0.289L211.583,91.904z"/>
	<path fill="#FFFFFF" d="M25.442,115.245l-0.145-0.146L25.442,115.245z"/>
	<path fill="#FFFFFF" d="M25.297,115.102l-0.145-0.146L25.297,115.102z"/>
	<path fill="#FFFFFF" d="M211.727,91.615l0.145-0.288L211.727,91.615z"/>
	<line fill="none" x1="207.232" y1="100.169" x2="207.232" y2="100.169"/>
	<path fill="#FFFFFF" d="M211.87,91.327l0.146-0.29L211.87,91.327z"/>
	<path fill="#FFFFFF" d="M212.018,91.037l0.144-0.291L212.018,91.037z"/>
	<path fill="#FFFFFF" d="M212.16,90.746l0.146-0.29L212.16,90.746z"/>
	<path fill="#FFFFFF" d="M211.438,92.195l0.146-0.291L211.438,92.195z"/>
	<path fill="#FFFFFF" d="M212.307,90.456l0.146-0.245L212.307,90.456z"/>
	<path fill="#FFFFFF" d="M211.291,92.486l0.146-0.291L211.291,92.486z"/>
	<path fill="#FFFFFF" d="M211.146,92.777l0.145-0.291L211.146,92.777z"/>
	<path fill="#FFFFFF" d="M210.855,93.5l0.146-0.29L210.855,93.5z"/>
	<path fill="#FFFFFF" d="M209.117,96.834l0.145-0.288L209.117,96.834z"/>
	<path fill="#FFFFFF" d="M209.262,96.546l0.146-0.29L209.262,96.546z"/>
	<path fill="#FFFFFF" d="M24.136,113.941l-0.145-0.146L24.136,113.941z"/>
</g>
</svg>
