<?xml version="1.0" encoding="utf-8"?>
<!-- Generator: Adobe Illustrator 16.0.0, SVG Export Plug-In . SVG Version: 6.00 Build 0)  -->
<!DOCTYPE svg PUBLIC "-//W3C//DTD SVG 1.1//EN" "http://www.w3.org/Graphics/SVG/1.1/DTD/svg11.dtd">
<svg version="1.1" id="Layer_1" xmlns="http://www.w3.org/2000/svg" xmlns:xlink="http://www.w3.org/1999/xlink" x="0px" y="0px"
	 width="196.883px" height="138.381px" viewBox="0 0 196.883 138.381" enable-background="new 0 0 196.883 138.381"
	 xml:space="preserve">
<polygon fill="none" stroke="#FEFEFE" stroke-width="12.6747" points="0.177,0.182 196.708,0.182 196.708,138.198 0.177,138.198 "/>
<radialGradient id="SVGID_1_" cx="14252.4414" cy="-9964.2783" r="3328.2361" gradientTransform="matrix(0.0295 0 0 -0.0295 -322.3221 -224.978)" gradientUnits="userSpaceOnUse">
	<stop  offset="0" style="stop-color:#1AB3EB"/>
	<stop  offset="1" style="stop-color:#009DD6"/>
</radialGradient>
<polygon fill="url(#SVGID_1_)" points="0.177,0.182 196.708,0.182 196.708,138.198 0.177,138.198 "/>
<polygon fill="#E4913E" points="0.207,0.182 196.708,0.182 196.708,138.198 0.207,138.198 "/>
<g>
	<defs>
		<rect id="SVGID_2_" x="0.207" y="0.182" width="196.501" height="138.016"/>
	</defs>
	<clipPath id="SVGID_3_">
		<use xlink:href="#SVGID_2_"  overflow="visible"/>
	</clipPath>
</g>
<polygon id="_x31_" fill="none" points="0.207,0.182 196.708,0.182 196.708,138.198 0.207,138.198 "/>
<path id="_1" fill="#FEFEFE" d="M60.934,51.197c0,0-5.993-11.248,9.004-24.002c1.505-2.244,3.749-10.51,2.244-13.492
	c1.505,1.506,9.004,11.248,9.004,28.489c-1.505-5.993-2.244-14.259-5.993-18.747c-1.506,3.011-2.244,6.76-9.004,11.248
	C65.451,35.461,60.196,39.949,60.934,51.197L60.934,51.197L60.934,51.197L60.934,51.197z"/>
<path fill="#FEFEFE" d="M23.44,125.445c0,0,36.755-8.237,34.512-59.251l-7.499-1.505l0.738-14.998l36.018,12.754l-32.268-8.237
	v5.993l7.499,3.012C62.439,63.212,68.433,114.197,23.44,125.445L23.44,125.445L23.44,125.445L23.44,125.445z"/>
<path fill="#FEFEFE" d="M141.206,80.453c-1.506-2.243,8.236-11.248,9.004-9.005C151.686,72.954,141.943,83.435,141.206,80.453z
	 M173.444,54.946c-3.75,20.252-19.485,28.489-21.758,24.74c-1.477-3.749,3.748-9.742,4.516-11.986
	c-12.753,1.505-21.02,13.492-18.746,15.735c2.244,2.273,8.236-3.749,10.48-5.992c0,9.004,6.761,4.517,6.761,4.517
	C174.949,71.448,173.444,54.946,173.444,54.946L173.444,54.946L173.444,54.946L173.444,54.946z"/>
<path fill="#FEFEFE" d="M147.198,56.452c0,0-6.76,5.993-11.248,14.259c2.982,0,9.742-0.768,9.742-0.768s-1.506,1.505-4.486,2.243
	c-3.75,0.768-6.023,0.768-6.023,0.768s-9.742,18.009,5.256,11.986c0,0-7.499,5.255-11.248,0c0,0-1.506-2.244,2.243-11.986h-3.749
	l-0.738-1.506h5.993C132.939,71.448,141.206,55.684,147.198,56.452L147.198,56.452L147.198,56.452L147.198,56.452z"/>
<path fill="#FEFEFE" d="M101.438,80.453c-2.981-2.243,9.005-11.248,9.772-9.742C111.948,72.187,102.944,82.696,101.438,80.453z
	 M132.939,65.456c-1.506-1.506-6.731,5.255-7.499,5.992c0-2.243,0-4.487,0-4.487s0-1.505-2.244,0
	c-1.505,0.738-4.486,1.476-5.992,2.982c2.244,0,4.487-2.244,3.749,0c0,2.243-1.505,10.51-8.267,10.51
	c-2.981-0.768-0.738-9.005,4.518-12.753c-3.012,0-11.248,0-19.515,11.986c0,0-2.244,7.499,5.255,2.273c0,0,3.75-2.273,4.488-4.517
	c0.768,2.243,0.768,4.517,3.011,5.254c2.243,0,5.255-1.505,8.267-3.748c-0.768,0.737-1.506,3.748-1.506,3.748
	s1.506-2.243,3.749-2.243c1.506-2.243,2.243-4.517,3.749-6.761c0,0,6.731-8.236,5.994-3.749
	C132.201,67.7,133.707,66.194,132.939,65.456L132.939,65.456L132.939,65.456L132.939,65.456z"/>
<path fill="#FEFEFE" d="M105.188,55.684c2.244,0-9.004,10.51-11.986,12.753C93.202,68.438,101.438,54.946,105.188,55.684z
	 M102.206,69.205c1.477,2.243-10.509,6.731-11.248,6.731C90.958,75.937,100.701,66.194,102.206,69.205z M69.2,80.453
	c-2.244-2.243,9.004-11.248,9.742-10.51C79.681,71.448,71.444,82.696,69.2,80.453z M106.694,56.452
	c2.243-3.011-1.506-2.244-1.506-2.244C93.94,58.695,86.441,74.46,84.197,78.21c-4.517,4.486-4.517-1.506-4.517-1.506
	c1.505-4.518,3.011-6.761,5.255-9.004c-8.237-1.506-22.496,11.249-19.485,15.735c2.244,3.75,10.48-5.992,10.48-5.992
	c0.768,8.266,6.761,3.749,6.761,3.749c2.244-0.738,1.505,0.768,1.505,0.768c0,1.476-0.738,4.487-2.244,6.731
	c2.244-0.738,5.255-5.994,5.255-7.499c0.738-3.749,1.476-0.738,1.476-0.738c6.022,10.51,9.771,10.51,11.248,9.742
	c1.505,0,1.505-2.243,1.505-2.243c1.506-1.506,2.244-3.012,2.244-3.012c-3.749,3.75-6.731,0-6.731,0
	c-3.011-2.244-5.993-5.992-6.761-8.236c8.266-1.506,13.492-5.993,13.492-5.993c6.022-5.255-0.738-4.517-0.738-4.517
	c-5.255,2.244-10.51,6.76-12.753,7.499c0.768-2.244,3.75-4.487,3.75-4.487C97.689,66.194,104.45,59.433,106.694,56.452
	L106.694,56.452L106.694,56.452L106.694,56.452z"/>
</svg>
