<?xml version="1.0" encoding="utf-8"?>
<!-- Generator: Adobe Illustrator 16.0.0, SVG Export Plug-In . SVG Version: 6.00 Build 0)  -->
<!DOCTYPE svg PUBLIC "-//W3C//DTD SVG 1.1//EN" "http://www.w3.org/Graphics/SVG/1.1/DTD/svg11.dtd">
<svg version="1.1" id="Layer_1" xmlns="http://www.w3.org/2000/svg" xmlns:xlink="http://www.w3.org/1999/xlink" x="0px" y="0px"
	 width="262px" height="184px" viewBox="0 0 262 184" enable-background="new 0 0 262 184" xml:space="preserve">
<polygon fill="none" points="-1.052,0 260.956,0 260.956,184 -1.052,184 "/>
<polygon fill="#E5913F" points="0.03,-0.25 262,-0.25 262,183.75 0.03,183.75 "/>
<g>
	<defs>
		<rect id="SVGID_1_" x="-1.013" width="261.969" height="184"/>
	</defs>
	<clipPath id="SVGID_2_">
		<use xlink:href="#SVGID_1_"  overflow="visible"/>
	</clipPath>
</g>
<polygon id="_x31_" fill="none" points="-1.013,0 260.956,0 260.956,184 -1.013,184 "/>
<path id="_1" fill="#FFFFFF" d="M79.948,68.012c0,0-7.99-14.996,12.004-31.999c2.007-2.991,4.998-14.011,2.991-17.987
	c2.007,2.008,12.004,14.996,12.004,37.981c-2.007-7.99-2.991-19.01-7.989-24.993c-2.008,4.015-2.991,9.013-12.005,14.996
	C85.969,47.034,78.963,53.016,79.948,68.012L79.948,68.012L79.948,68.012L79.948,68.012z"/>
<path fill="#FFFFFF" d="M29.962,166.999c0,0,49.001-10.983,46.01-78.994l-9.997-2.007l0.984-19.994l48.018,17.003l-43.02-10.981
	v7.989l9.997,4.015C81.955,84.031,89.944,152.004,29.962,166.999L29.962,166.999L29.962,166.999L29.962,166.999z"/>
<path fill="#FFFFFF" d="M186.962,107.016c-2.008-2.99,10.98-14.996,12.004-12.005C200.935,97.019,187.946,110.99,186.962,107.016z
	 M229.941,73.01c-4.999,27-25.976,37.98-29.007,32.982c-1.969-4.998,4.997-12.988,6.021-15.979
	C189.954,92.02,178.932,108,181.963,110.99c2.991,3.031,10.98-4.998,13.972-7.988c0,12.004,9.015,6.021,9.015,6.021
	C231.949,95.011,229.941,73.01,229.941,73.01L229.941,73.01L229.941,73.01L229.941,73.01z"/>
<path fill="#FFFFFF" d="M194.951,75.018c0,0-9.013,7.99-14.996,19.01c3.977,0,12.988-1.023,12.988-1.023s-2.008,2.007-5.981,2.991
	c-4.999,1.023-8.03,1.023-8.03,1.023s-12.986,24.009,7.007,15.979c0,0-9.995,7.006-14.994,0c0,0-2.008-2.992,2.992-15.979h-5
	l-0.984-2.008h7.991C175.943,95.011,186.962,73.994,194.951,75.018L194.951,75.018L194.951,75.018L194.951,75.018z"/>
<path fill="#FFFFFF" d="M133.946,107.016c-3.975-2.99,12.006-14.996,13.029-12.988C147.957,95.995,135.953,110.006,133.946,107.016z
	 M175.943,87.022c-2.007-2.008-8.975,7.005-9.998,7.989c0-2.991,0-5.982,0-5.982s0-2.007-2.992,0
	c-2.005,0.984-5.981,1.968-7.988,3.975c2.991,0,5.983-2.991,4.999,0c0,2.991-2.008,14.012-11.022,14.012
	c-3.974-1.023-0.984-12.005,6.023-17.002c-4.016,0-14.996,0-26.016,15.979c0,0-2.991,9.998,7.004,3.031c0,0,5-3.031,5.984-6.021
	c1.023,2.99,1.023,6.021,4.015,7.004c2.989,0,7.005-2.006,11.02-4.996c-1.023,0.982-2.007,4.996-2.007,4.996s2.007-2.99,4.999-2.99
	c2.008-2.99,2.989-6.021,4.997-9.013c0,0,8.976-10.981,7.991-4.999C174.959,90.013,176.966,88.005,175.943,87.022L175.943,87.022
	L175.943,87.022L175.943,87.022z"/>
<path fill="#FFFFFF" d="M138.945,73.994c2.992,0-12.004,14.011-15.979,17.002C122.966,90.997,133.946,73.01,138.945,73.994z
	 M134.97,92.02c1.968,2.991-14.011,8.974-14.995,8.974C119.975,100.994,132.965,88.005,134.97,92.02z M90.968,107.016
	c-2.991-2.99,12.004-14.996,12.988-14.012C104.94,95.011,93.959,110.006,90.968,107.016z M140.953,75.018
	c2.992-4.015-2.008-2.991-2.008-2.991c-14.995,5.982-24.992,26.999-27.983,31.999c-6.021,5.98-6.021-2.008-6.021-2.008
	c2.007-6.022,4.014-9.014,7.005-12.004c-10.981-2.008-29.991,14.997-25.977,20.977c2.991,5,13.972-7.988,13.972-7.988
	c1.023,11.02,9.013,4.998,9.013,4.998c2.991-0.984,2.007,1.023,2.007,1.023c0,1.967-0.984,5.982-2.991,8.975
	c2.991-0.984,7.006-7.992,7.006-9.998c0.983-4.998,1.968-0.984,1.968-0.984c8.029,14.012,13.027,14.012,14.996,12.988
	c2.005,0,2.005-2.99,2.005-2.99c2.007-2.008,2.991-4.016,2.991-4.016c-4.997,5-8.973,0-8.973,0c-4.015-2.992-7.99-7.988-9.013-10.98
	c11.02-2.008,17.986-7.99,17.986-7.99c8.03-7.005-0.984-6.022-0.984-6.022c-7.004,2.991-14.01,9.013-17.001,9.998
	c1.023-2.992,4.999-5.983,4.999-5.983C128.949,88.005,137.961,78.992,140.953,75.018L140.953,75.018L140.953,75.018L140.953,75.018z
	"/>
</svg>
