<?xml version="1.0" encoding="UTF-8"?>
<!DOCTYPE svg PUBLIC "-//W3C//DTD SVG 1.1//EN" "http://www.w3.org/Graphics/SVG/1.1/DTD/svg11.dtd">
<!-- Creator: CorelDRAW X8 -->
<svg xmlns="http://www.w3.org/2000/svg" xml:space="preserve" width="69.4563mm" height="48.8177mm" version="1.1" style="shape-rendering:geometricPrecision; text-rendering:geometricPrecision; image-rendering:optimizeQuality; fill-rule:evenodd; clip-rule:evenodd"
viewBox="0 0 6669 4687"
 xmlns:xlink="http://www.w3.org/1999/xlink">
 <defs>
  <style type="text/css">
   <![CDATA[
    .str0 {stroke:#FEFEFE;stroke-width:12.6747}
    .fil0 {fill:none}
    .fil2 {fill:#FEFEFE}
    .fil1 {fill:#F2983C}
   ]]>
  </style>
 </defs>
 <g id="Layer_x0020_1">
  <metadata id="CorelCorpID_0Corel-Layer"/>
  <polygon class="fil0 str0" points="6,6 6663,6 6663,4681 6,4681 "/>
  <polygon class="fil1" points="6,6 6663,6 6663,4681 6,4681 "/>
  <path id="_1" class="fil2" d="M2064 1734c0,0 -203,-381 305,-813 51,-76 127,-356 76,-457 51,51 305,381 305,965 -51,-203 -76,-483 -203,-635 -51,102 -76,229 -305,381 -25,26 -203,178 -178,559l0 0 0 0 0 0z"/>
  <path class="fil2" d="M794 4249c0,0 1245,-279 1169,-2007l-254 -51 25 -508 1220 432 -1093 -279 0 203 254 102c0,0 203,1727 -1321,2108l0 0 0 0 0 0z"/>
  <path class="fil2" d="M4783 2725c-51,-76 279,-381 305,-305 50,51 -280,406 -305,305zm1092 -864c-127,686 -660,965 -737,838 -50,-127 127,-330 153,-406 -432,51 -712,457 -635,533 76,77 279,-127 355,-203 0,305 229,153 229,153 686,-356 635,-915 635,-915l0 0 0 0 0 0z"/>
  <path class="fil2" d="M4986 1912c0,0 -229,203 -381,483 101,0 330,-26 330,-26 0,0 -51,51 -152,76 -127,26 -204,26 -204,26 0,0 -330,610 178,406 0,0 -254,178 -381,0 0,0 -51,-76 76,-406l-127 0 -25 -51 203 0c0,0 280,-534 483,-508l0 0 0 0 0 0z"/>
  <path class="fil2" d="M3436 2725c-101,-76 305,-381 331,-330 25,50 -280,406 -331,330zm1067 -508c-51,-51 -228,178 -254,203 0,-76 0,-152 0,-152 0,0 0,-51 -76,0 -51,25 -152,50 -203,101 76,0 152,-76 127,0 0,76 -51,356 -280,356 -101,-26 -25,-305 153,-432 -102,0 -381,0 -661,406 0,0 -76,254 178,77 0,0 127,-77 152,-153 26,76 26,153 102,178 76,0 178,-51 280,-127 -26,25 -51,127 -51,127 0,0 51,-76 127,-76 51,-76 76,-153 127,-229 0,0 228,-279 203,-127 51,-76 102,-127 76,-152l0 0 0 0 0 0z"/>
  <path class="fil2" d="M3563 1886c76,0 -305,356 -406,432 0,0 279,-457 406,-432zm-101 458c50,76 -356,228 -381,228 0,0 330,-330 381,-228zm-1118 381c-76,-76 305,-381 330,-356 25,51 -254,432 -330,356zm1270 -813c76,-102 -51,-76 -51,-76 -381,152 -635,686 -711,813 -153,152 -153,-51 -153,-51 51,-153 102,-229 178,-305 -279,-51 -762,381 -660,533 76,127 355,-203 355,-203 26,280 229,127 229,127 76,-25 51,26 51,26 0,50 -25,152 -76,228 76,-25 178,-203 178,-254 25,-127 50,-25 50,-25 204,356 331,356 381,330 51,0 51,-76 51,-76 51,-51 76,-102 76,-102 -127,127 -228,0 -228,0 -102,-76 -203,-203 -229,-279 280,-51 457,-203 457,-203 204,-178 -25,-153 -25,-153 -178,76 -356,229 -432,254 26,-76 127,-152 127,-152 127,-102 356,-331 432,-432l0 0 0 0 0 0z"/>
 </g>
</svg>
