<?xml version="1.0" encoding="UTF-8"?>
<!DOCTYPE svg PUBLIC "-//W3C//DTD SVG 1.1//EN" "http://www.w3.org/Graphics/SVG/1.1/DTD/svg11.dtd">
<!-- Creator: CorelDRAW X8 -->
<svg xmlns="http://www.w3.org/2000/svg" xml:space="preserve" width="69.3208mm" height="48.6856mm" version="1.1" style="shape-rendering:geometricPrecision; text-rendering:geometricPrecision; image-rendering:optimizeQuality; fill-rule:evenodd; clip-rule:evenodd"
viewBox="0 0 4954 3479"
 xmlns:xlink="http://www.w3.org/1999/xlink">
 <defs>
  <style type="text/css">
   <![CDATA[
    .fil0 {fill:#008FD7}
    .fil1 {fill:#FEFEFE}
   ]]>
  </style>
 </defs>
 <g id="Layer_x0020_1">
  <metadata id="CorelCorpID_0Corel-Layer"/>
  <polygon class="fil0" points="0,0 4954,0 4954,3479 0,3479 "/>
  <g id="_524374688">
   <g id="_529035272">
    <path class="fil1" d="M1305 2121l0 0zm-240 -399c11,14 26,66 34,85 12,28 31,60 39,85 13,19 23,44 35,64 38,60 40,62 83,116 20,24 45,44 49,49 -17,0 -69,-17 -121,0 -32,11 -60,40 -43,84 9,27 21,16 8,43 -83,160 278,230 385,28 9,-17 14,-33 22,-48 -16,4 -41,39 -74,63 -57,44 -135,82 -203,40 -32,-20 -47,-65 -23,-93 -10,-14 -34,-42 -17,-68 11,-16 45,-26 73,-23 62,7 85,48 134,59 -5,-6 -5,-6 -11,-13 -6,-7 -6,-9 -13,-16 -22,-25 -60,-62 -74,-91 -36,-30 -75,-206 -82,-272 0,-10 -2,-41 -3,-56 -4,-41 -4,-71 2,-115 27,-192 100,-304 117,-441 9,-75 9,-158 -6,-226 -6,9 -16,56 -29,92 -11,29 -21,60 -33,91l-65 182c-10,29 -19,62 -26,94 -22,112 -27,167 -14,281 3,20 7,37 9,56 3,8 27,100 42,144 17,45 51,112 56,127 -40,-36 -135,-221 -152,-296l-20 -79c-19,-85 -24,-182 -7,-266 11,-55 27,-104 46,-152l59 -142c22,-46 40,-90 60,-138 31,-76 55,-144 71,-226 13,-64 23,-163 14,-228 -1,-13 -4,-39 -4,-49l-27 76c-10,26 -19,50 -30,73l-70 138c-11,21 -26,42 -38,64 -98,180 -178,298 -196,537 -5,59 -7,140 2,199l29 127c4,15 11,26 12,41l0 0z"/>
    <path class="fil1" d="M1934 2578c0,32 -15,63 -32,80 -16,16 -44,45 -67,50 0,48 -10,93 -29,123 -28,42 -64,54 -115,54 -100,0 -187,-82 -238,-140 -44,-50 -84,-146 -84,-213 0,-62 0,-56 14,-117 -33,22 -64,113 -64,170 0,334 557,636 651,236 4,-15 2,-24 13,-36 9,-9 17,-17 26,-26 47,-47 113,-131 113,-199 0,-83 -14,-103 -73,-164 -60,-59 -205,-108 -283,-127 -45,-10 -132,-27 -178,-27l111 59c86,51 235,164 235,277l0 0z"/>
    <path class="fil1" d="M1308 2486l-177 197 -43 34c-48,37 -58,43 -115,73 -123,65 -308,68 -268,-52 15,-45 45,-54 66,-86 -36,-20 -53,-64 -26,-104 47,-69 189,-125 251,-163 11,-6 16,-9 27,-15l27 -15c-22,2 -55,11 -79,16 -103,24 -354,88 -356,228 0,19 0,32 4,46 14,53 20,24 -13,68 -8,11 -15,20 -23,30 -40,55 -101,175 -28,227 66,47 182,29 262,-3 13,-5 25,-10 38,-16l171 -102c79,-59 152,-140 207,-223 15,-23 27,-42 40,-66 12,-22 29,-47 35,-74z"/>
    <path class="fil1" d="M1138 1892c-8,-25 -27,-57 -39,-85 -8,-19 -23,-71 -34,-85 -29,-15 -129,7 -152,15 -46,14 -76,35 -108,66 -25,25 -50,74 -46,122 6,66 21,85 44,129 -20,38 -46,73 -31,134 27,113 166,158 275,157 27,-1 55,-8 81,-8 -3,-3 0,-1 -8,-5 -38,-18 -90,-21 -176,-75 -41,-26 -85,-61 -88,-114 -1,-32 5,-34 12,-56 6,-17 -4,-38 -5,-57 -1,-22 3,-46 7,-61 9,-33 30,-61 56,-78 90,-60 164,-12 212,1l0 0z"/>
    <path class="fil1" d="M1308 1867c7,26 6,62 13,94 8,34 21,52 30,79 4,5 -1,-2 5,6 2,4 2,3 4,6 7,10 3,7 12,13 -4,-20 -22,-41 -24,-61 -4,-5 0,4 -5,-8 -8,-18 -13,-58 -15,-76 3,-14 -3,-22 -2,-42 9,-109 31,-167 69,-267 38,-100 70,-167 107,-275 32,-96 55,-208 35,-330 -9,-55 -27,-102 -48,-143 -14,-28 -56,-102 -78,-117l22 60c34,101 29,152 27,255 -1,155 -108,495 -135,657l-17 149 0 0z"/>
    <path class="fil1" d="M3288 1991c-1,30 -35,38 -60,39 -18,1 -46,-6 -57,-17 -43,-41 85,-84 117,-22l0 0zm31 92c27,19 66,25 111,25 0,-71 3,-142 3,-213 -1,-22 -27,-52 -44,-65 -68,-54 -167,-67 -249,-37 -56,21 -105,100 -70,93 5,-2 78,-49 157,-36 27,4 52,23 58,49 3,7 5,16 7,25 -25,-6 -72,-37 -146,-23 -57,11 -158,62 -120,133 24,48 90,80 142,77 70,-3 116,-38 131,-42 7,4 12,9 20,14l0 0z"/>
    <path class="fil1" d="M1828 1931c-32,-139 -51,-301 -219,-301 -42,1 -85,0 -127,0l0 36 0 44 0 24 0 45 0 51 0 25 0 21 0 27 0 25 0 42 0 47 0 23 0 29 0 42c74,0 159,-16 159,-105l0 -41 0 -41 0 -29 0 -22 0 -28 0 -34c3,-5 1,-5 3,-1 38,83 81,305 181,308 111,3 161,-247 205,-318l0 32 0 38 0 26 0 39 0 36 0 44c0,85 102,96 166,96l0 -42 0 -26 0 -36 0 -41 0 -36 0 -39 0 -29 0 -38 0 -46 0 -52 0 -33 0 -34 0 -29c-39,0 -172,-7 -200,9 -130,71 -127,288 -168,292l0 0z"/>
    <path class="fil1" d="M3518 1876l0 239c93,0 91,-16 151,-65l1 -15 0 -132c5,-23 25,-37 53,-37 27,-1 49,12 49,43 0,26 -11,190 11,195 47,10 130,-29 135,-78 0,-72 19,-136 -36,-196 -45,-49 -140,-55 -198,-13 -9,7 -12,12 -21,18 0,-19 6,-31 14,-42 -59,0 -159,1 -159,83l0 0z"/>
    <path class="fil1" d="M4151 1908c-10,-16 1,-26 10,-34 50,-25 177,8 177,-85 -72,0 -178,-18 -250,16 -160,75 -50,193 59,193l0 8c-64,-6 -114,71 -5,93 328,57 -33,180 5,16 -42,0 -144,3 -144,63 2,125 342,111 405,32 44,-55 26,-110 -31,-145 -43,-22 -98,-25 -127,-39 16,-24 64,-24 90,-37 39,-20 67,-59 58,-105 -5,-25 -12,6 -55,30 -50,30 -147,34 -192,-6l0 0z"/>
    <path class="fil1" d="M1218 1772c-12,-6 -17,-8 -26,-14 -9,-5 -16,-10 -28,-11 17,75 112,260 152,296 -5,-15 -39,-82 -56,-127 -15,-44 -39,-135 -42,-144l0 0z"/>
    <path class="fil1" d="M1348 2086c0,-22 3,-25 3,-46 -9,-27 -22,-45 -30,-79 -7,-32 -6,-68 -13,-94l-8 -12c-9,-12 -23,-33 -34,-41 7,66 46,242 82,272l0 0z"/>
    <path class="fil1" d="M2779 1677l0 45 0 40 0 34 0 29 0 33 0 38 0 22 0 34 0 29 0 25 0 27c11,40 110,82 152,82l0 -54 0 -32 0 -27 0 -22 0 -35 0 -32 0 -22 0 -34 0 -39 0 -23 0 -35 0 -39 0 -49c-5,-63 -99,-84 -152,-84l0 43 0 46z"/>
    <path class="fil1" d="M1348 2004c0,-18 -8,-71 -20,-84 2,18 7,58 15,76 5,12 1,3 5,8z"/>
    <polygon class="fil1" points="1376,2069 1376,2072 1380,2069 "/>
    <polygon class="fil1" points="1411,746 1409,739 "/>
    <polygon class="fil1" points="1308,2486 1313,2479 "/>
    <polygon class="fil1" points="1376,2069 1372,2065 "/>
    <path class="fil1" d="M2578 1991c-1,30 -36,38 -61,39 -17,1 -45,-6 -57,-17 -42,-41 85,-84 118,-22zm30 92c28,19 67,25 111,25 0,-71 4,-142 4,-213 -1,-22 -27,-52 -44,-65 -69,-54 -167,-67 -249,-37 -57,21 -106,100 -71,93 5,-2 78,-49 158,-36 26,4 51,23 57,49 3,7 6,16 7,25 -25,-6 -72,-37 -146,-23 -56,11 -158,62 -120,133 25,48 90,80 143,77 69,-3 115,-38 130,-42 7,4 13,9 20,14z"/>
   </g>
  </g>
 </g>
</svg>
