<?xml version="1.0" encoding="UTF-8"?>
<!DOCTYPE svg PUBLIC "-//W3C//DTD SVG 1.1//EN" "http://www.w3.org/Graphics/SVG/1.1/DTD/svg11.dtd">
<!-- Creator: CorelDRAW X8 -->
<svg xmlns="http://www.w3.org/2000/svg" xml:space="preserve" width="69.3208mm" height="48.6856mm" version="1.1" style="shape-rendering:geometricPrecision; text-rendering:geometricPrecision; image-rendering:optimizeQuality; fill-rule:evenodd; clip-rule:evenodd"
viewBox="0 0 4954 3479"
 xmlns:xlink="http://www.w3.org/1999/xlink">
 <defs>
  <style type="text/css">
   <![CDATA[
    .fil1 {fill:#FEFEFE}
    .fil0 {fill:#009B4C}
   ]]>
  </style>
 </defs>
 <g id="Layer_x0020_1">
  <metadata id="CorelCorpID_0Corel-Layer"/>
  <polygon class="fil0" points="0,0 4954,0 4954,3479 0,3479 "/>
  <g id="_529035344">
   <path class="fil1" d="M1621 720c-19,87 -41,168 -58,255l-50 264 -5 -13c-33,-127 -82,-237 -168,-334 -92,-106 -197,-151 -334,-168l-14 -3c-15,5 -60,1 -81,2 -26,3 -49,7 -75,11 12,7 55,7 72,9 43,6 168,37 186,57 42,14 96,58 124,81 107,88 184,284 181,424 -6,-13 -9,-39 -14,-57 -51,-183 -161,-376 -366,-412 -21,-3 -44,-3 -61,7 -50,29 4,92 32,57 7,-9 5,-21 -1,-29 -6,-8 -12,-7 -20,-11 39,-46 159,32 194,57 60,44 88,79 127,151 51,91 89,218 87,330 -1,29 -3,101 -15,121 -2,-60 2,-110 -6,-171 -4,-36 -18,-119 -35,-142 3,37 22,84 25,161 13,130 -19,266 -74,358 -39,67 -116,156 -173,213 -5,5 -9,9 -14,13 -3,3 -5,4 -7,6l-9 5c-5,8 -13,14 -22,20 -19,15 -49,34 -71,45 -35,17 -73,31 -119,35 -138,12 -192,-79 -216,-94 9,40 14,55 37,83 8,9 17,15 19,20 46,24 55,37 124,46 106,15 184,-5 272,-57 41,-24 109,-76 141,-111 13,-15 27,-26 41,-42 34,-41 41,-48 76,-94 28,-39 104,-165 118,-215 1,35 -6,81 -8,118 -10,204 -11,405 16,609 5,38 10,74 17,111 7,35 18,72 23,105l92 18c-5,-30 -15,-63 -21,-95 -14,-69 -24,-136 -32,-207 -2,-26 -11,-86 -8,-110 -9,-17 -13,-252 -10,-287 -5,-59 2,-153 5,-215 17,-358 80,-813 155,-1162 7,-32 13,-62 20,-92 3,-16 7,-31 10,-46l6 -40c1,8 -54,191 -58,205 -20,70 -36,139 -55,210z"/>
   <path class="fil1" d="M392 2455c-19,-38 -3,-107 13,-141 18,-36 49,-64 80,-86 85,-58 170,-43 266,-8 56,20 168,85 213,121 38,30 113,67 163,87 21,8 53,15 57,25 -77,0 -176,-53 -225,-87 -61,-42 -117,-81 -202,-111 -129,-45 -261,-53 -336,76 -24,41 -27,70 -29,124zm162 -29c-22,-6 -44,-4 -46,22 -1,27 17,29 40,26 2,50 -62,60 -96,33 -101,-81 -17,-274 137,-274 89,1 183,55 240,91 55,35 85,64 149,101 17,10 29,24 48,36 140,91 278,150 469,194 153,36 285,54 445,56 55,1 113,-2 166,0 -6,8 -65,27 -77,34 24,4 45,6 69,12 13,3 55,17 63,16 139,-58 197,-99 302,-188 10,-9 30,-24 35,-37 -23,5 -72,20 -113,27 -41,7 -82,13 -124,17 -56,6 -221,18 -269,8 -24,3 -121,-4 -147,-9 -46,0 -192,-20 -236,-32l-92 -18c-35,-2 -120,-49 -152,-64 -28,-13 -49,-20 -66,-43 -63,-85 -21,-192 36,-222 83,-44 138,41 97,66 -6,-9 -15,-25 -34,-13 -9,6 -17,25 -6,37 24,26 53,-5 61,-27 45,-116 -137,-182 -234,-68 -36,44 -55,84 -58,159 -32,-11 -104,-70 -132,-92 -41,-32 -82,-64 -133,-92 -48,-27 -103,-50 -159,-69 -30,-9 -58,-18 -90,-24 -15,-3 -92,-10 -97,-13 -43,8 -106,-8 -223,34l-26 13c20,-4 48,-16 87,-22 34,-6 65,-9 100,-9 45,0 154,13 185,32 -89,-9 -163,-24 -253,34 -51,32 -106,104 -110,194 -3,49 9,88 30,121 19,29 44,58 80,74 53,24 126,8 146,-64 12,-43 -9,-49 -12,-57z"/>
   <path class="fil1" d="M1064 2951c-11,6 -97,24 -113,22l-14 4c-71,11 -163,13 -232,-4 -59,-15 -136,-55 -155,-113l0 9c0,1 15,47 18,55 7,18 17,36 26,49 70,104 193,129 323,125 448,-12 865,-308 1242,-221 95,22 148,55 139,160l6 -10c20,-52 12,-117 -18,-161 -21,-31 -55,-57 -89,-74l-36 -19c-8,1 -50,-13 -63,-16 -24,-6 -45,-8 -69,-12 -195,-13 -345,12 -520,62 -77,22 -150,48 -221,75 -39,14 -186,68 -224,69z"/>
   <path class="fil1" d="M1538 1860c-3,35 1,270 10,287 26,-30 135,-269 148,-304 2,25 -8,77 -10,106 -17,223 9,477 159,642 26,5 123,12 147,9 -11,-18 -23,-29 -45,-66 -30,-49 -49,-108 -61,-166l-14 -99c-2,47 1,84 10,128 5,19 9,37 15,56 5,15 14,39 16,52l-31 -68c-31,-85 -35,-182 -18,-271 18,-89 46,-127 98,-183 6,-6 7,-7 13,-12 18,-13 42,-34 73,-25 -11,10 -16,9 -12,30 48,37 63,-86 -41,-28 -194,107 -152,399 -156,410 -16,-49 -21,-133 -15,-188 13,-113 69,-202 154,-267 31,-24 93,-60 138,-73 -73,-4 -175,50 -217,82 -26,20 -53,47 -73,77 -19,28 -33,53 -45,85l-9 15c-16,-90 -14,-216 -9,-310 3,-47 6,-103 14,-147l37 -125c57,-202 77,-344 91,-554l0 -36c-5,6 -5,11 -6,19 0,6 -1,12 -2,18 -21,162 -65,337 -124,487 -30,77 -65,155 -104,223 -21,37 -40,69 -62,103 -11,16 -22,32 -33,47 -11,15 -23,36 -36,46z"/>
   <path class="fil1" d="M651 2433c2,8 11,83 18,116 22,94 50,171 101,250 7,10 26,35 28,42l34 38c29,33 78,71 119,94 16,2 102,-16 113,-22 -110,-46 -220,-173 -278,-276 -70,-127 -111,-248 -140,-411 -6,54 1,115 5,169z"/>
   <path class="fil1" d="M550 2869l0 -9c19,58 96,98 155,113 69,17 161,15 232,4l14 -4c-41,-23 -90,-61 -119,-94l-34 -38c-3,11 0,8 -12,9l-212 -1c-5,0 -10,0 -15,0l-12 0c-1,-1 -2,0 -2,0 -2,16 0,15 5,20z"/>
   <path class="fil1" d="M1588 3020c12,-2 36,-11 50,-16l159 -45c131,-31 224,-40 349,9 89,35 96,129 28,153 -51,18 -72,-35 -83,-44 -19,46 30,92 67,97 18,2 50,-14 62,-22 60,-41 54,-125 13,-179 -86,-113 -284,-75 -400,-44 -44,12 -87,26 -128,41l-117 50z"/>
   <path class="fil1" d="M641 1968c24,15 78,106 216,94 46,-4 84,-18 119,-35 22,-11 52,-30 71,-45 9,-6 17,-12 22,-20 -1,0 -2,0 -2,1 -1,1 -2,1 -3,1 -5,1 -1,0 -8,1l-404 0c-11,0 -9,-7 -11,3z"/>
   <path class="fil1" d="M392 2455c2,-54 5,-83 29,-124 75,-129 207,-121 336,-76 85,30 141,69 202,111 49,34 148,87 225,87 -4,-10 -36,-17 -57,-25 -50,-20 -125,-57 -163,-87 -45,-36 -157,-101 -213,-121 -96,-35 -181,-50 -266,8 -31,22 -62,50 -80,86 -16,34 -32,103 -13,141z"/>
   <g>
    <path class="fil1" d="M4140 1926l23 -23c1,0 2,-1 3,-2l43 -43c6,-5 8,-7 14,-13 41,-41 95,-78 152,-93 9,-3 37,-18 66,4 27,20 15,68 -3,91l-51 40c-26,14 -53,24 -83,30 -74,15 -81,9 -164,9zm-758 199c-36,0 -50,-43 -50,-72 0,-78 36,-146 64,-195 2,-3 4,-6 6,-10 2,-3 5,-7 7,-10 86,-107 195,-104 309,-44 -3,35 -22,95 -43,120l-18 23c-7,10 -11,14 -19,21l-87 82c-37,30 -117,85 -169,85zm386 55c0,-46 6,-70 19,-113 5,-15 9,-35 14,-54 15,-55 25,-108 43,-161 13,-40 24,-69 24,-112 -17,-4 -34,-11 -51,-13 -152,-19 -228,-38 -378,15 -97,48 -193,119 -233,225l-6 21c-11,41 -7,82 -4,124 -69,36 -78,59 -163,59 -37,0 -2,-90 3,-111l64 -235c89,-266 -285,-43 -285,-36 105,0 161,-23 127,87 -15,51 -30,135 -46,181l-14 63c-5,29 -8,12 1,46 8,32 30,48 60,59 41,14 66,5 104,0 66,-8 113,-49 168,-77 42,37 74,54 136,54 73,0 145,-45 188,-79 72,-56 124,-135 129,-138 -1,52 -63,154 -30,211 47,80 165,51 234,19 12,-5 21,-11 32,-17 13,-7 16,-8 29,-17 27,-21 45,-8 74,-9 62,0 60,23 80,-41l14 -54c7,-23 25,-88 25,-111l10 0c4,17 110,133 129,148 93,90 156,154 296,91l74 -39c14,-10 18,-16 18,-41 -31,-2 -26,3 -53,15 -97,43 -138,8 -217,-63 -30,-27 -85,-83 -107,-115 100,0 210,-15 274,-81 9,-9 19,-22 25,-33 75,-139 -116,-214 -297,-107 -38,22 -66,46 -96,77 -11,11 -16,22 -28,30l73 -240c11,-33 29,-83 51,-107 59,-63 169,-54 242,-19 30,14 40,10 67,-13 7,-5 0,-1 10,-8 6,-4 8,-5 13,-9 13,-9 15,-10 16,-30 -581,-13 -544,173 -671,663 -10,36 -3,34 -38,57 -34,22 -88,51 -130,44l-19 -6z"/>
    <path class="fil1" d="M2177 2203c-125,38 -33,152 49,146l7 40c21,-20 18,-59 51,-80 126,-156 -188,-341 -265,-86 -82,271 300,410 492,260 34,191 57,199 148,232 -142,-127 33,-426 -62,-699 -47,-136 -5,-117 99,76 79,156 89,302 -2,434 44,-12 78,-32 95,-59 127,-210 -48,-376 -199,-601 -55,-81 -116,-140 -141,-213 -40,-117 -3,-244 162,-344 108,-60 384,46 325,211 -23,67 -152,110 -197,14 -16,-85 134,-80 99,17 91,-60 0,-144 -82,-127l-13 -29c-11,17 -6,26 -15,41 -52,85 -34,176 97,196 341,54 128,-661 -380,-274 -24,-70 -43,-198 -171,-196 179,110 46,419 126,571 75,145 152,232 174,455 7,428 -522,321 -521,99 0,-106 139,-168 200,-69 62,100 -153,115 -76,-15z"/>
   </g>
  </g>
 </g>
</svg>
