<?xml version="1.0" encoding="UTF-8"?>
<!DOCTYPE svg PUBLIC "-//W3C//DTD SVG 1.0//EN" "http://www.w3.org/TR/2001/REC-SVG-20010904/DTD/svg10.dtd">
<!-- Creator: CorelDRAW X7 -->
<svg xmlns="http://www.w3.org/2000/svg" xml:space="preserve" width="62.177mm" height="43.6561mm" version="1.0" style="shape-rendering:geometricPrecision; text-rendering:geometricPrecision; image-rendering:optimizeQuality; fill-rule:evenodd; clip-rule:evenodd"
viewBox="0 0 4578 3214"
 xmlns:xlink="http://www.w3.org/1999/xlink">
 <defs>
  <style type="text/css">
   <![CDATA[
    .str1 {stroke:#FEFEFE;stroke-width:12.9354}
    .str0 {stroke:#FEFEFE;stroke-width:5.58792}
    .fil1 {fill:none}
    .fil4 {fill:none;fill-rule:nonzero}
    .fil0 {fill:#566892}
    .fil2 {fill:#FEFEFE}
    .fil3 {fill:#FEFEFE;fill-rule:nonzero}
   ]]>
  </style>
 </defs>
 <g id="Layer_x0020_1">
  <metadata id="CorelCorpID_0Corel-Layer"/>
  <rect class="fil0" width="4578" height="3214"/>
  <rect class="fil1" x="178" y="506" width="4108" height="1983"/>
  <g id="_2238692641456">
   <g id="_2204847829152">
    <path class="fil2 str0" d="M1893 2183l-36 0 0 -144 0 0 0 -54 0 0 0 -54c0,-18 -18,-18 -18,-18l0 0c-18,0 -18,0 -18,18l0 54 -18 0 0 -54c0,0 -18,-18 -18,-18l0 -18 126 -108 -18 -36 -108 108 0 -18 36 -36 -18 -18 36 -18 -18 0 90 -90 -18 -18 -108 108 0 -18 18 -36 0 -18 36 -36 0 0 72 -72 -18 -36 -108 108 0 -18 36 -36 -18 0 36 -36 0 0 72 -90 -18 -18 -108 108 0 -18 36 -36 -18 -18 108 -108 -18 -36 -108 126 0 -36 36 -36 -18 -18 108 -108 -18 -18 -108 108 0 -18 18 -36 0 -18 36 -36 -18 -18 -36 36 0 -18 90 -72c90,0 108,-36 54,-90 0,0 -54,-36 -126,-72 -36,-18 -108,-36 -144,-36l0 0 0 0c0,0 -18,-18 -18,-18 0,0 0,0 0,0l0 0c0,0 0,0 0,0l0 0c0,0 0,-18 -18,-18l0 0 0 -144 0 0 0 144 0 0c0,0 -18,18 -18,18l0 0c0,0 0,0 0,0l0 0c0,0 0,0 0,0 0,0 0,18 0,18l0 0 0 0c-90,0 -180,36 -270,108 -72,54 -54,90 36,90l90 72 0 18 0 0 -36 -36 -18 18 36 36 -18 18 36 36 0 18 -108 -108 -18 18 90 108 0 18 54 54 0 18 -126 -126 -18 36 108 108 -18 18 54 36 0 18 -126 -108 -18 18 72 90 0 0 36 36 -18 0 54 36 0 18 -126 -108 -18 36 72 72 0 0 18 36 18 18 36 36 0 18 -126 -108 -18 18 72 90 0 0 36 18 -18 18 54 36 0 0 0 18 -126 -108 -18 36 144 108 0 18c-18,0 -36,18 -36,18l0 54 -18 0 0 -54c0,-18 0,-18 -18,-18l0 0c-18,0 -18,0 -18,18l0 54 0 0 0 54 0 0 0 144 -36 0 0 18 -252 90 -90 0 0 36 -72 0 0 18 -54 0 0 18 -252 36 1944 0 -216 -18 0 -36 -54 0 0 -36 -90 0 0 -18 -72 0 -252 -90 0 -18 0 0zm-180 -360l36 0 0 72 -36 0 0 -72zm-90 0l72 0 0 72 -72 0 0 -72zm-72 0l72 0 0 72 -72 0 0 -72zm-54 0l18 0 0 72 -18 0 0 -72zm216 -108l36 0 0 72 -36 0 0 -72zm-90 0l72 0 0 72 -72 0 0 -72zm-72 0l72 0 0 72 -72 0 0 -72zm-54 0l18 0 0 72 -18 0 0 -72zm216 -108l36 0 0 72 -36 0 0 -72zm-72 0l54 0 0 72 -54 0 0 -72zm-90 0l72 0 0 72 -72 0 0 -72zm-54 0l18 0 0 72 -18 0 0 -72zm216 -108l36 0 0 72 -36 0 0 -72zm-90 0l72 0 0 72 -72 0 0 -72zm-72 0l72 0 0 72 -72 0 0 -72zm-54 0l18 0 0 72 -18 0 0 -72zm216 -108l36 0 0 72 -36 0 0 -72zm-90 0l72 0 0 72 -72 0 0 -72zm-72 0l72 0 0 72 -72 0 0 -72zm-54 0l18 0 0 72 -18 0 0 -72zm216 -90l36 0 0 54 -36 0 0 -54zm-72 0l54 0 0 54 -54 0 0 -54zm-90 0l72 0 0 54 -72 0 0 -54zm-54 0l18 0 0 54 -18 0 0 -54zm324 882l-18 0 0 -144 18 0 0 144zm-72 0l-18 0 0 -144 18 0 0 144zm-54 0l-18 0 0 -144 18 0 0 144zm-36 0l-18 0 0 -144 18 0 0 144zm-72 0l-18 0 0 -144 18 0 0 144zm-36 0l-18 0 0 -144 18 0 0 144zm-36 0l-18 0 0 -144 18 0 0 144zm-72 0l-18 0 0 -144 18 0 0 144zm306 -252l-36 0 0 54 36 0 0 -54c0,0 0,0 0,0zm-54 0l-54 0 0 54 54 0 0 -54zm-90 0l-54 0 0 54 54 0 0 -54zm-90 0l-18 0c0,0 0,0 0,0l0 54 18 0 0 -54z"/>
    <path class="fil1 str1" d="M1965 2399l1980 0"/>
    <path class="fil3" d="M1983 1481l54 0c18,0 36,18 36,36l0 108c0,0 0,18 0,54 18,-18 36,-18 54,-18l0 0 0 0c36,0 36,-18 54,-36 0,-18 0,-36 0,-36 18,-18 18,-18 54,-18 -18,0 -18,18 -18,18 -18,36 -18,54 -18,72l-18 18c18,0 36,18 36,36l0 54c0,36 0,36 18,36l0 18 18 0 0 0 0 0 0 0 -54 0c-18,0 -18,-18 -18,-36l0 -54c0,-36 -18,-36 -36,-54l-18 0c-36,0 -54,18 -54,36l0 0 0 54c0,36 -18,54 -36,54l0 0 -54 0 0 0 0 -18 0 0 18 0c18,0 18,-18 18,-36l0 -234c0,-36 0,-36 -18,-36l-18 0 0 0 0 -18 0 0 0 0z"/>
    <path id="_1" class="fil3" d="M2487 1535l0 0 0 0c0,18 -18,36 -36,54l0 0c18,0 18,0 36,18 18,36 36,54 36,90 0,36 -18,72 -36,90 -36,18 -54,36 -90,36 -36,0 -72,-18 -108,-54 -18,-18 -18,-36 -18,-72l0 0c0,-36 18,-72 36,-108 36,-18 54,-18 90,-18l0 0c36,0 54,-18 54,-18 18,0 18,0 18,-18 18,0 18,0 18,0l0 0 0 0zm-162 162c0,36 18,54 36,90 18,0 18,0 36,0l0 0c18,0 36,0 54,-36 0,-18 18,-36 18,-54l0 0c0,-36 -18,-54 -36,-72 -18,-18 -18,-18 -36,-18l0 0c-18,0 -36,0 -54,36 -18,18 -18,36 -18,54l0 0z"/>
    <path id="_2" class="fil3" d="M2523 1481l72 0c0,0 18,0 36,36 0,0 0,0 0,18l0 36 36 0 0 0 0 18 0 0 -36 0 0 180c0,18 0,18 18,18 0,18 0,18 18,18l18 0 0 0 0 18 0 0 -72 0c0,0 -18,0 -36,-18 0,0 0,-18 0,-36l0 -234c0,-18 -18,-36 -36,-36l0 0 -18 0 0 0 0 -18 0 0 0 0z"/>
    <path id="_3" class="fil3" d="M2757 1571l54 0c18,0 36,0 36,0 18,18 36,18 36,36 18,18 18,18 18,18 0,18 0,18 0,18l0 18c36,-18 54,-18 54,-18 18,0 18,-18 18,-18 0,0 0,-18 0,-18l0 0 0 0c18,18 18,18 18,18 0,18 -18,36 -36,36 0,0 0,0 -18,18 0,0 0,0 -18,0 0,0 -18,0 -18,0l0 90c0,18 0,18 0,18 0,18 0,18 0,18 18,0 18,0 18,0l18 0 0 0 0 18 0 0 -54 0c-18,0 -18,0 -36,-18 0,-18 0,-18 0,-18l0 0c-18,18 -54,36 -90,36 0,0 -18,0 -36,0 0,0 0,-18 0,-18 -18,0 -18,-18 -18,-36l0 0c0,-18 0,-18 0,-36 18,-18 18,-18 36,-36 0,0 18,0 18,-18 18,0 18,0 36,0 18,-18 36,-18 36,-18 0,0 18,0 18,0l0 -18c0,0 0,-18 0,-36 0,0 0,0 -18,0 0,-18 0,-18 0,-18 0,0 -18,0 -18,0l-54 0 0 0 0 -18 0 0 0 0zm0 180l0 0c0,18 0,18 0,36 18,0 18,0 36,0 0,0 0,0 18,0l36 -36 0 -54c-18,0 -36,0 -36,0 -18,0 -36,18 -36,18 0,0 -18,0 -18,18 0,0 0,18 0,18l0 0z"/>
    <path id="_4" class="fil4 str0" d="M1983 1481l54 0c18,0 36,18 36,36l0 108c0,0 0,18 0,54 18,-18 36,-18 54,-18l0 0 0 0c36,0 36,-18 54,-36 0,-18 0,-36 0,-36 18,-18 18,-18 54,-18 -18,0 -18,18 -18,18 -18,36 -18,54 -18,72l-18 18c18,0 36,18 36,36l0 54c0,36 0,36 18,36l0 18 18 0 0 0 0 0 0 0 -54 0c-18,0 -18,-18 -18,-36l0 -54c0,-36 -18,-36 -36,-54l-18 0c-36,0 -54,18 -54,36l0 0 0 54c0,36 -18,54 -36,54l0 0 -54 0 0 0 0 -18 0 0 18 0c18,0 18,-18 18,-36l0 -234c0,-36 0,-36 -18,-36l-18 0 0 0 0 -18 0 0 0 0z"/>
    <path id="_5" class="fil4 str0" d="M2487 1535l0 0 0 0c0,18 -18,36 -36,54l0 0c18,0 18,0 36,18 18,36 36,54 36,90 0,36 -18,72 -36,90 -36,18 -54,36 -90,36 -36,0 -72,-18 -108,-54 -18,-18 -18,-36 -18,-72l0 0c0,-36 18,-72 36,-108 36,-18 54,-18 90,-18l0 0c36,0 54,-18 54,-18 18,0 18,0 18,-18 18,0 18,0 18,0l0 0 0 0zm-162 162c0,36 18,54 36,90 18,0 18,0 36,0l0 0c18,0 36,0 54,-36 0,-18 18,-36 18,-54l0 0c0,-36 -18,-54 -36,-72 -18,-18 -18,-18 -36,-18l0 0c-18,0 -36,0 -54,36 -18,18 -18,36 -18,54l0 0z"/>
    <path id="_6" class="fil4 str0" d="M2523 1481l72 0c0,0 18,0 36,36 0,0 0,0 0,18l0 36 36 0 0 0 0 18 0 0 -36 0 0 180c0,18 0,18 18,18 0,18 0,18 18,18l18 0 0 0 0 18 0 0 -72 0c0,0 -18,0 -36,-18 0,0 0,-18 0,-36l0 -234c0,-18 -18,-36 -36,-36l0 0 -18 0 0 0 0 -18 0 0 0 0z"/>
    <path id="_7" class="fil4 str0" d="M2757 1571l54 0c18,0 36,0 36,0 18,18 36,18 36,36 18,18 18,18 18,18 0,18 0,18 0,18l0 18c36,-18 54,-18 54,-18 18,0 18,-18 18,-18 0,0 0,-18 0,-18l0 0 0 0c18,18 18,18 18,18 0,18 -18,36 -36,36 0,0 0,0 -18,18 0,0 0,0 -18,0 0,0 -18,0 -18,0l0 90c0,18 0,18 0,18 0,18 0,18 0,18 18,0 18,0 18,0l18 0 0 0 0 18 0 0 -54 0c-18,0 -18,0 -36,-18 0,-18 0,-18 0,-18l0 0c-18,18 -54,36 -90,36 0,0 -18,0 -36,0 0,0 0,-18 0,-18 -18,0 -18,-18 -18,-36l0 0c0,-18 0,-18 0,-36 18,-18 18,-18 36,-36 0,0 18,0 18,-18 18,0 18,0 36,0 18,-18 36,-18 36,-18 0,0 18,0 18,0l0 -18c0,0 0,-18 0,-36 0,0 0,0 -18,0 0,-18 0,-18 0,-18 0,0 -18,0 -18,0l-54 0 0 0 0 -18 0 0 0 0zm0 180l0 0c0,18 0,18 0,36 18,0 18,0 36,0 0,0 0,0 18,0l36 -36 0 -54c-18,0 -36,0 -36,0 -18,0 -36,18 -36,18 0,0 -18,0 -18,18 0,0 0,18 0,18l0 0z"/>
    <path class="fil3" d="M2253 1895c18,0 54,18 72,18 18,18 36,54 36,90l-36 -18c0,-18 0,-18 -18,-36 -18,-18 -36,-18 -54,-18 -18,0 -18,18 -36,36 -18,18 -18,36 -18,72 0,36 0,54 18,90 18,18 36,18 54,18 36,0 54,-18 54,-54l18 18c0,36 -36,54 -90,72 -36,0 -72,-18 -90,-54 -36,-18 -36,-54 -36,-90 0,-36 0,-72 36,-90 18,-18 54,-36 90,-54l0 0z"/>
    <path id="_1_0" class="fil3" d="M2361 1931l54 0c18,0 36,0 36,18 0,0 0,18 0,36l0 126c0,36 18,36 36,36l0 0 18 0 0 0 0 36 0 0 -54 0c-18,0 -36,-18 -36,-36 0,-18 0,-18 0,-18l0 -144c0,-18 -18,-36 -36,-36 0,0 0,0 0,0l-18 0 0 0 0 -18 0 0z"/>
    <path id="_2_1" class="fil3" d="M2541 1895c0,-18 0,-18 0,-36 -18,0 -18,0 -36,0l-18 0 0 -18 54 0c18,0 18,0 36,0 0,18 0,18 0,54l0 216c0,18 18,36 18,54 0,0 0,0 18,0l18 0 0 0 0 18 0 0 -54 0c-18,0 -36,-18 -36,-54 0,0 0,0 0,0l0 -234 0 0z"/>
    <path id="_3_2" class="fil3" d="M2739 1913l0 0c54,0 90,18 108,54 18,0 18,36 18,54 0,36 -18,72 -54,90 -18,18 -36,18 -54,18 -18,0 -36,0 -54,0l0 0c18,0 36,18 54,36 0,0 18,0 18,0l54 0 0 0 0 18 0 0 -90 0c-18,0 -36,-18 -72,-36 0,0 -18,0 -18,-18 -18,-36 -18,-54 -18,-108l0 0c0,-36 0,-54 18,-72 0,0 18,0 18,-18 18,-18 54,-18 72,-18l0 0zm-54 108c0,36 18,54 36,72 0,0 18,0 18,0 36,0 36,0 54,-36 0,-18 18,-18 18,-36 0,-36 -18,-54 -36,-72 -18,-18 -18,-18 -36,-18 -18,0 -36,18 -36,36 -18,18 -18,36 -18,54l0 0z"/>
    <path id="_4_3" class="fil3" d="M2973 2129c-36,18 -54,36 -54,72 0,36 36,72 72,72 54,0 90,-36 90,-72 0,-36 -36,-54 -72,-72l-36 0zm72 -198c-18,0 -36,-18 -54,-18 -36,0 -54,36 -54,72 0,36 18,72 54,72 54,0 72,-36 72,-72 0,-18 -18,-36 -18,-54zm-36 -36c54,0 72,-18 72,-36l0 0 0 18c0,18 0,36 -18,36l0 0 0 18c36,0 54,18 54,54 0,54 -36,90 -126,90 -36,0 -54,0 -54,18 0,18 18,18 54,18 54,0 72,0 90,18 36,18 36,36 36,72 0,54 -36,90 -126,90 -72,0 -126,-36 -126,-90 0,-36 36,-54 72,-72 -18,-18 -18,-18 -18,-36 0,-18 0,-18 18,-36 -36,-18 -54,-36 -54,-72 0,-54 36,-90 108,-90l18 0 0 0z"/>
    <path id="_5_4" class="fil3" d="M3351 1877l0 0 0 18c0,18 0,36 -18,36l0 0c0,18 18,18 36,36 18,18 18,54 18,90 0,18 0,54 -36,90 -18,18 -54,36 -90,36 -36,0 -72,-18 -90,-54 -18,-18 -36,-54 -36,-72l0 -18c0,-36 18,-54 54,-90 18,-18 54,-36 72,-36l18 0c18,0 36,0 54,0 0,-18 18,-18 18,-18 0,0 0,-18 0,-18l0 0 0 0zm-144 180c0,18 0,54 36,72 0,18 18,18 18,18l0 0c36,0 54,-18 72,-54 0,0 0,-18 0,-36l0 -18c0,-18 0,-54 -18,-72 -18,0 -36,-18 -54,-18l0 0c-18,0 -36,18 -54,36 0,18 0,36 0,72z"/>
    <path id="_6_5" class="fil3" d="M3585 1913l0 0c18,0 54,18 72,36 18,18 18,36 18,72l0 90c0,18 0,36 18,54 0,0 0,0 18,0l18 0 0 0 0 18 0 0 -72 0c-18,0 -18,-18 -36,-54 0,0 0,0 0,0l0 -108c0,-36 0,-54 -36,-54 0,-18 -18,-18 -18,-18 -36,0 -54,18 -72,36 0,0 0,18 0,18l0 180 0 0 -54 0 0 0 0 -198c0,-18 -18,-36 -18,-36l-18 0 -18 0 0 0 0 -36 0 0 54 0c18,0 36,18 36,36l18 0c18,-18 54,-36 90,-36l0 0z"/>
    <path id="_7_6" class="fil4 str0" d="M2253 1895c18,0 54,18 72,18 18,18 36,54 36,90l-36 -18c0,-18 0,-18 -18,-36 -18,-18 -36,-18 -54,-18 -18,0 -18,18 -36,36 -18,18 -18,36 -18,72 0,36 0,54 18,90 18,18 36,18 54,18 36,0 54,-18 54,-54l18 18c0,36 -36,54 -90,72 -36,0 -72,-18 -90,-54 -36,-18 -36,-54 -36,-90 0,-36 0,-72 36,-90 18,-18 54,-36 90,-54l0 0z"/>
    <path id="_8" class="fil4 str0" d="M2361 1931l54 0c18,0 36,0 36,18 0,0 0,18 0,36l0 126c0,36 18,36 36,36l0 0 18 0 0 0 0 36 0 0 -54 0c-18,0 -36,-18 -36,-36 0,-18 0,-18 0,-18l0 -144c0,-18 -18,-36 -36,-36 0,0 0,0 0,0l-18 0 0 0 0 -18 0 0z"/>
    <path id="_9" class="fil4 str0" d="M2541 1895c0,-18 0,-18 0,-36 -18,0 -18,0 -36,0l-18 0 0 -18 54 0c18,0 18,0 36,0 0,18 0,18 0,54l0 216c0,18 18,36 18,54 0,0 0,0 18,0l18 0 0 0 0 18 0 0 -54 0c-18,0 -36,-18 -36,-54 0,0 0,0 0,0l0 -234 0 0z"/>
    <path id="_10" class="fil4 str0" d="M2739 1913l0 0c54,0 90,18 108,54 18,0 18,36 18,54 0,36 -18,72 -54,90 -18,18 -36,18 -54,18 -18,0 -36,0 -54,0l0 0c18,0 36,18 54,36 0,0 18,0 18,0l54 0 0 0 0 18 0 0 -90 0c-18,0 -36,-18 -72,-36 0,0 -18,0 -18,-18 -18,-36 -18,-54 -18,-108l0 0c0,-36 0,-54 18,-72 0,0 18,0 18,-18 18,-18 54,-18 72,-18l0 0zm-54 108c0,36 18,54 36,72 0,0 18,0 18,0 36,0 36,0 54,-36 0,-18 18,-18 18,-36 0,-36 -18,-54 -36,-72 -18,-18 -18,-18 -36,-18 -18,0 -36,18 -36,36 -18,18 -18,36 -18,54l0 0z"/>
    <path id="_11" class="fil4 str0" d="M2973 2129c-36,18 -54,36 -54,72 0,36 36,72 72,72 54,0 90,-36 90,-72 0,-36 -36,-54 -72,-72l-36 0zm72 -198c-18,0 -36,-18 -54,-18 -36,0 -54,36 -54,72 0,36 18,72 54,72 54,0 72,-36 72,-72 0,-18 -18,-36 -18,-54zm-36 -36c54,0 72,-18 72,-36l0 0 0 18c0,18 0,36 -18,36l0 0 0 18c36,0 54,18 54,54 0,54 -36,90 -126,90 -36,0 -54,0 -54,18 0,18 18,18 54,18 54,0 72,0 90,18 36,18 36,36 36,72 0,54 -36,90 -126,90 -72,0 -126,-36 -126,-90 0,-36 36,-54 72,-72 -18,-18 -18,-18 -18,-36 0,-18 0,-18 18,-36 -36,-18 -54,-36 -54,-72 0,-54 36,-90 108,-90l18 0 0 0z"/>
    <path id="_12" class="fil4 str0" d="M3351 1877l0 0 0 18c0,18 0,36 -18,36l0 0c0,18 18,18 36,36 18,18 18,54 18,90 0,18 0,54 -36,90 -18,18 -54,36 -90,36 -36,0 -72,-18 -90,-54 -18,-18 -36,-54 -36,-72l0 -18c0,-36 18,-54 54,-90 18,-18 54,-36 72,-36l18 0c18,0 36,0 54,0 0,-18 18,-18 18,-18 0,0 0,-18 0,-18l0 0 0 0zm-144 180c0,18 0,54 36,72 0,18 18,18 18,18l0 0c36,0 54,-18 72,-54 0,0 0,-18 0,-36l0 -18c0,-18 0,-54 -18,-72 -18,0 -36,-18 -54,-18l0 0c-18,0 -36,18 -54,36 0,18 0,36 0,72z"/>
    <path id="_13" class="fil4 str0" d="M3585 1913l0 0c18,0 54,18 72,36 18,18 18,36 18,72l0 90c0,18 0,36 18,54 0,0 0,0 18,0l18 0 0 0 0 18 0 0 -72 0c-18,0 -18,-18 -36,-54 0,0 0,0 0,0l0 -108c0,-36 0,-54 -36,-54 0,-18 -18,-18 -18,-18 -36,0 -54,18 -72,36 0,0 0,18 0,18l0 180 0 0 -54 0 0 0 0 -198c0,-18 -18,-36 -18,-36l-18 0 -18 0 0 0 0 -36 0 0 54 0c18,0 36,18 36,36l18 0c18,-18 54,-36 90,-36l0 0z"/>
   </g>
  </g>
 </g>
</svg>
