<?xml version="1.0" encoding="UTF-8"?>
<!DOCTYPE svg PUBLIC "-//W3C//DTD SVG 1.1//EN" "http://www.w3.org/Graphics/SVG/1.1/DTD/svg11.dtd">
<!-- Creator: CorelDRAW X7 -->
<svg xmlns="http://www.w3.org/2000/svg" xml:space="preserve" width="69.4332mm" height="48.7902mm" version="1.1" style="shape-rendering:geometricPrecision; text-rendering:geometricPrecision; image-rendering:optimizeQuality; fill-rule:evenodd; clip-rule:evenodd"
viewBox="0 0 4436 3117"
 xmlns:xlink="http://www.w3.org/1999/xlink">
 <defs>
  <style type="text/css">
   <![CDATA[
    .str0 {stroke:#FEFEFE;stroke-width:8.43318}
    .fil1 {fill:#FEFEFE}
    .fil0 {fill:#0497E0}
   ]]>
  </style>
 </defs>
 <g id="Layer_x0020_1">
  <metadata id="CorelCorpID_0Corel-Layer"/>
  <polygon class="fil0 str0" points="4,4 4432,4 4432,3113 4,3113 "/>
  <g id="_2994302673632">
   <path class="fil1" d="M1516 992c-16,-5 -41,-4 -62,-4 -16,0 -15,-3 -19,6 -11,30 5,16 -11,26 -7,2 -4,25 -4,40l0 678 -777 0 0 57c72,0 611,-9 629,5 33,-4 77,11 99,25 14,9 22,16 33,27 16,17 16,16 17,45l99 8c1,-41 -2,-33 20,-57 13,-12 31,-26 50,-34 43,-18 99,-19 149,-19 111,0 222,0 333,0 127,0 375,-26 457,43 16,14 31,22 31,52 0,29 -1,57 1,85 31,2 87,-15 101,-13 -2,-19 -3,-61 -2,-80 2,-24 19,-35 35,-47 68,-53 193,-42 279,-41 48,1 103,1 157,1 214,0 433,4 646,-1l0 -56 -1116 0c-7,-149 0,-399 0,-566l-1 -144c-2,-17 -5,-12 -5,-36 -18,-1 -24,-4 -46,-4 -6,0 -18,1 -24,0 -14,-1 -21,6 -19,-6 -1,38 -6,29 -6,90 0,32 0,64 0,96 0,181 5,397 0,570l-1040 -2c-4,-250 6,-494 -4,-744z"/>
   <path class="fil1" d="M2437 2095c49,-4 144,-15 185,-32 -10,-8 -27,-13 -39,-18 -16,-6 -28,-11 -43,-17l-78 -42c-152,8 -339,-7 -487,-27 -75,-11 -153,-20 -228,-29 -73,-8 -156,-13 -227,-25l-99 -8c-60,2 -129,-4 -192,-4 -166,1 -346,23 -497,86 -102,43 -171,87 -243,145 -56,45 -148,144 -177,207 58,-58 102,-103 171,-148 63,-42 131,-79 210,-107 177,-62 364,-76 569,-70 200,6 386,41 580,58 182,16 409,54 595,31z"/>
   <path class="fil1" d="M869 1201c0,-24 -5,-52 15,-58 20,-5 50,0 68,7 82,29 96,134 34,176 -41,28 -77,2 -117,23l0 -148zm-167 -98c-12,59 44,30 68,53 2,5 10,475 -6,490 -22,9 -38,2 -60,20 -3,29 8,43 36,45 32,2 45,-11 72,-14 26,-2 45,9 70,12 40,6 43,0 64,-19 -12,-63 -38,-23 -73,-48 -8,-18 -7,-225 -3,-256 49,39 160,2 203,-29 27,-18 48,-35 57,-76 24,-104 -63,-194 -197,-198 -48,-1 -84,9 -125,9 -33,0 -90,-22 -106,11z"/>
   <path class="fil1" d="M3982 1621c157,-37 200,161 65,191 -66,14 -126,-19 -142,-66 -18,-55 7,-109 77,-125zm59 -174c67,22 43,114 -24,114 -68,0 -94,-82 -36,-111 34,36 58,0 58,0 0,-2 1,-2 2,-3zm-229 243c-5,62 8,90 41,124 71,76 216,81 302,18 36,-26 30,-31 45,-40 4,-29 34,-64 8,-128 -20,-47 -39,-56 -63,-78l-9 -8c25,-33 49,-66 23,-122 -26,-53 -66,-53 -93,-70 30,-16 56,9 84,-17 18,-17 21,-54 -6,-64 -23,-9 -71,-2 -90,9 -51,29 -40,67 -73,74 -64,14 -134,47 -120,129 6,31 21,44 35,61 -10,11 -26,14 -53,46 -14,16 -25,39 -31,66z"/>
   <path class="fil1" d="M2075 1496c26,-5 80,-69 85,-19 3,22 2,145 -2,163 -24,19 -30,4 -50,26 -10,-18 -26,-14 -48,-24l0 -145 15 -1zm175 -1c50,2 60,-45 99,-32 3,53 4,126 -1,179 -24,12 -31,0 -47,23 -27,-23 -27,-9 -46,-22 -13,-22 -4,-113 -5,-148zm-329 175l2 21c31,23 55,6 93,6 23,0 58,11 78,3 11,-4 10,-7 15,-14 22,31 54,12 95,12 19,0 34,3 52,4 30,2 29,0 44,-15 33,30 41,13 89,11 30,-1 75,15 95,-7 20,-38 -19,-40 -42,-50 -12,-65 17,-187 -22,-232 -46,-53 -148,-2 -167,37 -1,-1 -2,-3 -2,-3 -1,1 -2,-2 -2,-2 -13,-20 2,4 -3,-5 -3,-5 -5,-10 -7,-14 -33,-57 -107,-40 -158,4l-22 20c-4,-77 -29,-44 -97,-52 -24,-3 -44,3 -42,31 3,28 30,21 49,31 6,25 5,162 -1,187 -21,9 -38,2 -47,27z"/>
   <path class="fil1" d="M1227 1540c4,51 6,84 -28,107 -35,23 -80,11 -101,-14 -40,-50 10,-122 76,-100 33,11 17,10 53,7zm-136 -68c39,-24 135,-68 137,23 -19,-8 -36,-20 -60,-24 -25,-5 -54,8 -77,1zm-61 219c58,23 88,62 199,8 16,6 9,12 29,13 11,1 26,-4 36,-5 36,-4 36,12 78,0 23,-53 -22,-46 -50,-69 -8,-48 2,-110 -2,-160 -12,-132 -233,-109 -259,-53 -14,31 7,42 30,47l-5 4c-27,16 -72,27 -91,84 -22,67 27,114 35,131z"/>
   <path class="fil1" d="M3273 1540c-3,50 9,85 -31,109 -34,20 -81,6 -99,-16 -26,-32 -13,-77 17,-95 42,-25 64,11 113,2zm-217 131c22,13 33,40 95,51 47,9 89,-6 124,-23 13,5 15,14 35,13 19,-1 25,-8 48,-5 38,5 69,15 65,-36 -66,-56 -58,32 -58,-174 0,-73 -49,-113 -122,-117 -35,-2 -72,5 -101,17 -51,21 -46,57 -27,68 29,19 55,-15 89,-22 45,-10 68,8 68,52 -36,-17 -44,-29 -97,-25 -80,5 -159,62 -136,155 4,18 15,32 17,46z"/>
   <path class="fil1" d="M3573 1502c41,10 96,-79 98,-13 4,219 -7,142 -51,181 -7,-3 -1,-1 -8,-5l-5 -2c-5,-4 -2,-2 -11,-6 -14,-5 -14,-2 -26,-11l3 -144zm-142 168c-5,55 38,39 81,36 55,-3 63,18 108,-8 28,24 50,8 92,8 40,-1 75,14 90,-15 4,-31 -17,-27 -40,-39 -13,-63 18,-189 -20,-233 -51,-59 -137,-4 -169,33 -4,-24 0,-50 -26,-54 -21,-3 -33,8 -66,1 -24,-5 -47,3 -49,27 -3,29 28,27 46,37 8,30 6,161 -2,188 -28,10 -20,-2 -45,19z"/>
   <path class="fil1" d="M1707 1722c33,2 55,1 85,-6 28,-7 43,-19 67,-27 2,-4 53,-37 16,-59 -22,-12 -52,12 -76,20 -87,29 -182,-44 -146,-142 9,-24 32,-44 53,-56 54,-28 133,11 120,68 -31,0 -63,0 -95,0 -31,0 -70,-6 -75,23 -7,49 86,35 155,35 76,0 133,20 107,-76 -13,-51 -48,-87 -92,-104 -51,-19 -115,-19 -165,1 -42,17 -85,56 -100,97 -20,56 -3,117 26,154 32,39 54,57 120,72z"/>
   <path class="fil1" d="M3494 2085c56,3 132,56 287,47 63,-4 219,-61 219,-112 -27,5 -67,24 -101,33 -41,10 -75,15 -118,13 -46,-3 -186,-38 -209,-55 -109,-31 -179,-59 -312,-39 -80,12 -200,58 -234,122 83,-14 130,-53 229,-54 51,-1 216,23 239,45z"/>
   <path class="fil1" d="M2702 1416c-1,1 -2,1 -2,2 0,2 -2,2 -2,2 -24,25 -22,78 -16,99 72,39 28,-59 120,-69 129,-15 170,178 30,214 -34,10 -62,2 -88,-12 -30,-16 -41,-30 -66,-2 -2,36 16,43 43,56 23,11 47,19 74,22 65,6 110,-11 153,-41 29,-29 59,-49 66,-110 8,-60 -17,-100 -45,-130 -107,-111 -234,-34 -267,-31z"/>
   <path class="fil1" d="M2773 2013c-50,4 -76,1 -127,-7 -21,-4 -98,-18 -109,-26l-82 -7c4,8 3,8 7,13l78 42c15,6 27,11 43,17 12,5 29,10 39,18 23,-2 165,67 296,8 10,-5 27,-13 35,-12 8,-10 1,-3 8,-9l23 -14c114,-59 61,-43 195,-85 17,-6 28,-2 30,-16 -27,-16 -86,-11 -118,-4l-100 32c-59,25 -143,59 -218,50z"/>
   <path class="fil1" d="M4303 1954l0 -13c-21,-5 -19,-13 -35,-25 -135,-104 -353,39 -472,70 -106,27 -133,-13 -192,-15 17,25 29,42 61,55 29,13 55,21 91,22 143,6 244,-68 353,-105 103,-35 146,14 194,11z"/>
   <path class="fil1" d="M707 837c4,16 0,15 1,30 2,17 4,10 8,25 -23,18 -11,-6 -43,37 -14,19 -55,81 -68,92 -15,13 -30,21 -45,35 -12,-5 -3,-1 -12,-17 -12,6 -9,4 -16,13 -11,-3 -7,-7 -15,-10l-17 18c-5,-11 4,8 -2,-9l-5 -9c0,-1 -1,-3 -2,-4 -26,15 -34,31 -33,68 6,3 3,2 10,2 10,13 14,7 31,4 15,-6 25,-5 39,-13 14,-8 26,-16 37,-24 19,-13 55,-37 66,-50 12,-24 4,-2 3,-29l22 -5c10,-5 64,-88 75,-102l180 -2c10,8 29,32 37,43 19,26 9,30 48,37l203 41c70,13 81,35 114,-22 14,-23 2,-48 -13,-59 -14,7 -9,11 -18,14 -24,10 8,-13 -19,6 -31,22 -12,-1 -36,32 -36,0 -204,-45 -232,-43l-10 2c-4,-34 -34,-47 -40,-71 -18,-10 -12,-10 -18,-60 -29,24 -13,24 -18,51l-63 1c9,-9 16,-11 7,-26 -25,-2 4,2 -20,5 -23,4 -4,0 -18,-3 0,-1 -12,-13 -13,8 0,14 0,6 9,17l-85 -5c-19,-16 0,-28 -8,-46 -3,6 -4,7 -8,14l-13 14z"/>
   <path class="fil1" d="M3002 2135c-48,11 -124,14 -176,9 -54,-6 -126,-22 -176,-20 21,38 147,66 199,73 108,16 149,0 246,-17l149 -50c124,-29 90,-14 185,-30 -2,-3 -2,-8 -20,-15 -10,-4 -16,-4 -26,-6 -20,-2 -40,-3 -60,-2 -121,7 -208,48 -321,58z"/>
   <path class="fil1" d="M2662 1962c-14,-2 -70,15 -101,13 -9,6 -10,4 -24,5 11,8 88,22 109,26 51,8 77,11 127,7 10,-13 21,-15 36,-23 36,-21 65,-42 94,-66 23,-18 81,-95 92,-122 -9,4 -26,20 -37,28 -102,78 -175,96 -296,132z"/>
   <path class="fil1" d="M1425 1008l-1 12c16,-10 0,4 11,-26 4,-9 3,-6 19,-6 21,0 46,-1 62,4 2,-19 6,-12 30,-12l3 -22c-33,-1 -131,-4 -158,2l0 18 34 3 0 27z"/>
   <path class="fil1" d="M2566 982c-2,12 5,5 19,6 6,1 18,0 24,0 22,0 28,3 46,4l1 -12c17,-1 19,2 31,-4l0 -19 -152 1 -3 18 13 3c8,2 12,1 21,3z"/>
   <path class="fil1" d="M825 820c17,-11 10,-11 27,0 0,-20 0,-26 -16,-34 -11,13 -11,13 -11,34z"/>
   <path class="fil1" d="M641 1025c17,-5 23,-14 33,-23 -18,-6 -7,3 -8,-11l-22 5c1,27 9,5 -3,29z"/>
   <g>
    <path class="fil1" d="M164 1939c-12,5 -24,13 -31,28 18,16 41,29 63,43 39,24 168,112 193,117 8,12 23,15 38,15 9,-10 23,-30 23,-41 0,-23 13,-25 21,-42 -27,8 -42,31 -70,32l6 -88c-11,8 -2,-3 -10,15 -3,8 2,2 -6,11 -5,-16 2,-5 -8,-16 -12,5 -52,26 -57,32 -10,-9 -13,13 -8,-14 0,-6 0,-11 1,-16 2,-14 0,-5 5,-11 -7,-18 -5,-21 -5,-39 -14,-2 -28,9 -39,15 -7,5 -13,8 -19,13 -16,11 -1,7 -26,14 5,-20 15,-53 12,-72 -34,1 -39,24 -72,31 1,-6 7,-24 7,-25l9 -14c-6,12 -12,12 -27,12z"/>
    <path class="fil1" d="M283 1906l14 -17c8,17 13,17 -2,34 -11,-9 -8,-8 -12,-17zm-47 -43c0,0 -1,-6 -7,9 0,22 -7,22 -12,32 15,4 25,11 43,13l5 -21c5,2 13,-1 15,15 1,8 -3,11 -7,17l10 2c9,1 0,0 1,8l15 -4c8,14 21,17 28,21 11,7 5,-3 12,12 6,8 33,19 43,19 25,-1 20,5 33,12 8,4 20,5 28,7 -3,-13 1,-14 5,-26 -4,-4 -3,-7 -4,-10 -9,6 -4,0 -9,9 -2,3 -6,12 -7,14 -15,-11 -14,-18 -8,-33 -7,-10 2,-3 -13,-5l-9 -15 6 -16c-11,-4 -4,4 -11,-8 1,-1 2,-1 3,-1 24,-5 25,13 57,20l0 -18c-11,-2 -7,-3 -23,-9 -3,-2 -11,-6 -19,-9l-12 -4c-17,-7 -23,-9 -31,-4 19,14 8,-1 13,18 2,14 -1,-2 8,19 -15,28 -6,24 -18,39l-5 5c-13,-30 -7,-29 -18,-44l12 -19c-11,-5 -18,-7 -28,-10 1,16 6,15 11,29l-11 15 -5 -7c-8,3 -10,5 -20,6 -9,-16 -4,-26 11,-21l-2 -9c-3,-14 -10,-15 4,-26 -21,-2 -6,0 -23,-6 -14,-5 -5,-1 -17,-7 -1,29 -11,19 -12,20l-23 8c-3,-32 -2,-17 13,-28 5,-4 4,-1 5,-8l-27 -1z"/>
    <path class="fil1" d="M284 1938c6,11 10,8 20,17 -15,11 -37,25 -55,34l12 -57c11,5 10,5 23,6zm-73 -31c12,5 19,7 27,16 -12,9 -35,24 -49,27l22 -43zm-47 32c15,0 21,0 27,-12l-9 14c0,1 -6,19 -7,25 33,-7 38,-30 72,-31 3,19 -7,52 -12,72 25,-7 10,-3 26,-14 6,-5 12,-8 19,-13 11,-6 25,-17 39,-15 0,18 -2,21 5,39 6,-14 1,-9 4,-21 4,-24 -5,-13 11,-16 -7,-15 -1,-5 -12,-12 -7,-4 -20,-7 -28,-21l-15 4c-1,-8 8,-7 -1,-8l-10 -2 -13 -11c-18,-2 -28,-9 -43,-13 5,-10 12,-10 12,-32 -7,8 -7,11 -14,18l-51 49z"/>
    <path class="fil1" d="M508 1951l5 16 -16 -7c-18,9 -6,1 -14,10 5,2 13,-3 11,15 0,0 -4,19 -5,22l6 9c15,-8 6,-5 9,2 8,-9 30,-47 36,-64 7,-23 22,-67 -3,-80 -15,12 -16,12 -20,33 -3,15 -8,27 -9,44z"/>
    <g>
     <path class="fil1" d="M236 1771c-22,10 -34,46 -19,71l24 9 -5 12 27 1 10 -1c6,7 -1,-5 7,9 12,6 3,2 17,7 17,6 2,4 23,6 6,-13 9,3 12,13 10,3 17,5 28,10l8 9c8,-8 2,-4 13,-9 -5,-19 6,-4 -13,-18 8,-5 14,-3 31,4l12 4c8,3 16,7 19,9 16,6 12,7 23,9l0 18c18,5 5,8 29,12 -7,-51 -1,-37 8,-68l-10 -6c-1,0 -2,0 -3,-1 -3,-1 -6,-1 -9,-1 -5,-7 -8,-39 -3,-48 -20,2 -55,20 -55,20 -1,1 -4,3 -10,3 -12,-1 -2,1 -13,-4l8 -39c-18,-7 -21,2 -49,8 -8,1 -7,2 -15,1l-2 0c0,0 -14,5 -4,-35 -25,6 -16,9 -37,6l-20 3c0,2 0,4 0,5 -8,10 -2,4 -13,6 3,-18 5,-15 3,-34 -20,13 1,8 -22,9z"/>
     <g>
      <g>
       <path class="fil1" d="M517 1871c-1,15 -7,28 -11,46 -2,9 -9,39 -20,30 -11,-9 11,-64 12,-67 7,-14 1,-10 19,-9zm-42 -11l-1 -42c12,-11 34,-19 48,-23l5 35c-12,8 -17,11 -28,16 -9,5 -19,8 -24,14zm-75 -26l0 -38c12,-6 55,-18 70,-17l-1 29c-11,8 -53,25 -69,26zm159 -112c9,-3 11,-5 18,-9 -4,15 -15,36 -26,46l-3 -25c11,-6 9,-8 11,-12zm-323 49c23,-1 2,4 22,-9 2,19 0,16 -3,34 11,-2 5,4 13,-6 0,-1 0,-3 0,-5l0 -32 58 -19 1 32c-7,3 -12,5 -17,7l-22 9c21,3 12,0 37,-6 -10,40 4,35 4,35l3 -39 63 -17 1 31c-14,9 -33,11 -48,17l-17 8c8,1 7,0 15,-1 28,-6 31,-15 49,-8l-8 39c11,5 1,3 13,4 6,0 9,-2 10,-3 0,0 35,-18 55,-20 -5,9 -2,41 3,48 3,0 6,0 9,1 1,1 2,1 3,1l10 6c-9,31 -15,17 -8,68 -24,-4 -11,-7 -29,-12 -32,-7 -33,-25 -57,-20 -1,0 -2,0 -3,1 7,12 0,4 11,8 11,-4 10,3 13,12 18,2 12,4 30,5 8,7 20,24 25,35 -6,12 -11,26 -17,40l-12 -10c-8,-2 -20,-3 -28,-7 -13,-7 -8,-13 -33,-12 4,3 4,5 10,7 -10,13 -54,35 -68,41l0 -30c-5,6 -3,-3 -5,11 -1,5 -1,10 -1,16 -5,27 -2,5 8,14 5,-6 45,-27 57,-32 10,11 3,0 8,16 8,-9 3,-3 6,-11 8,-18 -1,-7 10,-15l-6 88c28,-1 43,-24 70,-32 -8,17 -21,19 -21,42 1,-1 3,-3 3,-2l5 -5c0,-1 1,-2 2,-3l44 -73c-3,-7 6,-10 -9,-2 -1,11 -2,10 -9,20 -15,4 -52,37 -76,43l7 -72c18,4 39,22 67,29 -5,-12 0,0 -5,-9 -5,-9 1,2 -4,-8 -4,-9 -5,-14 -8,-20 4,-9 15,-23 16,-29 8,-9 -4,-1 14,-10l7 -13c9,7 -3,-6 4,4 1,-17 6,-29 9,-44 4,-21 5,-21 20,-33l-25 -12 38 -48c-1,-1 6,-19 -13,-2l-11 -31c15,-9 10,-4 18,-22 1,-1 1,-3 2,-4 0,4 0,7 1,11 4,13 2,6 5,10 15,-16 21,-53 42,-65 -5,23 -14,35 -23,55 -13,31 -7,0 -16,37l20 -23c10,-35 28,-57 35,-100 -5,2 -15,5 -18,7l-18 17c-22,18 -11,8 -15,18l-15 0 -4 19 -12 -9c-1,1 -2,1 -3,4 -1,3 -2,3 -3,4 -1,1 -5,7 -6,7l16 -4 1 28c-16,6 -33,17 -48,22l-1 -27c13,-10 16,-7 26,-16 -10,0 -1,-2 -13,2 -26,9 6,12 -54,26l-32 8c13,-12 33,-17 52,-20 1,-14 0,-27 4,-36 -12,-10 -1,-4 -10,1l4 23 -23 11c-11,4 -17,7 -28,9l0 -28 -63 16c2,-1 3,-5 4,-4l6 -9 -16 3 1 -26 48 -19 2 29 -25 10c8,0 17,1 23,-5 16,-12 8,-33 5,-43l-10 -4c1,-2 1,-2 2,-3l-27 8c8,-17 18,-24 35,-38 1,22 3,16 -6,31 13,-2 7,-1 14,-6l-4 -36c-18,7 -13,10 -28,21l4 -22 -29 36c-31,36 -95,62 -110,86z"/>
       <g>
        <g>
         <path class="fil1" d="M524 1671c-2,-2 -6,5 -7,-9 -1,-22 2,-9 7,-14 20,17 0,23 0,23zm13 -23l12 -13c11,11 16,25 -3,36l-9 -23zm-30 -58c6,19 10,25 -6,40 7,19 7,14 -6,31l-12 -19c4,-8 4,-12 13,-17 -12,-31 -5,-28 11,-35zm-18 -86c-1,1 -2,2 -3,2l-5 6c-7,12 -4,15 -2,25 10,3 -2,2 10,2l19 -8 7 33c0,1 0,3 0,3 0,-1 0,2 1,3 -7,5 -4,5 -22,3 -1,0 -2,0 -3,0 -1,-1 -3,-1 -4,-1l-21 -6 8 50c1,8 3,13 0,20 -4,11 -10,10 -12,11l-12 -18 9 -19 8 -17c-9,-1 -20,5 -29,9 -16,7 6,-7 -7,4 0,32 12,-1 7,31 -3,25 -6,2 -15,28l22 4 22 -6 1 31c-2,19 -4,13 0,34 13,-25 34,-40 67,-45l-7 49 12 9 4 -19 15 0c4,-10 -7,0 15,-18l18 -17c3,-2 13,-5 18,-7 4,-17 6,-16 4,-33 -10,-33 5,-66 6,-97l-17 18c-4,3 1,-1 -5,2 0,1 -2,1 -2,1 0,0 -2,2 -3,1 0,0 -2,1 -3,2l5 18 14 18c-4,13 -5,13 -14,22 -4,8 -3,12 -6,19 -4,7 0,4 -8,9 -19,12 -1,2 -9,2 -5,-10 -3,-21 -1,-31 3,-17 5,-16 5,-37 -19,6 -8,-1 -17,12 -1,1 -3,10 -5,14 -12,-5 -4,3 -15,-10l-11 15c-9,-8 -8,-7 -14,-20l10 -18c-4,-20 -8,-32 4,-49 15,6 5,0 12,14 8,16 -4,-1 2,9l11 -12c1,-6 0,-3 2,-9 0,-1 2,-1 2,-3 0,-2 1,-2 2,-3 -4,-12 -2,-8 -10,-17 2,-5 -4,-4 4,-4l-4 -1c-17,-1 -10,0 -21,-15l-15 -18c0,-2 -1,-2 -1,-3 -7,5 -11,8 -16,14l-7 14z"/>
         <g>
          <path class="fil1" d="M576 1473c4,-8 16,-24 25,-31l21 36c-6,15 -14,22 -25,34l-21 -39zm-23 76c2,3 3,5 5,7 14,20 10,18 25,25 -1,-18 -6,-21 -7,-23 0,-2 0,-3 -1,-6l-1 -10 -1 -1c0,-1 0,-2 -1,-3l0 -5 -1 0 -12 1c-1,1 -2,1 -2,3 0,2 -2,2 -2,3 -2,6 -1,3 -2,9zm1 71c6,-23 8,-15 -1,-37l-17 15c-8,-11 -3,-6 -12,-11l-10 18c6,13 5,12 14,20l11 -15c11,13 3,5 15,10zm-59 41c13,-17 13,-12 6,-31 16,-15 12,-21 6,-40 -16,7 -23,4 -11,35 -9,5 -9,9 -13,17l12 19zm54 -144c8,9 6,5 10,17l-10 -17zm4 32l-11 12c-6,-10 6,7 -2,-9 -7,-14 3,-8 -12,-14 -12,17 -8,29 -4,49l29 -38zm1 71c2,-4 4,-13 5,-14 9,-13 -2,-6 17,-12 0,21 -2,20 -5,37 -2,10 -4,21 1,31 8,0 -10,10 9,-2 8,-5 4,-2 8,-9 3,-7 2,-11 6,-19 -3,-11 -5,-12 -8,-22l8 -18 -5 -18c1,-1 3,-2 3,-2 1,1 3,-1 3,-1 0,0 2,0 2,-1 6,-3 1,1 5,-2l17 -18c-1,31 -16,64 -6,97 7,-8 9,-33 6,-43 20,-45 7,-254 8,-319 20,7 76,37 120,16 -26,-14 -32,-4 -52,-85 -11,-47 -15,-69 -71,-64 -34,-12 -129,-19 -160,-1l-12 5c-51,98 -51,261 -57,374 -3,59 -21,109 -21,119l-4 22c15,-11 10,-14 28,-21l4 36c-7,5 -1,4 -14,6l-2 -1c-1,1 -1,1 -2,3l10 4 8 0c3,-12 3,-9 8,-16l23 -1c1,-9 -8,-7 2,-7 7,-7 -1,-2 9,-5l-22 -4c9,-26 12,-3 15,-28 5,-32 -7,1 -7,-31 13,-11 -9,3 7,-4 9,-4 20,-10 29,-9l-8 17c2,1 3,1 4,2 1,0 3,1 4,1 1,1 6,3 7,3l-8 -50 21 6c1,0 3,0 4,1 1,0 2,0 3,0 18,2 15,2 22,-3 -1,-1 -1,-4 -1,-3 0,0 0,-2 0,-3l-7 -33 -19 8c-12,0 0,1 -9,-1 7,15 1,20 -5,27 -7,-3 -1,5 -8,-6 -3,-5 -10,-27 -4,-38 13,5 1,-7 12,9 2,2 3,4 4,6 -2,-9 -4,-12 2,-24l5 -6c1,0 2,-1 3,-2l7 -14c5,-6 9,-9 16,-14 0,1 1,1 1,3l15 18c11,15 4,14 21,15l5 108zm-157 -26c13,1 5,-3 14,4 16,14 -6,31 -10,34 -4,-7 -7,-11 -11,-17l7 -21zm235 -316c23,10 49,17 79,17 -2,-14 -8,-19 -12,-30 -8,-19 -13,-73 -31,-96 -40,0 -37,80 -36,109zm-75 213c-1,0 -2,1 -2,1 -1,1 -2,2 -3,2 -1,1 -4,3 -5,3 -7,5 1,1 -8,5l-20 -39c14,-9 10,-13 25,-24 9,9 17,23 22,34 -6,10 -6,7 -9,18zm-150 -34c7,-10 16,-21 25,-26l18 31 -23 23 -20 -28zm202 -28c11,-24 10,-16 16,-21l-1 45c-10,-8 -11,-11 -15,-24zm-57 -5c4,-4 8,-8 13,-14l8 -10c10,10 14,18 19,29 -6,12 -12,16 -22,25l-18 -30zm-17 1c-6,14 -8,13 -19,23 -7,-4 -6,-2 -12,-11 -5,-6 -4,-5 -9,-13l21 -24c8,5 0,-2 7,5l12 20zm-74 -30l19 32c-7,5 -17,14 -25,18l-17 -25 23 -25zm-53 -1c8,7 11,13 17,24l-19 19 2 -43zm118 -5c11,-22 13,-24 26,-30l14 30c-5,8 -14,18 -20,27l-20 -27zm57 0c7,-16 12,-19 22,-32l18 28c-6,12 -12,23 -23,28 -9,-9 -10,-13 -17,-24zm-113 -6c7,-12 11,-15 23,-26l18 28 -24 27 -17 -29zm-56 -6c6,-9 14,-16 23,-24l17 29 -23 23c-7,-9 -12,-15 -17,-28zm144 -32c19,-30 12,-20 24,-26 10,26 27,29 -7,53l-17 -27zm-59 -6c8,-3 13,-12 22,-20l19 26c-6,13 -10,18 -20,25 -14,-12 -17,-14 -21,-31zm-83 19c-6,-12 -2,-27 1,-43l11 26 -12 17zm51 117l-6 -10c5,-13 16,-23 28,-31l20 31c-6,12 -15,23 -26,28l-15 -16 -1 -2zm147 -294l7 52 -23 -2 21 10c6,40 1,74 -15,104 -14,-11 -9,-27 -30,-37 -6,13 -12,26 -26,32 -11,-11 -20,-17 -24,-32l-8 4 -4 6c-9,11 -11,7 -13,21 -1,0 -2,-1 -2,-1l-15 -2c1,15 -10,21 -19,29 -8,-9 -13,-15 -17,-28l4 -11c-14,4 -6,-2 -14,10 -13,-27 -20,-25 -12,-63 10,-48 0,-61 26,-51l8 -9 -17 -2c6,-12 29,-38 38,-46 5,11 7,43 6,46 0,1 -1,2 -1,2 0,1 0,2 -1,3l-19 -3 3 12c2,0 3,-1 5,-1l1 0 0 0 0 0 0 0 1 1 0 0 1 0 0 0 1 0 0 0 1 0 0 0 0 0 1 0 0 0 0 0 1 0 0 0 1 0 0 0 0 0 1 0 0 0 1 0 0 0 0 0 1 0 0 0 0 0 1 0 0 0 1 0 0 0 0 1 1 0 0 0 1 0 0 0 0 0 1 0 0 0 0 0 2 0 0 0 1 0 0 0 0 0 0 0 1 1 0 0 1 0 0 0 1 0 0 0 0 0 1 0 0 0 1 0 0 0 0 0 1 0 0 0 1 0 0 0 0 0 1 0 0 1 1 0 0 0 1 0 0 0 1 0 0 0 0 0 1 0 0 0 0 0 1 0 0 0 1 0 0 0 1 0 0 0 1 0 0 0 1 0 0 0 1 0 0 0 0 0 1 0 0 0 1 0 0 0 1 0 0 0 1 0 0 0 1 0 0 0 1 0 0 0 1 0 0 0 1 0 1 0 0 0 1 0 0 0 1 0 0 0 1 0 0 0 1 0 0 0 1 0 1 0 1 0 0 0 1 0c27,-1 42,11 71,6 0,-1 -3,-6 -3,-7 -7,-20 2,20 -2,-7l22 -39zm-10 379c11,-18 11,-23 -7,-33 -3,10 -8,18 -2,27 8,13 3,3 9,6zm-33 -27c0,-11 3,-6 7,-20 -11,-14 1,-5 -14,-13l-11 13 18 20zm16 -252c1,-1 3,2 4,3 16,-39 -1,-38 -10,-41 -5,15 -6,9 -8,29l14 9zm-123 -68l-6 0 6 0zm-14 113l16 -10c11,8 6,8 16,20l-32 -10zm148 -95l-1 3 1 -3zm-137 31l9 -14 13 15c-3,12 -6,13 -12,21 -8,-9 -10,-10 -10,-22 -7,9 -1,4 -13,11 7,14 5,26 -7,35 -10,-8 -23,-26 3,-39 -14,-24 -2,-12 6,-47l11 40zm11 -38c0,1 0,3 1,5 -3,17 -8,19 -12,33l11 -38zm91 -28l16 -19 1 51 -32 -3c5,-14 9,-18 15,-29zm-37 -22c11,1 7,-3 10,18 1,9 2,16 3,25 -7,7 12,7 -13,5l-24 -5c0,-11 8,-12 14,-28l10 -15z"/>
         </g>
        </g>
        <path class="fil1" d="M479 1717c15,-5 29,-17 46,-18l1 23c-12,9 -31,17 -46,24l-1 -29zm-45 -36c18,0 7,-1 23,-5l5 22c-8,7 -36,22 -49,25l0 -27c1,-1 13,-6 14,-6 8,-6 4,-4 7,-9zm11 -12c-10,3 -2,-2 -9,5 -10,0 -1,-2 -2,7l-23 1c-5,7 -5,4 -8,16l-8 0c3,10 11,31 -5,43 -6,6 -15,5 -23,5l-10 3 -6 9c-1,-1 -2,3 -4,4l63 -16 47 -15c9,-5 -2,-11 10,-1 -4,9 -3,22 -4,36 -19,3 -39,8 -52,20l32 -8c60,-14 28,-17 54,-26 12,-4 3,-2 13,-2l6 -3c1,0 5,-6 6,-7 1,-1 2,-1 3,-4 1,-3 2,-3 3,-4l7 -49c-33,5 -54,20 -67,45 -4,-21 -2,-15 0,-34l-1 -31 -22 6z"/>
       </g>
      </g>
      <path class="fil1" d="M550 1814l5 -11c9,-37 3,-6 16,-37 9,-20 18,-32 23,-55 -21,12 -27,49 -42,65 -3,-4 -1,3 -5,-10 -1,-4 -1,-7 -1,-11 -1,1 -1,3 -2,4 -8,18 -3,13 -18,22l11 31c19,-17 12,1 13,2z"/>
     </g>
    </g>
    <path class="fil1" d="M517 1871c-18,-1 -12,-5 -19,9 -1,3 -23,58 -12,67 11,9 18,-21 20,-30 4,-18 10,-31 11,-46z"/>
    <path class="fil1" d="M280 1872c-8,-14 -1,-2 -7,-9l-10 1c-1,7 0,4 -5,8 -15,11 -16,-4 -13,28l23 -8c1,-1 11,9 12,-20z"/>
    <path class="fil1" d="M327 1935c-6,-11 -8,-8 -1,-22l-10 -2 2 9c-15,-5 -20,5 -11,21 10,-1 12,-3 20,-6z"/>
   </g>
  </g>
 </g>
</svg>
