<?xml version="1.0" encoding="UTF-8"?>
<!DOCTYPE svg PUBLIC "-//W3C//DTD SVG 1.1//EN" "http://www.w3.org/Graphics/SVG/1.1/DTD/svg11.dtd">
<!-- Creator: CorelDRAW X7 -->
<svg xmlns="http://www.w3.org/2000/svg" xml:space="preserve" width="134.721mm" height="94.6528mm" version="1.1" style="shape-rendering:geometricPrecision; text-rendering:geometricPrecision; image-rendering:optimizeQuality; fill-rule:evenodd; clip-rule:evenodd"
viewBox="0 0 4902 3444"
 xmlns:xlink="http://www.w3.org/1999/xlink">
 <defs>
  <style type="text/css">
   <![CDATA[
    .str0 {stroke:#FEFEFE;stroke-width:4.80285}
    .fil1 {fill:#FEFEFE}
    .fil0 {fill:url(#id0)}
   ]]>
  </style>
  <radialGradient id="id0" gradientUnits="userSpaceOnUse" gradientTransform="matrix(1 -0 -0 0.70229 0 513)" cx="2450.94" cy="1721.98" r="1261.19" fx="2450.94" fy="1721.98">
   <stop offset="0" style="stop-opacity:1; stop-color:#48C0F0"/>
   <stop offset="1" style="stop-opacity:1; stop-color:#00A2E9"/>
  </radialGradient>
 </defs>
 <g id="Layer_x0020_1">
  <metadata id="CorelCorpID_0Corel-Layer"/>
  <polygon class="fil0 str0" points="2,2 4899,2 4899,3442 2,3442 "/>
  <g id="_1794149168384">
   <g>
    <path class="fil1" d="M2140 2761c-1,-43 34,-85 68,-97 2,32 -9,41 -25,61 -12,14 -22,25 -43,36zm378 -4c-49,-51 78,-138 112,-155 -11,44 -75,147 -112,155zm658 -255c-43,5 -42,30 -80,91 -81,132 -135,61 -33,-39 25,-26 84,-47 70,-90 -50,-11 -120,70 -137,92 -34,45 -33,121 -102,128 -9,-81 75,-94 34,-164 -41,-5 -99,83 -118,116 -30,50 -17,34 -37,43 2,-49 54,-96 44,-115 -12,-10 14,-6 -18,-7 -32,-1 -55,60 -64,84 -9,22 -8,37 -27,57 -14,14 -32,34 -58,22 -20,-34 11,-61 19,-87 9,-32 -8,-23 -7,-45l4 -16c1,-8 4,-18 -5,-25 -56,-22 -132,63 -156,90 -32,37 -28,36 -45,79 -9,22 -74,85 -74,27 0,-58 62,-63 34,-137 -40,-2 -58,14 -91,18 -4,-9 0,-11 -8,-23 -25,11 -37,33 -47,58 -11,30 -8,34 3,53 7,10 5,0 9,15 -13,29 -127,168 -146,64 10,-15 5,-9 22,-20 185,-124 56,-232 -57,-54 -64,102 31,279 161,73 18,-27 29,-33 44,-68 18,-41 21,-29 62,-46 -3,47 -67,98 -8,157 36,3 43,-12 59,-32 9,-9 14,-14 22,-24 5,-7 4,-8 9,-14 10,-12 0,-3 14,-12 47,134 106,0 138,-38 0,33 -9,62 13,86 43,13 88,-65 107,-91l16 30c9,14 8,13 22,20 40,-16 39,-83 108,-148 -8,45 -46,94 -16,143 54,7 79,-56 107,-86 29,22 36,79 91,33 25,-21 56,-71 70,-83 -13,116 -58,109 -95,186 42,50 31,54 34,46 0,-1 1,3 2,4 11,-22 25,-42 38,-69 9,-21 18,-51 30,-70 31,-47 89,-80 86,-121 -15,5 -49,43 -62,55 2,-50 35,-95 19,-146z"/>
    <path class="fil1" d="M1960 2648c2,0 81,-52 89,-58 24,-20 35,-78 -17,-82 -76,-6 -182,34 -233,67 -29,18 -52,41 -61,80 -39,185 205,61 252,154 -40,59 -166,87 -258,89 9,-18 7,-5 16,-24 -47,8 -72,38 -63,88 52,30 135,12 195,-6 182,-55 207,-173 83,-217 -47,-16 -146,-18 -176,-34 -4,-66 150,-115 217,-114 -15,19 -42,31 -44,57z"/>
   </g>
   <g>
    <path class="fil1" d="M2444 2423c-16,9 -30,22 -51,13 -11,-49 24,-83 61,-102 -3,14 -10,27 -12,42 -4,22 2,28 2,47zm237 -13c-11,-33 9,-52 28,-68 14,-12 50,-36 70,-43 -12,35 -65,109 -98,111zm-78 -161c-48,5 -73,16 -77,64l42 -6c-10,34 -52,93 -83,98 0,-33 26,-53 4,-87 -16,-24 -1,-10 -13,-26 -75,-9 -144,92 -110,153 21,39 55,40 85,7 28,-29 12,-10 44,-27 19,-9 24,-23 39,-32 -4,36 -17,48 4,78 50,11 81,-49 106,-70 39,109 78,7 111,-21 -1,24 -7,48 2,68 41,11 98,-62 97,-87 -24,11 -33,41 -65,29 -15,-49 30,-45 19,-91 0,-1 -2,-5 -2,-6 0,-8 23,-52 -26,-41 -39,9 -105,63 -127,96 0,1 -27,60 -59,70l-15 0c-32,-2 18,-103 20,-110l36 -2c11,-16 23,-36 29,-56l-13 -5c-1,0 -3,-1 -3,-2 -1,0 -3,-1 -4,-1 10,-16 18,-20 18,-40 -41,0 -43,21 -59,47z"/>
    <path class="fil1" d="M2169 2367c5,-34 22,-40 48,-55 22,-14 43,-27 64,-39 55,-33 101,-42 104,-91 -29,-1 -145,96 -173,98 14,-19 57,-85 13,-103 -31,-7 -127,38 -153,51l-1 -10c0,0 0,-3 0,-4l1 -4c-18,9 -38,22 -46,39 -8,16 -15,48 -9,65 23,7 59,-22 97,-44 24,-13 71,-42 101,-44 -18,86 -96,107 -102,133 -5,25 12,20 -2,45 -13,23 -74,94 -56,108 20,7 42,-24 50,-42l38 -62c38,15 173,104 198,102 19,-49 -37,-70 -69,-87 -34,-18 -71,-43 -103,-56z"/>
   </g>
   <path class="fil1" d="M2376 1745l-116 0 0 153 116 0 0 -153zm663 381l0 44c-49,0 -98,-52 -147,-52 -39,0 -77,32 -116,46l-65 -45c11,4 23,7 34,7 49,0 98,-52 147,-52 49,0 98,52 147,52zm0 126l0 45c-49,0 -98,-52 -147,-52l-46 -32c15,-7 31,-12 46,-12 49,0 98,51 147,51zm-1204 40l0 -44c8,3 17,4 26,4 49,0 98,-51 147,-51 16,0 31,5 46,12l-46 32c-49,0 -98,52 -147,52 -9,0 -18,-2 -26,-5zm0 -127l0 -44c8,3 17,5 26,5 49,0 98,-52 147,-52 49,0 99,52 148,52 11,0 22,-3 33,-7l-65 45c-38,-14 -77,-46 -116,-46 -49,0 -98,52 -147,52 -9,0 -18,-2 -26,-5zm644 -1650l-21 23 0 1 34 0 -32 15 -19 0 -32 -15 33 0 1 -1 -21 -23 22 13 6 -62 7 62 22 -13zm-21 43c20,3 35,21 35,42l0 12 -86 0 0 -12c0,-21 16,-39 36,-42l15 0zm35 59c27,10 47,30 56,54l-197 0c8,-24 29,-44 55,-54l86 0zm-174 58l21 0 0 41 -21 0 0 -41zm272 0l21 0 0 41 -21 0 0 -41zm-30 0l21 0 0 41 -21 0 0 -41zm-24 0l21 0 0 41 -21 0 0 -41zm-31 0l21 0 0 41 -21 0 0 -41zm-24 0l21 0 0 41 -21 0 0 -41zm-30 0l21 0 0 41 -21 0 0 -41zm-24 0l21 0 0 41 -21 0 0 -41zm-31 0l21 0 0 41 -21 0 0 -41zm-24 0l21 0 0 41 -21 0 0 -41zm-30 0l21 0 0 41 -21 0 0 -41zm-55 0l21 0 0 41 -21 0 0 -41zm295 87c22,11 37,34 38,62l-341 0c0,-28 15,-51 37,-62l266 0zm17 -41c0,13 -5,26 -13,35l-274 0c-7,-9 -12,-22 -13,-35l300 0zm-640 1246l447 0 -133 93 -314 0 0 -93zm533 0l448 0 0 93 -315 0 -133 -93zm-494 -63l902 0 0 24 -902 0 0 -24zm-84 31l1070 0 0 25 -502 0 -33 -23 -33 23 -502 0 0 -25zm779 -287l-45 -516 -117 0 33 411 44 64c6,-5 14,-8 23,-8 18,0 33,15 35,34 -13,0 -23,10 -24,22 8,-8 18,-13 29,-13 8,0 16,2 22,6zm-48 13l0 0 0 237 9 0 0 -153 12 -15 0 -51c0,-3 3,-7 6,-7l31 0c-4,-13 -17,-23 -32,-23 -10,0 -20,5 -26,12zm16 237l53 0 -19 -219 -23 0 0 54 -11 15 0 150zm-458 -219l-19 219 54 0 0 -150 -12 -15 0 -54 -23 0zm41 219l9 0 0 -237 0 0c-6,-7 -16,-12 -26,-12 -15,0 -28,10 -32,23l31 0c3,0 7,4 7,7l0 51 11 15 0 153zm12 -243c-1,-12 -11,-22 -24,-22 2,-19 17,-34 36,-34 8,0 16,3 22,8l44 -64 33 -411 -117 0 -44 516c6,-4 13,-6 21,-6 11,0 22,5 29,13zm276 232l63 0 0 -118 -63 0 0 118zm-229 0l63 0 0 -118 -63 0 0 118zm44 -14l-25 0 0 -79 25 0 0 79zm12 -87l-49 0 0 -10 49 0 0 10zm217 87l-25 0 0 -79 25 0 0 79zm13 -87l-50 0 0 -10 50 0 0 10zm-129 -956l-21 0 0 67 21 0 0 -67zm205 0l-26 0 0 67 26 0 0 -67zm-51 0l-27 0 0 67 27 0 0 -67zm21 0l-17 0 0 67 17 0 0 -67zm-324 0l-27 0 0 67 27 0 0 -67zm-51 0l-27 0 0 67 27 0 0 -67zm21 0l-18 0 0 67 18 0 0 -67zm61 0l-21 0 0 67 21 0 0 -67zm87 0l-27 0 0 67 27 0 0 -67zm-51 0l-27 0 0 67 27 0 0 -67zm21 0l-17 0 0 67 17 0 0 -67zm148 0l-26 0 0 67 26 0 0 -67zm-51 0l-27 0 0 67 27 0 0 -67zm21 0l-17 0 0 67 17 0 0 -67zm61 0l-21 0 0 67 21 0 0 -67zm61 885l-116 0 0 23 116 0 0 -23zm-264 0l-116 0 0 23 116 0 0 -23zm148 -11l116 0 0 -41 -30 -43 -86 0 0 84zm-230 -90l82 0 0 -28 -63 0 -19 28zm230 0l82 0 -19 -28 -63 0 0 28zm-206 -34l58 0 0 -28 -39 0 -19 28zm206 0l59 0 -19 -28 -40 0 0 28zm-264 124l116 0 0 -84 -86 0 -30 43 0 41zm353 -92l26 38c2,-11 11,-19 21,-22 -3,-14 -15,-24 -28,-24 -8,0 -14,3 -19,8zm-351 38l26 -38c-5,-5 -12,-8 -19,-8 -14,0 -26,10 -29,24 11,3 19,11 22,22zm378 95l-116 0 0 153 116 0 0 -153zm-299 -199l42 0 0 352 135 0 0 -352 41 0 -33 -414 -151 0 -34 414zm-116 -629l451 0 0 -14 -451 0 0 14zm0 57l115 0 0 -26 -115 0 0 26zm292 92l-38 0 0 -39 38 0 0 39zm-96 0l-37 0 0 -39 37 0 0 39zm99 -46l-140 0 0 -13 140 0 0 13zm17 -20l-173 0 0 -19 173 0 0 19zm-291 0l111 0 0 -19 -111 0 0 19zm23 20l105 0 0 -13 -105 0 0 13zm-23 46l29 0 0 -39 -29 0 0 39zm87 0l44 0 0 -39 -44 0 0 39zm321 -39l-29 0 0 39 29 0 0 -39zm-87 0l-44 0 0 39 44 0 0 -39zm64 -20l-104 0 0 13 104 0 0 -13zm23 -26l-111 0 0 19 111 0 0 -19zm-279 144l0 -33 150 0 0 33 -150 0zm-150 0l144 0 0 -33 -144 0 0 33zm451 -33l-144 0 0 33 144 0 0 -33zm-442 -6l140 0 0 -13 -140 0 0 13zm146 -13l140 0 0 13 -140 0 0 -13zm286 0l-139 0 0 13 139 0 0 -13zm10 -125l-116 0 0 26 116 0 0 -26zm-122 0l-207 0 0 26 207 0 0 -26zm146 -24l-500 0 0 17 500 0 0 -17z"/>
  </g>
 </g>
</svg>
