<?xml version="1.0" encoding="utf-8"?>
<!-- Generator: Adobe Illustrator 16.0.0, SVG Export Plug-In . SVG Version: 6.00 Build 0)  -->
<!DOCTYPE svg PUBLIC "-//W3C//DTD SVG 1.1//EN" "http://www.w3.org/Graphics/SVG/1.1/DTD/svg11.dtd">
<svg version="1.1" id="Layer_1" xmlns="http://www.w3.org/2000/svg" xmlns:xlink="http://www.w3.org/1999/xlink" x="0px" y="0px"
	 width="262px" height="184px" viewBox="0 0 262 184" enable-background="new 0 0 262 184" xml:space="preserve">
<radialGradient id="SVGID_1_" cx="85.71" cy="2.7339" r="0.5" gradientTransform="matrix(262 0 0 184 -22325 -411)" gradientUnits="userSpaceOnUse">
	<stop  offset="0" style="stop-color:#FEFEFE"/>
	<stop  offset="0.4902" style="stop-color:#FBFAFB"/>
	<stop  offset="1" style="stop-color:#F8F7F8"/>
</radialGradient>
<polygon fill="url(#SVGID_1_)" points="0,0 262,0 262,184 0,184 "/>
<polygon fill="none" stroke="#FEFEFE" stroke-width="0.4991" points="0,0 262,0 262,184 0,184 "/>
<rect fill="#75CCD0" width="262" height="184"/>
<g>
	<polygon fill="none" points="17.063,14.769 331.537,14.769 331.537,191.395 17.063,191.395 	"/>
	<path fill="#FEFEFE" d="M24.73,107.651l-4.569,0.296c-1.181-10.322-0.296-21.822,3.685-35.238h2.799l7.225,18.43
		c3.096-6.486,7.372-12.386,12.976-17.398h3.834c0.293,10.911-2.657,20.787,0.588,32.73l-3.979,1.62
		c-2.506-4.128-2.066-15.921-0.443-30.959c-5.012,6.044-8.552,12.09-11.057,18.281l6.045,9.437l-1.771,3.241
		c-4.424-3.832-8.993-14.005-13.711-28.011C24.287,89.812,23.845,99.102,24.73,107.651z"/>
	<path fill="#FEFEFE" d="M72.352,99.985c2.21-14.006-5.012-16.661-12.68-12.532l2.506,2.653c5.75-3.391,7.52,1.915,7.227,7.813
		c-18.432-7.519-16.809,18.578,1.767,7.077l1.328,1.326l3.392-2.211C75.151,102.493,73.975,101.017,72.352,99.985z M61.735,99.985
		c-3.684,3.097-1.178,7.076,5.75,3.685C72.645,101.166,64.537,98.658,61.735,99.985z"/>
	<path fill="#FEFEFE" d="M85.768,97.186l0.293-11.795l-3.683,2.211c-0.888,9.584,1.916,27.866-8.701,29.045l0.148,3.538
		C81.343,120.185,85.915,113.696,85.768,97.186z"/>
	<path fill="#FEFEFE" d="M108.472,99.985c2.062-14.006-5.012-16.661-12.827-12.532l2.506,2.653c5.75-3.391,7.665,1.915,7.372,7.813
		c-18.43-7.519-16.955,18.578,1.77,7.077l1.18,1.326l3.538-2.211C111.125,102.493,109.945,101.017,108.472,99.985z M97.563,99.985
		c-3.687,3.097-1.181,7.076,5.75,3.685C108.472,101.166,100.364,98.658,97.563,99.985z"/>
	<path fill="#FEFEFE" d="M118.353,107.947c-1.328-11.941-1.476-23.885-1.033-35.828l3.686,2.211l1.03,32.73L118.353,107.947z"/>
	<path fill="#FEFEFE" d="M130.143,93.057c-2.359-1.622-3.389-4.276-3.241-7.668h4.127c0,1.77,0.295,3.392,1.18,4.129
		c15.482-12.974,21.969,10.615,1.623,5.457c-3.242,8.696,3.981,12.677,11.059,6.338l3.097,2.212
		C139.728,112.959,125.576,107.062,130.143,93.057z M140.465,89.223c-2.357-0.147-5.31,2.066-4.57,3.097
		C140.021,93.057,146.215,90.106,140.465,89.223z"/>
	<path fill="#FEFEFE" d="M154.026,86.421l0.445,21.97l3.98-2.509c-1.769-11.793,0.59-17.541,4.719-17.395
		c4.568,0,5.452,6.929,5.012,17.395v2.362l3.686-1.77l-0.148-11.204c-0.885-9.73-5.307-14.301-13.859-7.077l-0.146-1.77h-3.688
		V86.421z"/>
	<path fill="#FEFEFE" d="M197.963,102.641c1.18,20.05-21.671,24.177-22.704,9.876h3.391c1.032,10.47,14.745,6.341,15.188-6.34
		c-17.398,8.992-20.2-12.089-14.449-17.101C190.445,79.492,200.472,89.518,197.963,102.641z M181.451,94.088
		c-2.359,9.582,6.046,14.596,12.975,7.667C195.754,88.19,184.548,84.654,181.451,94.088z"/>
	<path fill="#FEFEFE" d="M210.793,72.267l-3.689,1.181c0.59,12.089-0.146,23.292-3.391,31.993l5.75,2.358
		c2.359-0.737,4.423-2.947,6.485-6.044c0.739,2.506,1.77,4.569,3.246,5.896l2.506-2.507c-2.066-2.062-3.099-5.159-3.688-8.992
		c1.325-3.538,1.918-7.226,2.064-10.764h-3.835c-0.146,8.848-2.803,14.744-7.372,17.987C211.086,93.5,211.97,83.326,210.793,72.267z
		"/>
	<path fill="none" d="M207.252,77.133c3.098,2.358,2.064,1.327,4.129,3.98"/>
	<path fill="#FEFEFE" d="M242.638,99.689c2.064-13.857-5.013-16.512-12.827-12.383l2.506,2.655c5.751-3.54,7.519,1.77,7.372,7.813
		c-18.429-7.519-16.956,18.431,1.624,6.93l1.325,1.327l3.537-2.213C245.29,102.195,244.113,100.869,242.638,99.689z M231.874,99.838
		c-3.539,3.097-1.033,7.076,5.748,3.538C242.933,100.869,234.676,98.363,231.874,99.838z"/>
	<path fill="#FEFEFE" d="M35.935,66.223c1.326,0,2.211,0.885,2.211,2.063c0,1.179-0.885,2.064-2.211,2.064
		c-1.18,0-2.212-0.886-2.212-2.064C33.723,67.108,34.755,66.223,35.935,66.223z"/>
	<path fill="#FEFEFE" d="M32.691,70.794c1.325,0,2.212,0.884,2.212,2.064c0,1.179-0.887,2.064-2.212,2.064
		c-1.178,0-2.209-0.886-2.209-2.064C30.481,71.678,31.513,70.794,32.691,70.794z"/>
	<path fill="#FEFEFE" d="M38.588,71.383c1.326,0,2.214,0.885,2.214,2.064c0,1.178-0.888,2.063-2.214,2.063
		c-1.178,0-2.21-0.885-2.21-2.063C36.378,72.267,37.41,71.383,38.588,71.383z"/>
	<path fill="#FEFEFE" d="M64.391,78.608c1.18,0,2.212,0.884,2.212,2.063c0,1.032-1.033,2.062-2.212,2.062
		c-1.325,0-2.213-1.032-2.213-2.062C62.178,79.492,63.064,78.608,64.391,78.608z"/>
	<path fill="#FEFEFE" d="M83.999,79.198c1.18,0,2.211,0.884,2.211,2.062c0,1.033-1.032,2.063-2.211,2.063
		c-1.326,0-2.211-1.032-2.211-2.063C81.788,80.083,82.672,79.198,83.999,79.198z"/>
	<path fill="#FEFEFE" d="M100.364,78.608c1.326,0,2.212,1.032,2.212,2.211c0,1.032-0.886,2.064-2.212,2.064
		c-1.181,0-2.213-1.032-2.213-2.064C98.151,79.64,99.183,78.608,100.364,78.608z"/>
	<path fill="#FEFEFE" d="M136.189,79.049c2.213,1.179,3.688,1.179,4.131-0.736l1.621,0.442c-2.213,6.633-7.52-1.475-10.174,2.211
		l-1.473-0.295C131.029,79.492,131.916,76.543,136.189,79.049z"/>
	<path fill="#FEFEFE" d="M164.5,75.513c-1.478,2.506-3.246,4.57-5.458,6.486l1.18,0.737c2.655-1.473,4.571-3.39,5.898-5.308
		C165.53,76.838,164.94,76.101,164.5,75.513z"/>
	<path fill="#FEFEFE" d="M191.331,74.331c-1.326,2.36-3.098,4.571-5.31,6.488l1.183,0.737c2.504-1.622,4.421-3.392,5.896-5.309
		C192.511,75.66,191.92,74.922,191.331,74.331z"/>
	<path fill="#FEFEFE" d="M188.971,71.972c-1.325,2.359-3.095,4.571-5.308,6.341l1.18,0.736c2.654-1.474,4.57-3.244,5.898-5.308
		C190.151,73.153,189.559,72.563,188.971,71.972z"/>
	<path fill="#FEFEFE" d="M234.088,78.608c1.177,0,2.21,0.884,2.21,2.063s-1.033,2.062-2.21,2.062c-1.182,0-2.214-0.884-2.214-2.062
		C231.874,79.492,232.906,78.608,234.088,78.608z"/>
</g>
</svg>
