<?xml version="1.0" encoding="utf-8"?>
<!-- Generator: Adobe Illustrator 16.0.0, SVG Export Plug-In . SVG Version: 6.00 Build 0)  -->
<!DOCTYPE svg PUBLIC "-//W3C//DTD SVG 1.1//EN" "http://www.w3.org/Graphics/SVG/1.1/DTD/svg11.dtd">
<svg version="1.1" id="Layer_1" xmlns="http://www.w3.org/2000/svg" xmlns:xlink="http://www.w3.org/1999/xlink" x="0px" y="0px"
	 width="262px" height="184px" viewBox="0 0 262 184" enable-background="new 0 0 262 184" xml:space="preserve">
<radialGradient id="SVGID_1_" cx="43.105" cy="133.8838" r="0.5" gradientTransform="matrix(262 0 0 -184 -11162.5 24726.5)" gradientUnits="userSpaceOnUse">
	<stop  offset="0" style="stop-color:#FEFEFE"/>
	<stop  offset="0.4902" style="stop-color:#FBFAFB"/>
	<stop  offset="1" style="stop-color:#F8F7F8"/>
</radialGradient>
<polygon fill="url(#SVGID_1_)" points="0,0 262,0 262,184 0,184 "/>
<polygon fill="none" stroke="#FEFEFE" stroke-width="0.4991" points="0,0 262,0 262,184 0,184 "/>
<rect fill="#75CCD0" width="262" height="184"/>
<g>
	<g>
		<defs>
			<rect id="SVGID_2_" x="24.263" y="30.22" width="213.475" height="119.899"/>
		</defs>
		<clipPath id="SVGID_3_">
			<use xlink:href="#SVGID_2_"  overflow="visible"/>
		</clipPath>
	</g>
	<polygon fill="none" points="24.263,30.22 237.737,30.22 237.737,150.119 24.263,150.119 	"/>
	<path fill="#FEFEFE" d="M224.927,85.266c0-1.201,0.101-3.703,0.501-4.704c0.5-1.101,4.904-1.501,6.505,0.601
		c0.7,0.901,0.802,3.003,0.802,4.404C232.734,90.67,224.927,90.369,224.927,85.266z M228.13,92.371c3.803,0,7.807-0.9,7.807-5.404
		c0-3.603-0.101-8.607-4.104-9.908c-3.202-1.1-6.205,0.901-3.803-2.402c1.9-2.501,4.402-3.002,4.804-3.302
		c0.7-0.501,0.2-3.003-0.3-3.003c-1.401,0-3.903,1.501-5.005,2.603c-0.6,0.5-0.8,0.801-1.301,1.401
		c-2.901,3.604-5.604,11.009-3.903,15.512C223.327,90.369,225.128,92.371,228.13,92.371z"/>
	<path fill="#FEFEFE" d="M188.697,74.656c0.201,0.701,1.302,2.202,1.701,2.803c1.202,0,8.808-2.202,8.808,4.903
		c0,2.202-0.6,6.805-3.202,6.805c-2.102,0-3.903,0.102-5.404-2c-0.301-0.401-0.601-0.801-0.801-1.201
		c-0.5,0.3-1.602,1.602-1.602,2.202c0,0.4,2.201,3.504,4.804,4.004c3.403,0.6,6.105,0.3,8.007-2.902
		c1.901-3.603,2.302-9.909-0.3-13.112c-1.502-1.801-3.904-2.201-6.405-2.201c1.301-2.003,2.4-1.702,5.004-2.202
		c0.7-0.101,2.502-0.3,2.802-0.701c0.4-0.4,0.501-2.702-0.3-2.702c-1.802,0-2.902,0.2-4.503,0.6
		c-1.603,0.301-2.303,0.601-3.504,1.201C192.4,70.854,189.498,73.456,188.697,74.656z"/>
	<path fill="#FEFEFE" d="M205.312,70.754c0,0.9,0.801,1.501,1.001,2.302c2.102,0,1.9-1.601,5.104-1.601
		c3.103,0,0.501,6.105,0.2,6.905c-0.801,1.902-3.202,7.006-4.103,8.507c-0.5,0.901-1.902,3.203-1.902,4.504c0,1.5,3.203,1,5.604,1
		c2.002,0,4.204-0.199,5.404-1.101c0.602-0.4,1.101-0.901,1.402-1.702c1.701-4.002-0.102-3.402-1.701-3.402
		c-2.103,0,2.301,3.203-6.406,3.203c0.1-1.502,6.605-11.81,6.605-15.913c0-1.502-0.801-2.902-1.602-3.703
		c-0.601-0.602-0.801-0.802-1.602-1.102C209.515,67.051,205.312,70.353,205.312,70.754z"/>
	<path fill="#FEFEFE" d="M191.8,67.351c0.102,0.801,0.901,1.501,1.702,1.601c1.2,0.2,1.801-0.8,1.801-1.601H191.8z"/>
	<path fill="#FEFEFE" d="M29.467,93.271l-3.102,0.201c-0.802-7.006-0.201-14.813,2.501-23.92h1.901l4.904,12.51
		c2.102-4.403,5.004-8.407,8.808-11.81h2.603c0.199,7.406-1.803,14.111,0.399,22.218l-2.701,1.101
		c-1.701-2.803-1.402-10.809-0.301-21.017c-3.402,4.103-5.805,8.207-7.506,12.41l4.104,6.406l-1.202,2.201
		c-3.003-2.602-6.104-9.508-9.308-19.016C29.166,81.162,28.866,87.468,29.467,93.271z"/>
	<path fill="#FEFEFE" d="M61.794,88.068c1.5-9.508-3.403-11.31-8.607-8.507l1.701,1.801c3.903-2.302,5.104,1.3,4.905,5.304
		c-12.512-5.104-11.41,12.611,1.199,4.804l0.901,0.9l2.303-1.501C63.694,89.77,62.895,88.768,61.794,88.068z M54.587,88.068
		c-2.501,2.102-0.8,4.803,3.903,2.501C61.993,88.869,56.489,87.167,54.587,88.068z"/>
	<path fill="#FEFEFE" d="M70.901,86.167l0.2-8.007L68.6,79.661c-0.602,6.506,1.301,18.916-5.905,19.717l0.1,2.401
		C67.898,101.779,71.001,97.375,70.901,86.167z"/>
	<path fill="#FEFEFE" d="M86.313,88.068c1.4-9.508-3.402-11.31-8.707-8.507l1.701,1.801c3.904-2.302,5.204,1.3,5.004,5.304
		c-12.51-5.104-11.509,12.611,1.202,4.804l0.8,0.9l2.402-1.501C88.114,89.77,87.314,88.768,86.313,88.068z M78.908,88.068
		c-2.503,2.102-0.801,4.803,3.903,2.501C86.313,88.869,80.81,87.167,78.908,88.068z"/>
	<path fill="#FEFEFE" d="M93.02,93.473c-0.901-8.107-1.001-16.214-0.701-24.321l2.503,1.501l0.699,22.218L93.02,93.473z"/>
	<path fill="#FEFEFE" d="M101.025,83.364c-1.602-1.101-2.302-2.902-2.201-5.205h2.802c0,1.202,0.2,2.303,0.801,2.803
		c10.509-8.807,14.913,7.206,1.101,3.704c-2.201,5.904,2.703,8.606,7.507,4.303l2.102,1.501
		C107.53,96.875,97.924,92.871,101.025,83.364z M108.031,80.762c-1.601-0.1-3.604,1.402-3.102,2.102
		C107.73,83.364,111.935,81.362,108.031,80.762z"/>
	<path fill="#FEFEFE" d="M117.238,78.86l0.301,14.913l2.702-1.702c-1.2-8.006,0.4-11.908,3.203-11.809
		c3.102,0,3.702,4.704,3.402,11.809v1.603l2.503-1.201l-0.101-7.606c-0.601-6.605-3.603-9.708-9.408-4.804l-0.1-1.201H117.238z"/>
	<path fill="#FEFEFE" d="M147.063,89.87c0.8,13.61-14.712,16.412-15.412,6.704h2.301c0.701,7.107,10.009,4.305,10.309-4.303
		c-11.81,6.104-13.712-8.207-9.808-11.609C141.959,74.156,148.766,80.962,147.063,89.87z M135.854,84.064
		c-1.602,6.505,4.104,9.908,8.807,5.205C145.562,80.061,137.956,77.66,135.854,84.064z"/>
	<path fill="#FEFEFE" d="M155.771,69.252l-2.503,0.801c0.4,8.207-0.1,15.812-2.302,21.718l3.903,1.601
		c1.602-0.501,3.002-2.001,4.402-4.103c0.502,1.701,1.202,3.102,2.203,4.002l1.702-1.701c-1.402-1.4-2.103-3.502-2.503-6.104
		c0.9-2.402,1.301-4.905,1.401-7.307h-2.603c-0.1,6.006-1.902,10.009-5.004,12.21C155.971,83.665,156.571,76.759,155.771,69.252z"/>
	<path fill="none" d="M153.368,72.555c2.103,1.601,1.401,0.901,2.803,2.702"/>
	<path fill="#FEFEFE" d="M177.388,87.867c1.402-9.407-3.402-11.209-8.706-8.406l1.701,1.802c3.903-2.403,5.104,1.201,5.004,5.304
		c-12.51-5.104-11.51,12.511,1.102,4.704l0.899,0.901l2.402-1.502C179.19,89.568,178.39,88.668,177.388,87.867z M170.082,87.968
		c-2.402,2.102-0.701,4.804,3.903,2.401C177.589,88.668,171.984,86.967,170.082,87.968z"/>
	<path fill="#FEFEFE" d="M37.073,65.149c0.9,0,1.501,0.601,1.501,1.401c0,0.8-0.601,1.401-1.501,1.401
		c-0.801,0-1.502-0.601-1.502-1.401C35.571,65.75,36.272,65.149,37.073,65.149z"/>
	<path fill="#FEFEFE" d="M34.871,68.252c0.9,0,1.502,0.6,1.502,1.401c0,0.8-0.602,1.401-1.502,1.401c-0.8,0-1.5-0.601-1.5-1.401
		C33.371,68.852,34.071,68.252,34.871,68.252z"/>
	<path fill="#FEFEFE" d="M38.874,68.652c0.901,0,1.503,0.601,1.503,1.401c0,0.8-0.602,1.401-1.503,1.401c-0.8,0-1.5-0.601-1.5-1.401
		C37.374,69.252,38.074,68.652,38.874,68.652z"/>
	<path fill="#FEFEFE" d="M56.39,73.556c0.8,0,1.501,0.6,1.501,1.401c0,0.7-0.701,1.4-1.501,1.4c-0.9,0-1.502-0.701-1.502-1.4
		C54.888,74.156,55.489,73.556,56.39,73.556z"/>
	<path fill="#FEFEFE" d="M69.7,73.957c0.801,0,1.501,0.6,1.501,1.4c0,0.701-0.7,1.401-1.501,1.401c-0.9,0-1.501-0.701-1.501-1.401
		C68.199,74.557,68.8,73.957,69.7,73.957z"/>
	<path fill="#FEFEFE" d="M80.81,73.556c0.9,0,1.501,0.701,1.501,1.501c0,0.701-0.601,1.401-1.501,1.401
		c-0.802,0-1.502-0.7-1.502-1.401C79.308,74.257,80.008,73.556,80.81,73.556z"/>
	<path fill="#FEFEFE" d="M105.129,73.856c1.502,0.8,2.503,0.8,2.803-0.5l1.101,0.3c-1.502,4.503-5.104-1.001-6.906,1.501l-1-0.2
		C101.626,74.156,102.227,72.155,105.129,73.856z"/>
	<path fill="#FEFEFE" d="M124.346,71.455c-1.002,1.701-2.203,3.102-3.704,4.403l0.801,0.5c1.802-1,3.103-2.301,4.004-3.603
		C125.046,72.355,124.646,71.854,124.346,71.455z"/>
	<path fill="#FEFEFE" d="M142.56,70.653c-0.9,1.602-2.102,3.103-3.604,4.404l0.803,0.5c1.7-1.101,3.001-2.302,4.002-3.604
		C143.361,71.555,142.96,71.054,142.56,70.653z"/>
	<path fill="#FEFEFE" d="M140.958,69.052c-0.9,1.601-2.101,3.103-3.603,4.304l0.801,0.5c1.802-1.001,3.103-2.202,4.004-3.603
		C141.76,69.853,141.358,69.453,140.958,69.052z"/>
	<path fill="#FEFEFE" d="M171.585,73.556c0.799,0,1.5,0.6,1.5,1.401c0,0.801-0.701,1.4-1.5,1.4c-0.802,0-1.503-0.6-1.503-1.4
		C170.082,74.156,170.783,73.556,171.585,73.556z"/>
	<g>
		<polygon fill="#FEFEFE" points="24.263,105.482 237.737,105.482 237.737,107.583 24.263,107.583 		"/>
		<path fill="#FEFEFE" d="M32.069,117.492h-1.201v-3.702c0-0.302,0-0.802,0-1.202l0,0c0,0-0.101,0.101-0.101,0.201
			c0,0.099,0,0.199-0.099,0.299c0,0.101,0,0.101,0,0.2c0,0.102-0.102,0.102-0.102,0.102l-1.101,2.201h-1.001l-1.101-2.201
			c0,0,0,0,0-0.102c0,0-0.1-0.1-0.1-0.2c0-0.1,0-0.1-0.102-0.2c0-0.099,0-0.199,0-0.3h-0.098c0.098,0.201,0.098,0.5,0.098,0.7
			s0,0.401,0,0.502v3.702h-1.2v-6.104h1.601l1.103,2.101c0,0.101,0.1,0.201,0.1,0.201c0,0.101,0.1,0.199,0.1,0.3
			c0,0,0,0.102,0.101,0.199c0,0.102,0,0.102,0,0.2l0,0c0.1-0.099,0.1-0.099,0.1-0.2c0-0.098,0-0.199,0.1-0.3c0,0,0-0.099,0-0.199
			s0.101-0.101,0.101-0.201l1.102-2.101h1.701V117.492z M50.583,117.492h-1.5l-0.4-1.4h-2.201l-0.401,1.4h-1.501l2.202-6.104h1.602
			L50.583,117.492z M48.282,115.091l-0.601-2.103c-0.1-0.101-0.1-0.3-0.1-0.501l0,0c-0.101,0.201-0.101,0.4-0.101,0.501l-0.7,2.103
			H48.282z M68.099,117.492h-1.702l-1.802-2.703c0,0,0-0.099-0.099-0.3l0,0v3.003h-1.401v-6.104h1.401v2.902l0,0
			c0-0.102,0.099-0.199,0.099-0.401l1.703-2.501h1.601l-2.102,2.902L68.099,117.492z M86.614,117.492h-1.202v-3.702
			c0-0.302,0-0.802,0-1.202l0,0c0,0,0,0.101-0.099,0.201c0,0.099,0,0.199,0,0.299c-0.101,0.101-0.101,0.101-0.101,0.2
			c0,0.102-0.1,0.102-0.1,0.102l-1.102,2.201h-1.001l-1.1-2.201c0,0,0,0,0-0.102c0,0-0.102-0.1-0.102-0.2c0-0.1,0-0.1-0.1-0.2
			c0-0.099,0-0.199,0-0.3h-0.101c0.101,0.201,0.101,0.5,0.101,0.7s0,0.401,0,0.502v3.702h-1.201v-6.104h1.602l1.102,2.101
			c0,0.101,0.1,0.201,0.1,0.201c0,0.101,0.1,0.199,0.1,0.3c0,0,0,0.102,0.101,0.199c0,0.102,0,0.102,0,0.2l0,0
			c0.1-0.099,0.1-0.099,0.1-0.2c0-0.098,0-0.199,0.1-0.3c0,0,0-0.099,0-0.199c0.101-0.101,0.101-0.101,0.101-0.201l1.101-2.101
			h1.702V117.492z M102.326,114.789c0,1.902-0.8,2.803-2.502,2.803c-1.601,0-2.501-0.9-2.501-2.702v-3.502h1.4v3.502
			c0,1.001,0.4,1.502,1.101,1.502c0.802,0,1.201-0.501,1.201-1.401v-3.603h1.301V114.789z M120.542,117.492h-1.602l-0.9-1.602
			c-0.101-0.101-0.2-0.2-0.2-0.3c-0.101-0.102-0.2-0.2-0.2-0.2c-0.101-0.101-0.201-0.2-0.201-0.2c-0.099,0-0.2-0.1-0.3-0.1h-0.301
			v2.401h-1.4v-6.104h2.202c1.401,0,2.201,0.601,2.201,1.7c0,0.2-0.1,0.4-0.1,0.501c-0.1,0.201-0.2,0.4-0.3,0.502
			c-0.101,0.199-0.301,0.298-0.4,0.398c-0.201,0.1-0.4,0.201-0.602,0.201v0.099c0.101,0,0.201,0,0.302,0.101
			c0.099,0.101,0.099,0.101,0.199,0.201c0.101,0.1,0.2,0.199,0.2,0.3c0.1,0.099,0.2,0.2,0.2,0.3L120.542,117.492z M116.838,112.389
			v1.702h0.601c0.301,0,0.501-0.102,0.7-0.202c0.102-0.199,0.201-0.4,0.201-0.7c0-0.5-0.3-0.8-0.901-0.8H116.838z M142.359,117.492
			v-6.104h2.201c0.602,0,1.102,0.2,1.503,0.399c0.4,0.201,0.499,0.602,0.499,1.002c0,0.399-0.099,0.601-0.3,0.9
			c-0.199,0.199-0.5,0.401-0.801,0.499l0,0c0.401,0.102,0.7,0.2,1.002,0.502c0.3,0.3,0.399,0.6,0.399,1c0,0.5-0.2,0.9-0.601,1.302
			c-0.399,0.3-0.9,0.5-1.602,0.5H142.359z M143.66,112.389v1.5h0.601c0.3,0,0.501-0.099,0.701-0.199c0.1-0.201,0.2-0.401,0.2-0.602
			c0-0.5-0.301-0.699-1.001-0.699H143.66z M143.66,114.89v1.601h0.802c0.3,0,0.5-0.099,0.7-0.3c0.2-0.099,0.3-0.3,0.3-0.6
			c0-0.2-0.1-0.4-0.3-0.5c-0.2-0.201-0.4-0.201-0.7-0.201H143.66z M160.875,117.492h-3.603v-6.104h3.503v1.1h-2.103v1.401h1.901
			v1.102h-1.901v1.401h2.202V117.492z M176.387,117.492h-1.601l-0.9-1.602c-0.101-0.101-0.201-0.2-0.201-0.3
			c-0.1-0.102-0.199-0.2-0.199-0.2c-0.101-0.101-0.2-0.2-0.2-0.2c-0.101,0-0.2-0.1-0.301-0.1h-0.3v2.401h-1.401v-6.104h2.202
			c1.4,0,2.201,0.601,2.201,1.7c0,0.2-0.1,0.4-0.1,0.501c-0.101,0.201-0.2,0.4-0.301,0.502c-0.099,0.199-0.299,0.298-0.4,0.398
			c-0.2,0.1-0.399,0.201-0.6,0.201v0.099c0.1,0,0.2,0,0.3,0.101s0.1,0.101,0.2,0.201c0.1,0.1,0.201,0.199,0.201,0.3
			c0.099,0.099,0.2,0.2,0.2,0.3L176.387,117.492z M172.685,112.389v1.702h0.601c0.3,0,0.5-0.102,0.7-0.202
			c0.101-0.199,0.2-0.4,0.2-0.7c0-0.5-0.3-0.8-0.9-0.8H172.685z M186.095,117.191v-1.301c0.201,0.201,0.501,0.3,0.802,0.4
			s0.6,0.199,0.9,0.199c0.1,0,0.301,0,0.4-0.099c0.101,0,0.199,0,0.301-0.101c0.1,0,0.199-0.101,0.199-0.199
			c0.1-0.101,0.1-0.101,0.1-0.201s-0.1-0.2-0.1-0.3c-0.1-0.102-0.199-0.2-0.301-0.301c-0.099-0.1-0.299-0.1-0.399-0.199
			c-0.2-0.101-0.301-0.201-0.501-0.201c-0.5-0.199-0.9-0.501-1.101-0.799c-0.199-0.202-0.301-0.603-0.301-1.003
			c0-0.299,0-0.601,0.201-0.8c0.1-0.202,0.3-0.401,0.5-0.501c0.2-0.199,0.401-0.301,0.7-0.399c0.301,0,0.602-0.101,0.9-0.101
			c0.301,0,0.602,0,0.902,0.101c0.199,0,0.399,0.099,0.601,0.2v1.201c-0.101-0.101-0.201-0.101-0.301-0.201
			c-0.101,0-0.2-0.101-0.4-0.101c-0.101,0-0.2-0.099-0.3-0.099c-0.201,0-0.301,0-0.4,0c-0.102,0-0.301,0-0.4,0
			c-0.101,0.099-0.201,0.099-0.301,0.199c-0.101,0-0.199,0.101-0.199,0.201c-0.102,0-0.102,0.099-0.102,0.199c0,0.1,0,0.2,0.102,0.3
			c0,0.102,0.099,0.102,0.199,0.2c0.1,0.101,0.2,0.101,0.4,0.201c0.101,0.101,0.301,0.101,0.4,0.199
			c0.301,0.101,0.5,0.202,0.701,0.3c0.199,0.2,0.3,0.301,0.5,0.4c0.101,0.2,0.2,0.301,0.3,0.502
			c0.101,0.199,0.101,0.398,0.101,0.699c0,0.302-0.101,0.602-0.2,0.801c-0.1,0.2-0.301,0.401-0.501,0.601
			c-0.199,0.101-0.5,0.201-0.801,0.301c-0.301,0-0.6,0.1-0.9,0.1s-0.6-0.1-0.9-0.1C186.596,117.393,186.296,117.292,186.095,117.191
			z M205.912,117.492h-1.502l-0.399-1.4h-2.103l-0.4,1.4h-1.501l2.202-6.104h1.601L205.912,117.492z M203.71,115.091l-0.601-2.103
			c-0.1-0.101-0.1-0.3-0.1-0.501h-0.101c0,0.201,0,0.4-0.101,0.501l-0.6,2.103H203.71z M222.225,117.492h-1.2v-3.702
			c0-0.302,0-0.802,0.1-1.202h-0.1c0,0,0,0.101,0,0.201c-0.101,0.099-0.101,0.199-0.101,0.299c0,0.101-0.1,0.101-0.1,0.2
			c0,0.102,0,0.102,0,0.102l-1.201,2.201h-0.9l-1.101-2.201c-0.102,0-0.102,0-0.102-0.102c0,0,0-0.1-0.099-0.2c0-0.1,0-0.1,0-0.2
			c0-0.099-0.101-0.199-0.101-0.3l0,0c0,0.201,0,0.5,0,0.7s0,0.401,0,0.502v3.702h-1.201v-6.104h1.702l0.999,2.101
			c0.102,0.101,0.102,0.201,0.102,0.201c0.1,0.101,0.1,0.199,0.1,0.3c0,0,0.101,0.102,0.101,0.199c0,0.102,0,0.102,0.1,0.2l0,0
			c0-0.099,0-0.099,0-0.2c0-0.098,0.101-0.199,0.101-0.3c0,0,0-0.099,0.1-0.199c0-0.101,0-0.101,0-0.201l1.102-2.101h1.7V117.492z
			 M236.036,117.492h-1.501l-0.4-1.4h-2.202l-0.399,1.4h-1.501l2.2-6.104h1.603L236.036,117.492z M233.835,115.091l-0.701-2.103
			c0-0.101-0.1-0.3-0.1-0.501l0,0c0,0.201-0.101,0.4-0.101,0.501l-0.701,2.103H233.835z"/>
		<polygon fill="#FEFEFE" points="24.263,121.296 237.737,121.296 237.737,123.297 24.263,123.297 		"/>
	</g>
</g>
</svg>
