<?xml version="1.0" encoding="utf-8"?>
<!-- Generator: Adobe Illustrator 16.0.0, SVG Export Plug-In . SVG Version: 6.00 Build 0)  -->
<!DOCTYPE svg PUBLIC "-//W3C//DTD SVG 1.1//EN" "http://www.w3.org/Graphics/SVG/1.1/DTD/svg11.dtd">
<svg version="1.1" id="Layer_1" xmlns="http://www.w3.org/2000/svg" xmlns:xlink="http://www.w3.org/1999/xlink" x="0px" y="0px"
	 width="196.875px" height="138.375px" viewBox="0 0 196.875 138.375" enable-background="new 0 0 196.875 138.375"
	 xml:space="preserve">
<g id="Layer_x0020_1">
	
		<radialGradient id="SVGID_1_" cx="11.0767" cy="110.532" r="0.5" gradientTransform="matrix(196.5103 0 0 -138.007 -2078.1526 15323.4375)" gradientUnits="userSpaceOnUse">
		<stop  offset="0" style="stop-color:#1AB3EB"/>
		<stop  offset="1" style="stop-color:#009DD6"/>
	</radialGradient>
	<polygon fill="url(#SVGID_1_)" points="0.182,0.183 196.693,0.183 196.693,138.19 0.182,138.19 	"/>
	<g>
		<defs>
			<rect id="SVGID_2_" x="0.182" y="0.183" width="196.511" height="138.007"/>
		</defs>
		<clipPath id="SVGID_3_">
			<use xlink:href="#SVGID_2_"  overflow="visible"/>
		</clipPath>
		<g clip-path="url(#SVGID_3_)">
			<g id="_582224104">
				<g>
					<path id="_x31_" fill="#FEFEFE" d="M133.724,85.624c-0.744-3.01,0.761-6.003,0.761-8.995c0-2.266-0.761-3.01-3.009-2.266
						c-1.488,3.01-2.25,6.763-3.754,9.756c-2.993,6.003-5.242,0.744-3.737-3.754c0.744-2.249,2.249-7.49,3.737-9.739
						c0.76-0.761,3.01,0,3.01,1.488c3.753-2.993,6.746-1.488,8.25,1.505c0.744,1.505,0,3.01-0.76,5.258
						c-0.744,2.993-0.744,6.747,1.504,9.74C141.232,90.122,134.485,90.122,133.724,85.624L133.724,85.624L133.724,85.624
						L133.724,85.624z"/>
					<path fill="#FEFEFE" d="M113.484,75.868c0,2.248-0.76,3.753-0.76,6.002c0,0.744-0.744,6.003,0.76,2.249
						c1.488-2.993,2.994-6.003,4.498-8.995c1.505-6.003,5.242-3.754,4.498-1.505c0,3.754-2.993,7.507-1.505,11.261
						c0.761,1.488,1.505,2.993,3.754,2.993c0.743-0.744-0.744,0.744-2.249,1.505c-2.993,0.744-4.498-2.249-4.498-4.498
						c-2.248,3.737-6.746,8.995-8.995,1.488c-0.761-2.993,0.744-7.491,1.488-10.5C112.724,70.626,114.972,72.114,113.484,75.868
						L113.484,75.868L113.484,75.868L113.484,75.868z"/>
					<path fill="#FEFEFE" d="M84.233,80.365c0-2.992,0.744-5.241,0-7.49c0-1.505-2.249-2.249-3.01-0.761
						c-1.488,3.754-1.488,9.756-4.498,12.766c-0.744,1.488-2.993,1.488-2.993,1.488c-1.505-0.744,0-4.498,0-5.242
						c0.744-3.01,2.249-6.746,2.993-12.749c0.761-3.01,3.01-2.249,3.754,0.744l1.504-0.744c0.744-1.505,2.249-1.505,3.737-0.761
						c4.514,0.761,3.009,9.757,5.258,16.503c0,2.249,1.505,1.505,2.993,2.249c0.761,0-0.744,1.505-2.993,2.249
						C85.721,90.865,84.233,84.119,84.233,80.365L84.233,80.365L84.233,80.365L84.233,80.365L84.233,80.365L84.233,80.365z"/>
					<path fill="#FEFEFE" d="M58.735,33.867c-3.753,6.746-9.012,17.247-11.261,21c13.51-0.744,18.007,8.252,9.756,19.513
						c-5.258,6.746-13.493,8.995-19.496,14.237c-1.505,7.507-6.002,6.746-5.258-0.744v-9.757l2.249-9.739
						c-2.249-3.01-1.488-6.002,1.504-8.251c2.249-9.012,5.242-18.752,9.756-27.003C55.725,14.371,67.73,16.62,58.735,33.867
						L58.735,33.867L58.735,33.867L58.735,33.867L58.735,33.867z M43.737,64.624c-1.504,3.753-4.514,14.997-5.258,20.256
						l6.002-4.515c3.754-2.992,12.749-8.995,11.244-14.998C54.981,60.126,46.73,61.614,43.737,64.624L43.737,64.624L43.737,64.624
						L43.737,64.624z"/>
					<path fill="#FEFEFE" d="M96.221,48.865c0.761,5.258,3.01,13.51,4.515,18.751c-9.012-2.249-12.75,5.259-8.251,13.51
						c2.249,5.242,6.747,7.491,11.244,8.996c0,5.241,3.754,5.241,3.754,0c0-3.754,0.744-8.252,0-12.749
						c2.249-1.505,1.505-3.754,0-5.259c-1.504-7.49-3.01-17.247-6.746-23.249C98.487,45.872,95.477,43.623,96.221,48.865
						L96.221,48.865L96.221,48.865L96.221,48.865z M97.726,77.373c-1.505,1.504-2.993,3.753-2.249,5.241c0.744,0,1.505,0,2.249,0
						c0.761,0,0.761,0,1.505,0.761l1.505,0.744c2.248-1.505,2.992-4.498,1.488-6.003l0,0c2.248,0.761,7.507-2.248,4.497-4.497
						c0-0.744-0.743-0.744-0.743-1.505c0-1.488-1.506-2.249-2.994-1.488c-0.76,0.744-2.248,1.488-2.248,2.993
						c-1.505-4.498-4.515-4.498-6.003-2.249c0,0.744,0,1.505-0.761,1.505C91.724,75.124,93.229,77.373,97.726,77.373L97.726,77.373
						L97.726,77.373L97.726,77.373L97.726,77.373L97.726,77.373z M100.736,74.38c-0.762,0-0.762,0-0.762,0.744c0,0,0,0,0.762,0l0,0
						C100.736,74.38,100.736,74.38,100.736,74.38L100.736,74.38z M98.487,76.629v0.744l0,0c0.744,0,0.744,0,0.744,0
						S99.231,76.629,98.487,76.629z M98.487,75.868c-0.761,0-0.761,0.761-0.761,0.761s0,0,0.761,0l0,0V75.868L98.487,75.868z
						 M97.726,75.124c0,0,0,0,0,0.744c0,0,0,0,0.761,0c0,0,0,0,0-0.744C98.487,75.124,98.487,75.124,97.726,75.124L97.726,75.124z
						 M98.487,74.38L98.487,74.38c0,0.744,0,0.744,0,0.744c0.744,0,0.744,0,0.744-0.744H98.487L98.487,74.38z M99.231,74.38
						L99.231,74.38c0,0,0,0.744,0.743,0.744V74.38C99.974,74.38,99.974,74.38,99.231,74.38L99.231,74.38z M99.974,78.116
						c-0.743,0,0-1.487,0-1.487h-0.743c-1.505-0.761,0.743-2.266,1.505-0.761c0,0,0,0,0,0.761c0-0.761,1.488-1.505,1.488-0.761
						l-1.488,0.761c0,0.744,0,0.744-0.762,0V78.116L99.974,78.116L99.974,78.116z"/>
					<path fill="#FEFEFE" d="M74.477,90.122c4.498,4.497,8.251,8.995,12.749,12.749c5.259,4.497,13.51,8.251,20.256,8.251
						c16.503,0,35.254-12.749,39.752-22.505c-6.002,0-8.252-2.993-6.746-7.491c1.488-6.002,7.49-8.251,11.988-11.261
						c0.76-4.498,3.754-2.993,3.01,0.761c0,2.993-1.506,7.49-2.25,10.5c0,0.744,1.488-2.249,2.994-3.01
						c2.992-1.487,4.497,1.505,1.504,3.754c-1.504,0.744-5.258,2.993-6.002,5.259c-17.247,29.234-62.257,49.491-75.75,6.746
						c-0.761-1.505-2.249-1.505-3.753-0.761c-1.505,0.761-2.249,1.505-2.993,2.249c-0.761,0.761-1.504,0.761-1.504,0
						C68.474,92.37,72.972,88.617,74.477,90.122L74.477,90.122L74.477,90.122L74.477,90.122L74.477,90.122L74.477,90.122z
						 M150.227,82.614c1.505-2.249,1.505-6.746,2.249-9.739c-2.249,1.505-14.254,8.995-8.252,11.988
						C146.473,85.624,149.483,84.863,150.227,82.614L150.227,82.614L150.227,82.614L150.227,82.614z"/>
					<path fill="#FEFEFE" d="M69.979,70.626c2.993-2.249,2.249,4.498,1.505,6.003c-1.505,2.248-2.249,4.497-2.249,6.746
						c0,2.993,3.737,3.754,3.737,3.754c0,3.736-7.491,4.497-8.235-0.761c0-1.488,0-3.754,0.744-7.491l0,0
						c-1.505,2.249-4.498,6.003-7.507,6.003c-2.249,0-3.737-0.761-2.993-4.515c0-1.488,1.504-3.736,2.249-5.241
						C60.984,71.37,69.979,67.616,69.979,70.626c-2.249,0-7.507,4.498-9.756,6.747c-2.249,2.248,0,3.753,2.249,0.743
						C63.977,76.629,66.986,72.875,69.979,70.626L69.979,70.626L69.979,70.626L69.979,70.626L69.979,70.626L69.979,70.626z"/>
					<circle fill="#FEFEFE" cx="162.232" cy="78.116" r="2.249"/>
					<path fill="#16B0E8" d="M97.726,77.373c-1.505,1.504-2.993,3.753-2.249,5.241c0.744,0,1.505,0,2.249,0
						c0.761,0,0.761,0,1.505,0.761l1.505,0.744c2.248-1.505,2.992-4.498,1.488-6.003l0,0c2.248,0.761,7.507-2.248,4.497-4.497
						c0-0.744-0.743-0.744-0.743-1.505c0-1.488-1.506-2.249-2.994-1.488c-0.76,0.744-2.248,1.488-2.248,2.993
						c-1.505-4.498-4.515-4.498-6.003-2.249c0,0.744,0,1.505-0.761,1.505C91.724,75.124,93.229,77.373,97.726,77.373L97.726,77.373
						L97.726,77.373L97.726,77.373L97.726,77.373L97.726,77.373z M100.736,74.38c-0.762,0-0.762,0-0.762,0.744c0,0,0,0,0.762,0l0,0
						C100.736,74.38,100.736,74.38,100.736,74.38L100.736,74.38z M98.487,76.629v0.744l0,0c0.744,0,0.744,0,0.744,0
						S99.231,76.629,98.487,76.629z M98.487,75.868c-0.761,0-0.761,0.761-0.761,0.761s0,0,0.761,0l0,0V75.868L98.487,75.868z
						 M97.726,75.124c0,0,0,0,0,0.744c0,0,0,0,0.761,0c0,0,0,0,0-0.744C98.487,75.124,98.487,75.124,97.726,75.124L97.726,75.124z
						 M98.487,74.38L98.487,74.38c0,0.744,0,0.744,0,0.744c0.744,0,0.744,0,0.744-0.744H98.487L98.487,74.38z M99.231,74.38
						L99.231,74.38c0,0,0,0.744,0.743,0.744V74.38C99.974,74.38,99.974,74.38,99.231,74.38L99.231,74.38z M99.974,78.116
						c-0.743,0,0-1.487,0-1.487h-0.743c-1.505-0.761,0.743-2.266,1.505-0.761c0,0,0,0,0,0.761c0-0.761,1.488-1.505,1.488-0.761
						l-1.488,0.761c0,0.744,0,0.744-0.762,0V78.116L99.974,78.116L99.974,78.116z"/>
					<path fill="#16B0E8" d="M102.984,78.116c0,0.761,0,1.505,0.744,2.249c0.744,1.505,1.506,3.754,0.744,6.003
						c-0.744,3.754,2.249,3.01,1.506,0.761c0-1.505,0-3.754-0.744-5.259C104.472,80.365,103.728,78.877,102.984,78.116
						L102.984,78.116L102.984,78.116L102.984,78.116L102.984,78.116z"/>
				</g>
			</g>
		</g>
	</g>
	<polygon fill="none" stroke="#FEFEFE" stroke-width="22.6282" points="0.182,0.183 196.693,0.183 196.693,138.19 0.182,138.19 	"/>
</g>
<rect x="0.182" y="-1.349" fill="#75CCD0" width="196.511" height="139.724"/>
<g>
	<path fill="#FEFEFE" d="M31.905,76.656l-2.852,0.188c-0.738-6.443-0.186-13.622,2.299-21.997H33.1l4.51,11.504
		c1.932-4.049,4.601-7.73,8.099-10.859h2.394c0.184,6.811-1.658,12.975,0.367,20.43l-2.484,1.01
		c-1.564-2.576-1.289-9.938-0.276-19.323c-3.128,3.771-5.338,7.546-6.901,11.411l3.773,5.891l-1.105,2.021
		c-2.762-2.391-5.613-8.742-8.559-17.483C31.627,65.523,31.352,71.32,31.905,76.656z"/>
	<path fill="#FEFEFE" d="M61.629,71.873c1.379-8.743-3.129-10.399-7.915-7.823l1.563,1.656c3.59-2.116,4.695,1.195,4.512,4.877
		C48.286,65.89,49.297,82.177,60.892,75l0.829,0.828l2.117-1.379C63.376,73.439,62.642,72.517,61.629,71.873z M55.002,71.873
		c-2.3,1.932-0.736,4.416,3.588,2.299C61.811,72.609,56.75,71.045,55.002,71.873z"/>
	<path fill="#FEFEFE" d="M70.003,70.125l0.183-7.362l-2.299,1.381c-0.555,5.981,1.196,17.393-5.432,18.127l0.094,2.211
		C67.241,84.482,70.095,80.431,70.003,70.125z"/>
	<path fill="#FEFEFE" d="M84.174,71.873c1.287-8.743-3.129-10.399-8.006-7.823l1.562,1.656c3.59-2.116,4.785,1.195,4.602,4.877
		C70.831,65.89,71.75,82.177,83.438,75l0.736,0.828l2.209-1.379C85.83,73.439,85.094,72.517,84.174,71.873z M77.365,71.873
		c-2.3,1.932-0.737,4.416,3.589,2.299C84.174,72.609,79.114,71.045,77.365,71.873z"/>
	<path fill="#FEFEFE" d="M90.341,76.844c-0.829-7.453-0.922-14.91-0.645-22.364l2.3,1.379l0.645,20.43L90.341,76.844z"/>
	<path fill="#FEFEFE" d="M97.701,67.548c-1.472-1.012-2.116-2.669-2.023-4.786h2.576c0,1.105,0.185,2.117,0.736,2.577
		c9.664-8.098,13.712,6.625,1.014,3.405c-2.023,5.43,2.484,7.914,6.901,3.957l1.934,1.381C103.683,79.97,94.85,76.289,97.701,67.548
		z M104.142,65.156c-1.471-0.092-3.314,1.289-2.852,1.934C103.867,67.548,107.732,65.706,104.142,65.156z"/>
	<path fill="#FEFEFE" d="M112.608,63.406l0.276,13.713l2.484-1.564c-1.104-7.363,0.369-10.95,2.945-10.859
		c2.853,0,3.404,4.326,3.13,10.859v1.473l2.301-1.104l-0.093-6.994c-0.553-6.073-3.312-8.926-8.65-4.417l-0.091-1.105h-2.302
		L112.608,63.406L112.608,63.406z"/>
	<path fill="#FEFEFE" d="M140.031,73.529c0.737,12.516-13.524,15.093-14.17,6.166h2.116c0.644,6.535,9.203,3.957,9.479-3.957
		c-10.859,5.611-12.607-7.546-9.019-10.674C135.339,59.081,141.598,65.339,140.031,73.529z M129.726,68.192
		c-1.473,5.98,3.773,9.111,8.099,4.787C138.653,64.511,131.659,62.302,129.726,68.192z"/>
	<path fill="#FEFEFE" d="M148.041,54.572l-2.304,0.737c0.368,7.546-0.09,14.539-2.115,19.968l3.588,1.473
		c1.473-0.461,2.761-1.84,4.049-3.771c0.461,1.562,1.104,2.852,2.025,3.678l1.564-1.564c-1.289-1.287-1.935-3.219-2.303-5.611
		c0.827-2.209,1.197-4.51,1.289-6.719h-2.394c-0.092,5.523-1.75,9.204-4.603,11.227C148.222,67.825,148.775,61.475,148.041,54.572z"
		/>
	<path fill="none" d="M145.83,57.609c1.934,1.473,1.289,0.828,2.577,2.484"/>
	<path fill="#FEFEFE" d="M167.917,71.689c1.288-8.651-3.13-10.307-8.007-7.731l1.563,1.657c3.591-2.21,4.693,1.104,4.603,4.876
		c-11.504-4.692-10.584,11.504,1.013,4.326l0.828,0.828l2.207-1.383C169.573,73.252,168.838,72.426,167.917,71.689z M161.199,71.781
		c-2.208,1.932-0.646,4.416,3.588,2.209C168.101,72.426,162.948,70.861,161.199,71.781z"/>
	<path fill="#FEFEFE" d="M38.899,50.8c0.827,0,1.379,0.552,1.379,1.287s-0.552,1.287-1.379,1.287c-0.736,0-1.381-0.553-1.381-1.287
		C37.518,51.352,38.163,50.8,38.899,50.8z"/>
	<path fill="#FEFEFE" d="M36.874,53.652c0.827,0,1.381,0.553,1.381,1.289s-0.554,1.288-1.381,1.288
		c-0.735,0-1.379-0.553-1.379-1.288C35.494,54.204,36.138,53.652,36.874,53.652z"/>
	<path fill="#FEFEFE" d="M40.553,54.02c0.828,0,1.383,0.552,1.383,1.288s-0.555,1.287-1.383,1.287c-0.734,0-1.377-0.551-1.377-1.287
		S39.819,54.02,40.553,54.02z"/>
	<path fill="#FEFEFE" d="M56.66,58.53c0.737,0,1.381,0.552,1.381,1.287c0,0.646-0.644,1.287-1.381,1.287
		c-0.827,0-1.382-0.644-1.382-1.287C55.278,59.081,55.832,58.53,56.66,58.53z"/>
	<path fill="#FEFEFE" d="M68.899,58.898c0.736,0,1.381,0.552,1.381,1.287c0,0.645-0.645,1.287-1.381,1.287
		c-0.827,0-1.379-0.644-1.379-1.287C67.52,59.45,68.07,58.898,68.899,58.898z"/>
	<path fill="#FEFEFE" d="M79.114,58.53c0.828,0,1.38,0.645,1.38,1.38c0,0.645-0.552,1.288-1.38,1.288
		c-0.738,0-1.383-0.644-1.383-1.288C77.731,59.174,78.375,58.53,79.114,58.53z"/>
	<path fill="#FEFEFE" d="M101.474,58.804c1.381,0.736,2.302,0.736,2.579-0.459l1.012,0.276c-1.382,4.14-4.694-0.921-6.351,1.38
		l-0.919-0.185C98.253,59.081,98.807,57.24,101.474,58.804z"/>
	<path fill="#FEFEFE" d="M119.145,56.597c-0.924,1.565-2.026,2.854-3.406,4.049l0.736,0.461c1.656-0.92,2.853-2.117,3.682-3.313
		C119.788,57.425,119.419,56.964,119.145,56.597z"/>
	<path fill="#FEFEFE" d="M135.892,55.86c-0.827,1.474-1.934,2.854-3.314,4.05l0.74,0.461c1.562-1.014,2.758-2.118,3.679-3.314
		C136.629,56.69,136.26,56.229,135.892,55.86z"/>
	<path fill="#FEFEFE" d="M134.418,54.388c-0.826,1.472-1.931,2.853-3.312,3.957l0.736,0.459c1.656-0.919,2.853-2.023,3.681-3.312
		C135.156,55.124,134.787,54.757,134.418,54.388z"/>
	<path fill="#FEFEFE" d="M162.58,58.53c0.736,0,1.381,0.552,1.381,1.287c0,0.736-0.645,1.287-1.381,1.287s-1.381-0.552-1.381-1.287
		S161.843,58.53,162.58,58.53z"/>
</g>
</svg>
