<?xml version="1.0" encoding="utf-8"?>
<!-- Generator: Adobe Illustrator 16.0.0, SVG Export Plug-In . SVG Version: 6.00 Build 0)  -->
<!DOCTYPE svg PUBLIC "-//W3C//DTD SVG 1.1//EN" "http://www.w3.org/Graphics/SVG/1.1/DTD/svg11.dtd">
<svg version="1.1" id="Layer_1" xmlns="http://www.w3.org/2000/svg" xmlns:xlink="http://www.w3.org/1999/xlink" x="0px" y="0px"
	 width="196.875px" height="138.375px" viewBox="0 0 196.875 138.375" enable-background="new 0 0 196.875 138.375"
	 xml:space="preserve">
<g id="Layer_x0020_1">
	
		<radialGradient id="SVGID_1_" cx="11.0767" cy="110.532" r="0.5" gradientTransform="matrix(196.5103 0 0 -138.007 -2078.1526 15323.4375)" gradientUnits="userSpaceOnUse">
		<stop  offset="0" style="stop-color:#1AB3EB"/>
		<stop  offset="1" style="stop-color:#009DD6"/>
	</radialGradient>
	<polygon fill="url(#SVGID_1_)" points="0.182,0.183 196.693,0.183 196.693,138.19 0.182,138.19 	"/>
	<g>
		<defs>
			<rect id="SVGID_2_" x="0.182" y="0.183" width="196.511" height="138.007"/>
		</defs>
		<clipPath id="SVGID_3_">
			<use xlink:href="#SVGID_2_"  overflow="visible"/>
		</clipPath>
		<g clip-path="url(#SVGID_3_)">
			<g id="_582224104">
				<g>
					<path id="_x31_" fill="#FEFEFE" d="M133.724,85.624c-0.744-3.01,0.761-6.003,0.761-8.995c0-2.266-0.761-3.01-3.009-2.266
						c-1.488,3.01-2.25,6.763-3.754,9.756c-2.993,6.003-5.242,0.744-3.737-3.754c0.744-2.249,2.249-7.49,3.737-9.739
						c0.76-0.761,3.01,0,3.01,1.488c3.753-2.993,6.746-1.488,8.25,1.505c0.744,1.505,0,3.01-0.76,5.258
						c-0.744,2.993-0.744,6.747,1.504,9.74C141.232,90.122,134.485,90.122,133.724,85.624L133.724,85.624L133.724,85.624
						L133.724,85.624z"/>
					<path fill="#FEFEFE" d="M113.484,75.868c0,2.248-0.76,3.753-0.76,6.002c0,0.744-0.744,6.003,0.76,2.249
						c1.488-2.993,2.994-6.003,4.498-8.995c1.505-6.003,5.242-3.754,4.498-1.505c0,3.754-2.993,7.507-1.505,11.261
						c0.761,1.488,1.505,2.993,3.754,2.993c0.743-0.744-0.744,0.744-2.249,1.505c-2.993,0.744-4.498-2.249-4.498-4.498
						c-2.248,3.737-6.746,8.995-8.995,1.488c-0.761-2.993,0.744-7.491,1.488-10.5C112.724,70.626,114.972,72.114,113.484,75.868
						L113.484,75.868L113.484,75.868L113.484,75.868z"/>
					<path fill="#FEFEFE" d="M84.233,80.365c0-2.992,0.744-5.241,0-7.49c0-1.505-2.249-2.249-3.01-0.761
						c-1.488,3.754-1.488,9.756-4.498,12.766c-0.744,1.488-2.993,1.488-2.993,1.488c-1.505-0.744,0-4.498,0-5.242
						c0.744-3.01,2.249-6.746,2.993-12.749c0.761-3.01,3.01-2.249,3.754,0.744l1.504-0.744c0.744-1.505,2.249-1.505,3.737-0.761
						c4.514,0.761,3.009,9.757,5.258,16.503c0,2.249,1.505,1.505,2.993,2.249c0.761,0-0.744,1.505-2.993,2.249
						C85.721,90.865,84.233,84.119,84.233,80.365L84.233,80.365L84.233,80.365L84.233,80.365L84.233,80.365L84.233,80.365z"/>
					<path fill="#FEFEFE" d="M58.735,33.867c-3.753,6.746-9.012,17.247-11.261,21c13.51-0.744,18.007,8.252,9.756,19.513
						c-5.258,6.746-13.493,8.995-19.496,14.237c-1.505,7.507-6.002,6.746-5.258-0.744v-9.757l2.249-9.739
						c-2.249-3.01-1.488-6.002,1.504-8.251c2.249-9.012,5.242-18.752,9.756-27.003C55.725,14.371,67.73,16.62,58.735,33.867
						L58.735,33.867L58.735,33.867L58.735,33.867L58.735,33.867z M43.737,64.624c-1.504,3.753-4.514,14.997-5.258,20.256
						l6.002-4.515c3.754-2.992,12.749-8.995,11.244-14.998C54.981,60.126,46.73,61.614,43.737,64.624L43.737,64.624L43.737,64.624
						L43.737,64.624z"/>
					<path fill="#FEFEFE" d="M96.221,48.865c0.761,5.258,3.01,13.51,4.515,18.751c-9.012-2.249-12.75,5.259-8.251,13.51
						c2.249,5.242,6.747,7.491,11.244,8.996c0,5.241,3.754,5.241,3.754,0c0-3.754,0.744-8.252,0-12.749
						c2.249-1.505,1.505-3.754,0-5.259c-1.504-7.49-3.01-17.247-6.746-23.249C98.487,45.872,95.477,43.623,96.221,48.865
						L96.221,48.865L96.221,48.865L96.221,48.865z M97.726,77.373c-1.505,1.504-2.993,3.753-2.249,5.241c0.744,0,1.505,0,2.249,0
						c0.761,0,0.761,0,1.505,0.761l1.505,0.744c2.248-1.505,2.992-4.498,1.488-6.003l0,0c2.248,0.761,7.507-2.248,4.497-4.497
						c0-0.744-0.743-0.744-0.743-1.505c0-1.488-1.506-2.249-2.994-1.488c-0.76,0.744-2.248,1.488-2.248,2.993
						c-1.505-4.498-4.515-4.498-6.003-2.249c0,0.744,0,1.505-0.761,1.505C91.724,75.124,93.229,77.373,97.726,77.373L97.726,77.373
						L97.726,77.373L97.726,77.373L97.726,77.373L97.726,77.373z M100.736,74.38c-0.762,0-0.762,0-0.762,0.744c0,0,0,0,0.762,0l0,0
						C100.736,74.38,100.736,74.38,100.736,74.38L100.736,74.38z M98.487,76.629v0.744l0,0c0.744,0,0.744,0,0.744,0
						S99.231,76.629,98.487,76.629z M98.487,75.868c-0.761,0-0.761,0.761-0.761,0.761s0,0,0.761,0l0,0V75.868L98.487,75.868z
						 M97.726,75.124c0,0,0,0,0,0.744c0,0,0,0,0.761,0c0,0,0,0,0-0.744C98.487,75.124,98.487,75.124,97.726,75.124L97.726,75.124z
						 M98.487,74.38L98.487,74.38c0,0.744,0,0.744,0,0.744c0.744,0,0.744,0,0.744-0.744H98.487L98.487,74.38z M99.231,74.38
						L99.231,74.38c0,0,0,0.744,0.743,0.744V74.38C99.974,74.38,99.974,74.38,99.231,74.38L99.231,74.38z M99.974,78.116
						c-0.743,0,0-1.487,0-1.487h-0.743c-1.505-0.761,0.743-2.266,1.505-0.761c0,0,0,0,0,0.761c0-0.761,1.488-1.505,1.488-0.761
						l-1.488,0.761c0,0.744,0,0.744-0.762,0V78.116L99.974,78.116L99.974,78.116z"/>
					<path fill="#FEFEFE" d="M74.477,90.122c4.498,4.497,8.251,8.995,12.749,12.749c5.259,4.497,13.51,8.251,20.256,8.251
						c16.503,0,35.254-12.749,39.752-22.505c-6.002,0-8.252-2.993-6.746-7.491c1.488-6.002,7.49-8.251,11.988-11.261
						c0.76-4.498,3.754-2.993,3.01,0.761c0,2.993-1.506,7.49-2.25,10.5c0,0.744,1.488-2.249,2.994-3.01
						c2.992-1.487,4.497,1.505,1.504,3.754c-1.504,0.744-5.258,2.993-6.002,5.259c-17.247,29.234-62.257,49.491-75.75,6.746
						c-0.761-1.505-2.249-1.505-3.753-0.761c-1.505,0.761-2.249,1.505-2.993,2.249c-0.761,0.761-1.504,0.761-1.504,0
						C68.474,92.37,72.972,88.617,74.477,90.122L74.477,90.122L74.477,90.122L74.477,90.122L74.477,90.122L74.477,90.122z
						 M150.227,82.614c1.505-2.249,1.505-6.746,2.249-9.739c-2.249,1.505-14.254,8.995-8.252,11.988
						C146.473,85.624,149.483,84.863,150.227,82.614L150.227,82.614L150.227,82.614L150.227,82.614z"/>
					<path fill="#FEFEFE" d="M69.979,70.626c2.993-2.249,2.249,4.498,1.505,6.003c-1.505,2.248-2.249,4.497-2.249,6.746
						c0,2.993,3.737,3.754,3.737,3.754c0,3.736-7.491,4.497-8.235-0.761c0-1.488,0-3.754,0.744-7.491l0,0
						c-1.505,2.249-4.498,6.003-7.507,6.003c-2.249,0-3.737-0.761-2.993-4.515c0-1.488,1.504-3.736,2.249-5.241
						C60.984,71.37,69.979,67.616,69.979,70.626c-2.249,0-7.507,4.498-9.756,6.747c-2.249,2.248,0,3.753,2.249,0.743
						C63.977,76.629,66.986,72.875,69.979,70.626L69.979,70.626L69.979,70.626L69.979,70.626L69.979,70.626L69.979,70.626z"/>
					<circle fill="#FEFEFE" cx="162.232" cy="78.116" r="2.249"/>
					<path fill="#16B0E8" d="M97.726,77.373c-1.505,1.504-2.993,3.753-2.249,5.241c0.744,0,1.505,0,2.249,0
						c0.761,0,0.761,0,1.505,0.761l1.505,0.744c2.248-1.505,2.992-4.498,1.488-6.003l0,0c2.248,0.761,7.507-2.248,4.497-4.497
						c0-0.744-0.743-0.744-0.743-1.505c0-1.488-1.506-2.249-2.994-1.488c-0.76,0.744-2.248,1.488-2.248,2.993
						c-1.505-4.498-4.515-4.498-6.003-2.249c0,0.744,0,1.505-0.761,1.505C91.724,75.124,93.229,77.373,97.726,77.373L97.726,77.373
						L97.726,77.373L97.726,77.373L97.726,77.373L97.726,77.373z M100.736,74.38c-0.762,0-0.762,0-0.762,0.744c0,0,0,0,0.762,0l0,0
						C100.736,74.38,100.736,74.38,100.736,74.38L100.736,74.38z M98.487,76.629v0.744l0,0c0.744,0,0.744,0,0.744,0
						S99.231,76.629,98.487,76.629z M98.487,75.868c-0.761,0-0.761,0.761-0.761,0.761s0,0,0.761,0l0,0V75.868L98.487,75.868z
						 M97.726,75.124c0,0,0,0,0,0.744c0,0,0,0,0.761,0c0,0,0,0,0-0.744C98.487,75.124,98.487,75.124,97.726,75.124L97.726,75.124z
						 M98.487,74.38L98.487,74.38c0,0.744,0,0.744,0,0.744c0.744,0,0.744,0,0.744-0.744H98.487L98.487,74.38z M99.231,74.38
						L99.231,74.38c0,0,0,0.744,0.743,0.744V74.38C99.974,74.38,99.974,74.38,99.231,74.38L99.231,74.38z M99.974,78.116
						c-0.743,0,0-1.487,0-1.487h-0.743c-1.505-0.761,0.743-2.266,1.505-0.761c0,0,0,0,0,0.761c0-0.761,1.488-1.505,1.488-0.761
						l-1.488,0.761c0,0.744,0,0.744-0.762,0V78.116L99.974,78.116L99.974,78.116z"/>
					<path fill="#16B0E8" d="M102.984,78.116c0,0.761,0,1.505,0.744,2.249c0.744,1.505,1.506,3.754,0.744,6.003
						c-0.744,3.754,2.249,3.01,1.506,0.761c0-1.505,0-3.754-0.744-5.259C104.472,80.365,103.728,78.877,102.984,78.116
						L102.984,78.116L102.984,78.116L102.984,78.116L102.984,78.116z"/>
				</g>
			</g>
		</g>
	</g>
	<polygon fill="none" stroke="#FEFEFE" stroke-width="22.6282" points="0.182,0.183 196.693,0.183 196.693,138.19 0.182,138.19 	"/>
</g>
<rect x="0.182" y="-1.349" fill="#75CCD0" width="196.511" height="139.724"/>
<g>
	<polygon fill="none" points="25.071,21.597 221.358,21.597 221.358,131.843 25.071,131.843 	"/>
	<path fill="#FEFEFE" d="M29.857,79.571l-2.852,0.187c-0.738-6.443-0.186-13.621,2.299-21.996h1.748l4.509,11.504
		c1.933-4.049,4.601-7.731,8.099-10.859h2.393c0.184,6.81-1.658,12.974,0.367,20.429l-2.484,1.011
		c-1.564-2.576-1.289-9.938-0.276-19.324c-3.128,3.772-5.338,7.546-6.901,11.412l3.773,5.89l-1.106,2.022
		c-2.761-2.392-5.613-8.742-8.558-17.483C29.58,68.437,29.305,74.235,29.857,79.571z"/>
	<path fill="#FEFEFE" d="M59.581,74.788c1.38-8.743-3.129-10.4-7.915-7.823l1.564,1.657c3.589-2.117,4.695,1.195,4.511,4.876
		c-11.504-4.694-10.491,11.595,1.103,4.417l0.829,0.828l2.118-1.38C61.329,76.353,60.594,75.431,59.581,74.788z M52.955,74.788
		c-2.3,1.932-0.736,4.415,3.588,2.299C59.764,75.523,54.703,73.96,52.955,74.788z"/>
	<path fill="#FEFEFE" d="M67.956,73.04l0.182-7.362l-2.298,1.38c-0.555,5.982,1.196,17.393-5.431,18.128l0.093,2.21
		C65.193,87.396,68.047,83.345,67.956,73.04z"/>
	<path fill="#FEFEFE" d="M82.127,74.788c1.287-8.743-3.129-10.4-8.007-7.823l1.563,1.657c3.59-2.117,4.785,1.195,4.602,4.876
		c-11.503-4.694-10.582,11.595,1.105,4.417l0.737,0.828l2.208-1.38C83.782,76.353,83.046,75.431,82.127,74.788z M75.317,74.788
		c-2.3,1.932-0.737,4.415,3.589,2.299C82.127,75.523,77.065,73.96,75.317,74.788z"/>
	<path fill="#FEFEFE" d="M88.293,79.758c-0.829-7.453-0.922-14.909-0.645-22.364l2.3,1.38l0.645,20.429L88.293,79.758z"/>
	<path fill="#FEFEFE" d="M95.653,70.463c-1.472-1.012-2.116-2.669-2.023-4.786h2.576c0,1.105,0.185,2.117,0.736,2.578
		c9.664-8.098,13.712,6.625,1.014,3.405c-2.023,5.429,2.484,7.914,6.901,3.957l1.934,1.381
		C101.635,82.885,92.802,79.204,95.653,70.463z M102.094,68.07c-1.471-0.092-3.314,1.29-2.852,1.934
		C101.819,70.463,105.684,68.621,102.094,68.07z"/>
	<path fill="#FEFEFE" d="M110.56,66.321l0.276,13.713l2.484-1.565c-1.104-7.362,0.369-10.949,2.945-10.858
		c2.853,0,3.404,4.326,3.13,10.858v1.474l2.301-1.104l-0.093-6.995c-0.553-6.073-3.312-8.926-8.65-4.417l-0.091-1.105h-2.302
		L110.56,66.321L110.56,66.321z"/>
	<path fill="#FEFEFE" d="M137.983,76.444c0.737,12.516-13.524,15.092-14.17,6.165h2.116c0.644,6.535,9.203,3.957,9.479-3.957
		c-10.859,5.612-12.607-7.546-9.019-10.674C133.292,61.996,139.55,68.254,137.983,76.444z M127.678,71.106
		c-1.473,5.98,3.773,9.11,8.099,4.786C136.605,67.425,129.611,65.217,127.678,71.106z"/>
	<path fill="#FEFEFE" d="M145.993,57.486l-2.304,0.737c0.368,7.546-0.09,14.538-2.115,19.969l3.588,1.472
		c1.473-0.46,2.761-1.839,4.049-3.771c0.461,1.563,1.104,2.852,2.025,3.679l1.564-1.564c-1.289-1.287-1.935-3.219-2.303-5.611
		c0.827-2.21,1.197-4.511,1.289-6.719h-2.394c-0.092,5.523-1.75,9.203-4.603,11.227C146.174,70.74,146.727,64.389,145.993,57.486z"
		/>
	<path fill="none" d="M143.782,60.523c1.934,1.472,1.289,0.829,2.577,2.484"/>
	<path fill="#FEFEFE" d="M165.87,74.603c1.288-8.65-3.13-10.307-8.007-7.73l1.563,1.657c3.591-2.209,4.693,1.104,4.603,4.877
		c-11.504-4.692-10.584,11.504,1.013,4.326l0.828,0.828l2.207-1.383C167.525,76.167,166.791,75.34,165.87,74.603z M159.151,74.695
		c-2.208,1.933-0.646,4.416,3.588,2.209C166.053,75.34,160.9,73.776,159.151,74.695z"/>
	<path fill="#FEFEFE" d="M36.851,53.714c0.828,0,1.38,0.552,1.38,1.287c0,0.736-0.552,1.288-1.38,1.288
		c-0.736,0-1.381-0.553-1.381-1.288C35.47,54.266,36.114,53.714,36.851,53.714z"/>
	<path fill="#FEFEFE" d="M34.826,56.566c0.827,0,1.38,0.553,1.38,1.289s-0.553,1.288-1.38,1.288c-0.736,0-1.379-0.553-1.379-1.288
		C33.446,57.119,34.09,56.566,34.826,56.566z"/>
	<path fill="#FEFEFE" d="M38.506,56.934c0.828,0,1.383,0.552,1.383,1.289c0,0.735-0.555,1.287-1.383,1.287
		c-0.735,0-1.378-0.552-1.378-1.287C37.128,57.486,37.771,56.934,38.506,56.934z"/>
	<path fill="#FEFEFE" d="M54.612,61.444c0.737,0,1.381,0.552,1.381,1.287c0,0.645-0.644,1.287-1.381,1.287
		c-0.827,0-1.381-0.644-1.381-1.287C53.23,61.996,53.784,61.444,54.612,61.444z"/>
	<path fill="#FEFEFE" d="M66.852,61.813c0.736,0,1.38,0.551,1.38,1.287c0,0.645-0.645,1.288-1.38,1.288
		c-0.828,0-1.38-0.644-1.38-1.288C65.472,62.365,66.022,61.813,66.852,61.813z"/>
	<path fill="#FEFEFE" d="M77.065,61.444c0.828,0,1.38,0.645,1.38,1.38c0,0.644-0.552,1.288-1.38,1.288
		c-0.737,0-1.382-0.644-1.382-1.288C75.684,62.089,76.328,61.444,77.065,61.444z"/>
	<path fill="#FEFEFE" d="M99.426,61.719c1.381,0.736,2.302,0.736,2.579-0.459l1.012,0.276c-1.382,4.14-4.694-0.921-6.351,1.38
		l-0.919-0.185C96.206,61.996,96.759,60.155,99.426,61.719z"/>
	<path fill="#FEFEFE" d="M117.097,59.512c-0.924,1.565-2.026,2.853-3.406,4.049l0.736,0.46c1.656-0.919,2.853-2.116,3.682-3.313
		C117.74,60.339,117.372,59.879,117.097,59.512z"/>
	<path fill="#FEFEFE" d="M133.844,58.774c-0.827,1.473-1.934,2.854-3.314,4.05l0.74,0.46c1.562-1.013,2.758-2.118,3.679-3.314
		C134.582,59.604,134.212,59.143,133.844,58.774z"/>
	<path fill="#FEFEFE" d="M132.371,57.302c-0.826,1.472-1.931,2.853-3.312,3.958l0.736,0.459c1.656-0.919,2.853-2.024,3.681-3.312
		C133.108,58.039,132.739,57.671,132.371,57.302z"/>
	<path fill="#FEFEFE" d="M160.532,61.444c0.736,0,1.381,0.552,1.381,1.287c0,0.736-0.645,1.287-1.381,1.287
		s-1.381-0.551-1.381-1.287C159.151,61.996,159.795,61.444,160.532,61.444z"/>
</g>
</svg>
