<?xml version="1.0" encoding="UTF-8"?>
<!DOCTYPE svg PUBLIC "-//W3C//DTD SVG 1.1//EN" "http://www.w3.org/Graphics/SVG/1.1/DTD/svg11.dtd">
<!-- Creator: CorelDRAW X7 -->
<svg xmlns="http://www.w3.org/2000/svg" xml:space="preserve" width="262mm" height="184mm" version="1.1" style="shape-rendering:geometricPrecision; text-rendering:geometricPrecision; image-rendering:optimizeQuality; fill-rule:evenodd; clip-rule:evenodd"
viewBox="0 0 26200 18400"
 xmlns:xlink="http://www.w3.org/1999/xlink">
 <defs>
  <style type="text/css">
   <![CDATA[
    .fil4 {fill:#425948}
    .fil2 {fill:#4D5651}
    .fil1 {fill:#F0F0F0}
    .fil3 {fill:#F1F1F1}
    .fil0 {fill:#00AB69}
   ]]>
  </style>
 </defs>
 <g id="Layer_x0020_1">
  <metadata id="CorelCorpID_0Corel-Layer"/>
  <rect class="fil0" x="-31" y="-16" width="26247" height="18415"/>
 </g>
 <g id="Layer_x0020_1_0">
  <metadata id="CorelCorpID_1Corel-Layer"/>
  <g id="_2252272650208">
   <path class="fil1" d="M16036 11961c0,-77 14,-78 29,-141 341,0 278,109 401,300 43,65 58,78 96,159 312,681 512,583 -272,583 -141,0 -126,-27 -254,-29l0 -872zm-6859 -9767l117 0c161,28 264,172 370,320 115,159 148,383 153,581l83 0c131,-565 1148,-1442 1331,-432 41,229 -45,261 133,292 114,19 93,-10 167,57l312 307c38,49 55,69 101,122 107,123 150,243 249,372 87,116 248,380 -41,383l-141 -31c-7,-2 -13,-7 -20,-8 -256,-110 -337,-229 -506,-423l-131 -123c-5,-4 -12,-9 -17,-10l-141 -28c0,147 -7,220 -85,338 -166,-61 -180,-282 -282,-282 -154,0 -300,171 -424,251l-67 46c-43,41 -26,3 -43,70 181,0 357,28 480,83 149,66 174,126 343,190 118,44 307,78 397,138 101,70 260,241 323,352l118 173c3,3 7,10 8,15 2,3 7,11 9,16l146 418c46,213 44,246 -87,380 -103,108 -129,191 -302,233 -26,-52 -41,-93 -71,-151l-204 -362c-83,-131 -105,-101 -148,-276 -53,-209 -124,-381 -272,-542 -65,-70 -148,-113 -227,-168 -269,-179 -267,-134 -682,-134 40,99 -12,20 86,83l667 486c70,75 76,114 139,199 294,400 445,813 198,1278 -58,109 -131,166 -274,177 -6,-298 -214,-813 -355,-1108 -45,-90 -81,-159 -123,-242l-217 -347c-103,-106 -133,-213 -291,-216l-84 1406c-10,112 -90,476 -17,579 5,6 22,25 28,30 118,116 366,157 550,212l1843 406c309,44 1456,47 1734,-14 146,-34 60,-37 223,-62 697,-106 863,-126 1526,-330 136,-42 261,-83 402,-133l372 -162c290,-103 466,-221 735,-337 76,-32 126,-43 192,-88 154,-103 349,-169 501,-287l168 -115c282,-141 559,-322 803,-519 383,-310 320,-259 763,-23l-668 1906c-2,4 -5,12 -7,15l-151 403c-43,131 -65,216 -124,327 -112,208 -151,476 -226,702 -45,131 -91,189 -133,319l-194 542c-2,7 -7,22 -10,29l-139 408c-155,406 -127,302 -543,302 -239,0 -266,149 -367,308l-128 183c-38,65 -73,101 -112,168 -160,267 -425,489 -276,758l194 315c92,158 163,367 266,521 138,209 184,508 481,533 710,60 870,172 1437,363l327 123c5,3 13,8 18,12 183,111 369,177 541,303l101 67c63,41 107,69 170,111 139,93 187,169 320,272l153 156c217,254 88,302 -128,493 -5,3 -10,8 -15,13 -3,3 -10,10 -15,13l-68 45c-66,-65 -226,-232 -286,-305 -56,-71 -68,-101 -144,-166 -212,-176 -425,-352 -667,-486 -141,-80 -322,-131 -460,-216 -280,-169 -643,-163 -947,-290l-40 -17c-166,-61 -337,-76 -539,-109 -523,-83 -1137,-72 -1701,-72 -219,0 -355,-26 -534,-30 -394,-5 -790,2 -1184,2 -375,0 -718,-28 -1126,-28 -372,0 -825,40 -1150,-30 -684,-148 -2765,149 -3871,-211 -142,-48 -258,-134 -392,-199 -71,-36 -143,-65 -208,-105l-482 -360c-117,-124 -195,-134 -311,-282 -174,-217 -356,-380 -526,-625 -71,-103 -209,-223 -209,-355 0,-73 379,-264 450,-281 121,80 163,221 250,340 47,63 27,34 65,105 150,275 914,1045 1178,1045 128,0 294,-542 369,-657 0,-3 5,-10 6,-11l30 -54c179,-343 291,-733 413,-1103l145 -319c23,-63 6,-116 -32,-180 -1,-4 -6,-10 -8,-14l-448 -1063c-32,-85 -71,-135 -105,-206 -86,-178 -142,-422 -244,-598 -1,-3 -6,-11 -8,-14l-810 -1900c-49,-118 -71,-127 -114,-224 -33,-77 -71,-183 -95,-246 -79,-226 168,-475 337,-587 171,114 325,268 508,365 196,104 320,290 562,310 0,-533 137,-674 402,-949 71,-75 81,-113 153,-184 74,-77 108,-77 182,-156 140,-153 347,-163 417,-259 -269,0 -385,10 -551,124l-349 327c-109,143 -229,212 -337,339 -54,63 -109,102 -179,159 -68,53 -129,66 -159,149l-85 0c-8,-88 -28,-101 -28,-197 0,-576 264,-642 631,-946l522 -320c-162,-309 -579,-254 -794,-35 -102,103 -188,197 -344,247 -179,56 -166,17 -325,12 3,-170 78,-244 189,-345l269 -268c249,-237 335,-343 723,-343 63,-133 37,-194 63,-362 20,-123 72,-153 150,-244 118,-139 330,-264 504,-312 18,-5 35,-10 52,-11zm6212 10414l28 -788c334,0 254,-122 254,872 0,77 -15,78 -28,141 -222,0 -254,62 -254,-225zm-2983 169l-282 -28c0,-300 -30,-676 28,-929l282 0 0 731c-7,125 -25,103 -28,226zm-647 0c-307,0 -283,35 -283,-534 0,-188 29,-244 29,-423l254 0 28 534c0,187 -28,244 -28,423zm2308 -451c0,-143 18,-175 25,-284 13,-216 -52,-222 199,-222 64,0 84,20 84,84 0,272 32,647 -28,901l-252 0c0,-205 -28,-295 -28,-479zm-676 56l27 0 0 141 -27 0 0 -141zm-2562 -252c0,-143 29,-154 29,-310l253 0c2,127 29,111 29,253 0,689 44,759 -311,676 0,-158 30,-169 30,-310 0,-140 -30,-153 -30,-309zm-1322 -1661l488 919c59,106 59,284 197,367 93,56 125,12 244,8 2,128 28,113 28,254l0 563c0,154 -64,31 0,169 -484,0 -800,196 -1004,-320 -84,-213 -38,-382 -36,-608 0,-368 13,-1057 83,-1352zm3911 1604c-20,-34 -12,0 -22,-61 -8,-40 -5,-68 -5,-108l27 0 0 169zm1606 29c0,718 43,778 -282,703 0,-318 -23,-114 0,-506 27,-461 -103,-479 198,-479 91,0 84,33 84,282zm-2225 -282c347,-9 282,-175 282,901 0,146 -186,66 -310,56 40,-168 28,-710 28,-957zm619 253l56 0c0,-303 -98,-253 254,-253l4 791c0,136 24,176 -90,196 -299,56 -134,-246 -171,-418 -33,-150 -53,6 -53,-316zm-2111 -901l407 17c403,40 3375,12 4042,12 329,0 252,-32 488,43 25,8 -10,-10 46,13 -212,440 -371,281 -1238,281 -263,0 -526,0 -789,0 -540,1 -410,-40 -732,-57 -684,-35 -2380,2 -3180,2 -33,-50 -127,-184 -94,-247 35,-67 232,-35 320,-35l730 -29zm845 -253l-735 16c-75,2 -58,-16 -166,-16l-815 0c-163,0 -451,144 -451,-281l5884 0c128,0 -15,0 56,23 161,50 531,34 702,34 -99,428 -443,278 -871,280 -413,2 -826,0 -1240,0 -433,0 -770,-28 -1209,-28 -445,0 -465,-42 -881,-7 -105,8 -135,-21 -274,-21zm-1998 -704l929 0c150,0 214,-33 329,-22 496,54 3984,25 4765,22 268,0 448,28 732,28 -36,136 -48,32 -84,169 -1431,0 -3027,22 -4449,2 -138,-3 -164,-28 -274,-21l-1386 -9c-195,0 -642,52 -769,10 -75,-25 -221,-123 -160,-184 45,-46 251,5 367,5zm4250 -591c46,-197 49,-123 146,-249 81,-107 43,-147 164,-230 109,30 114,74 176,162 144,199 255,291 443,571 -191,15 -18,52 -403,7 -244,-28 -244,96 -430,-131 -28,-37 -12,-14 -38,-47 -25,-33 -35,-50 -58,-83zm-5208 -56c0,-108 74,-193 122,-272 59,-102 99,-175 189,-236 250,169 242,350 488,612 255,278 -151,206 -545,206 -86,0 -46,-16 -84,-56 -2,0 -48,-60 -65,-77 -43,-49 -105,-96 -105,-177zm6869 -563c162,110 220,259 346,414 52,61 39,38 85,112 111,178 129,130 244,347 -514,0 -634,136 -801,-128 -55,-88 -137,-162 -178,-247 -61,-124 8,-186 73,-279 68,-104 133,-154 231,-219zm-4026 0c106,29 136,92 194,171 110,150 189,296 320,442 145,162 131,144 133,260 -420,0 -471,67 -586,-116 -58,-93 -88,-178 -156,-267 -79,-100 -161,-120 -96,-256 43,-91 118,-184 191,-234zm-1492 224c0,-200 83,-117 141,-280 191,51 224,284 334,426l167 226c60,95 115,129 118,277 -182,0 -257,40 -360,-5 -78,-33 -40,-11 -91,-78 -13,-15 -53,-73 -70,-98 -53,-81 -239,-396 -239,-468zm6616 -308c95,69 15,10 76,91l39 46c1,2 28,30 39,45 112,128 409,528 409,662 0,175 -365,193 -462,67 -66,-92 -86,-171 -270,-405 -140,-174 -158,-213 55,-395 73,-62 43,-58 114,-111zm-4025 224c0,-28 102,-254 225,-337 145,38 126,126 218,232 49,57 54,55 104,121 151,199 385,511 493,717 -63,15 -485,47 -583,-6 -79,-45 -38,-17 -84,-87l-261 -415c-53,-73 -112,-102 -112,-225zm-4391 451c-80,-119 -75,-176 -130,-322 -74,-194 -227,-221 -104,-418l391 -594c65,-110 52,-176 153,-242 116,31 86,61 148,161 68,107 96,99 162,176 185,217 -10,212 -210,637 -35,74 -314,537 -410,602zm9233 -564c-140,-37 -92,-80 -165,-201 -50,-83 -119,-138 -98,-232 25,-106 264,-327 346,-382 180,267 33,312 -83,815zm-3661 -843c148,12 282,126 282,280 0,55 -176,233 -260,332 -127,151 -100,228 -274,344 -352,-184 -168,-340 91,-697l43 -60c2,-3 5,-10 8,-13l14 -25c74,-128 68,-55 96,-161zm2253 928c-6,-4 -15,-17 -16,-12l-32 -25c-3,-3 -10,-10 -15,-13 -181,-160 -162,-284 -1,-463l486 -641c473,317 159,413 -58,730 -72,103 -267,359 -364,424zm-1211 225c-154,-35 -83,-31 -166,-143 -201,-275 -126,-227 211,-713 55,-81 277,-441 350,-495 71,20 370,191 138,477 -125,152 -438,804 -533,874zm-5263 -56c-45,-33 -273,-289 -294,-357 -28,-95 45,-173 138,-305 33,-50 44,-52 76,-93 56,-75 400,-696 503,-793 103,69 177,258 232,391 60,146 45,80 -146,398 -88,148 -153,211 -237,384 -57,116 -186,312 -272,375zm2616 -169c-381,-256 0,-512 231,-925l312 -476c129,-95 325,-38 499,-35 -46,72 -69,128 -112,198 -49,78 -92,93 -140,169l-463 664c-5,3 -10,10 -13,15 -173,219 -141,345 -314,390zm-1238 84c-44,-68 -84,-128 -134,-202 -131,-196 -259,-173 7,-516l363 -594c148,-269 76,-301 556,-236 163,23 143,43 88,171l-443 771c-28,39 -12,12 -35,52 -28,48 -38,86 -65,131 -89,159 -184,322 -337,423zm2871 -1604c130,0 136,-9 234,-47 83,-33 131,-45 218,-65 114,77 204,191 293,297 179,214 352,226 45,576l-85 83c-104,-55 -159,-153 -273,-289l-264 -326c-5,-5 -10,-10 -15,-14l-30 -26c-138,-126 -73,-82 -123,-189zm-6247 -450c51,0 79,28 111,58 43,38 31,41 70,98 53,76 87,109 144,194 181,264 431,260 197,652 -51,86 -81,158 -157,208 -133,-88 -121,-145 -198,-279 -31,-55 -58,-92 -96,-158 -267,-474 -314,-410 -196,-642 37,-73 42,-131 125,-131zm3011 1042c-11,-125 -180,-400 -244,-516l-97 -163c-88,-234 204,-86 248,-73 137,40 201,-13 294,72 43,39 130,187 125,250 -10,101 -85,138 -141,221 -95,139 -29,196 -185,209zm4560 -901c95,-65 88,-55 219,-91 263,-77 223,-70 513,317 289,388 342,282 181,547 -66,110 -50,115 -153,184 -161,-43 -313,-353 -390,-456 -94,-126 -234,-242 -370,-501zm-6475 -478l377 129c198,77 254,332 390,483 143,160 224,297 138,458 -52,97 -86,120 -141,199 -4,5 -7,14 -10,19 -83,122 -105,96 -133,204 -177,-15 -156,-148 -282,-339l-247 -371c-48,-78 -55,-123 -115,-196 -128,-158 -215,-173 -123,-395 49,-116 50,-126 146,-191zm7376 139c525,-277 470,-202 823,191 45,52 68,98 105,148 91,129 451,450 451,534 0,47 -119,168 -210,297 -135,189 -196,-20 -342,-166 -28,-30 -14,-11 -43,-41 -57,-58 -70,-90 -130,-153l-274 -318c-48,-59 -84,-103 -127,-153 -100,-113 -229,-144 -253,-339zm1914 648c-117,-62 -301,-301 -268,-432 44,-169 258,-378 268,-496 121,2 189,63 280,113 -23,91 -45,79 -78,174l-202 641zm-9824 -394c-128,-10 -166,-91 -225,-169 -57,-75 -118,-143 -196,-196 38,-81 131,-367 224,-367 172,0 293,135 423,170 -5,210 -198,234 -226,562zm9176 -28l-388 -400c-99,-109 -33,-70 -91,-191 262,-61 222,-191 760,-338 103,-28 181,-60 282,-83 -10,124 -212,386 -329,655 -46,106 -154,304 -234,357zm-10470 -1181c136,0 275,124 385,177 332,158 489,55 274,398l-266 550c-169,-39 -153,-185 -252,-563 -52,-189 -35,-232 -125,-385 -26,-45 -114,-177 -16,-177zm1941 449l-308 -113c-83,-36 -204,-96 -282,-139l-263 -161c-78,-45 -56,-45 -146,-80 -112,-44 -54,-3 -154,-69 7,-100 198,-291 287,-387 60,-66 113,-104 168,-172 197,-248 187,-175 328,-347 73,-88 196,-150 272,-234 60,-63 155,-201 296,-239 0,146 -101,1332 -141,1463 -27,85 -57,372 -57,478zm-647 -3264c47,-31 111,-64 146,-108 65,-83 25,-99 100,-182 99,-108 214,-161 373,-161 30,80 43,48 118,109 202,168 111,732 108,848 -350,0 -151,-38 -506,-225 -113,-58 -266,-171 -339,-281zm2111 -169c0,88 -23,173 -93,217 -7,4 -61,30 -75,39 -66,38 -61,49 -122,101 -186,159 -85,-2 -352,325 -131,161 -304,48 58,-310l152 -184c98,-145 322,-551 412,-283 7,19 20,72 20,95z"/>
   <path class="fil1" d="M7114 14325c-40,35 20,-11 -46,38 -34,25 -39,29 -67,45l-28 0 -28 -26c-238,-160 -196,-113 -619,-113l0 196c60,30 40,11 86,26 7,2 15,5 22,7l61 23c91,18 38,-35 56,56 93,148 -48,1303 55,1408 91,44 306,44 395,0 135,-277 -124,-1134 198,-1351 44,-66 58,-90 146,-108 16,-3 91,-8 106,-7l114 30c85,24 60,0 85,85l36 131c37,188 19,1006 19,1220 539,126 451,11 449,-875 0,-25 0,-84 4,-109l26 -85c5,-81 -5,-30 17,-95 35,-99 15,-41 40,-74 26,-98 10,-63 84,-113l29 -28c23,-22 43,-40 83,-58 36,-19 49,-25 114,-29 118,-5 149,25 196,87 101,118 84,363 84,506 -1,257 -54,649 82,791 118,126 345,131 512,113 147,-15 110,-43 110,-199l-197 -56c-118,-88 -85,-304 -85,-508 0,-206 0,-412 0,-619 -28,-32 -28,50 -28,-85 -32,-35 -32,-36 -57,-84 -106,-123 -197,-204 -405,-243 -202,-38 -403,39 -522,103 -100,85 -113,62 -141,168l-57 0c-23,-83 -11,-45 -56,-111 -125,-85 -183,-161 -393,-171 -231,-12 -339,40 -480,114z"/>
   <path class="fil1" d="M12180 14719l28 -29 57 -56 28 -28c46,-40 -28,10 48,-37 86,-55 181,-60 284,-41 129,21 194,64 259,162 31,35 33,37 56,85 120,173 115,513 22,697l-22 35c-18,79 5,43 -56,84l-85 85c-30,27 -50,48 -101,66 -60,22 -77,20 -151,22 -128,0 -203,-17 -254,-88 -118,-32 -60,-13 -113,-113 -41,-50 -36,-35 -56,-113l-53 -171c-20,-175 -12,-421 109,-560zm-169 -394c-35,32 -37,32 -83,57l-113 111c-25,36 -38,60 -66,103 -17,23 -20,28 -37,48 -40,51 -15,20 -38,46 -10,108 -28,95 -48,178 -15,60 -32,167 -37,219 -11,172 45,302 57,448 36,41 11,8 46,66 204,349 500,518 936,465 58,-5 141,-33 196,-56 83,-34 89,-59 172,-82l57 -56 28 0c86,58 71,93 184,126 85,25 201,18 297,18 317,2 201,-174 125,-214l-128 -41c-110,-30 -86,-103 -85,-311l0 -1209c0,-292 40,-518 -149,-638 -95,-59 -184,-68 -329,-69 -230,-4 -225,-23 -225,199 138,66 25,-40 254,113l0 536c-589,-312 -616,-150 -1014,-57z"/>
   <path class="fil1" d="M14855 15704c-43,37 -30,30 -90,52 -114,43 -245,25 -333,-52l-28 -28c-19,-32 -35,-3 -30,-113 5,-121 -17,-60 58,-113 50,-66 56,-74 169,-84 56,-48 45,-38 128,-68 70,-25 108,-39 182,-45l113 -57 -1 309c-2,8 -4,17 -5,25 -2,7 -5,15 -7,22l-15 39c-50,72 -50,88 -141,113zm-760 -1322c-75,69 -83,86 -56,195 91,64 38,75 167,85 50,-41 37,-38 113,-56 58,-50 43,-48 141,-57 70,-48 146,-69 282,-58l113 30c143,40 169,186 169,367 -58,26 -698,219 -761,224 -49,43 -34,40 -113,56 -45,40 -88,80 -140,113 -13,22 -11,22 -33,52 -25,31 -31,38 -51,61 -7,88 -30,99 -27,196 3,109 23,71 27,199 31,35 31,36 56,83l224 169c246,56 418,20 649,0l121 -75c76,-44 70,-51 133,-94 98,147 133,141 365,143 201,1 365,34 254,-198 -174,-85 -252,50 -256,-252l0 -397c5,-61 -3,5 7,-50 13,-61 2,-28 23,-61l198 -85c0,-331 13,-245 -226,-225 -121,-518 -588,-623 -997,-518l-382 153z"/>
   <path class="fil1" d="M16036 14521c80,47 57,42 60,166 3,206 -20,1145 5,1233 43,144 234,93 415,93 23,-47 25,-48 56,-85 0,-196 0,-393 0,-591 0,-102 -3,-207 -1,-310l26 -199c15,-40 17,-33 30,-53l28 -56c20,-80 -3,-42 57,-85l28 -28c65,-55 171,-100 257,-103 93,-4 213,30 251,131l28 56c13,22 13,14 30,53 118,296 -111,815 138,1185 156,106 117,85 366,87 198,1 331,21 226,-198l-169 -56c-231,-170 81,-951 -219,-1330 -216,-268 -687,-268 -908,-164 -123,58 -126,105 -224,169 -136,-200 -372,-239 -675,-167l0 196c137,0 117,-12 195,56z"/>
   <path class="fil1" d="M10126 14803c8,-98 6,-83 56,-141 78,-116 169,-186 334,-167 127,13 144,54 144,54 81,20 43,-3 85,57 54,63 76,63 84,169 34,46 0,-45 38,75 22,64 12,13 19,94l-817 0 57 -141zm-254 -367l-55 57 -124 244c-4,8 -12,31 -15,40 -27,56 -9,23 -30,54 0,155 -47,209 -25,390 12,118 55,258 81,370l140 198 84 83c427,225 735,284 1198,73 97,-43 63,-48 153,-73l0 -111 -85 -141 -83 0c-49,43 -34,38 -112,56 -40,33 -42,40 -107,61 -43,15 -76,22 -147,24 -62,38 -184,43 -253,0 -136,-4 -225,-63 -282,-141 -21,-25 -16,-5 -46,-65 -30,-57 -25,-45 -38,-105l-57 -225c251,0 1091,44 1238,-29 91,-189 -15,-383 -28,-534 -56,-65 -30,-96 -55,-141l-28 0 -28 -28c-73,-48 -133,-111 -198,-168 -156,-83 -333,-132 -590,-113 -273,22 -339,113 -508,224z"/>
   <path class="fil2" d="M10575 13509c83,18 87,28 198,28l0 -28c-101,0 -95,-67 -198,0z"/>
   <polygon class="fil3" points="13982,15872 13954,15872 13977,15905 "/>
   <polygon class="fil3" points="12996,15928 12996,15956 13030,15933 "/>
   <polygon class="fil3" points="16572,15928 16572,15956 16604,15933 "/>
   <polygon class="fil3" points="17444,15928 17415,15928 17439,15961 "/>
   <polygon class="fil3" points="14206,16041 14178,16041 14203,16074 "/>
   <polygon class="fil3" points="12940,14775 12912,14775 12935,14808 "/>
   <polygon class="fil3" points="7987,14382 8015,14382 7990,14348 "/>
   <polygon class="fil3" points="11928,14382 11928,14353 11895,14377 "/>
   <polygon class="fil3" points="10182,14662 10182,14690 10215,14667 "/>
   <polygon class="fil3" points="11674,14690 11674,14662 11641,14685 "/>
   <polygon class="fil3" points="10126,15450 10154,15450 10131,15417 "/>
   <polygon class="fil3" points="14206,14662 14206,14690 14239,14667 "/>
   <polygon class="fil3" points="12884,14690 12855,14690 12879,14724 "/>
   <polygon class="fil3" points="17276,14690 17248,14690 17271,14724 "/>
   <polygon class="fil3" points="8241,14747 8241,14775 8272,14752 "/>
   <polygon class="fil3" points="10829,14775 10801,14775 10824,14808 "/>
   <polygon class="fil3" points="6495,14521 6467,14521 6490,14554 "/>
   <polygon class="fil3" points="9225,14549 9253,14549 9230,14516 "/>
   <polygon class="fil3" points="14855,16041 14855,16069 14886,16046 "/>
   <polygon class="fil3" points="16627,14775 16627,14803 16660,14780 "/>
   <polygon class="fil3" points="14601,15366 14601,15394 14634,15371 "/>
   <polygon class="fil3" points="14432,15450 14432,15479 14465,15455 "/>
   <polygon class="fil3" points="12180,15563 12208,15563 12185,15530 "/>
   <polygon class="fil3" points="6551,14577 6523,14577 6546,14611 "/>
   <polygon class="fil3" points="14039,14577 14010,14577 14034,14611 "/>
   <polygon class="fil3" points="10210,15620 10239,15620 10215,15586 "/>
   <polygon class="fil3" points="8747,14606 8719,14606 8742,14639 "/>
   <polygon class="fil3" points="11111,15620 11111,15591 11078,15615 "/>
   <polygon class="fil3" points="10745,14606 10716,14606 10740,14639 "/>
   <polygon class="fil3" points="9928,15872 9900,15872 9923,15905 "/>
   <polygon class="fil3" points="9844,15789 9817,15789 9840,15820 "/>
   <polygon class="fil3" points="10660,14549 10632,14549 10655,14582 "/>
   <polygon class="fil3" points="7565,14549 7537,14549 7560,14582 "/>
   <polygon class="fil3" points="14911,15253 14911,15281 14943,15258 "/>
   <polygon class="fil3" points="10970,14325 10999,14325 10975,14292 "/>
   <polygon class="fil3" points="14855,15704 14855,15676 14822,15699 "/>
   <polygon class="fil3" points="9872,14436 9872,14408 9840,14433 "/>
   <polygon class="fil3" points="14095,14382 14095,14353 14062,14377 "/>
   <polygon class="fil3" points="14263,15112 14263,15085 14231,15108 "/>
   <polygon class="fil3" points="14010,15281 14010,15253 13977,15276 "/>
   <polygon class="fil3" points="14319,14606 14319,14634 14352,14611 "/>
   <polygon class="fil3" points="10492,15761 10521,15761 10496,15727 "/>
   <polygon class="fil3" points="17248,14634 17220,14634 17243,14667 "/>
   <polygon class="fil3" points="13926,15394 13926,15366 13893,15389 "/>
   <polygon class="fil3" points="8184,14916 8184,14944 8216,14921 "/>
   <polygon class="fil3" points="7650,14634 7622,14634 7645,14667 "/>
   <polygon class="fil3" points="7114,14325 7114,14297 7081,14320 "/>
   <polygon class="fil3" points="8241,14325 8241,14297 8208,14320 "/>
   <polygon class="fil3" points="12011,14325 12011,14297 11979,14320 "/>
   <polygon class="fil3" points="18036,15817 18063,15817 18039,15784 "/>
   <polygon class="fil3" points="16655,14719 16655,14747 16689,14724 "/>
   <polygon class="fil3" points="9168,14465 9196,14465 9173,14433 "/>
   <polygon class="fil3" points="9817,14493 9817,14465 9784,14488 "/>
   <polygon class="fil3" points="12124,15450 12152,15450 12129,15417 "/>
   <polygon class="fil3" points="14855,14521 14827,14521 14850,14554 "/>
   <polygon class="fil3" points="16036,14521 16008,14521 16031,14554 "/>
   <polygon class="fil3" points="14460,14549 14460,14577 14493,14554 "/>
   <polygon class="fil3" points="9253,14634 9281,14634 9258,14601 "/>
   <polygon class="fil3" points="7199,14634 7199,14662 7232,14639 "/>
   <polygon class="fil3" points="10126,14803 10126,14831 10159,14808 "/>
   <polygon class="fil3" points="12940,15507 12940,15479 12907,15502 "/>
   <polygon class="fil3" points="11646,15535 11618,15535 11641,15568 "/>
   <polygon class="fil3" points="12884,15591 12884,15563 12850,15586 "/>
   <polygon class="fil3" points="14996,15591 14996,15563 14963,15586 "/>
   <polygon class="fil3" points="9704,15591 9676,15591 9699,15625 "/>
   <polygon class="fil3" points="10999,15676 10999,15648 10965,15671 "/>
   <polygon class="fil3" points="12799,15676 12799,15648 12766,15671 "/>
   <polygon class="fil3" points="14150,15168 14150,15140 14118,15165 "/>
   <polygon class="fil3" points="10745,15761 10745,15732 10712,15756 "/>
   <polygon class="fil3" points="9648,14831 9648,14803 9615,14826 "/>
   <polygon class="fil3" points="13926,15789 13897,15789 13921,15820 "/>
   <polygon class="fil3" points="12293,15676 12321,15676 12298,15643 "/>
   <polygon class="fil3" points="11279,15761 11307,15761 11284,15727 "/>
   <polygon class="fil3" points="13559,15761 13587,15761 13564,15727 "/>
   <polygon class="fil3" points="11279,14662 11307,14662 11284,14629 "/>
   <polygon class="fil3" points="15502,15057 15502,15085 15534,15060 "/>
   <polygon class="fil3" points="17867,15761 17895,15761 17872,15727 "/>
   <polygon class="fil3" points="11815,14493 11815,14465 11782,14488 "/>
   <polygon class="fil3" points="9338,15761 9366,15761 9343,15727 "/>
   <polygon class="fil3" points="7001,14408 6973,14382 6973,14408 "/>
   <polygon class="fil3" points="11224,14521 11196,14493 11196,14521 "/>
   <path class="fil4" d="M12039 13537l10 -10c-2,2 -12,7 -10,10z"/>
   <polygon class="fil3" points="6973,14382 6945,14382 "/>
   <polygon class="fil3" points="11196,14493 11168,14493 "/>
   <polygon class="fil3" points="16740,14606 16740,14634 "/>
   <polygon class="fil3" points="12293,14606 12293,14634 "/>
   <polygon class="fil3" points="14432,15676 14432,15704 "/>
   <polygon class="fil3" points="8354,14606 8354,14634 "/>
   <polygon class="fil3" points="13081,15872 13053,15872 "/>
   <polygon class="fil3" points="16740,14634 16712,14634 "/>
   <polygon class="fil3" points="8354,14634 8325,14634 "/>
   <polygon class="fil3" points="12208,14719 12180,14719 "/>
   <polygon class="fil3" points="12208,14690 12208,14719 "/>
   <polygon class="fil3" points="12293,14634 12265,14634 "/>
   <polygon class="fil3" points="14432,15676 14404,15676 "/>
  </g>
 </g>
</svg>
