<?xml version="1.0" encoding="UTF-8"?>
<!DOCTYPE svg PUBLIC "-//W3C//DTD SVG 1.1//EN" "http://www.w3.org/Graphics/SVG/1.1/DTD/svg11.dtd">
<!-- Creator: CorelDRAW X8 -->
<svg xmlns="http://www.w3.org/2000/svg" xml:space="preserve" width="69.4528mm" height="48.8154mm" version="1.1" style="shape-rendering:geometricPrecision; text-rendering:geometricPrecision; image-rendering:optimizeQuality; fill-rule:evenodd; clip-rule:evenodd"
viewBox="0 0 2093 1471"
 xmlns:xlink="http://www.w3.org/1999/xlink">
 <defs>
  <style type="text/css">
   <![CDATA[
    .str0 {stroke:#FEFEFE;stroke-width:3.97875}
    .fil2 {fill:none}
    .fil1 {fill:#FEFEFE}
    .fil0 {fill:url(#id1)}
   ]]>
  </style>
   <clipPath id="id0">
    <path d="M2 2l2089 0 0 1467 -2089 0 0 -1467z"/>
   </clipPath>
  <radialGradient id="id1" gradientUnits="objectBoundingBox" cx="50%" cy="50%" r="50%" fx="50%" fy="50%">
   <stop offset="0" style="stop-opacity:1; stop-color:#FC5151"/>
   <stop offset="1" style="stop-opacity:1; stop-color:#DB3030"/>
  </radialGradient>
 </defs>
 <g id="Layer_x0020_1">
  <metadata id="CorelCorpID_0Corel-Layer"/>
  <polygon class="fil0" points="2,2 2091,2 2091,1469 2,1469 "/>
  <g style="clip-path:url(#id0)">
   <g id="_583576104">
    <g>
     <g id="_350071528">
      <g id="_545605544">
       <path id="1" class="fil1" d="M1574 785c-52,38 -81,87 -64,111 17,24 72,15 124,-22 2,-1 4,-3 5,-4l-76 154c-19,23 -26,36 -43,35 -114,-2 -37,78 74,-11 57,-83 92,-167 105,-251 3,-8 4,-15 4,-22l0 0 0 0c-1,-5 -2,-9 -5,-12 -16,-25 -72,-14 -124,22l0 0 0 0zm10 23c-29,24 -44,53 -34,65 10,11 41,1 69,-23 29,-23 44,-53 34,-64 -10,-11 -41,-2 -69,22l0 0 0 0z"/>
       <path class="fil1" d="M411 663c-16,79 -96,196 -67,248 3,5 13,18 15,12l40 -102c323,-105 367,-222 74,-215 -18,-12 -32,-8 -42,11 -43,10 -52,33 -20,46l0 0zm20 109l49 -115c216,-17 176,27 -49,115z"/>
       <path class="fil1" d="M693 879c15,34 99,28 54,2 -44,-9 -74,-95 -133,-28 -5,6 -8,6 -13,5 -42,-6 3,-44 24,-61 28,-25 53,11 70,1 28,-14 17,-69 -41,-49 -53,18 -90,57 -112,112 -13,40 3,49 38,35 56,-37 98,-46 113,-17l0 0 0 0 0 0z"/>
       <path class="fil1" d="M1184 881c15,34 99,27 54,1 -44,-9 -74,-95 -133,-28 -5,7 -8,5 -13,5 -42,-5 3,-43 24,-62 29,-24 53,12 71,2 27,-14 17,-69 -42,-49 -54,18 -90,57 -113,111 -12,41 4,50 38,36 58,-37 99,-46 114,-16l0 0 0 0z"/>
       <path class="fil1" d="M811 799c46,-56 100,-84 163,-76 46,-142 101,-131 42,4 -26,48 -28,102 -38,156 -8,33 -41,33 -33,-14 19,-87 -45,7 -67,12 -95,35 -107,0 -67,-82l0 0zm142 -45c13,16 -6,51 -41,79 -36,28 -75,38 -87,22 -13,-16 6,-51 42,-79 35,-28 74,-38 86,-22l0 0 0 0z"/>
       <path class="fil1" d="M1291 821c-12,25 -43,97 -1,82 38,-14 128,-179 157,-20 7,44 47,16 17,-52 -12,-46 -40,-56 -79,-41 -61,40 -37,-11 -36,-18 -4,-55 -34,-24 -58,49l0 0 0 0z"/>
      </g>
     </g>
     <path class="fil1" d="M1078 694c24,16 69,20 124,19 70,-53 110,-147 135,-262 -44,114 -135,192 -259,243z"/>
     <path class="fil1" d="M1358 489c-9,66 -34,129 -78,189l89 -55 -11 -134z"/>
     <path class="fil1" d="M1302 688c24,14 68,15 120,10 65,-54 107,-145 124,-257 -36,112 -127,190 -244,247z"/>
     <path class="fil1" d="M1565 470c-9,61 -32,120 -73,176l83 -52 -10 -124z"/>
     <path class="fil1" d="M1476 690c59,5 86,7 150,-4 37,-44 59,-103 84,-218 -60,113 -110,171 -234,222z"/>
     <path class="fil1" d="M1747 655c16,-94 8,-184 -6,-274 -14,138 -31,246 -56,276l62 -2z"/>
    </g>
   </g>
  </g>
  <polygon class="fil2 str0" points="2,2 2091,2 2091,1469 2,1469 "/>
 </g>
</svg>
