<?xml version="1.0" encoding="UTF-8"?>
<!DOCTYPE svg PUBLIC "-//W3C//DTD SVG 1.1//EN" "http://www.w3.org/Graphics/SVG/1.1/DTD/svg11.dtd">
<!-- Creator: CorelDRAW X7 -->
<svg xmlns="http://www.w3.org/2000/svg" xml:space="preserve" width="734px" height="516px" version="1.1" style="shape-rendering:geometricPrecision; text-rendering:geometricPrecision; image-rendering:optimizeQuality; fill-rule:evenodd; clip-rule:evenodd"
viewBox="0 0 301 211"
 xmlns:xlink="http://www.w3.org/1999/xlink">
 <defs>
  <style type="text/css">
   <![CDATA[
    .fil1 {fill:none}
    .fil2 {fill:#FEFEFE}
    .fil0 {fill:#00B04E}
    .fil3 {fill:#FEFEFE;fill-rule:nonzero}
   ]]>
  </style>
 </defs>
 <g id="Layer_x0020_1">
  <metadata id="CorelCorpID_0Corel-Layer"/>
  <rect class="fil0" width="301" height="211"/>
  <rect class="fil1" x="12" y="33" width="270" height="130"/>
  <g id="_1612796330880">
   <g>
    <path class="fil2" d="M163 137c131,-49 88,-117 -25,-82 77,-8 98,43 25,82z"/>
    <path class="fil2" d="M164 139c-138,28 -140,-55 -20,-84 -46,30 -61,74 20,84z"/>
    <g>
     <ellipse class="fil2" cx="166" cy="64" rx="2" ry="6"/>
     <path class="fil2" d="M182 100c-15,0 -16,-36 2,-39 -9,13 -10,26 -2,39z"/>
     <path class="fil2" d="M161 113c18,-15 10,-43 -13,-43 16,11 22,25 13,43z"/>
    </g>
    <g>
     <ellipse class="fil2" cx="138" cy="75" rx="4" ry="6"/>
     <path class="fil2" d="M157 112c-15,2 -20,-34 -3,-38 -7,13 -6,26 3,38z"/>
     <path class="fil2" d="M131 124c21,-7 16,-41 -12,-38 13,6 25,18 12,38z"/>
    </g>
   </g>
   <path class="fil3" d="M56 39l0 -7 2 0c1,0 1,0 2,0 0,0 0,1 1,1 0,0 0,1 0,1 0,1 0,1 0,1 0,1 -1,1 -1,1 0,0 0,0 0,0 -1,0 -1,0 -2,0l-1 0 0 3 -1 0zm1 -6l0 2 1 0c1,0 1,0 1,0 0,0 0,0 1,0 0,0 0,-1 0,-1 0,0 0,0 -1,0 0,0 0,-1 0,-1 0,0 -1,0 -1,0l-1 0z"/>
   <path id="1" class="fil3" d="M62 32l1 0 0 4c0,0 0,1 0,1 1,0 1,0 1,0 0,1 0,1 1,1 0,0 0,0 1,-1 0,0 0,0 0,0 0,0 0,-1 0,-1l0 -4 1 0 0 4c0,0 0,1 0,1 0,1 0,1 0,1 0,0 -1,1 -1,1 0,0 -1,0 -1,0 -1,0 -1,0 -2,0 0,-1 0,-1 0,-1 -1,0 -1,0 -1,-1 0,0 0,-1 0,-1l0 -4z"/>
   <path id="2" class="fil3" d="M68 37l2 0c0,0 0,0 0,0 0,1 1,1 1,1 0,0 1,0 1,-1 0,0 0,0 0,0 0,0 0,0 0,-1 0,0 0,0 0,0 0,0 -1,0 -1,0 -1,0 -2,0 -2,-1 0,0 0,-1 0,-1 0,0 0,-1 0,-1 0,0 0,-1 1,-1 0,0 0,0 1,0 1,0 1,0 2,1 0,0 0,1 0,1l-1 0c0,0 0,0 0,-1 0,0 -1,0 -1,0 0,0 -1,0 -1,0 0,1 0,1 0,1 0,0 0,0 0,0 0,0 1,1 1,1 1,0 1,0 2,0 0,0 0,1 0,1 1,0 1,0 1,1 0,0 0,1 -1,1 0,0 0,0 -1,1 0,0 0,0 -1,0 -1,0 -1,0 -2,-1 0,0 -1,-1 -1,-1z"/>
   <path id="3" class="fil3" d="M81 39l-2 0 0 -2 -3 0 -1 2 -1 0 3 -7 1 0 3 7zm-3 -3l-1 -2 -1 2 2 0z"/>
   <polygon id="4" class="fil3" points="82,39 82,33 80,33 80,32 85,32 85,33 83,33 83,39 "/>
   <path id="5" class="fil3" d="M89 39l0 -7 2 0c1,0 1,0 1,0 1,0 1,1 1,1 1,0 1,1 1,1 0,1 0,1 -1,1 0,1 0,1 0,1 0,0 -1,0 -1,0 0,0 -1,0 -1,0l-1 0 0 3 -1 0zm1 -6l0 2 1 0c0,0 1,0 1,0 0,0 0,0 0,0 0,0 0,-1 0,-1 0,0 0,0 0,0 0,0 0,-1 0,-1 -1,0 -1,0 -1,0l-1 0z"/>
   <polygon id="6" class="fil3" points="95,39 95,32 100,32 100,33 96,33 96,35 99,35 99,36 96,36 96,38 100,38 100,39 "/>
   <polygon id="7" class="fil3" points="101,39 101,32 102,32 102,38 105,38 105,39 "/>
   <path id="8" class="fil3" d="M112 39l-1 0 -1 -2 -2 0 -1 2 -1 0 2 -7 2 0 2 7zm-2 -3l-1 -2 -1 2 2 0z"/>
   <polygon id="9" class="fil3" points="114,39 114,36 111,32 113,32 114,35 116,32 117,32 115,36 115,39 "/>
   <path id="10" class="fil3" d="M123 39l-1 0 -1 -2 -2 0 -1 2 -1 0 2 -7 2 0 2 7zm-2 -3l-1 -2 -1 2 2 0z"/>
   <polygon id="11" class="fil3" points="124,39 124,32 125,32 128,37 128,32 129,32 129,39 128,39 125,34 125,39 "/>
   <path id="12" class="fil3" d="M136 39l-1 0 -1 -2 -2 0 -1 2 -1 0 2 -7 2 0 2 7zm-2 -3l-1 -2 -1 2 2 0z"/>
   <polygon id="13" class="fil3" points="137,39 137,32 138,32 141,37 141,32 142,32 142,39 141,39 138,34 138,39 "/>
   <polygon id="14" class="fil3" points="146,39 146,32 147,32 147,35 150,32 152,32 149,35 152,39 150,39 148,36 147,37 147,39 "/>
   <polygon id="15" class="fil3" points="153,39 153,32 157,32 157,33 154,33 154,35 157,35 157,36 154,36 154,38 158,38 158,39 "/>
   <path id="16" class="fil3" d="M158 37l2 0c0,0 0,0 0,0 0,1 1,1 1,1 0,0 1,0 1,-1 0,0 0,0 0,0 0,0 0,0 0,-1 0,0 0,0 0,0 0,0 -1,0 -1,0 -1,0 -2,0 -2,-1 0,0 0,-1 0,-1 0,0 0,-1 0,-1 0,0 0,-1 1,-1 0,0 0,0 1,0 1,0 1,0 2,1 0,0 0,1 0,1l-1 0c0,0 0,0 0,-1 0,0 -1,0 -1,0 0,0 -1,0 -1,0 0,1 0,1 0,1 0,0 0,0 0,0 0,0 1,1 1,1 1,0 1,0 2,0 0,0 0,1 0,1 1,0 1,0 1,1 0,0 0,1 -1,1 0,0 0,0 -1,1 0,0 0,0 -1,0 -1,0 -1,0 -2,-1 0,0 -1,-1 -1,-1z"/>
   <polygon id="17" class="fil3" points="165,39 165,32 170,32 170,33 166,33 166,35 169,35 169,36 166,36 166,38 170,38 170,39 "/>
   <polygon id="18" class="fil3" points="171,39 171,32 172,32 172,35 175,35 175,32 176,32 176,39 175,39 175,36 172,36 172,39 "/>
   <path id="19" class="fil3" d="M183 39l-1 0 -1 -2 -2 0 -1 2 -1 0 2 -7 2 0 2 7zm-2 -3l-1 -2 -1 2 2 0z"/>
   <polygon id="20" class="fil3" points="185,39 185,33 183,33 183,32 188,32 188,33 186,33 186,39 "/>
   <path id="21" class="fil3" d="M194 39l-1 0 -1 -2 -3 0 0 2 -2 0 3 -7 1 0 3 7zm-2 -3l-1 -2 -1 2 2 0z"/>
   <polygon id="22" class="fil3" points="195,39 195,32 196,32 199,37 199,32 200,32 200,39 199,39 196,34 196,39 "/>
   <path id="23" class="fil3" d="M204 39l0 -7 2 0c1,0 1,0 1,0 1,0 1,1 1,1 1,0 1,1 1,1 0,1 0,1 0,1 -1,1 -1,1 -1,1 0,0 0,0 -1,0 0,0 0,0 -1,0l-1 0 0 3 -1 0zm1 -6l0 2 1 0c0,0 1,0 1,0 0,0 0,0 0,0 0,0 0,-1 0,-1 0,0 0,0 0,0 0,0 0,-1 0,-1 -1,0 -1,0 -1,0l-1 0z"/>
   <polygon id="24" class="fil3" points="210,39 210,32 215,32 215,33 211,33 211,35 214,35 214,36 211,36 211,38 215,38 215,39 "/>
   <path id="25" class="fil3" d="M219 36l0 -1 3 0 0 3c-1,0 -1,0 -1,1 -1,0 -2,0 -2,0 -1,0 -1,0 -2,-1 0,0 -1,0 -1,-1 0,0 0,-1 0,-2 0,0 0,-1 0,-1 0,-1 1,-1 1,-2 1,0 1,0 2,0 1,0 1,0 2,1 0,0 1,0 1,1l-2 0c0,0 0,0 0,0 0,-1 -1,-1 -1,-1 -1,0 -1,0 -2,1 0,0 0,1 0,1 0,1 0,2 1,2 0,1 0,1 1,1 0,0 0,0 1,0 0,-1 0,-1 0,-1l0 -1 -1 0z"/>
   <path id="26" class="fil3" d="M229 39l-2 0 0 -2 -3 0 0 2 -2 0 3 -7 1 0 3 7zm-3 -3l-1 -2 0 2 1 0z"/>
   <polygon id="27" class="fil3" points="230,39 228,32 230,32 231,37 232,32 233,32 235,37 236,32 237,32 235,39 234,39 233,34 231,39 "/>
   <path id="28" class="fil3" d="M243 39l-2 0 0 -2 -3 0 0 2 -2 0 3 -7 1 0 3 7zm-2 -3l-1 -2 -1 2 2 0z"/>
   <polygon id="29" class="fil3" points="244,39 244,32 245,32 245,39 "/>
   <g>
    <path class="fil3" d="M57 164l2 -1c0,1 0,1 0,1 1,1 1,1 1,1 1,0 1,0 1,-1 1,0 1,0 1,0 0,0 0,-1 0,-1 0,0 -1,0 -1,0 0,0 0,0 -1,0 -1,0 -1,-1 -2,-1 0,0 0,-1 0,-1 0,-1 0,-1 0,-1 0,-1 0,-1 1,-1 0,0 1,0 1,0 1,0 2,0 2,0 1,1 1,1 1,2l-1 0c-1,-1 -1,-1 -1,-1 0,0 0,0 -1,0 0,0 0,0 -1,0 0,0 0,0 0,0 0,1 0,1 0,1 0,0 1,0 2,0 0,1 1,1 1,1 0,0 1,0 1,1 0,0 0,0 0,1 0,0 0,1 0,1 0,0 -1,1 -1,1 -1,0 -1,0 -2,0 -1,0 -1,0 -2,-1 0,0 0,-1 -1,-1z"/>
    <polygon id="1" class="fil3" points="64,166 64,159 70,159 70,160 66,160 66,161 69,161 69,163 66,163 66,165 70,165 70,166 "/>
    <polygon id="2" class="fil3" points="71,166 71,159 72,159 72,162 75,162 75,159 77,159 77,166 75,166 75,163 72,163 72,166 "/>
    <path id="3" class="fil3" d="M85 166l-2 0 -1 -2 -2 0 -1 2 -1 0 2 -7 2 0 3 7zm-3 -3l-1 -3 -1 3 2 0z"/>
    <polygon id="4" class="fil3" points="86,166 86,160 84,160 84,159 90,159 90,160 88,160 88,166 "/>
    <path id="5" class="fil3" d="M90 164l1 0 0 1c0,1 0,1 0,1 0,1 0,1 -1,1 0,0 0,0 0,0l-1 0c1,0 1,0 1,-1 0,0 0,0 0,0l0 0 0 -2z"/>
    <path id="6" class="fil3" d="M92 159l3 0c1,0 1,0 1,0 1,0 1,0 1,0 0,0 1,0 1,1 0,0 0,0 0,0 0,1 0,1 0,1 0,1 -1,1 -1,1 0,0 1,0 1,1 0,0 0,0 0,1 0,0 0,0 0,1 0,0 0,0 0,0 -1,1 -1,1 -1,1 -1,0 -1,0 -2,0l-3 0 0 -7zm2 1l0 2 1 0c0,0 1,0 1,-1 0,0 0,0 0,0 1,0 1,0 1,0 0,-1 0,-1 -1,-1 0,0 0,0 0,0 0,0 -1,0 -1,0l-1 0zm0 3l0 2 1 0c1,0 1,0 1,0 0,0 1,-1 1,-1 0,0 0,0 0,0 0,-1 0,-1 0,-1 0,0 -1,0 -1,0 0,0 0,0 -1,0l-1 0z"/>
    <path id="7" class="fil3" d="M100 159l1 0 0 4c0,0 0,1 0,1 0,0 0,0 0,0 1,1 1,1 1,1 1,0 1,0 1,-1 1,0 1,0 1,0 0,0 0,-1 0,-1l0 -4 1 0 0 3c0,1 0,2 0,2 0,1 0,1 0,1 -1,0 -1,1 -1,1 -1,0 -1,0 -2,0 0,0 -1,0 -1,0 0,0 -1,-1 -1,-1 0,0 0,0 0,-1 0,0 0,-1 0,-2l0 -3z"/>
    <path id="8" class="fil3" d="M110 163l0 -1 3 0 0 3c0,0 -1,0 -1,1 -1,0 -1,0 -2,0 -1,0 -1,0 -2,-1 0,0 -1,0 -1,-1 0,0 -1,-1 -1,-2 0,-1 1,-1 1,-2 0,0 1,-1 1,-1 1,0 1,0 2,0 1,0 2,0 2,0 1,1 1,1 1,2l-1 0c0,0 -1,-1 -1,-1 0,0 -1,0 -1,0 -1,0 -1,0 -1,0 -1,1 -1,1 -1,2 0,1 0,2 1,2 0,0 0,1 1,1 0,0 1,0 1,0 0,-1 0,-1 1,-1l0 -1 -2 0z"/>
    <path id="9" class="fil3" d="M121 166l-2 0 0 -2 -3 0 -1 2 -1 0 3 -7 1 0 3 7zm-3 -3l-1 -3 -1 3 2 0z"/>
    <path id="10" class="fil3" d="M122 166l0 -7 3 0c0,0 1,0 1,0 1,0 1,0 1,1 0,0 0,0 0,1 0,0 0,1 0,1 0,0 -1,1 -1,1 0,0 0,0 0,0 1,0 1,1 1,1l1 2 -2 0 -1 -2c0,0 0,-1 0,-1 -1,0 -1,0 -1,0 0,0 0,0 -1,0l0 0 0 3 -1 0zm1 -4l1 0c1,0 1,0 1,0 1,0 1,-1 1,-1 0,0 0,0 0,0 0,0 0,-1 0,-1 0,0 -1,0 -1,0 0,0 0,0 -1,0l-1 0 0 2z"/>
    <path id="11" class="fil3" d="M129 164l1 0 0 1c0,1 0,1 0,1 0,1 0,1 0,1 -1,0 -1,0 -1,0l0 0c0,0 0,0 0,-1 0,0 0,0 0,0l0 0 0 -2z"/>
    <polygon id="12" class="fil3" points="132,166 132,159 134,159 135,164 136,159 138,159 138,166 137,166 137,160 136,166 134,166 133,160 133,166 "/>
    <path id="13" class="fil3" d="M146 166l-1 0 -1 -2 -3 0 0 2 -2 0 3 -7 1 0 3 7zm-2 -3l-1 -3 -1 3 2 0z"/>
    <polygon id="14" class="fil3" points="147,166 147,159 148,159 151,163 151,159 153,159 153,166 151,166 148,161 148,166 "/>
    <path id="15" class="fil3" d="M154 159l3 0c0,0 1,0 1,0 1,0 1,0 1,0 1,1 1,1 1,2 0,0 0,1 0,1 0,1 0,1 0,2 0,0 0,1 -1,1 0,0 0,1 -1,1 0,0 -1,0 -1,0l-3 0 0 -7zm2 1l0 5 1 0c0,0 0,0 1,0 0,-1 0,-1 0,-1 0,0 0,0 1,0 0,-1 0,-1 0,-2 0,0 0,-1 0,-1 -1,0 -1,-1 -1,-1 0,0 0,0 -1,0 0,0 0,0 -1,0l0 0z"/>
    <polygon id="16" class="fil3" points="161,166 161,159 163,159 163,166 "/>
    <path id="17" class="fil3" d="M164 166l0 -7 3 0c1,0 1,0 2,0 0,0 0,0 1,1 0,0 0,0 0,1 0,0 0,1 -1,1 0,0 0,1 -1,1 0,0 1,0 1,0 0,0 0,1 1,1l1 2 -2 0 -1 -2c-1,0 -1,-1 -1,-1 0,0 0,0 0,0 -1,0 -1,0 -1,0l0 0 0 3 -2 0zm2 -4l1 0c0,0 1,0 1,0 0,0 0,-1 0,-1 0,0 0,0 0,0 0,0 0,-1 0,-1 0,0 0,0 0,0 0,0 -1,0 -1,0l-1 0 0 2z"/>
    <polygon id="18" class="fil3" points="171,166 171,159 173,159 173,166 "/>
    <path id="19" class="fil3" d="M174 164l1 0 0 1c0,1 0,1 0,1 0,1 0,1 0,1 0,0 -1,0 -1,0l0 0c0,0 0,0 0,-1 1,0 1,0 1,0l-1 0 0 -2z"/>
    <path id="20" class="fil3" d="M183 165l-1 1c0,0 -1,0 -1,-1 0,0 0,1 -1,1 0,0 0,0 -1,0 -1,0 -1,0 -2,-1 0,0 0,-1 0,-1 0,-1 0,-1 0,-1 0,-1 1,-1 1,-1 0,-1 0,-1 0,-1 -1,0 -1,-1 -1,-1 0,0 1,-1 1,-1 0,0 1,0 1,0 1,0 2,0 2,0 0,0 0,1 0,1 0,0 0,1 0,1 0,0 0,1 -1,1l1 1c0,0 0,0 0,-1l2 1c-1,0 -1,0 -1,1 0,0 0,0 0,0 0,0 0,0 1,1 0,0 0,0 0,0zm-4 -4l1 0c0,0 0,-1 0,-1 0,0 0,0 0,0 0,0 0,0 -1,0 0,0 0,0 0,0 0,0 0,0 0,0 0,0 0,0 0,1l0 0zm0 2c0,0 -1,0 -1,0 0,0 0,1 0,1 0,0 0,0 0,1 0,0 1,0 1,0 0,0 0,0 1,0 0,0 0,-1 0,-1l-1 -1z"/>
    <path id="21" class="fil3" d="M187 166l0 -7 2 0c1,0 2,0 2,0 0,0 1,0 1,1 0,0 0,0 0,1 0,0 0,1 0,1 0,0 0,1 -1,1 0,0 0,0 0,0 -1,0 -1,0 -2,0l-1 0 0 3 -1 0zm1 -6l0 2 1 0c1,0 1,0 1,0 0,0 0,0 1,-1 0,0 0,0 0,0 0,0 0,-1 -1,-1 0,0 0,0 0,0 0,0 -1,0 -1,0l-1 0z"/>
    <path id="22" class="fil3" d="M193 166l0 -7 3 0c1,0 2,0 2,0 0,0 1,0 1,1 0,0 0,0 0,1 0,0 0,1 0,1 -1,0 -1,1 -2,1 1,0 1,0 1,0 0,0 1,1 1,1l1 2 -2 0 -1 -2c0,0 -1,-1 -1,-1 0,0 0,0 0,0 0,0 -1,0 -1,0l0 0 0 3 -2 0zm2 -4l1 0c1,0 1,0 1,0 0,0 0,-1 1,-1 0,0 0,0 0,0 0,0 0,-1 0,-1 -1,0 -1,0 -1,0 0,0 0,0 -1,0l-1 0 0 2z"/>
    <path id="23" class="fil3" d="M200 162c0,0 0,-1 1,-2 0,0 0,0 0,-1 1,0 1,0 1,0 1,0 1,0 2,0 1,0 2,0 2,1 1,0 1,1 1,2 0,1 0,2 -1,3 0,1 -1,1 -2,1 -1,0 -2,0 -3,-1 0,-1 -1,-2 -1,-3zm2 0c0,1 0,2 0,2 1,1 1,1 2,1 0,0 1,0 1,-1 1,0 1,-1 1,-2 0,-1 0,-1 -1,-2 0,0 -1,0 -1,0 -1,0 -1,0 -2,0 0,1 0,1 0,2z"/>
    <path id="24" class="fil3" d="M208 159l3 0c0,0 1,0 1,0 1,0 1,0 1,0 1,1 1,1 1,2 0,0 0,1 0,1 0,1 0,1 0,2 0,0 0,1 -1,1 0,0 0,1 -1,1 0,0 0,0 -1,0l-3 0 0 -7zm2 1l0 5 1 0c0,0 0,0 1,0 0,-1 0,-1 0,-1 0,0 1,0 1,0 0,-1 0,-1 0,-2 0,0 0,-1 0,-1 0,0 -1,-1 -1,-1 0,0 0,0 0,0 -1,0 -1,0 -2,0l0 0z"/>
    <path id="25" class="fil3" d="M215 159l2 0 0 4c0,0 0,1 0,1 0,0 0,0 0,0 1,1 1,1 1,1 1,0 1,0 1,-1 0,0 1,0 1,0 0,0 0,-1 0,-1l0 -4 1 0 0 3c0,1 0,2 0,2 0,1 0,1 0,1 -1,0 -1,1 -1,1 -1,0 -1,0 -2,0 0,0 -1,0 -1,0 -1,0 -1,-1 -1,-1 0,0 0,0 0,-1 0,0 -1,-1 -1,-2l0 -3z"/>
    <polygon id="26" class="fil3" points="223,166 223,159 224,159 224,162 227,159 229,159 226,161 229,166 227,166 225,162 224,164 224,166 "/>
    <polygon id="27" class="fil3" points="231,166 231,160 229,160 229,159 235,159 235,160 233,160 233,166 "/>
    <polygon id="28" class="fil3" points="236,166 236,159 237,159 237,166 "/>
    <polygon id="29" class="fil3" points="239,166 239,159 244,159 244,160 240,160 240,162 243,162 243,163 240,163 240,166 "/>
    <polygon class="fil3" points="115,179 115,172 116,172 116,179 "/>
    <path id="1" class="fil3" d="M118 177l1 0c0,0 0,0 0,1 0,0 1,0 1,0 0,0 1,0 1,0 0,-1 0,-1 0,-1 0,-1 0,-1 -1,-1 0,0 0,0 0,0 -1,-1 -1,-1 -2,-1 0,-1 0,-1 0,-2 0,0 0,-1 0,-1 1,0 1,-1 2,-1 1,0 1,1 1,1 1,0 1,0 1,1l-1 0c0,0 0,0 0,0 -1,-1 -1,-1 -1,-1 0,0 0,1 -1,1 0,0 0,0 0,0 0,1 0,1 1,2 0,0 0,0 0,0 1,0 2,0 2,1 0,0 0,0 0,1 0,0 0,1 0,1 -1,1 -1,1 -2,1 -1,0 -1,0 -2,-1 0,0 0,0 0,-1z"/>
    <path id="2" class="fil3" d="M130 175c0,0 0,-1 -1,-1 0,0 0,0 0,-1 0,0 -1,0 -1,0 0,0 -1,-1 -1,-1 0,0 -1,1 -1,1 0,0 -1,0 -1,0 0,1 0,1 0,1 -1,0 -1,1 -1,1 0,1 0,1 1,1 0,1 0,1 0,1 0,0 1,0 1,1 0,0 1,0 1,0 0,0 1,0 1,0 0,-1 1,-1 1,-1 0,0 0,0 0,-1 1,0 1,0 1,-1zm1 0c0,1 0,1 0,2 -1,0 -1,0 -1,1 -1,0 -1,0 -2,1 0,0 0,0 -1,0 0,0 -1,0 -1,0 -1,-1 -1,-1 -2,-1 0,-1 0,-1 0,-1 -1,-1 -1,-1 -1,-2 0,0 0,-1 1,-1 0,-1 0,-1 0,-1 1,-1 1,-1 2,-1 0,0 1,-1 1,-1 1,0 1,1 1,1 1,0 1,0 2,1 0,0 0,0 1,1 0,0 0,1 0,1z"/>
    <path id="3" class="fil3" d="M139 174c0,-1 0,-1 -1,-1 0,0 0,-1 -1,-1 0,0 0,1 -1,1 0,0 0,0 0,1 0,0 0,1 0,1 1,0 1,0 1,0 1,0 1,0 1,0 1,0 1,-1 1,-1zm-1 2c0,0 0,0 0,0 -1,0 -1,0 -1,0 -1,0 -1,0 -2,0 0,-1 0,-1 0,-2 0,-1 0,-1 1,-2 0,0 1,0 1,0 1,0 2,0 2,0 1,1 1,1 1,2 0,1 -1,2 -2,3l0 0 -1 2 -1 0 2 -3z"/>
    <path id="4" class="fil3" d="M146 175c0,1 0,2 -1,3 0,1 -1,1 -2,1 0,0 -1,0 -2,-1 0,-1 0,-2 0,-3 0,-1 0,-2 0,-3 1,0 2,0 2,0 1,0 2,0 2,0 1,1 1,2 1,3zm-3 3c1,0 1,0 1,-1 1,0 1,-1 1,-2 0,-1 0,-1 -1,-2 0,0 0,0 -1,0 0,0 0,0 -1,0 0,1 0,1 0,2 0,1 0,2 0,2 1,1 1,1 1,1z"/>
    <path id="5" class="fil3" d="M152 175c0,1 0,2 -1,3 0,1 -1,1 -2,1 0,0 -1,0 -1,-1 -1,-1 -1,-2 -1,-3 0,-1 0,-2 1,-3 0,0 1,0 1,0 1,0 2,0 2,0 1,1 1,2 1,3zm-3 3c1,0 1,0 1,-1 1,0 1,-1 1,-2 0,-1 0,-1 -1,-2 0,0 0,0 -1,0 0,0 0,0 -1,0 0,1 0,1 0,2 0,1 0,2 0,2 1,1 1,1 1,1z"/>
    <polygon id="6" class="fil3" points="155,179 155,173 154,173 154,172 156,172 156,179 "/>
    <polygon id="7" class="fil3" points="159,176 162,176 162,177 159,177 "/>
    <path id="8" class="fil3" d="M167 178l0 1 -4 0 2 -3c1,-1 1,-1 1,-2 0,0 0,0 0,0 0,-1 0,-1 0,-1 0,0 -1,0 -1,0 0,0 0,0 -1,0 0,0 0,0 0,1l-1 0c0,-1 0,-2 0,-2 1,0 1,0 2,0 1,0 1,0 2,0 0,0 0,1 0,1 0,1 0,1 0,2 0,0 -1,1 -1,2l-1 1 2 0z"/>
    <path id="9" class="fil3" d="M174 175c0,1 0,2 -1,3 0,1 -1,1 -2,1 0,0 -1,0 -1,-1 -1,-1 -1,-2 -1,-3 0,-1 0,-2 1,-3 0,0 1,0 2,0 0,0 1,0 1,0 1,1 1,2 1,3zm-3 3c1,0 1,0 2,-1 0,0 0,-1 0,-2 0,-1 0,-1 0,-2 -1,0 -1,0 -1,0 -1,0 -1,0 -2,0 0,1 0,1 0,2 0,1 0,2 0,2 1,1 1,1 1,1z"/>
    <path id="10" class="fil3" d="M180 175c0,1 0,2 -1,3 0,1 -1,1 -1,1 -1,0 -2,0 -2,-1 -1,-1 -1,-2 -1,-3 0,-1 0,-2 1,-3 0,0 1,0 2,0 0,0 1,0 1,0 1,1 1,2 1,3zm-3 3c1,0 1,0 2,-1 0,0 0,-1 0,-2 0,-1 0,-1 0,-2 -1,0 -1,0 -1,0 -1,0 -1,0 -2,0 0,1 0,1 0,2 0,1 0,2 0,2 1,1 1,1 1,1z"/>
    <path id="11" class="fil3" d="M182 175c0,0 0,0 0,-1 -1,0 -1,0 -1,-1 0,0 1,-1 1,-1 0,0 1,0 2,0 0,0 1,0 1,0 1,0 1,1 1,1 0,1 0,1 -1,1 0,1 0,1 0,1 0,0 0,0 1,1 0,0 0,0 0,1 0,0 0,1 -1,1 0,1 -1,1 -1,1 -1,0 -2,0 -2,-1 -1,0 -1,-1 -1,-1 0,-1 0,-1 0,-1 1,-1 1,-1 1,-1zm2 -3c-1,0 -1,1 -1,1 0,0 -1,0 -1,0 0,1 1,1 1,1 0,0 0,0 1,0 0,0 0,0 0,0 1,0 1,0 1,-1 0,0 0,0 -1,0 0,0 0,-1 0,-1zm0 6c0,0 0,0 0,0 1,-1 1,-1 1,-1 0,-1 0,-1 -1,-1 0,0 0,-1 0,-1 -1,0 -1,1 -1,1 -1,0 -1,0 -1,1 0,0 0,0 1,1 0,0 0,0 1,0z"/>
   </g>
  </g>
 </g>
</svg>
