<?xml version="1.0" encoding="UTF-8"?>
<!DOCTYPE svg PUBLIC "-//W3C//DTD SVG 1.1//EN" "http://www.w3.org/Graphics/SVG/1.1/DTD/svg11.dtd">
<!-- Creator: CorelDRAW X8 -->
<svg xmlns="http://www.w3.org/2000/svg" xml:space="preserve" width="69.3243mm" height="48.6857mm" version="1.1" style="shape-rendering:geometricPrecision; text-rendering:geometricPrecision; image-rendering:optimizeQuality; fill-rule:evenodd; clip-rule:evenodd"
viewBox="0 0 1150 808"
 xmlns:xlink="http://www.w3.org/1999/xlink">
 <defs>
  <style type="text/css">
   <![CDATA[
    .fil1 {fill:#FEFEFE}
    .fil0 {fill:#0A76B7}
   ]]>
  </style>
 </defs>
 <g id="Layer_x0020_1">
  <metadata id="CorelCorpID_0Corel-Layer"/>
  <polygon class="fil0" points="0,0 1150,0 1150,808 0,808 "/>
  <path class="fil1" d="M1043 461c-6,0 -14,-4 -17,-13 -8,-21 -1,-100 32,-100 23,0 22,9 20,25 -2,18 -12,59 -21,75 -2,4 -8,13 -14,13zm-38 12c9,13 29,26 44,17 12,-7 14,-17 18,-18 3,5 -14,75 -35,75 -17,0 -7,-4 -19,-4 -6,0 -1,9 1,14 2,3 4,6 7,9 17,18 49,8 58,-16 1,-2 1,-2 2,-4 18,-31 44,-170 27,-194 -16,-24 -73,-49 -94,-23 -24,30 -31,112 -9,144z"/>
  <path class="fil1" d="M782 440c-32,0 2,-101 10,-116 5,-8 18,-16 27,-16 21,0 -8,84 -12,100 -3,12 -10,32 -25,32zm-36 18c18,33 48,37 65,1 5,-11 10,-25 13,-37 1,-5 -1,-2 3,-4 6,13 -10,81 12,81 18,0 15,-175 15,-194 0,-9 -6,-17 -11,-21 -21,-15 -57,9 -72,24 -9,8 -10,12 -14,19 -14,20 -24,108 -11,131z"/>
  <g id="_561676040">
   <path class="fil1" d="M305 354c0,-1 0,-7 0,-9 0,-3 4,-2 7,-2 6,0 14,-1 19,-1l0 13 -26 -1zm118 -8c1,1 0,3 0,5 0,6 2,5 -12,5 -14,0 -12,2 -12,-12 4,-1 9,0 13,1l9 0c2,0 1,0 2,1zm-58 -5l32 3 0 11 -33 0 1 -14zm-3 0l0 14 -28 -1 0 -12 28 -1zm-78 13c0,-2 0,-6 0,-8 0,-3 1,-2 4,-2 4,0 11,-1 15,0 0,1 0,3 0,5l-1 5c0,0 0,0 0,0 -2,1 -15,1 -18,0zm-20 0c0,-10 -1,-9 4,-9 4,-1 9,-1 14,-1l-1 10 -17 0zm-3 -9c0,2 0,3 0,5 0,1 0,1 0,2 0,2 0,1 -1,2 -3,1 -15,0 -20,0l0 -8 21 -1zm-21 -2c0,-2 -1,-8 1,-9 1,0 7,-1 8,0l0 9 -9 0zm12 -10c3,0 6,0 8,-1 2,0 3,0 5,0l4 0 0 10 -17 0 0 -9zm19 -2c3,0 15,-1 18,-1 1,3 1,9 0,11 -3,0 -6,0 -9,1 -2,0 -3,0 -5,0 -1,0 -1,0 -2,0 -3,-1 -2,-8 -2,-11zm44 -4c5,0 20,-3 24,-2l0 14 -22 1c-1,0 -1,0 -1,0l-1 0c-1,-3 -1,-10 0,-13zm50 12c-1,-4 -1,-13 0,-17l21 3c0,3 1,13 -1,14 -1,1 1,1 -2,1l-8 0c-4,-1 -7,-1 -10,-1zm-73 -10c4,0 17,-2 20,-1 0,4 0,9 0,13l-20 0 0 -12zm-32 -7l0 8 -20 2 1 -7 19 -3zm82 2c4,0 16,-2 20,-1l0 16 -20 0c0,-3 -1,-12 0,-15zm-79 -2c3,-1 8,-2 12,-3 3,0 4,-1 5,1 0,1 0,6 0,7 -1,1 -15,3 -17,2l0 -7zm20 -3c1,-1 0,-1 2,-1l16 -2 0 9c0,0 0,0 0,0 -1,1 -1,1 -1,1 -4,1 2,-1 -1,0l-16 1 0 -8zm21 -4c1,-1 17,-3 21,-4l2 1c0,-1 1,0 1,0l0 11c-2,1 -22,3 -24,2l0 -10zm-55 -2l0 8 -9 1 1 -7 8 -2zm81 -2c3,-1 30,-6 32,-5 0,4 1,11 0,14 -2,1 -28,3 -31,3l-1 -12zm-78 2c2,-2 12,-4 16,-4l0 9c-3,1 -13,3 -16,2l0 -7zm37 -10c0,4 1,9 0,12 -4,1 -15,3 -19,2l1 -9 18 -5zm3 0c2,-2 18,-5 20,-5l0 13 -19 3c0,-1 -1,0 -1,-1l0 -10zm-51 -2c5,-2 9,-3 14,-5 4,-2 4,-3 4,2 0,3 1,6 0,9 -2,2 -15,5 -18,5l0 -11zm98 -10c0,0 0,0 1,0l0 2c0,0 0,1 0,2l0 11c-2,1 -22,4 -26,4 0,-3 0,-10 1,-13l24 -6zm-60 -4l-1 16c-3,1 -14,4 -16,4l0 -14 17 -6zm3 -1c3,-2 15,-7 18,-7l0 19c-5,1 -14,4 -19,4l1 -16zm81 -1l-1 18 -19 3 0 -16 20 -5zm-60 -6c4,1 12,5 17,7l-1 5c0,2 0,1 -1,2 -2,1 -13,4 -15,3l0 -17zm60 -29l0 21 0 3 0 3 0 5 -35 8 0 -25 35 -15zm123 51l2 2 0 56c-1,-1 -1,0 -1,-2l0 -48c0,-6 0,-5 -1,-6 2,6 0,10 0,14l0 21c0,2 0,4 0,7 0,4 0,11 -1,13 -3,1 -25,0 -30,-1 -3,0 -25,1 -28,0 -2,-1 0,1 -2,-1 1,-2 1,-8 0,-10l1 -2c-3,0 -2,0 -2,-1l-7 0c-1,-1 -1,2 -1,-4l1 -11c-1,1 -1,0 -1,2 0,0 -1,1 -1,1 0,1 0,3 0,4 1,0 1,3 1,3 -1,3 0,1 -2,3l0 1 -26 -2c-1,-1 0,-6 0,-8 0,-2 0,-5 0,-8l-3 -1c-6,-1 -14,-2 -20,-3l0 -15 10 2c2,-1 0,0 2,0 0,0 1,-1 1,-1 0,0 1,0 2,0l-15 -3c0,-2 0,-11 0,-18l16 4c0,-1 -1,-1 -1,-1l4 -1 -19 -5 1 -32c6,2 31,16 34,15 2,2 1,0 1,3 0,1 0,3 0,4 0,4 1,3 1,7 0,4 0,9 0,13l0 -27 -38 -19 -39 17c0,5 0,11 0,16 1,14 2,12 -3,13l0 -7c-1,-1 -18,-9 -21,-9 -2,0 -37,14 -42,16 -7,2 -13,5 -21,8l0 56c8,1 22,1 31,1 10,0 21,0 31,0 21,0 42,0 63,0 14,0 120,3 124,2l1 -56c-2,-1 -1,0 -2,-2z"/>
   <path class="fil1" d="M475 350c12,-1 10,0 10,7l-10 0 0 -7zm-20 -2c2,0 14,1 17,1l0 8c-4,0 -14,0 -17,-1l0 -8zm10 -13l20 2 0 10c-3,1 -15,0 -19,-1l-1 -11zm-24 -3l22 3 0 11c-4,0 -13,-1 -17,-1 -4,-1 -6,2 -5,-13zm37 -5c3,0 4,1 7,2l0 5c-2,1 -5,0 -7,0l0 -7zm-25 -4c2,0 19,3 22,4l0 6c-5,0 -18,-1 -22,-2l0 -8zm-27 1l0 -6 24 4 0 8 -23 -2c-1,-1 0,0 -1,-2 0,-1 0,-2 0,-2zm-25 -11c24,3 24,2 22,14 -4,0 -12,-1 -16,-2 -7,-1 -6,2 -6,-12zm64 0c4,0 16,4 20,5l0 8 -20 -4 0 -9zm-26 4l0 -11 23 6 0 9 -23 -4zm-23 -18c2,0 18,5 20,6l1 11 -21 -3 0 -14zm63 3l7 2 -1 11c-2,0 -6,0 -7,-3 0,-2 0,-8 1,-10zm-89 -10c3,0 20,5 23,6l0 14c-4,0 -14,-3 -18,-3 -5,-1 -6,1 -5,-17zm86 8l0 12c-4,0 -18,-4 -22,-5 0,-4 1,-8 1,-11 0,-6 1,-5 5,-3 5,3 10,5 16,7zm-24 5c-3,1 -22,-5 -25,-6l1 -19c4,0 20,8 25,10l-1 15zm-44 -18c1,-1 14,-7 17,-7 0,5 0,15 -1,18 -3,0 -8,-2 -11,-3 -7,-2 -6,0 -5,-8zm-24 0l-4 1c0,0 1,0 1,1l6 2 0 16 -7 -1c-1,0 -2,0 -2,0 0,0 -1,1 -1,1 -2,0 0,-1 -2,0l23 5 0 12 -13 -1 3 1c0,3 0,6 0,8 0,2 -1,7 0,8l1 -14c2,-1 22,2 26,3l-1 12c2,-2 1,0 2,-3 0,0 0,-3 -1,-3 0,-1 0,-3 0,-4 0,0 1,-1 1,-1 0,-2 0,-1 1,-2l-1 11c0,6 0,3 1,4 0,-3 0,-10 0,-14l22 3 0 12 -15 -1c0,1 -1,1 2,1l-1 2c4,0 25,1 27,2 1,1 0,1 0,4 0,1 0,3 0,4 -3,1 -22,0 -27,0 2,2 0,0 2,1 3,1 25,0 28,0 5,1 27,2 30,1 1,-2 1,-9 1,-13 0,-3 0,-5 0,-7l0 -21c0,-4 2,-8 0,-14 1,1 1,0 1,6l0 48c0,2 0,1 1,2l0 -56 -2 -2c-6,-1 -15,-6 -21,-8l-30 -13c-3,-2 -7,-4 -10,-3 -3,1 -18,7 -20,8l0 8 -3 -1c0,-4 0,-9 0,-13 0,-4 -1,-3 -1,-7 0,-1 0,-3 0,-4 0,-3 1,-1 -1,-3l-1 26c-2,0 -13,-3 -15,-4z"/>
  </g>
  <path class="fil1" d="M50 295c14,19 51,39 72,50 -4,44 -21,111 -16,151 3,9 5,13 14,16 34,13 34,-135 34,-155 20,1 38,7 63,7 4,0 13,-8 4,-23 -8,-13 -62,-13 -71,-21 -6,-6 -10,-11 -22,-11 -8,0 -7,-1 -12,-4l-50 -30c-3,-2 -3,-1 -6,-3 -17,-10 -22,8 -10,23z"/>
  <path class="fil1" d="M880 499c8,-5 7,-5 12,-20 6,-31 13,-129 54,-129 18,0 -9,129 12,152 12,13 29,2 29,-4 0,-4 -3,-4 -5,-5 -19,-12 2,-125 -9,-159 -9,-19 -35,-31 -51,-13 -5,6 -9,14 -12,21 -2,6 -9,18 -9,24l-2 0c0,-11 6,-73 -10,-73 -9,0 -11,12 -11,20 -2,37 -2,134 -8,166 2,12 -1,18 10,20z"/>
  <path class="fil1" d="M217 504c-29,0 -27,-63 34,-76 4,0 7,3 9,6 -3,13 -15,37 -20,50 -4,9 -12,20 -23,20zm-47 -23c0,34 33,55 58,42 15,-7 14,-9 24,-21 1,-1 0,-1 3,-2 3,7 -3,33 11,35 3,-1 8,-3 10,-6 0,0 3,-33 4,-39 2,-15 6,-57 1,-69 -4,-9 -23,-14 -29,-14 -16,0 -40,3 -54,12 -15,10 -24,28 -26,46 -1,6 -2,9 -2,16z"/>
  <path class="fil1" d="M567 393c0,-5 13,-33 21,-41 18,-19 22,3 8,21 -2,2 -29,33 -29,20zm-32 63c0,6 1,8 3,12 15,33 54,33 69,1 5,-10 5,-18 -6,-8 -30,28 -40,-6 -40,-33 0,-5 7,-5 11,-7 22,-7 48,-40 54,-57 7,-15 9,-30 -5,-42 -12,-11 -32,0 -42,10 -38,32 -53,77 -44,124z"/>
  <path class="fil1" d="M290 502c0,9 -2,21 8,21 18,0 33,-69 52,-87 4,-4 24,-10 24,4l-1 17c-16,93 32,57 32,53 0,-7 -12,5 -10,-38 1,-16 8,-51 -1,-63 -12,-15 -32,-9 -46,-1 -5,3 -12,12 -15,18 -2,5 -7,20 -13,20 -1,-3 1,-30 -6,-47 -11,-12 -15,11 -17,18 -2,14 -7,69 -7,85z"/>
  <path class="fil1" d="M667 347l-4 0 1 -32c0,-8 -8,-25 -19,-15 -9,9 -16,167 -12,174 6,12 14,3 18,-5 15,-36 20,-76 30,-114 1,-4 10,-18 13,-20 9,-9 13,-2 26,-8 12,-6 24,-16 11,-29 -23,-25 -62,24 -64,49z"/>
  <path class="fil1" d="M458 490c-66,0 38,-142 38,-97 0,17 -17,72 -29,89 -1,2 -7,8 -9,8zm-33 21c21,6 45,0 56,-19 0,6 -4,20 -7,25 -7,13 -13,27 -30,27 -6,0 -17,-8 -17,2 0,5 11,9 15,10 18,4 31,6 47,-8 22,-20 49,-177 27,-185 -6,-3 -21,-2 -28,0 -47,19 -70,51 -79,99 -2,15 -2,45 16,49z"/>
 </g>
</svg>
