<?xml version="1.0" encoding="UTF-8"?>
<!DOCTYPE svg PUBLIC "-//W3C//DTD SVG 1.1//EN" "http://www.w3.org/Graphics/SVG/1.1/DTD/svg11.dtd">
<!-- Creator: CorelDRAW X8 -->
<svg xmlns="http://www.w3.org/2000/svg" xml:space="preserve" width="69.4528mm" height="48.8154mm" version="1.1" style="shape-rendering:geometricPrecision; text-rendering:geometricPrecision; image-rendering:optimizeQuality; fill-rule:evenodd; clip-rule:evenodd"
viewBox="0 0 1201 844"
 xmlns:xlink="http://www.w3.org/1999/xlink">
 <defs>
  <style type="text/css">
   <![CDATA[
    .str0 {stroke:#FEFEFE;stroke-width:2.28191}
    .fil2 {fill:none}
    .fil1 {fill:#FEFEFE}
    .fil0 {fill:url(#id1)}
   ]]>
  </style>
   <clipPath id="id0">
    <path d="M1 1l1199 0 0 842 -1199 0 0 -842z"/>
   </clipPath>
  <radialGradient id="id1" gradientUnits="objectBoundingBox" cx="50%" cy="50%" r="50%" fx="50%" fy="50%">
   <stop offset="0" style="stop-opacity:1; stop-color:#1B93BF"/>
   <stop offset="1" style="stop-opacity:1; stop-color:#006E96"/>
  </radialGradient>
 </defs>
 <g id="Layer_x0020_1">
  <metadata id="CorelCorpID_0Corel-Layer"/>
  <polygon class="fil0" points="1,1 1200,1 1200,843 1,843 "/>
  <g style="clip-path:url(#id0)">
   <g id="_581567128">
    <g id="_294879736">
     <path id="1" class="fil1" d="M874 452l0 -74c61,17 25,97 110,68 0,-7 -18,-45 -23,-53 -11,-15 -23,-31 -44,-36l8 -7c18,-13 41,-52 48,-69 -20,-8 -51,-8 -63,10 -13,15 -16,36 -36,46 0,-33 0,-64 0,-97 0,-28 0,-41 -54,-41l0 230c3,17 33,23 54,23l0 0z"/>
     <path class="fil1" d="M649 390c3,28 -23,26 -43,23 -23,-2 -33,-10 -38,-30 -8,5 -13,12 -18,20 -15,36 28,49 56,51 46,3 94,-8 97,-53 2,-54 -41,-54 -87,-62 -48,-7 0,-41 46,-18 13,6 10,8 18,18 5,-10 18,-23 10,-41 -10,-28 -99,-33 -127,-7 -23,18 -28,61 -3,76 28,18 69,11 89,23l0 0z"/>
     <path class="fil1" d="M387 350c-6,-44 81,-44 79,-21 -8,10 -23,13 -36,18 -18,3 -26,8 -41,13 -13,7 -25,18 -23,46 0,2 0,7 0,10l26 -15 20 -18 15 12 8 -7 84 20c0,-20 0,-38 0,-58 0,-39 -5,-57 -35,-69 -41,-13 -136,-8 -110,53 5,10 5,13 13,16l0 0zm-18 68c5,16 12,23 25,28 44,18 79,-5 125,8 0,-13 0,-23 0,-36l-150 0z"/>
     <path class="fil1" d="M336 383c-3,43 -46,33 -54,28 -13,-10 -10,-64 -8,-82 16,0 67,10 62,-41l-64 0c0,-30 -16,-35 -54,-35 -2,28 0,76 0,107 0,38 -2,63 23,81 23,13 64,18 89,5 39,-17 21,-58 6,-63l0 0z"/>
     <path class="fil1" d="M374 597c0,-26 -5,-79 7,-89 6,-3 18,-3 26,0 10,5 8,38 8,53 0,23 -3,39 25,36 0,-26 3,-51 0,-77 0,-40 -46,-40 -71,-30 -18,10 -3,-10 -61,0 -16,2 -16,-3 -29,-3 0,23 0,46 0,69 0,31 -7,38 29,41l0 -82c0,-10 5,-10 15,-10 38,-2 18,31 25,84 5,5 13,8 26,8l0 0z"/>
     <path class="fil1" d="M782 452c3,-36 0,-80 0,-115 0,-39 13,-59 -54,-61 0,38 0,79 0,117 0,18 -2,41 8,48 10,8 33,11 46,11l0 0z"/>
     <path class="fil1" d="M866 577c-10,0 -43,7 -38,-16 2,-10 25,-13 38,-18l0 34zm-56 -49c8,-13 8,-18 26,-23 17,-2 28,0 30,15 -23,16 -76,13 -64,57 11,35 64,12 90,20 0,-20 0,-41 0,-64 0,-20 0,-33 -18,-41 -28,-15 -95,-2 -64,36l0 0z"/>
     <path class="fil1" d="M517 574c-11,5 -41,8 -36,-13 3,-13 25,-10 36,-18l0 31zm-54 -46c8,-13 5,-18 26,-23 17,-2 28,0 28,18 -23,13 -74,10 -62,54 11,35 59,12 90,20 0,-20 0,-41 0,-64 0,-20 -3,-33 -18,-43 -28,-13 -92,-3 -64,38z"/>
     <path class="fil1" d="M626 574c-7,-28 18,-20 36,-31l0 31c-15,5 -23,5 -36,0zm-20 -46c8,-13 3,-15 23,-20 8,-3 28,-5 31,5 7,18 -39,20 -51,28 -8,7 -13,15 -11,30 5,41 67,21 90,26 2,-20 0,-43 0,-64 2,-23 0,-33 -18,-43 -13,-5 -87,-15 -64,38l0 0z"/>
     <path class="fil1" d="M767 523c-3,20 -8,36 -21,43 -35,-30 3,-76 -48,-79 0,16 2,44 7,56 6,21 13,26 26,39 -10,7 -23,18 -28,33 -5,20 8,36 28,28 0,-21 -10,-26 10,-41 33,-33 51,-31 56,-115 -28,3 -28,10 -30,36l0 0z"/>
     <path class="fil1" d="M558 477c0,26 0,56 0,84 0,28 15,44 40,31l-2 -3c0,0 0,0 0,-2 -3,0 -3,0 -3,0 -2,-3 -2,0 -5,-5 -8,-11 -2,-85 -2,-100l-28 -5 0 0z"/>
     <path class="fil1" d="M782 263c0,-13 3,-33 -8,-41 -7,-5 -33,-3 -43,-3 -8,49 8,46 51,44l0 0z"/>
    </g>
   </g>
  </g>
  <polygon class="fil2 str0" points="1,1 1200,1 1200,843 1,843 "/>
 </g>
</svg>
