<?xml version="1.0" encoding="UTF-8"?>
<!DOCTYPE svg PUBLIC "-//W3C//DTD SVG 1.1//EN" "http://www.w3.org/Graphics/SVG/1.1/DTD/svg11.dtd">
<!-- Creator: CorelDRAW X8 -->
<svg xmlns="http://www.w3.org/2000/svg" xml:space="preserve" width="191.15mm" height="49.5096mm" version="1.1" style="shape-rendering:geometricPrecision; text-rendering:geometricPrecision; image-rendering:optimizeQuality; fill-rule:evenodd; clip-rule:evenodd"
viewBox="0 0 2787 722"
 xmlns:xlink="http://www.w3.org/1999/xlink">
 <defs>
  <style type="text/css">
   <![CDATA[
    .fil2 {fill:#5F5D5D;fill-rule:nonzero}
    .fil1 {fill:#2482C1;fill-rule:nonzero}
    .fil0 {fill:#FBC904;fill-rule:nonzero}
   ]]>
  </style>
 </defs>
 <g id="Layer_x0020_1">
  <metadata id="CorelCorpID_0Corel-Layer"/>
  <g id="_585821752">
   <path class="fil0" d="M688 438c-25,9 -53,16 -91,16 -54,0 -96,-30 -79,-107l219 0c3,-9 6,-19 9,-31 20,-85 0,-166 -97,-166 -98,0 -175,82 -199,185 -25,105 19,175 123,175 47,0 88,-10 115,-21l0 -51 0 0zm-158 -143c14,-40 49,-93 102,-93 56,0 60,51 50,93l-152 0z"/>
   <path id="_1" class="fil1" d="M1091 431c-23,10 -58,17 -91,17 -99,0 -145,-66 -117,-183 29,-125 113,-188 206,-188 36,0 62,8 80,18l29 -60c-11,-7 -42,-19 -97,-19 -133,0 -257,89 -295,252 -36,153 33,242 166,242 52,0 95,-10 118,-20l1 -59 0 0z"/>
   <polygon id="_2" class="fil1" points="1346,0 1273,0 1155,503 1228,503 "/>
   <path id="_3" class="fil1" d="M1503 62c6,-24 -7,-43 -32,-43 -25,0 -47,19 -53,43 -5,23 7,42 32,42 27,0 48,-19 53,-42zm-29 95l-72 0 -82 346 73 0 81 -346z"/>
   <path id="_4" class="fil1" d="M1822 292c25,-107 -27,-142 -81,-142 -52,0 -96,29 -119,59l-2 0 9 -52 -64 0c-5,30 -11,59 -20,98l-58 248 72 0 49 -208c13,-55 58,-85 94,-85 50,0 56,41 45,90l-48 203 73 0 50 -211 0 0z"/>
   <path id="_5" class="fil1" d="M2046 62c6,-24 -7,-43 -32,-43 -25,0 -47,19 -53,43 -5,23 7,42 32,42 27,0 48,-19 53,-42zm-29 95l-72 0 -81 346 72 0 81 -346z"/>
   <path id="_6" class="fil1" d="M2267 438c-17,6 -39,13 -68,13 -60,0 -94,-45 -76,-121 16,-67 66,-123 134,-123 30,0 48,8 59,14l27 -55c-13,-8 -40,-16 -73,-16 -111,0 -197,79 -222,184 -25,107 24,176 124,176 40,0 75,-10 93,-18l2 -54 0 0z"/>
  </g>
  <g id="_585822256">
   <path class="fil2" d="M60 577c-4,-3 -12,-5 -23,-5 -21,0 -35,12 -35,30 0,15 12,25 29,31 15,6 21,13 21,24 0,13 -9,21 -24,21 -9,0 -18,-3 -24,-7l-4 10c6,4 17,7 27,7 25,0 38,-14 38,-32 0,-16 -10,-25 -28,-33 -15,-6 -22,-12 -22,-23 0,-8 6,-18 22,-18 9,0 16,3 20,5l3 -10 0 0z"/>
   <path id="_1_0" class="fil2" d="M98 583c0,-5 -3,-9 -8,-9 -5,0 -8,4 -8,9 0,4 3,8 8,8 5,0 8,-3 8,-8zm-2 22l-12 0 0 82 12 0 0 -82z"/>
   <path id="_2_1" class="fil2" d="M162 609c-4,-3 -10,-6 -18,-6 -17,0 -27,11 -27,24 0,9 7,17 21,23 11,4 15,8 15,16 0,7 -5,13 -16,13 -7,0 -14,-3 -18,-6l-4 10c6,3 13,5 21,5 18,0 29,-9 29,-24 0,-12 -8,-19 -21,-24 -10,-5 -15,-8 -15,-15 0,-6 5,-12 14,-12 7,0 13,3 16,5l3 -9 0 0z"/>
   <path id="_3_2" class="fil2" d="M187 605l-12 0 0 10 12 0 0 47c0,8 1,26 20,26 6,0 10,0 13,-2l-1 -9c-2,1 -5,1 -8,1 -8,0 -12,-6 -12,-16l0 -47 21 0 0 -10 -21 0 0 -18 -12 4 0 14 0 0z"/>
   <path id="_4_3" class="fil2" d="M292 674c-5,2 -11,4 -22,4 -14,0 -27,-8 -27,-31l55 0c0,-2 1,-4 1,-6 0,-15 -7,-38 -32,-38 -22,0 -36,19 -36,44 0,25 14,41 38,41 12,0 21,-3 25,-5l-2 -9 0 0zm-49 -36c1,-11 8,-25 23,-25 16,0 20,14 20,25l-43 0z"/>
   <path id="_5_4" class="fil2" d="M427 638c0,-28 -15,-35 -25,-35 -13,0 -21,7 -26,17l-1 0c-3,-10 -11,-17 -22,-17 -13,0 -20,7 -25,15l0 0 -1 -13 -11 0c1,7 1,13 1,21l0 61 12 0 0 -50c0,-13 9,-23 20,-23 11,0 17,10 17,23l0 50 12 0 0 -51c0,-13 9,-22 19,-22 12,0 18,10 18,26l0 47 12 0 0 -49 0 0z"/>
   <polygon id="_6_5" class="fil2" points="486,687 499,687 499,573 486,573 "/>
   <path id="_7" class="fil2" d="M589 637c0,-27 -18,-34 -28,-34 -12,0 -22,8 -26,16l0 0 -1 -14 -11 0c0,7 1,13 1,21l0 61 12 0 0 -50c0,-14 11,-23 21,-23 15,0 19,11 19,25l0 48 13 0 0 -50 0 0z"/>
   <path id="_8" class="fil2" d="M603 605l0 10 11 0 0 72 12 0 0 -72 20 0 0 -10 -20 0 0 -4c0,-13 4,-25 16,-25 5,0 7,1 10,2l2 -10c-3,-1 -7,-2 -12,-2 -7,0 -14,2 -19,7 -9,9 -9,22 -9,32l-11 0 0 0z"/>
   <path id="_9" class="fil2" d="M691 603c-21,0 -38,16 -38,43 0,27 16,42 37,42 18,0 38,-12 38,-43 0,-24 -15,-42 -37,-42zm24 43c0,18 -10,33 -25,33 -15,0 -24,-15 -24,-33 0,-15 7,-33 24,-33 18,0 25,18 25,33l0 0z"/>
   <path id="_10" class="fil2" d="M783 604c-1,0 -2,0 -3,0 -10,0 -19,7 -22,17l-1 0 0 -16 -11 0c0,8 0,16 0,25l0 57 13 0 0 -44c0,-14 7,-27 20,-27 2,0 3,0 4,0l0 -12 0 0z"/>
   <path id="_11" class="fil2" d="M908 638c0,-28 -15,-35 -25,-35 -13,0 -21,7 -26,17l-1 0c-3,-10 -11,-17 -22,-17 -13,0 -20,7 -25,15l0 0 -1 -13 -11 0c1,7 1,13 1,21l0 61 12 0 0 -50c0,-13 9,-23 20,-23 11,0 17,10 17,23l0 50 12 0 0 -51c0,-13 9,-22 19,-22 12,0 18,10 18,26l0 47 12 0 0 -49 0 0z"/>
   <path id="_12" class="fil2" d="M985 636c0,-16 -6,-33 -28,-33 -9,0 -19,3 -25,7l3 9c5,-4 13,-6 20,-6 18,0 18,16 18,22 -30,0 -47,11 -47,30 0,12 8,23 24,23 11,0 19,-5 24,-12l0 0 1 11 12 0c-1,-6 -2,-13 -2,-20l0 -31 0 0zm-12 24c0,10 -8,19 -20,19 -8,0 -14,-5 -14,-15 0,-17 19,-19 34,-19l0 15z"/>
   <path id="_13" class="fil2" d="M1051 609c-4,-3 -11,-6 -19,-6 -16,0 -26,11 -26,24 0,9 7,17 20,23 11,4 15,8 15,16 0,7 -5,13 -16,13 -7,0 -14,-3 -18,-6l-3 10c5,3 13,5 21,5 17,0 29,-9 29,-24 0,-12 -8,-19 -21,-24 -11,-5 -15,-8 -15,-15 0,-6 5,-12 13,-12 8,0 13,3 16,5l4 -9 0 0z"/>
   <path id="_14" class="fil2" d="M1087 583c0,-5 -3,-9 -8,-9 -5,0 -9,4 -9,9 0,4 4,8 8,8 5,0 9,-3 9,-8zm-2 22l-13 0 0 82 13 0 0 -82z"/>
   <path id="_15" class="fil2" d="M1244 573l-15 0 -21 58c-5,14 -9,26 -12,38l0 0c-3,-12 -7,-24 -11,-38l-21 -58 -15 0 -7 114 11 0 3 -50c1,-18 2,-36 3,-50l0 0c3,13 7,27 13,44l19 55 9 0 20 -57c6,-15 10,-29 14,-42l1 0c-1,11 1,32 1,49l3 51 12 0 -7 -114z"/>
   <path id="_16" class="fil2" d="M1326 636c0,-16 -6,-33 -29,-33 -9,0 -18,3 -24,7l3 9c5,-4 12,-6 19,-6 19,0 19,16 19,22 -30,0 -47,11 -47,30 0,12 8,23 24,23 11,0 19,-5 24,-12l0 0 1 11 12 0c-2,-6 -2,-13 -2,-20l0 -31zm-12 24c0,10 -8,19 -21,19 -7,0 -14,-5 -14,-15 0,-17 20,-19 35,-19l0 15z"/>
   <path id="_17" class="fil2" d="M1415 637c0,-27 -17,-34 -27,-34 -13,0 -22,8 -26,16l-1 0 0 -14 -11 0c0,7 0,13 0,21l0 61 12 0 0 -50c0,-14 11,-23 22,-23 14,0 19,11 19,25l0 48 12 0 0 -50 0 0z"/>
   <path id="_18" class="fil2" d="M1492 636c0,-16 -6,-33 -29,-33 -9,0 -18,3 -25,7l4 9c5,-4 12,-6 19,-6 19,0 19,16 19,22 -30,0 -47,11 -47,30 0,12 8,23 23,23 12,0 20,-5 24,-12l1 0 1 11 11 0c-1,-6 -1,-13 -1,-20l0 -31zm-12 24c0,10 -9,19 -21,19 -7,0 -14,-5 -14,-15 0,-17 20,-19 35,-19l0 15z"/>
   <path id="_19" class="fil2" d="M1532 583c0,-5 -3,-9 -8,-9 -5,0 -8,4 -8,9 0,4 3,8 8,8 5,0 8,-3 8,-8l0 0zm-2 22l-13 0 0 70c0,23 -1,35 -21,37l2 10c6,0 17,-3 23,-9 7,-7 9,-17 9,-33l0 -75z"/>
   <path id="_20" class="fil2" d="M1609 674c-5,2 -11,4 -21,4 -15,0 -28,-8 -28,-31l56 0c0,-2 0,-4 0,-6 0,-15 -7,-38 -32,-38 -22,0 -36,19 -36,44 0,25 14,41 38,41 12,0 21,-3 25,-5l-2 -9 0 0zm-49 -36c2,-11 8,-25 23,-25 16,0 21,14 21,25l-44 0z"/>
   <path id="_21" class="fil2" d="M1745 638c0,-28 -16,-35 -26,-35 -13,0 -21,7 -26,17l0 0c-4,-10 -12,-17 -23,-17 -12,0 -20,7 -24,15l-1 0 0 -13 -11 0c0,7 0,13 0,21l0 61 12 0 0 -50c0,-13 10,-23 20,-23 12,0 17,10 17,23l0 50 13 0 0 -51c0,-13 9,-22 19,-22 12,0 18,10 18,26l0 47 12 0 0 -49 0 0z"/>
   <path id="_22" class="fil2" d="M1824 674c-5,2 -12,4 -22,4 -14,0 -27,-8 -27,-31l55 0c0,-2 0,-4 0,-6 0,-15 -6,-38 -31,-38 -22,0 -36,19 -36,44 0,25 14,41 38,41 12,0 20,-3 25,-5l-2 -9 0 0zm-49 -36c1,-11 8,-25 23,-25 16,0 20,14 20,25l-43 0z"/>
   <path id="_23" class="fil2" d="M1914 637c0,-27 -17,-34 -28,-34 -12,0 -22,8 -26,16l0 0 -1 -14 -11 0c0,7 1,13 1,21l0 61 12 0 0 -50c0,-14 11,-23 22,-23 14,0 18,11 18,25l0 48 13 0 0 -50 0 0z"/>
   <path id="_24" class="fil2" d="M1973 687l12 0 0 -47c4,1 7,1 12,1 20,0 41,-10 41,-36 0,-9 -3,-32 -39,-32 -11,0 -20,0 -26,2l0 112zm12 -103c3,-1 7,-2 14,-2 15,0 27,8 27,24 0,16 -11,25 -29,25 -5,0 -9,0 -12,-1l0 -46 0 0z"/>
   <path id="_25" class="fil2" d="M2110 636c0,-16 -6,-33 -29,-33 -9,0 -18,3 -24,7l3 9c5,-4 13,-6 20,-6 18,0 18,16 18,22 -30,0 -47,11 -47,30 0,12 8,23 24,23 11,0 19,-5 24,-12l0 0 1 11 12 0c-1,-6 -2,-13 -2,-20l0 -31zm-12 24c0,10 -8,19 -20,19 -8,0 -14,-5 -14,-15 0,-17 19,-19 34,-19l0 15z"/>
   <path id="_26" class="fil2" d="M2176 609c-5,-3 -11,-6 -19,-6 -16,0 -26,11 -26,24 0,9 7,17 20,23 11,4 15,8 15,16 0,7 -5,13 -16,13 -7,0 -14,-3 -18,-6l-4 10c6,3 14,5 22,5 17,0 28,-9 28,-24 0,-12 -7,-19 -20,-24 -11,-5 -15,-8 -15,-15 0,-6 4,-12 13,-12 8,0 13,3 16,5l4 -9 0 0z"/>
   <path id="_27" class="fil2" d="M2212 583c0,-5 -4,-9 -8,-9 -5,0 -9,4 -9,9 0,4 4,8 8,8 5,0 9,-3 9,-8zm-2 22l-13 0 0 82 13 0 0 -82z"/>
   <path id="_28" class="fil2" d="M2289 674c-5,2 -11,4 -21,4 -15,0 -27,-8 -28,-31l56 0c0,-2 0,-4 0,-6 0,-15 -6,-38 -31,-38 -22,0 -37,19 -37,44 0,25 15,41 38,41 13,0 21,-3 26,-5l-3 -9 0 0zm-48 -36c1,-11 8,-25 22,-25 16,0 21,14 21,25l-43 0z"/>
   <path id="_29" class="fil2" d="M2379 637c0,-27 -17,-34 -27,-34 -13,0 -22,8 -26,16l0 0 -1 -14 -11 0c0,7 0,13 0,21l0 61 13 0 0 -50c0,-14 11,-23 21,-23 14,0 19,11 19,25l0 48 12 0 0 -50 0 0z"/>
   <path id="_30" class="fil2" d="M2470 621l40 -48 -15 0 -35 43c-3,4 -6,8 -9,13l0 0 0 -56 -12 0 0 114 12 0 0 -45 10 -12 37 57 15 0 -43 -66 0 0z"/>
   <polygon id="_31" class="fil2" points="2537,567 2524,567 2524,687 2537,687 "/>
   <path id="_32" class="fil2" d="M2575 583c0,-5 -3,-9 -8,-9 -5,0 -8,4 -8,9 0,4 3,8 8,8 5,0 8,-3 8,-8zm-2 22l-12 0 0 82 12 0 0 -82z"/>
   <path id="_33" class="fil2" d="M2663 637c0,-27 -17,-34 -28,-34 -12,0 -22,8 -26,16l0 0 -1 -14 -11 0c1,7 1,13 1,21l0 61 12 0 0 -50c0,-14 11,-23 22,-23 14,0 18,11 18,25l0 48 13 0 0 -50 0 0z"/>
   <path id="_34" class="fil2" d="M2701 583c0,-5 -3,-9 -8,-9 -5,0 -8,4 -8,9 0,4 3,8 8,8 5,0 8,-3 8,-8l0 0zm-2 22l-12 0 0 82 12 0 0 -82z"/>
   <path id="_35" class="fil2" d="M2752 639l31 -34 -15 0 -25 29c-2,3 -5,6 -7,9l0 0 0 -76 -12 0 0 120 12 0 0 -32 8 -9 27 41 16 0 -35 -48 0 0z"/>
  </g>
 </g>
</svg>
