<?xml version="1.0" encoding="UTF-8"?>
<!DOCTYPE svg PUBLIC "-//W3C//DTD SVG 1.1//EN" "http://www.w3.org/Graphics/SVG/1.1/DTD/svg11.dtd">
<!-- Creator: CorelDRAW X8 -->
<svg xmlns="http://www.w3.org/2000/svg" xml:space="preserve" width="155.057mm" height="43.7001mm" version="1.1" style="shape-rendering:geometricPrecision; text-rendering:geometricPrecision; image-rendering:optimizeQuality; fill-rule:evenodd; clip-rule:evenodd"
viewBox="0 0 16444 4635"
 xmlns:xlink="http://www.w3.org/1999/xlink">
 <defs>
  <style type="text/css">
   <![CDATA[
    .fil1 {fill:#FEFEFE}
    .fil0 {fill:#FEFEFE;fill-rule:nonzero}
   ]]>
  </style>
 </defs>
 <g id="Layer_x0020_1">
  <metadata id="CorelCorpID_0Corel-Layer"/>
  <g id="_633146880">
   <path class="fil0" d="M14375 1956c0,82 -19,156 -55,221 -37,66 -95,122 -172,169 -78,47 -177,83 -297,108 -119,25 -262,38 -428,38l-157 0c-4,26 -7,52 -9,77 -3,26 -4,50 -4,72 0,92 24,161 71,207 48,47 124,70 230,70 75,0 142,-5 202,-16 59,-11 112,-23 156,-36 46,-13 83,-25 112,-36 30,-11 51,-16 65,-16 14,0 24,4 29,11 6,8 9,21 9,38 0,19 -2,41 -5,66 -4,26 -9,51 -15,74 -6,25 -14,48 -24,70 -9,21 -20,38 -33,49 -14,14 -39,28 -75,41 -36,14 -80,26 -131,38 -52,11 -109,20 -173,28 -64,7 -128,11 -194,11 -110,0 -205,-12 -286,-34 -81,-23 -149,-58 -204,-104 -55,-47 -96,-106 -123,-178 -27,-73 -41,-158 -41,-257 0,-77 7,-158 22,-245 14,-87 37,-173 68,-257 32,-85 73,-166 123,-244 50,-77 111,-145 182,-204 72,-58 154,-105 247,-140 93,-36 200,-53 319,-53 103,0 192,12 266,37 75,24 136,57 183,97 48,40 84,87 107,139 23,51 35,104 35,159zm-423 31c0,-45 -17,-83 -53,-114 -36,-30 -87,-45 -154,-45 -57,0 -108,10 -152,31 -45,20 -85,48 -119,83 -33,35 -63,75 -88,122 -23,48 -43,98 -58,152l142 0c91,0 167,-6 227,-18 62,-12 111,-28 148,-48 38,-21 64,-45 81,-73 17,-28 26,-58 26,-90z"/>
   <path class="fil0" d="M10787 2133c0,82 -8,166 -23,252 -16,87 -40,171 -73,254 -33,82 -75,159 -127,232 -52,72 -114,135 -186,191 -72,55 -155,98 -248,130 -93,32 -198,48 -316,48 -115,0 -214,-13 -298,-40 -84,-27 -153,-66 -209,-118 -56,-52 -98,-115 -126,-191 -27,-76 -40,-162 -40,-260 0,-82 7,-166 23,-253 15,-86 40,-170 72,-252 33,-82 76,-159 128,-233 52,-73 113,-137 186,-191 72,-55 155,-98 248,-130 94,-32 199,-48 317,-48 114,0 213,13 297,40 84,27 153,66 209,118 56,52 98,115 125,191 27,76 41,162 41,260zm-444 30c0,-48 -5,-90 -15,-127 -9,-37 -25,-68 -47,-94 -23,-25 -51,-45 -85,-59 -35,-13 -78,-20 -128,-20 -57,0 -108,11 -154,33 -45,22 -86,52 -122,90 -36,37 -66,81 -93,130 -26,49 -48,102 -65,156 -17,55 -30,110 -37,166 -8,56 -12,110 -12,161 0,48 4,90 14,128 10,38 26,69 48,95 23,25 51,45 86,59 34,13 77,20 127,20 57,0 108,-11 154,-33 45,-22 86,-53 122,-91 36,-37 67,-82 93,-131 26,-49 48,-102 64,-157 17,-55 30,-110 38,-166 8,-56 12,-109 12,-160z"/>
   <g>
    <path class="fil1" d="M2317 0c1280,0 2318,1037 2318,2317 0,1280 -1038,2318 -2318,2318 -128,0 -253,-11 -376,-31 965,-15 1743,-802 1743,-1770 0,-978 -793,-1771 -1771,-1771 -978,0 -1771,793 -1771,1771 0,135 15,268 44,395 -120,-280 -186,-588 -186,-912 0,-1280 1037,-2317 2317,-2317z"/>
    <path class="fil1" d="M1860 1264c47,0 92,2 138,6 -649,33 -1164,570 -1164,1227 0,678 550,1228 1228,1228 679,0 1229,-550 1229,-1228 0,-196 -47,-382 -128,-547 174,254 276,561 276,893 0,872 -707,1578 -1579,1578 -872,0 -1578,-706 -1578,-1578 0,-872 706,-1579 1578,-1579z"/>
    <path class="fil1" d="M2062 1438c585,0 1059,474 1059,1059 0,573 -455,1039 -1023,1058 358,-86 625,-408 625,-793 0,-450 -365,-814 -815,-814 -450,0 -814,364 -814,814 0,80 11,158 33,231 -79,-148 -123,-317 -123,-496 0,-585 474,-1059 1058,-1059z"/>
   </g>
   <path class="fil1" d="M16153 1010c49,0 96,12 143,37 47,26 83,62 109,109 26,46 39,95 39,146 0,50 -13,99 -38,145 -26,46 -62,83 -108,108 -47,26 -95,39 -145,39 -51,0 -99,-13 -146,-39 -46,-25 -82,-62 -108,-108 -26,-46 -39,-95 -39,-145 0,-51 14,-100 40,-146 26,-47 62,-83 109,-109 47,-25 95,-37 144,-37zm0 48c-42,0 -81,11 -120,32 -39,21 -69,51 -91,90 -22,39 -33,80 -33,122 0,42 11,82 32,121 22,38 52,68 90,90 39,22 79,32 122,32 42,0 82,-10 121,-32 38,-22 68,-52 90,-90 21,-39 32,-79 32,-121 0,-42 -11,-83 -33,-122 -22,-39 -52,-69 -91,-90 -39,-21 -79,-32 -119,-32zm-129 405l0 -314 108 0c37,0 64,3 81,9 16,6 29,16 39,30 10,15 15,30 15,46 0,23 -9,43 -25,60 -16,17 -38,27 -65,29 11,4 20,10 27,16 12,13 28,34 46,63l38 61 -62 0 -27 -49c-22,-39 -40,-64 -53,-73 -10,-8 -23,-11 -41,-11l-30 0 0 133 -51 0zm51 -176l62 0c29,0 49,-5 60,-14 11,-8 16,-20 16,-35 0,-9 -3,-17 -8,-24 -5,-8 -12,-13 -21,-17 -10,-4 -26,-5 -51,-5l-58 0 0 95z"/>
   <path class="fil0" d="M15759 1687c0,13 -1,34 -5,61 -4,26 -10,53 -18,81 -8,27 -17,50 -28,71 -10,19 -23,29 -36,29 -14,0 -32,-5 -52,-16 -20,-10 -44,-22 -73,-35 -28,-13 -61,-24 -99,-35 -39,-10 -83,-15 -134,-15 -40,0 -75,5 -106,15 -32,11 -57,25 -78,42 -20,18 -36,39 -46,62 -11,24 -17,49 -17,77 0,35 15,64 44,88 29,24 65,47 108,68 43,21 90,43 139,66 50,22 97,51 140,85 43,34 79,75 107,124 29,49 43,110 43,184 0,87 -17,167 -50,240 -33,74 -81,137 -144,190 -63,54 -140,96 -230,125 -90,31 -192,46 -306,46 -54,0 -107,-4 -156,-12 -50,-8 -94,-17 -134,-28 -39,-11 -72,-24 -99,-39 -28,-14 -48,-28 -62,-40 -9,-9 -15,-19 -19,-29 -4,-11 -6,-23 -6,-39 0,-11 0,-24 2,-40 2,-15 5,-33 9,-53 4,-19 9,-39 13,-58 6,-19 11,-37 18,-53 7,-16 14,-28 23,-38 8,-10 16,-15 25,-15 16,0 34,7 53,20 19,14 44,29 75,46 31,16 68,31 113,45 46,15 102,22 169,22 46,0 86,-5 121,-16 34,-12 63,-27 85,-46 23,-19 39,-42 50,-67 11,-25 16,-52 16,-80 0,-40 -14,-72 -42,-98 -27,-25 -62,-48 -104,-69 -42,-22 -87,-44 -137,-67 -49,-23 -95,-50 -137,-84 -42,-32 -77,-74 -104,-123 -28,-49 -42,-110 -42,-184 0,-81 15,-155 46,-224 31,-70 76,-131 135,-182 59,-52 131,-93 215,-121 85,-30 180,-44 287,-44 48,0 94,3 139,9 45,7 86,15 121,25 36,10 68,21 94,33 27,13 46,26 58,38 11,11 16,31 16,58z"/>
   <path class="fil0" d="M12968 1054c0,20 -8,42 -23,65 -15,23 -39,52 -71,89l-783 828 465 985c10,23 16,42 21,59 4,16 7,31 7,45 0,16 -4,29 -11,40 -8,11 -21,20 -39,27 -18,7 -42,11 -73,15 -31,3 -71,5 -118,5 -48,0 -87,-1 -117,-4 -30,-3 -53,-8 -70,-13 -17,-6 -30,-14 -38,-24 -8,-10 -14,-22 -19,-36l-467 -1047 -207 1052c-2,13 -7,23 -17,32 -8,9 -22,15 -41,22 -19,6 -43,11 -72,14 -28,3 -64,4 -107,4 -45,0 -81,-1 -109,-4 -28,-3 -50,-8 -66,-14 -17,-7 -27,-13 -33,-22 -6,-9 -7,-19 -3,-32l416 -2088c1,-12 6,-23 15,-31 9,-9 23,-16 42,-22 19,-5 43,-10 72,-13 30,-3 67,-4 111,-4 43,0 79,1 106,4 28,3 50,8 65,13 16,6 27,13 32,22 6,8 8,19 6,31l-188 944 819 -937c11,-13 23,-26 36,-36 14,-10 30,-18 51,-24 21,-5 46,-10 76,-13 30,-3 67,-4 111,-4 45,0 82,1 111,4 29,3 51,8 67,14 16,6 27,14 33,22 6,9 10,20 10,32z"/>
   <path class="fil0" d="M9378 927c0,7 0,19 -2,34 -2,15 -4,33 -7,52 -3,19 -6,40 -11,60 -5,20 -10,40 -16,57 -6,18 -14,32 -21,43 -8,11 -17,17 -26,17 -7,0 -16,-2 -26,-6 -11,-3 -23,-7 -37,-11 -13,-4 -29,-7 -46,-11 -19,-3 -37,-5 -58,-5 -36,0 -67,5 -94,15 -27,11 -49,27 -69,49 -19,22 -35,51 -49,86 -14,35 -25,77 -34,126l-26 129 274 0c17,0 29,6 36,17 6,11 10,28 10,52 0,11 -1,26 -3,44 -1,19 -5,38 -9,60 -5,21 -10,42 -17,62 -7,20 -14,40 -22,57 -8,17 -17,30 -28,42 -11,11 -22,16 -35,16l-278 0 -269 1337c-19,94 -46,177 -79,248 -34,72 -76,132 -127,180 -51,49 -112,85 -182,110 -70,24 -149,37 -237,37 -60,0 -109,-5 -149,-14 -40,-9 -66,-18 -77,-28 -6,-6 -10,-14 -12,-22 -2,-8 -4,-19 -4,-34 0,-7 1,-18 3,-34 1,-16 4,-34 8,-53 3,-18 7,-38 13,-59 5,-20 10,-39 17,-56 6,-17 13,-31 21,-42 8,-11 17,-17 27,-17 7,0 14,1 21,2 7,1 14,3 23,5 7,1 17,3 28,4 11,1 25,2 42,2 36,0 68,-6 94,-17 27,-10 50,-27 69,-50 19,-23 36,-52 50,-87 13,-36 25,-79 35,-130l258 -1282 -191 0c-13,0 -24,-5 -31,-15 -8,-10 -11,-28 -11,-56 0,-11 0,-26 2,-44 2,-18 5,-38 9,-58 4,-21 8,-41 14,-62 6,-22 13,-41 22,-57 9,-17 20,-30 30,-41 11,-11 23,-17 39,-17l187 0 32 -169c18,-95 45,-180 81,-252 35,-73 78,-134 130,-183 52,-49 113,-86 183,-110 70,-25 149,-37 238,-37 29,0 59,1 89,4 29,3 56,7 80,12 23,6 44,11 62,18 18,7 31,14 38,21 7,6 11,14 14,24 3,10 4,22 4,37z"/>
   <path class="fil0" d="M7821 1961c0,39 -2,80 -7,119 -5,40 -12,81 -20,123l-187 941c-2,11 -8,21 -16,30 -9,8 -22,15 -40,21 -18,5 -41,10 -69,13 -28,3 -64,4 -106,4 -42,0 -75,-1 -102,-4 -26,-3 -47,-8 -61,-13 -15,-6 -25,-13 -30,-21 -5,-9 -6,-19 -4,-30l182 -914c5,-27 10,-55 12,-84 3,-29 5,-54 5,-75 0,-51 -11,-94 -33,-127 -21,-33 -58,-50 -109,-50 -47,0 -95,15 -146,45 -50,29 -98,70 -143,120 -45,51 -85,110 -120,178 -35,68 -61,140 -76,217l-137 690c-2,11 -7,21 -16,30 -8,8 -21,15 -39,21 -18,5 -41,10 -70,13 -28,3 -63,4 -105,4 -42,0 -75,-1 -102,-4 -26,-3 -47,-8 -62,-13 -16,-6 -25,-13 -30,-21 -5,-9 -6,-19 -4,-30l304 -1526c3,-11 7,-21 15,-29 8,-9 19,-16 34,-21 15,-5 35,-9 60,-12 24,-3 53,-4 88,-4 35,0 64,1 86,4 22,3 40,7 52,12 13,5 21,12 25,21 4,8 4,18 2,29l-49 251c24,-39 56,-80 95,-121 40,-42 86,-79 138,-112 51,-33 108,-60 169,-81 60,-21 124,-31 189,-31 80,0 147,12 201,35 55,23 98,55 131,95 34,39 59,86 73,138 15,53 22,110 22,169z"/>
   <path class="fil0" d="M5756 3144c-2,11 -8,21 -16,30 -9,8 -22,15 -40,21 -18,5 -41,10 -69,13 -29,3 -64,4 -105,4 -42,0 -76,-1 -103,-4 -26,-3 -47,-8 -62,-13 -15,-6 -25,-13 -30,-21 -4,-9 -6,-19 -3,-30l300 -1520c3,-12 8,-21 17,-30 8,-9 21,-16 39,-22 18,-7 40,-11 68,-15 28,-3 63,-5 105,-5 42,0 77,2 103,5 27,4 48,8 64,15 15,6 25,13 30,22 4,9 5,18 3,30l-301 1520z"/>
   <path class="fil0" d="M6198 1106c-8,42 -19,78 -33,107 -14,29 -32,52 -55,70 -23,18 -51,30 -84,38 -34,7 -75,11 -124,11 -48,0 -86,-4 -116,-11 -30,-8 -53,-20 -68,-38 -16,-18 -24,-41 -27,-70 -2,-29 1,-65 11,-107 8,-40 18,-75 32,-104 14,-29 32,-52 55,-70 22,-18 50,-31 83,-39 32,-8 73,-12 122,-12 48,0 88,4 118,12 31,8 54,21 70,39 15,18 24,41 25,70 2,29 -1,64 -9,104z"/>
  </g>
 </g>
</svg>
