<?xml version="1.0" encoding="UTF-8"?>
<!DOCTYPE svg PUBLIC "-//W3C//DTD SVG 1.1//EN" "http://www.w3.org/Graphics/SVG/1.1/DTD/svg11.dtd">
<!-- Creator: CorelDRAW X8 -->
<svg xmlns="http://www.w3.org/2000/svg" xml:space="preserve" width="19.1168cm" height="4.95095cm" version="1.1" style="shape-rendering:geometricPrecision; text-rendering:geometricPrecision; image-rendering:optimizeQuality; fill-rule:evenodd; clip-rule:evenodd"
viewBox="0 0 14320 3709"
 xmlns:xlink="http://www.w3.org/1999/xlink">
 <defs>
  <style type="text/css">
   <![CDATA[
    .fil1 {fill:#FEFEFE;fill-rule:nonzero}
    .fil0 {fill:#FFF000;fill-rule:nonzero}
   ]]>
  </style>
 </defs>
 <g id="Layer_x0020_1">
  <metadata id="CorelCorpID_0Corel-Layer"/>
  <path class="fil0" d="M6143 2249c-116,48 -251,84 -448,84 -280,0 -528,-152 -538,-551l1128 0c6,-45 10,-97 10,-158 0,-438 -200,-854 -700,-854 -502,0 -799,422 -799,950 0,542 310,899 845,899 241,0 438,-48 563,-106l-61 -264zm-983 -735c20,-206 136,-477 410,-477 286,0 373,265 370,477l-780 0z"/>
  <path id="1" class="fil1" d="M8205 2217c-106,51 -277,87 -444,87 -509,0 -825,-339 -825,-944 0,-642 354,-964 831,-964 184,0 329,42 432,91l80 -307c-67,-35 -241,-96 -525,-96 -683,0 -1211,457 -1211,1295 0,786 460,1240 1147,1240 267,0 477,-51 580,-103l-65 -299z"/>
  <polygon id="2" class="fil1" points="8995,0 8621,0 8621,2584 8995,2584 "/>
  <path id="3" class="fil1" d="M9877 319c0,-126 -87,-219 -216,-219 -128,0 -219,93 -219,219 0,119 87,216 216,216 136,0 219,-97 219,-216zm-32 490l-374 0 0 1775 374 0 0 -1775z"/>
  <path id="4" class="fil1" d="M11791 1498c0,-548 -309,-728 -586,-728 -268,0 -455,151 -538,303l-10 0 -19 -264 -326 0c7,151 13,303 13,499l0 1276 374 0 0 -1070c0,-283 196,-435 380,-435 255,0 338,213 338,464l0 1041 374 0 0 -1086z"/>
  <path id="5" class="fil1" d="M12668 319c0,-126 -87,-219 -216,-219 -129,0 -219,93 -219,219 0,119 87,216 215,216 136,0 220,-97 220,-216zm-33 490l-373 0 0 1775 373 0 0 -1775z"/>
  <path id="6" class="fil1" d="M14259 2249c-84,35 -187,71 -335,71 -309,0 -538,-232 -538,-622 0,-348 193,-632 541,-632 152,0 255,39 319,71l74 -286c-77,-39 -225,-81 -396,-81 -570,0 -918,406 -918,944 0,554 335,905 847,905 206,0 374,-51 458,-90l-52 -280z"/>
  <path class="fil1" d="M310 2965c-22,-14 -64,-28 -120,-28 -106,0 -178,65 -178,154 0,80 60,131 148,164 76,31 107,66 107,123 0,63 -46,105 -124,105 -47,0 -94,-15 -125,-36l-18 53c29,21 86,37 139,37 126,0 193,-71 193,-164 0,-83 -48,-132 -142,-171 -78,-33 -114,-62 -114,-120 0,-42 31,-91 112,-91 49,0 86,16 103,26l19 -52z"/>
  <path id="1" class="fil1" d="M505 2994c0,-23 -16,-42 -42,-42 -24,0 -42,19 -42,42 0,25 17,44 42,44 24,0 42,-17 42,-44zm-10 117l-64 0 0 417 64 0 0 -417z"/>
  <path id="2" class="fil1" d="M834 3127c-22,-14 -55,-26 -95,-26 -84,0 -136,54 -136,119 0,50 36,90 106,118 55,22 77,43 77,82 0,38 -27,68 -83,68 -36,0 -72,-16 -94,-29l-18 49c29,17 68,29 110,29 91,0 147,-49 147,-123 0,-63 -39,-98 -106,-126 -54,-23 -77,-40 -77,-76 0,-33 24,-62 70,-62 37,0 66,15 81,25l18 -48z"/>
  <path id="3" class="fil1" d="M962 3111l-64 0 0 50 64 0 0 240c0,44 3,136 104,136 27,0 48,-4 62,-10l-4 -49c-10,4 -23,6 -42,6 -41,0 -57,-29 -57,-82l0 -241 108 0 0 -50 -108 0 0 -97 -63 22 0 75z"/>
  <path id="4" class="fil1" d="M1499 3465c-26,10 -57,21 -109,21 -75,0 -141,-43 -142,-159l284 0c1,-10 2,-21 2,-35 0,-73 -33,-191 -162,-191 -112,0 -186,95 -186,225 0,125 73,211 195,211 63,0 107,-15 130,-26l-12 -46zm-249 -185c6,-58 40,-130 116,-130 82,0 106,73 105,130l-221 0z"/>
  <path id="5" class="fil1" d="M2196 3277c0,-143 -81,-176 -132,-176 -65,0 -107,34 -134,84l-2 0c-17,-50 -59,-84 -114,-84 -66,0 -104,36 -127,77l-2 0 -4 -67 -56 0c2,35 3,65 3,108l0 309 63 0 0 -255c0,-65 48,-119 103,-119 58,0 87,51 87,117l0 257 62 0 0 -262c0,-64 47,-112 98,-112 63,0 92,52 92,133l0 241 63 0 0 -251z"/>
  <polygon id="6" class="fil1" points="2500,3528 2563,3528 2563,2945 2500,2945 "/>
  <path id="7" class="fil1" d="M3025 3274c0,-141 -89,-173 -141,-173 -65,0 -113,37 -134,78l-1 0 -4 -68 -57 0c2,34 4,65 4,108l0 309 63 0 0 -255c0,-73 55,-119 109,-119 73,0 98,60 98,128l0 246 63 0 0 -254z"/>
  <path id="8" class="fil1" d="M3098 3111l0 50 57 0 0 367 63 0 0 -367 101 0 0 -50 -101 0 0 -23c0,-68 17,-129 82,-129 23,0 37,6 49,10l10 -50c-14,-6 -35,-12 -62,-12 -33,0 -69,11 -96,38 -46,46 -46,114 -46,166l-57 0z"/>
  <path id="9" class="fil1" d="M3550 3101c-107,0 -195,79 -195,221 0,135 82,215 189,215 93,0 195,-65 195,-221 0,-127 -75,-215 -189,-215zm124 218c0,94 -52,169 -128,169 -75,0 -126,-75 -126,-168 0,-80 37,-169 127,-169 91,0 127,93 127,168z"/>
  <path id="10" class="fil1" d="M4026 3105c-7,-1 -12,-3 -19,-3 -51,0 -95,38 -113,90l-2 0 -3 -81 -56 0c2,40 3,81 3,125l0 292 63 0 0 -226c0,-71 35,-139 104,-139 9,0 16,1 23,2l0 -60z"/>
  <path id="11" class="fil1" d="M4668 3277c0,-143 -81,-176 -132,-176 -65,0 -107,34 -134,84l-2 0c-17,-50 -59,-84 -114,-84 -66,0 -104,36 -127,77l-2 0 -4 -67 -56 0c2,35 3,65 3,108l0 309 63 0 0 -255c0,-65 48,-119 103,-119 58,0 87,51 87,117l0 257 62 0 0 -262c0,-64 47,-112 98,-112 63,0 92,52 92,133l0 241 63 0 0 -251z"/>
  <path id="12" class="fil1" d="M5064 3267c0,-82 -31,-166 -148,-166 -47,0 -94,13 -127,36l15 43c28,-20 66,-30 102,-30 95,0 95,80 95,115 -155,-1 -242,54 -242,154 0,60 42,118 122,118 58,0 101,-29 123,-62l2 0 6 53 58 0c-5,-29 -6,-65 -6,-99l0 -162zm-63 124c0,50 -43,97 -105,97 -38,0 -72,-23 -72,-77 0,-88 99,-99 177,-99l0 79z"/>
  <path id="13" class="fil1" d="M5400 3127c-22,-14 -56,-26 -96,-26 -84,0 -136,54 -136,119 0,50 36,90 106,118 55,22 78,43 78,82 0,38 -28,68 -84,68 -36,0 -72,-16 -94,-29l-17 49c28,17 68,29 109,29 91,0 148,-49 148,-123 0,-63 -39,-98 -107,-126 -53,-23 -77,-40 -77,-76 0,-33 25,-62 70,-62 38,0 66,15 81,25l19 -48z"/>
  <path id="14" class="fil1" d="M5584 2994c0,-23 -16,-42 -41,-42 -25,0 -42,19 -42,42 0,25 17,44 41,44 25,0 42,-17 42,-44zm-10 117l-63 0 0 417 63 0 0 -417z"/>
  <path id="15" class="fil1" d="M6394 2945l-79 0 -107 296c-26,75 -46,137 -60,195l-2 0c-16,-60 -35,-122 -59,-195l-103 -296 -78 0 -40 583 60 0 16 -256c5,-89 10,-186 12,-257l2 0c16,67 38,141 66,225l98 286 46 0 104 -292c29,-81 52,-153 71,-219l3 0c-1,60 5,168 10,251l14 262 63 0 -37 -583z"/>
  <path id="16" class="fil1" d="M6816 3267c0,-82 -31,-166 -149,-166 -46,0 -93,13 -127,36l16 43c28,-20 65,-30 101,-30 95,0 95,80 95,115 -154,-1 -242,54 -242,154 0,60 42,118 122,118 59,0 102,-29 123,-62l2 0 7 53 58 0c-6,-29 -6,-65 -6,-99l0 -162zm-63 124c0,50 -44,97 -106,97 -38,0 -72,-23 -72,-77 0,-88 99,-99 178,-99l0 79z"/>
  <path id="17" class="fil1" d="M7271 3274c0,-141 -88,-173 -140,-173 -65,0 -113,37 -134,78l-2 0 -3 -68 -57 0c1,34 3,65 3,108l0 309 63 0 0 -255c0,-73 56,-119 110,-119 72,0 97,60 97,128l0 246 63 0 0 -254z"/>
  <path id="18" class="fil1" d="M7668 3267c0,-82 -31,-166 -149,-166 -46,0 -93,13 -127,36l16 43c28,-20 65,-30 101,-30 95,0 95,80 95,115 -154,-1 -242,54 -242,154 0,60 43,118 122,118 59,0 102,-29 123,-62l3 0 6 53 58 0c-6,-29 -6,-65 -6,-99l0 -162zm-63 124c0,50 -44,97 -106,97 -38,0 -72,-23 -72,-77 0,-88 99,-99 178,-99l0 79z"/>
  <path id="19" class="fil1" d="M7872 2994c0,-23 -16,-42 -41,-42 -25,0 -43,19 -43,42 0,24 17,44 42,44 25,0 42,-18 42,-44zm-10 117l-64 0 0 357c0,120 -6,183 -108,190l7 51c34,0 87,-13 118,-45 35,-38 47,-88 47,-169l0 -384z"/>
  <path id="20" class="fil1" d="M8269 3465c-26,10 -58,21 -110,21 -75,0 -140,-43 -141,-159l284 0c0,-10 1,-21 1,-35 0,-73 -33,-191 -161,-191 -113,0 -186,95 -186,225 0,125 73,211 194,211 64,0 107,-15 131,-26l-12 -46zm-250 -185c7,-58 40,-130 117,-130 82,0 105,73 105,130l-222 0z"/>
  <path id="21" class="fil1" d="M8966 3277c0,-143 -81,-176 -133,-176 -64,0 -106,34 -134,84l-1 0c-18,-50 -60,-84 -114,-84 -66,0 -104,36 -127,77l-2 0 -4 -67 -56 0c2,35 3,65 3,108l0 309 63 0 0 -255c0,-65 48,-119 102,-119 59,0 87,51 87,117l0 257 63 0 0 -262c0,-64 47,-112 98,-112 63,0 92,52 92,133l0 241 63 0 0 -251z"/>
  <path id="22" class="fil1" d="M9372 3465c-26,10 -58,21 -110,21 -75,0 -140,-43 -141,-159l284 0c0,-10 1,-21 1,-35 0,-73 -33,-191 -161,-191 -113,0 -186,95 -186,225 0,125 73,211 194,211 64,0 107,-15 131,-26l-12 -46zm-250 -185c7,-58 40,-130 117,-130 81,0 105,73 104,130l-221 0z"/>
  <path id="23" class="fil1" d="M9834 3274c0,-141 -88,-173 -140,-173 -65,0 -113,37 -134,78l-2 0 -3 -68 -57 0c1,34 3,65 3,108l0 309 63 0 0 -255c0,-73 56,-119 110,-119 73,0 97,60 97,128l0 246 63 0 0 -254z"/>
  <path id="24" class="fil1" d="M10138 3528l64 0 0 -239c17,4 37,5 59,5 103,0 213,-49 213,-186 0,-46 -15,-166 -204,-166 -54,0 -98,5 -132,11l0 575zm64 -529c13,-3 37,-6 69,-6 80,0 139,37 139,120 0,83 -55,129 -147,129 -25,0 -45,-1 -61,-6l0 -237z"/>
  <path id="25" class="fil1" d="M10845 3267c0,-82 -31,-166 -149,-166 -46,0 -93,13 -127,36l16 43c28,-20 66,-30 102,-30 94,0 94,80 94,115 -154,-1 -241,54 -241,154 0,60 42,118 121,118 59,0 102,-29 123,-62l3 0 6 53 58 0c-5,-29 -6,-65 -6,-99l0 -162zm-63 124c0,50 -43,97 -105,97 -39,0 -72,-23 -72,-77 0,-88 98,-99 177,-99l0 79z"/>
  <path id="26" class="fil1" d="M11181 3127c-23,-14 -56,-26 -96,-26 -84,0 -136,54 -136,119 0,50 36,90 106,118 55,22 77,43 77,82 0,38 -27,68 -83,68 -36,0 -72,-16 -94,-29l-18 49c29,17 68,29 110,29 91,0 147,-49 147,-123 0,-63 -39,-98 -106,-126 -53,-23 -77,-40 -77,-76 0,-33 24,-62 70,-62 38,0 66,15 81,25l19 -48z"/>
  <path id="27" class="fil1" d="M11365 2994c0,-23 -16,-42 -41,-42 -25,0 -42,19 -42,42 0,25 16,44 41,44 24,0 42,-17 42,-44zm-10 117l-63 0 0 417 63 0 0 -417z"/>
  <path id="28" class="fil1" d="M11764 3465c-26,10 -57,21 -109,21 -75,0 -141,-43 -142,-159l284 0c1,-10 2,-21 2,-35 0,-73 -33,-191 -162,-191 -112,0 -186,95 -186,225 0,125 73,211 195,211 63,0 107,-15 130,-26l-12 -46zm-249 -185c6,-58 40,-130 116,-130 82,0 106,73 105,130l-221 0z"/>
  <path id="29" class="fil1" d="M12227 3274c0,-141 -89,-173 -141,-173 -65,0 -113,37 -134,78l-1 0 -4 -68 -57 0c2,34 3,65 3,108l0 309 64 0 0 -255c0,-73 55,-119 109,-119 73,0 97,60 97,128l0 246 64 0 0 -254z"/>
  <path id="30" class="fil1" d="M12693 3193l205 -248 -78 0 -178 222c-14,19 -30,41 -45,63l-3 0 0 -285 -63 0 0 583 63 0 0 -228 54 -64 191 292 75 0 -221 -335z"/>
  <polygon id="31" class="fil1" points="13035,2916 12971,2916 12971,3528 13035,3528 "/>
  <path id="32" class="fil1" d="M13234 2994c0,-23 -16,-42 -41,-42 -25,0 -42,19 -42,42 0,25 17,44 41,44 25,0 42,-17 42,-44zm-10 117l-63 0 0 417 63 0 0 -417z"/>
  <path id="33" class="fil1" d="M13684 3274c0,-141 -89,-173 -141,-173 -65,0 -113,37 -134,78l-1 0 -4 -68 -57 0c2,34 3,65 3,108l0 309 64 0 0 -255c0,-73 55,-119 109,-119 73,0 97,60 97,128l0 246 64 0 0 -254z"/>
  <path id="34" class="fil1" d="M13881 2994c0,-23 -17,-42 -42,-42 -24,0 -42,19 -42,42 0,25 17,44 41,44 25,0 43,-17 43,-44zm-10 117l-64 0 0 417 64 0 0 -417z"/>
  <path id="35" class="fil1" d="M14142 3283l157 -172 -77 0 -124 148c-12,14 -26,32 -36,47l-2 0 0 -390 -63 0 0 612 63 0 0 -162 39 -44 143 206 78 0 -178 -245z"/>
 </g>
</svg>
