<?xml version="1.0" encoding="UTF-8"?>
<!DOCTYPE svg PUBLIC "-//W3C//DTD SVG 1.1//EN" "http://www.w3.org/Graphics/SVG/1.1/DTD/svg11.dtd">
<!-- Creator: CorelDRAW X8 -->
<svg xmlns="http://www.w3.org/2000/svg" xml:space="preserve" width="51.3141mm" height="19.9824mm" version="1.1" style="shape-rendering:geometricPrecision; text-rendering:geometricPrecision; image-rendering:optimizeQuality; fill-rule:evenodd; clip-rule:evenodd"
viewBox="0 0 1030 401"
 xmlns:xlink="http://www.w3.org/1999/xlink">
 <defs>
  <style type="text/css">
   <![CDATA[
    .fil0 {fill:#FEFEFE;fill-rule:nonzero}
   ]]>
  </style>
 </defs>
 <g id="Layer_x0020_1">
  <metadata id="CorelCorpID_0Corel-Layer"/>
  <g id="_633146448">
   <path class="fil0" d="M146 243c-13,6 -27,9 -49,9 -30,0 -57,-16 -58,-59l122 0c1,-5 1,-11 1,-17 0,-48 -22,-93 -76,-93 -54,0 -86,46 -86,103 0,59 33,97 91,97 26,0 48,-5 61,-11l-6 -29zm-107 -79c2,-22 15,-52 45,-52 31,0 40,29 40,52l-85 0z"/>
   <path id="1" class="fil0" d="M369 240c-12,5 -30,9 -48,9 -55,0 -90,-36 -90,-102 0,-69 39,-104 90,-104 20,0 36,4 47,10l9 -33c-8,-4 -26,-11 -57,-11 -74,0 -131,50 -131,140 0,85 50,134 124,134 29,0 52,-5 63,-11l-7 -32z"/>
   <polygon id="2" class="fil0" points="454,0 414,0 414,280 454,280 "/>
   <path id="3" class="fil0" d="M550 35c0,-14 -10,-24 -24,-24 -14,0 -23,10 -23,24 0,12 9,23 23,23 15,0 24,-11 24,-23zm-4 52l-40 0 0 193 40 0 0 -193z"/>
   <path id="4" class="fil0" d="M757 162c0,-59 -34,-79 -64,-79 -29,0 -49,17 -58,33l-1 0 -2 -29 -35 0c0,17 1,33 1,55l0 138 41 0 0 -116c0,-31 21,-47 41,-47 27,0 36,23 36,50l0 113 41 0 0 -118z"/>
   <path id="5" class="fil0" d="M852 35c0,-14 -10,-24 -24,-24 -14,0 -23,10 -23,24 0,12 9,23 23,23 14,0 24,-11 24,-23zm-4 52l-40 0 0 193 40 0 0 -193z"/>
   <path id="6" class="fil0" d="M1024 243c-9,4 -20,8 -36,8 -34,0 -59,-25 -59,-67 0,-38 21,-69 59,-69 16,0 27,5 34,8l8 -31c-8,-4 -24,-9 -42,-9 -62,0 -100,44 -100,102 0,60 36,98 92,98 22,0 40,-5 49,-9l-5 -31z"/>
   <path class="fil0" d="M115 319l-9 0 -11 32c-3,8 -5,14 -7,21l0 0c-2,-7 -4,-13 -6,-21l-11 -32 -9 0 -4 63 6 0 2 -28c1,-10 1,-20 1,-28l1 0c1,7 4,15 7,25l10 30 5 0 12 -31c3,-9 5,-17 7,-24l1 0c-1,7 0,18 1,27l1 29 7 0 -4 -63z"/>
   <path id="1" class="fil0" d="M161 354c0,-9 -4,-18 -16,-18 -5,0 -11,1 -14,3l1 5c4,-2 8,-3 11,-3 11,0 11,8 11,12 -17,0 -26,6 -26,17 0,6 4,13 13,13 6,0 11,-4 13,-7l0 0 1 6 6 0c0,-3 0,-7 0,-11l0 -17zm-7 13c0,5 -5,10 -12,10 -4,0 -7,-2 -7,-8 0,-9 10,-11 19,-11l0 9z"/>
   <path id="2" class="fil0" d="M210 354c0,-15 -10,-18 -15,-18 -7,0 -13,4 -15,8l0 0 0 -7 -6 0c0,3 0,7 0,11l0 34 7 0 0 -28c0,-8 6,-13 12,-13 7,0 10,7 10,14l0 27 7 0 0 -28z"/>
   <path id="3" class="fil0" d="M253 354c0,-9 -4,-18 -16,-18 -5,0 -10,1 -14,3l2 5c3,-2 7,-3 11,-3 10,0 10,8 10,12 -17,0 -26,6 -26,17 0,6 4,13 13,13 6,0 11,-4 13,-7l1 0 0 6 6 0c0,-3 0,-7 0,-11l0 -17zm-7 13c0,5 -5,10 -11,10 -5,0 -8,-2 -8,-8 0,-9 10,-11 19,-11l0 9z"/>
   <path id="4" class="fil0" d="M275 324c0,-3 -2,-5 -5,-5 -2,0 -4,2 -4,5 0,3 2,5 4,5 3,0 5,-2 5,-5zm-1 13l-7 0 0 38c0,13 -1,20 -12,21l1 5c4,0 9,-1 13,-5 4,-4 5,-9 5,-18l0 -41z"/>
   <path id="5" class="fil0" d="M318 375c-3,1 -6,2 -12,2 -8,0 -15,-5 -15,-17l30 0c0,-1 1,-2 1,-4 0,-8 -4,-20 -18,-20 -12,0 -20,10 -20,24 0,13 8,23 21,23 7,0 12,-2 14,-3l-1 -5zm-27 -20c1,-6 4,-14 12,-14 9,0 12,8 12,14l-24 0z"/>
   <path id="6" class="fil0" d="M393 355c0,-16 -9,-19 -14,-19 -7,0 -12,3 -15,9l0 0c-2,-6 -6,-9 -12,-9 -7,0 -11,3 -14,8l0 0 0 -7 -7 0c1,3 1,7 1,11l0 34 7 0 0 -28c0,-7 5,-13 11,-13 6,0 9,6 9,13l0 28 7 0 0 -29c0,-7 5,-12 10,-12 7,0 10,6 10,15l0 26 7 0 0 -27z"/>
   <path id="7" class="fil0" d="M437 375c-3,1 -6,2 -12,2 -8,0 -15,-5 -15,-17l31 0c0,-1 0,-2 0,-4 0,-8 -4,-20 -18,-20 -12,0 -20,10 -20,24 0,13 8,23 21,23 7,0 12,-2 14,-3l-1 -5zm-27 -20c1,-6 4,-14 13,-14 9,0 11,8 11,14l-24 0z"/>
   <path id="8" class="fil0" d="M487 354c0,-15 -9,-18 -15,-18 -7,0 -12,4 -14,8l-1 0 0 -7 -6 0c0,3 0,7 0,11l0 34 7 0 0 -28c0,-8 6,-13 12,-13 8,0 10,7 10,14l0 27 7 0 0 -28z"/>
   <path id="9" class="fil0" d="M520 382l7 0 0 -26c2,0 4,0 6,0 12,0 23,-5 23,-20 0,-5 -1,-18 -22,-18 -5,0 -10,1 -14,1l0 63zm7 -58c1,0 4,0 7,0 9,0 16,4 16,13 0,9 -7,14 -16,14 -3,0 -5,0 -7,-1l0 -26z"/>
   <path id="10" class="fil0" d="M597 354c0,-9 -4,-18 -17,-18 -5,0 -10,1 -13,3l1 5c3,-2 8,-3 11,-3 11,0 11,8 11,12 -17,0 -26,6 -26,17 0,6 4,13 13,13 6,0 11,-4 13,-7l0 0 1 6 6 0c0,-3 0,-7 0,-11l0 -17zm-7 13c0,5 -5,10 -12,10 -4,0 -7,-2 -7,-8 0,-9 10,-11 19,-11l0 9z"/>
   <path id="11" class="fil0" d="M633 338c-3,-1 -6,-2 -10,-2 -10,0 -15,5 -15,12 0,6 4,10 11,13 6,3 9,5 9,9 0,4 -3,7 -9,7 -4,0 -8,-1 -11,-3l-1 6c3,1 7,3 11,3 10,0 16,-6 16,-14 0,-6 -4,-10 -11,-13 -6,-3 -9,-5 -9,-8 0,-4 3,-7 8,-7 4,0 7,1 9,2l2 -5z"/>
   <path id="12" class="fil0" d="M653 324c0,-3 -2,-5 -5,-5 -2,0 -4,2 -4,5 0,3 2,5 4,5 3,0 5,-2 5,-5zm-1 13l-7 0 0 45 7 0 0 -45z"/>
   <path id="13" class="fil0" d="M696 375c-3,1 -6,2 -12,2 -8,0 -15,-5 -15,-17l31 0c0,-1 0,-2 0,-4 0,-8 -4,-20 -18,-20 -12,0 -20,10 -20,24 0,13 8,23 21,23 7,0 12,-2 14,-3l-1 -5zm-27 -20c1,-6 4,-14 13,-14 8,0 11,8 11,14l-24 0z"/>
   <path id="14" class="fil0" d="M746 354c0,-15 -10,-18 -15,-18 -7,0 -12,4 -15,8l0 0 0 -7 -6 0c0,3 0,7 0,11l0 34 7 0 0 -28c0,-8 6,-13 12,-13 8,0 10,7 10,14l0 27 7 0 0 -28z"/>
   <path id="15" class="fil0" d="M796 345l23 -26 -9 0 -19 24c-2,2 -3,4 -5,6l0 0 0 -30 -7 0 0 63 7 0 0 -25 6 -7 20 32 8 0 -24 -37z"/>
   <polygon id="16" class="fil0" points="833,316 827,316 827,382 833,382 "/>
   <path id="17" class="fil0" d="M855 324c0,-3 -2,-5 -4,-5 -3,0 -5,2 -5,5 0,3 2,5 4,5 3,0 5,-2 5,-5zm-1 13l-7 0 0 45 7 0 0 -45z"/>
   <path id="18" class="fil0" d="M904 354c0,-15 -10,-18 -16,-18 -7,0 -12,4 -14,8l0 0 -1 -7 -6 0c0,3 1,7 1,11l0 34 6 0 0 -28c0,-8 6,-13 12,-13 8,0 11,7 11,14l0 27 7 0 0 -28z"/>
   <path id="19" class="fil0" d="M925 324c0,-3 -2,-5 -5,-5 -2,0 -4,2 -4,5 0,3 2,5 4,5 3,0 5,-2 5,-5zm-1 13l-7 0 0 45 7 0 0 -45z"/>
   <path id="20" class="fil0" d="M953 355l17 -18 -8 0 -14 16c-1,1 -2,3 -3,5l-1 0 0 -42 -6 0 0 66 6 0 0 -18 5 -5 15 23 9 0 -20 -27z"/>
  </g>
 </g>
</svg>
