<?xml version="1.0" encoding="UTF-8"?>
<!DOCTYPE svg PUBLIC "-//W3C//DTD SVG 1.1//EN" "http://www.w3.org/Graphics/SVG/1.1/DTD/svg11.dtd">
<!-- Creator: CorelDRAW X8 -->
<svg xmlns="http://www.w3.org/2000/svg" xml:space="preserve" width="2.88713cm" height="2.59927cm" version="1.1" style="shape-rendering:geometricPrecision; text-rendering:geometricPrecision; image-rendering:optimizeQuality; fill-rule:evenodd; clip-rule:evenodd"
viewBox="0 0 639 575"
 xmlns:xlink="http://www.w3.org/1999/xlink">
 <defs>
  <style type="text/css">
   <![CDATA[
    .fil5 {fill:none}
    .fil3 {fill:#FEFEFE}
    .fil1 {fill:#FFF000}
    .fil2 {fill:#009B4C}
    .fil0 {fill:#1D1819}
    .fil6 {fill:#00A2E9;fill-rule:nonzero}
    .fil4 {fill:#1D1819;fill-rule:nonzero}
   ]]>
  </style>
 </defs>
 <g id="Layer_x0020_1">
  <metadata id="CorelCorpID_0Corel-Layer"/>
  <g id="_627747000">
   <path class="fil0" d="M104 0l404 0c0,108 0,196 0,304 0,63 -91,182 -202,182 -88,0 -202,-113 -202,-187 0,-107 0,-191 0,-299z"/>
   <path class="fil1" d="M111 7c0,97 0,195 0,292 0,22 11,45 22,63 14,23 34,45 55,63 31,27 76,54 118,54 24,0 47,-6 69,-16 35,-16 67,-44 91,-75 16,-22 35,-56 35,-84 0,-99 0,-198 0,-297l-390 0z"/>
   <g>
    <polygon class="fil0" points="111,191 170,148 443,148 501,191 501,285 111,285 "/>
    <polygon class="fil2" points="111,200 172,155 441,155 501,200 501,278 111,278 "/>
   </g>
   <path class="fil3" d="M111 265l0 34c0,22 11,45 22,63 14,23 34,45 55,63 31,27 76,54 118,54 24,0 47,-6 69,-16 35,-16 67,-44 91,-75 16,-22 35,-56 35,-84l0 -39 -390 0z"/>
   <g>
    <polygon class="fil0" points="111,246 137,246 137,223 196,223 196,246 227,246 227,223 285,223 285,246 317,246 317,223 375,223 375,246 405,246 405,223 464,223 464,246 501,246 501,270 111,270 "/>
    <polygon class="fil3" points="111,249 147,249 147,226 192,226 192,249 237,249 237,226 282,226 282,249 327,249 327,226 372,226 372,249 415,249 415,226 460,226 460,249 501,249 501,256 454,256 454,229 428,229 428,256 364,256 364,229 338,229 338,256 275,256 275,229 249,229 249,256 185,256 185,229 159,229 159,256 111,256 "/>
   </g>
   <g>
    <g>
     <polygon class="fil0" points="126,501 0,501 29,531 0,560 126,560 "/>
     <polygon class="fil1" points="119,508 17,508 39,531 17,553 119,553 "/>
     <polygon class="fil0" points="513,501 639,501 610,531 639,560 513,560 "/>
     <polygon class="fil1" points="520,508 520,553 623,553 600,531 623,508 "/>
     <polygon class="fil0" points="79,513 126,501 126,535 79,538 "/>
     <polygon class="fil1" points="86,519 86,530 119,528 119,510 "/>
     <polygon class="fil0" points="560,513 513,501 513,535 560,538 "/>
     <polygon class="fil1" points="553,519 520,510 520,528 553,530 "/>
     <polygon class="fil0" points="560,513 373,513 351,513 79,513 79,575 351,575 373,575 560,575 "/>
     <polygon class="fil1" points="553,520 86,520 86,568 553,568 "/>
    </g>
    <path class="fil4" d="M111 548l0 -3 10 0 0 8c-1,1 -3,2 -4,3 -2,0 -4,1 -6,1 -2,0 -4,-1 -5,-2 -2,-1 -3,-2 -4,-4 -1,-2 -1,-3 -1,-5 0,-3 0,-5 1,-6 1,-2 2,-3 4,-4 2,-1 3,-1 5,-1 3,0 5,0 6,1 2,1 3,3 3,5l-4 1c0,-1 -1,-2 -2,-3 0,0 -2,-1 -3,-1 -2,0 -3,1 -4,2 -1,1 -2,3 -2,5 0,3 1,5 2,6 1,1 2,2 4,2 1,0 2,0 3,-1 1,0 2,0 2,-1l0 -3 -5 0z"/>
    <polygon id="1" class="fil4" points="125,556 125,535 140,535 140,539 129,539 129,543 139,543 139,547 129,547 129,553 141,553 141,556 "/>
    <polygon id="2" class="fil4" points="144,556 144,535 151,535 154,549 158,535 165,535 165,556 161,556 161,539 156,556 152,556 148,539 148,556 "/>
    <path id="3" class="fil4" d="M188 556l-5 0 -1 -5 -9 0 -2 5 -4 0 8 -21 5 0 8 21zm-8 -8l-3 -8 -3 8 6 0z"/>
    <polygon id="4" class="fil4" points="190,556 190,535 195,535 195,543 203,543 203,535 207,535 207,556 203,556 203,547 195,547 195,556 "/>
    <path id="5" class="fil4" d="M220 556l0 -21 9 0c2,0 4,0 5,1 1,0 2,1 2,2 1,1 1,2 1,3 0,2 0,3 -1,4 -1,1 -2,2 -4,2 1,0 1,1 2,2 1,0 1,1 2,3l3 4 -5 0 -3 -4c-1,-2 -2,-3 -2,-4 -1,0 -1,0 -2,0 0,-1 -1,-1 -2,-1l-1 0 0 9 -4 0zm4 -12l3 0c3,0 4,0 4,0 1,0 1,-1 1,-1 1,-1 1,-1 1,-2 0,-1 0,-1 -1,-2 0,0 -1,0 -1,0 -1,0 -2,0 -3,0l-4 0 0 5z"/>
    <polygon id="6" class="fil4" points="241,556 241,535 246,535 246,556 "/>
    <path id="7" class="fil4" d="M250 556l0 -21 6 0c3,0 5,0 6,0 1,1 2,1 3,2 0,1 1,3 1,5 0,1 0,2 -1,3 0,1 -1,1 -2,2 0,0 -1,1 -2,1 -1,0 -2,0 -4,0l-3 0 0 8 -4 0zm4 -17l0 6 2 0c2,0 3,-1 4,-1 0,0 1,0 1,-1 0,0 0,-1 0,-1 0,-1 0,-2 0,-2 -1,-1 -1,-1 -2,-1 0,0 -1,0 -3,0l-2 0z"/>
    <path id="8" class="fil4" d="M286 556l-4 0 -2 -5 -9 0 -1 5 -5 0 8 -21 5 0 8 21zm-8 -8l-3 -8 -2 8 5 0z"/>
    <polygon id="9" class="fil4" points="289,556 289,535 293,535 293,543 301,543 301,535 306,535 306,556 301,556 301,547 293,547 293,556 "/>
    <polygon id="10" class="fil4" points="321,556 316,535 321,535 324,550 328,535 333,535 336,550 340,535 344,535 339,556 334,556 330,540 326,556 "/>
    <polygon id="11" class="fil4" points="346,556 346,535 350,535 350,556 "/>
    <path id="12" class="fil4" d="M354 535l9 0c2,0 3,0 4,0 0,0 1,1 2,1 1,0 1,1 1,2 1,1 1,1 1,2 0,1 0,2 -1,3 0,1 -1,1 -2,2 1,0 2,1 3,2 1,1 1,2 1,3 0,1 0,2 0,3 -1,1 -2,1 -2,2 -1,1 -2,1 -3,1 -1,0 -3,0 -5,0l-8 0 0 -21zm5 3l0 5 3 0c1,0 2,0 3,0 0,0 1,0 1,0 1,-1 1,-1 1,-2 0,-1 0,-1 -1,-2 0,0 0,0 -1,0 -1,0 -2,-1 -4,-1l-2 0zm0 9l0 6 4 0c1,0 2,0 3,-1 0,0 1,0 1,0 1,-1 1,-1 1,-2 0,-1 0,-1 -1,-2 0,0 0,-1 -1,-1 -1,0 -2,0 -4,0l-3 0z"/>
    <path id="13" class="fil4" d="M395 556l-5 0 -2 -5 -8 0 -2 5 -4 0 8 -21 4 0 9 21zm-8 -8l-3 -8 -3 8 6 0z"/>
    <polygon id="14" class="fil4" points="398,556 393,535 398,535 401,550 405,535 410,535 414,550 417,535 421,535 416,556 412,556 407,540 403,556 "/>
    <path id="15" class="fil4" d="M441 556l-5 0 -1 -5 -9 0 -2 5 -4 0 8 -21 5 0 8 21zm-8 -8l-3 -8 -3 8 6 0z"/>
    <polygon id="16" class="fil4" points="450,556 450,535 457,535 461,549 464,535 471,535 471,556 467,556 467,539 463,556 459,556 454,539 454,556 "/>
    <path id="17" class="fil4" d="M475 535l4 0 0 11c0,2 0,3 1,4 0,1 0,2 1,2 1,1 1,1 3,1 1,0 2,0 2,-1 1,0 1,-1 1,-2 1,0 1,-2 1,-3l0 -12 4 0 0 11c0,3 0,4 0,6 -1,1 -1,1 -2,2 0,1 -1,1 -2,2 -1,0 -3,1 -4,1 -2,0 -4,-1 -5,-1 -1,-1 -2,-1 -2,-2 -1,-1 -1,-1 -1,-2 -1,-2 -1,-3 -1,-6l0 -11z"/>
    <polygon id="18" class="fil4" points="497,556 497,535 501,535 501,544 510,535 515,535 507,543 516,556 510,556 504,546 501,550 501,556 "/>
    <polygon id="19" class="fil4" points="523,556 523,539 516,539 516,535 533,535 533,539 527,539 527,556 "/>
    <polygon id="20" class="fil4" points="536,556 536,535 540,535 540,556 "/>
   </g>
   <g>
    <g>
     <path class="fil5" d="M117 319c9,0 9,-7 19,-7 6,0 10,7 16,6 10,0 11,-6 18,-5 11,-1 9,6 20,6 11,0 9,-7 20,-6 7,-1 8,5 18,5 6,1 10,-6 16,-6 10,0 10,7 19,7 10,0 9,-7 19,-7 6,0 10,7 17,6 9,0 11,-6 18,-5 10,-1 8,6 19,6 11,0 10,-7 20,-6 7,-1 8,5 18,5 7,1 11,-6 17,-6 10,0 9,7 18,7 10,0 9,-7 19,-7 6,0 10,7 17,6 9,0 11,-6 18,-5 10,-1 9,6 20,6 10,0 9,-6 17,-6m-383 6c-1,0 -2,0 -3,0"/>
     <path class="fil0" d="M210 301c5,0 9,1 14,4 1,1 2,2 3,2 1,0 3,-1 3,-2 5,-3 9,-5 15,-5 3,1 6,1 10,3 2,1 4,2 6,3 0,1 1,1 2,1l0 0 0 0 0 0c1,0 2,0 3,-1 2,-1 3,-2 6,-3 3,-2 6,-2 10,-3 6,0 9,2 14,5 1,1 2,2 3,2 1,0 3,-1 4,-2 4,-3 8,-4 14,-4 6,0 10,1 15,5 1,0 1,0 1,0 1,1 2,1 3,1l0 0 1 0 0 0c1,0 2,0 3,-1 0,0 0,0 0,0 5,-4 10,-5 16,-5 6,0 9,1 14,4 1,1 2,2 4,2 0,0 2,-1 2,-2 5,-3 9,-5 15,-5 3,1 7,1 10,3 2,1 4,2 6,3 1,1 1,1 2,1l0 0 1 0 0 0c1,0 1,0 2,-1 2,-1 4,-2 6,-3 3,-2 7,-2 10,-3 6,0 10,2 14,5 1,1 3,2 3,2 2,0 3,-1 4,-2 5,-3 8,-4 14,-4 6,0 11,1 16,5 0,0 0,0 0,0 1,1 2,1 3,1l0 0 1 0 0 0c1,0 2,0 3,-1 0,0 0,0 1,0 4,-4 8,-5 14,-5l0 3c0,7 -2,15 -4,22 -1,1 -2,2 -4,2 -3,2 -7,2 -10,2 -4,0 -8,0 -11,-2 -2,0 -4,-2 -6,-3 -1,-1 -1,-1 -2,-1l-1 0 0 0c-1,0 -1,1 -2,1 -5,3 -9,5 -16,5 -6,0 -10,-2 -15,-5 0,-1 -1,-1 -2,-1 -1,0 -1,0 -2,1 0,0 -1,0 -1,0 -5,4 -9,5 -16,5 -6,0 -10,-1 -15,-5 0,0 -1,0 -1,0 -1,-1 -1,-1 -2,-1 -1,0 -2,0 -2,1 -5,3 -9,5 -15,5 -7,0 -11,-2 -17,-5 0,0 0,-1 -1,-1l0 0 -1 0c-1,0 -1,0 -2,1 -2,1 -4,3 -6,3 -4,2 -7,2 -11,2 -3,0 -7,0 -10,-2 -3,0 -4,-2 -7,-3 0,-1 -1,-1 -2,-1l0 0 -1 0c0,0 -1,1 -1,1 -5,3 -9,5 -16,5 -6,0 -10,-2 -15,-5 -1,-1 -2,-1 -2,-1 -1,0 -2,0 -3,1 0,0 0,0 0,0 -5,4 -9,5 -16,5 -6,0 -10,-1 -15,-5 -1,0 -1,0 -1,0 -1,-1 -2,-1 -2,-1 -1,0 -2,0 -2,1 -5,3 -9,5 -15,5 -7,0 -11,-2 -17,-5 0,0 -1,-1 -1,-1l-1 0 0 0c-1,0 -1,0 -2,1 -2,1 -4,3 -6,3 -4,2 -7,2 -11,2 -4,0 -7,0 -10,-2 -3,0 -5,-2 -7,-3 -1,-1 -1,-1 -2,-1l0 0 -1 0c0,0 -1,1 -1,1 -6,3 -10,5 -17,5 -6,0 -10,-2 -15,-5 0,-1 -1,-1 -1,-1 -1,0 -2,0 -3,1 0,0 0,0 -1,0 -4,4 -9,5 -15,5 -3,-8 -5,-17 -6,-26 1,1 2,2 3,2 1,1 2,1 2,1l1 0 0 0c1,0 2,0 2,-1 2,-1 4,-2 6,-3 4,-2 7,-2 10,-3 6,0 10,2 15,5 0,1 2,2 3,2 1,0 2,-1 3,-2 5,-3 9,-4 14,-4 7,0 11,1 16,5 0,0 0,0 1,0 1,1 1,1 3,1l0 0 0 0 0 0c2,0 2,0 3,-1 1,0 1,0 1,0 5,-4 9,-5 16,-5z"/>
     <path class="fil6" d="M117 311c2,0 3,-1 4,-2 4,-2 7,-5 15,-5 5,0 8,2 12,4 2,1 3,2 4,2 3,0 5,-1 6,-2 4,-2 7,-4 12,-4 8,0 11,3 15,5 1,1 2,2 5,2l0 0c3,0 4,-1 5,-2 4,-2 7,-5 15,-5 5,0 8,2 12,4 1,1 3,2 6,2 1,0 2,-1 4,-2 4,-2 7,-4 13,-4 7,0 10,3 14,5 1,1 2,2 4,2l0 0c2,0 4,-1 5,-2 3,-2 6,-5 14,-5 5,0 9,2 12,4 2,1 4,2 5,2 2,0 4,-1 6,-2 3,-2 6,-4 12,-4 7,0 11,3 14,5 1,1 2,2 5,2l0 0c3,0 5,-1 6,-2 3,-2 6,-5 14,-5 6,0 9,2 12,4 2,1 3,2 6,2 1,0 3,-1 4,-2 4,-2 7,-4 13,-4 7,0 11,3 14,5 1,1 2,2 4,2l1 0c2,0 3,-1 4,-2 3,-2 7,-5 14,-5 6,0 9,2 13,4 1,1 3,2 4,2 3,0 4,-1 6,-2 3,-2 6,-4 12,-4 8,0 11,3 14,5 1,1 3,2 5,2l1 0c3,0 4,-1 5,-2 3,-2 6,-4 13,-5 0,6 -1,11 -2,17 -1,0 -1,1 -2,1 -3,2 -6,5 -14,5 -8,0 -12,-3 -15,-5 -1,-1 -2,-2 -5,-1l0 0c-1,-1 -2,0 -3,1 -4,2 -8,4 -15,4 -6,0 -9,-2 -13,-4 -2,-1 -3,-2 -3,-2 -3,0 -4,1 -5,2 -4,3 -7,5 -15,5 -7,0 -10,-2 -14,-5 -1,-1 -2,-2 -5,-2 0,0 -2,1 -3,2 -4,2 -7,4 -13,4 -7,0 -11,-2 -15,-4 -1,-1 -2,-2 -3,-1l0 0c-3,-1 -4,0 -5,1 -3,2 -7,5 -15,5 -8,0 -11,-3 -14,-5 -2,-1 -3,-2 -5,-1l-1 0c-1,-1 -2,0 -3,1 -3,2 -7,4 -14,4 -6,0 -10,-2 -13,-4 -2,-1 -3,-2 -4,-2 -2,0 -3,1 -5,2 -3,3 -6,5 -14,5 -7,0 -11,-2 -14,-5 -1,-1 -3,-2 -5,-2 0,0 -2,1 -3,2 -4,2 -8,4 -13,4 -8,0 -11,-2 -15,-4 -1,-1 -2,-2 -3,-1l-1 0c-2,-1 -3,0 -4,1 -3,2 -7,5 -15,5 -8,0 -11,-3 -15,-5 -1,-1 -2,-2 -4,-1l-1 0c-1,-1 -2,0 -3,1 -3,2 -7,4 -15,4 -5,0 -9,-2 -13,-4 -1,-1 -3,-2 -3,-2 -2,0 -4,1 -5,2 -3,3 -7,5 -14,5 0,0 -1,0 -1,0 -2,-6 -3,-12 -4,-18l0 0c1,1 3,2 5,2l0 8 0 -8z"/>
    </g>
    <g>
     <path class="fil5" d="M129 356c2,-1 4,-1 7,-2 6,0 10,7 16,7 10,0 11,-6 18,-6 11,-1 9,6 20,6 11,0 9,-7 20,-6 7,0 8,6 18,6 6,0 10,-7 16,-7 10,1 10,8 19,7 10,1 9,-6 19,-7 6,0 10,7 17,7 9,0 11,-6 18,-6 10,-1 8,6 19,6 11,0 10,-7 20,-6 7,0 8,6 18,6 7,0 11,-7 17,-7 10,1 9,8 18,7 10,1 9,-6 19,-7 6,0 10,7 17,7 9,0 11,-6 18,-6 10,-1 9,6 20,6"/>
     <path class="fil0" d="M210 343c5,0 9,2 14,5 1,1 2,1 3,1 1,0 3,-1 3,-1 5,-3 9,-5 15,-5 3,0 6,1 10,2 2,1 4,2 6,4 0,0 1,1 2,1l0 0 0 0 0 0c1,0 2,-1 3,-1 2,-2 3,-3 6,-4 3,-1 6,-2 10,-2 6,0 9,2 14,5 1,0 2,1 3,1 1,0 3,0 4,-1 4,-3 8,-5 14,-5 6,0 10,1 15,5 1,0 1,0 1,1 1,0 2,1 3,1l0 0 1 0 0 0c1,0 2,-1 3,-1 0,-1 0,-1 0,-1 5,-4 10,-5 16,-5 6,0 9,2 14,5 1,1 2,1 4,1 0,0 2,-1 2,-1 5,-3 9,-5 15,-5 3,0 7,1 10,2 2,1 4,2 6,4 1,0 1,1 2,1l0 0 1 0 0 0c1,0 1,-1 2,-1 2,-2 4,-3 6,-4 3,-1 7,-2 10,-2 6,0 10,2 14,5 1,0 3,1 3,1 2,0 3,0 4,-1 5,-3 8,-5 14,-5 6,0 11,1 16,5 0,0 0,0 0,1 1,0 2,1 3,1l0 0 1 0 0 0c1,0 2,-1 3,-1 0,-1 0,-1 1,-1 1,-1 2,-1 3,-2 -4,9 -9,18 -14,26 -1,0 -3,-1 -4,-1 -2,-1 -4,-2 -6,-4 -1,0 -1,-1 -2,-1l-1 0 0 0c-1,1 -1,1 -2,1 -5,4 -9,5 -16,5 -6,0 -10,-2 -15,-5 0,0 -1,-1 -2,-1 -1,0 -1,1 -2,1 0,0 -1,1 -1,1 -5,4 -9,5 -16,5 -6,0 -10,-1 -15,-5 0,0 -1,-1 -1,-1 -1,0 -1,-1 -2,-1 -1,0 -2,1 -2,1 -5,3 -9,5 -15,5 -7,0 -11,-1 -17,-5 0,0 0,0 -1,-1l0 0 -1 0c-1,0 -1,1 -2,1 -2,2 -4,3 -6,4 -4,1 -7,2 -11,2 -3,0 -7,-1 -10,-2 -3,-1 -4,-2 -7,-4 0,0 -1,-1 -2,-1l0 0 -1 0c0,1 -1,1 -1,1 -5,4 -9,5 -16,5 -6,0 -10,-2 -15,-5 -1,0 -2,-1 -2,-1 -1,0 -2,1 -3,1 0,0 0,1 0,1 -5,4 -9,5 -16,5 -6,0 -10,-1 -15,-5 -1,0 -1,-1 -1,-1 -1,0 -2,-1 -2,-1 -1,0 -2,1 -2,1 -5,3 -9,5 -15,5 -7,0 -11,-1 -17,-5 0,0 -1,0 -1,-1l-1 0 0 0c-1,0 -1,1 -2,1 -2,2 -4,3 -6,4 -4,1 -7,2 -11,2 -4,0 -7,-1 -10,-2 -3,-1 -5,-2 -7,-4 -1,0 -1,-1 -2,-1l0 0 -1 0c0,1 -1,1 -1,1 -6,4 -10,5 -17,5 -6,0 -10,-2 -15,-5 0,0 -1,-1 -1,-1 -1,-1 -2,-3 -3,-4 -3,-5 -6,-11 -9,-16 0,-1 1,-1 1,-1 4,-1 7,-2 10,-2 6,0 10,2 15,5 0,0 2,1 3,1 1,0 2,0 3,-1 5,-3 9,-5 14,-5 7,0 11,1 16,5 0,0 0,0 1,1 1,0 1,1 3,1l0 0 0 0 0 0c2,0 2,-1 3,-1 1,-1 1,-1 1,-1 5,-4 9,-5 16,-5z"/>
     <path class="fil6" d="M126 349c2,-1 5,-2 10,-3 5,0 8,2 12,5 2,1 3,2 4,2 3,0 5,-1 6,-2 4,-2 7,-4 12,-4 8,0 11,2 15,4 1,1 2,2 5,2l0 0c3,0 4,-1 5,-2 4,-2 7,-4 15,-4 5,0 8,2 12,4 1,1 3,2 6,2 1,0 2,-1 4,-2 4,-3 7,-5 13,-5 7,1 10,3 14,6 1,1 2,1 4,1l0 0c2,0 4,0 5,-1 3,-3 6,-5 14,-6 5,0 9,2 12,5 2,1 4,2 5,2 2,0 4,-1 6,-2 3,-2 6,-4 12,-4 7,0 11,2 14,4 1,1 2,2 5,2l0 0c3,0 5,-1 6,-2 3,-2 6,-4 14,-4 6,0 9,2 12,4 2,1 3,2 6,2 1,0 3,-1 4,-2 4,-3 7,-5 13,-5 7,1 11,3 14,6 1,1 2,1 4,1l1 0c2,0 3,0 4,-1 3,-3 7,-5 14,-6 6,0 9,2 13,5 1,1 3,2 4,2 3,0 4,-1 6,-2 3,-2 6,-4 12,-4 8,0 11,2 14,4 1,1 3,2 5,2l1 0c2,0 3,0 4,-1 -2,6 -6,11 -9,17 -5,-1 -8,-3 -10,-5 -1,0 -2,-1 -5,-1l0 0c-1,0 -2,1 -3,1 -4,3 -8,5 -15,5 -6,0 -9,-2 -13,-5 -2,-1 -3,-2 -3,-2 -3,1 -4,2 -5,2 -4,3 -7,5 -15,5 -7,0 -10,-2 -14,-5 -1,0 -2,-1 -5,-2 0,0 -2,1 -3,2 -4,3 -7,5 -13,5 -7,0 -11,-2 -15,-5 -1,0 -2,-1 -3,-1l0 0c-3,0 -4,1 -5,1 -3,3 -7,5 -15,5 -8,0 -11,-2 -14,-5 -2,0 -3,-1 -5,-1l-1 0c-1,0 -2,1 -3,1 -3,3 -7,5 -14,5 -6,0 -10,-2 -13,-5 -2,-1 -3,-2 -4,-2 -2,1 -3,2 -5,2 -3,3 -6,5 -14,5 -7,0 -11,-2 -14,-5 -1,0 -3,-1 -5,-2 0,0 -2,1 -3,2 -4,3 -8,5 -13,5 -8,0 -11,-2 -15,-5 -1,0 -2,-1 -3,-1l-1 0c-2,0 -3,1 -4,1 -3,3 -7,5 -15,5 -8,0 -11,-2 -15,-5 -1,0 -2,-1 -4,-1l-1 0c-1,0 -2,1 -3,1 -3,3 -7,5 -15,5 -5,0 -9,-2 -13,-5 -1,-1 -3,-2 -3,-2 -1,0 -2,1 -2,1 -1,0 -1,-1 -1,-1 -3,-4 -5,-9 -7,-13z"/>
    </g>
    <g>
     <path class="fil5" d="M160 398c4,-2 6,-4 10,-4 11,0 9,6 20,6 11,0 9,-6 20,-6 7,0 8,6 18,6 6,0 10,-6 16,-6 10,0 10,6 19,6 10,0 9,-6 19,-6 6,0 10,6 17,6 9,0 11,-6 18,-6 10,0 8,6 19,6 11,0 10,-6 20,-6 7,0 8,6 18,6 7,0 11,-6 17,-6 10,0 9,6 18,6 10,0 9,-6 19,-6 6,0 10,6 17,6 8,0 10,-5 15,-6"/>
     <path class="fil0" d="M210 384c5,-1 9,1 14,4 1,0 2,1 3,1 1,0 3,-1 3,-1 5,-3 9,-5 15,-5 3,0 6,1 10,2 2,1 4,2 6,4 0,0 1,1 2,0l0 0 0 0 0 0c1,1 2,0 3,0 2,-2 3,-3 6,-4 3,-1 6,-2 10,-2 6,0 9,2 14,5 1,0 2,1 3,1 1,0 3,-1 4,-1 4,-3 8,-5 14,-4 6,-1 10,1 15,4 1,0 1,0 1,0 1,1 2,1 3,1l0 0 1 0 0 0c1,0 2,0 3,-1 0,0 0,0 0,0 5,-3 10,-5 16,-4 6,-1 9,1 14,4 1,0 2,1 4,1 0,0 2,-1 2,-1 5,-3 9,-5 15,-5 3,0 7,1 10,2 2,1 4,2 6,4 1,0 1,1 2,0l0 0 1 0 0 0c1,1 1,0 2,0 2,-2 4,-3 6,-4 3,-1 7,-2 10,-2 6,0 10,2 14,5 1,0 3,1 3,1 2,0 3,-1 4,-1 5,-3 8,-5 14,-4 2,0 4,0 5,0 -1,1 -2,2 -2,4 -6,7 -13,15 -19,22 -1,0 -1,0 -2,0 -6,0 -10,-2 -15,-5 0,0 -1,0 -2,-1 -1,0 -1,1 -2,2 0,0 -1,0 -1,0 -5,3 -9,5 -16,5 -6,0 -10,-2 -15,-5 0,0 -1,0 -1,0 -1,-1 -1,-2 -2,-2 -1,1 -2,1 -2,1 -5,3 -9,5 -15,5 -7,0 -11,-1 -17,-4 0,-1 0,-1 -1,-1l0 0 -1 0c-1,0 -1,0 -2,0 -2,2 -4,3 -6,4 -4,1 -7,1 -11,1 -3,0 -7,0 -10,-1 -3,-1 -4,-2 -7,-4 0,0 -1,0 -2,0l0 0 -1 0c0,0 -1,0 -1,1 -5,3 -9,4 -16,4 -6,0 -10,-2 -15,-5 -1,0 -2,0 -2,-1 -1,0 -2,1 -3,2 0,0 0,0 0,0 -5,3 -9,5 -16,5 -6,0 -10,-2 -15,-5 -1,0 -1,0 -1,0 -1,-1 -2,-2 -2,-2 -1,1 -2,1 -2,1 -5,3 -9,5 -15,5 -7,0 -11,-1 -17,-4 0,-1 -1,-1 -1,-1l-1 0 0 0c-1,0 -1,0 -2,0 -2,2 -4,3 -6,4 -4,1 -7,1 -11,1 -4,0 -7,0 -10,-1 -3,-1 -5,-2 -7,-4 -1,0 -1,0 -2,0l0 0 -1 0c0,0 -1,0 -1,1 -1,0 -1,0 -1,0 -5,-5 -11,-11 -15,-17l0 0c1,0 2,-1 3,-1 5,-3 9,-5 14,-4 7,-1 11,1 16,4 0,0 0,0 1,0 1,1 1,1 3,1l0 0 0 0 0 0c2,0 2,0 3,-1 1,0 1,0 1,0 5,-3 9,-5 16,-4z"/>
     <path class="fil6" d="M155 392c1,0 2,-1 3,-2 4,-2 7,-3 12,-3 8,0 11,2 15,4 1,1 2,2 5,2l0 0c3,0 4,-1 5,-2 4,-2 7,-4 15,-4 5,0 8,1 12,3 1,1 3,2 6,2 1,0 2,-1 4,-2 4,-2 7,-4 13,-4 7,1 10,3 14,5 1,1 2,2 4,2l0 0c2,0 4,-1 5,-2 3,-2 6,-4 14,-5 5,0 9,2 12,4 2,1 4,2 5,2 2,0 4,-1 6,-2 3,-2 6,-3 12,-3 7,0 11,2 14,4 1,1 2,2 5,2l0 0c3,0 5,-1 6,-2 3,-2 6,-4 14,-4 6,0 9,1 12,3 2,1 3,2 6,2 1,0 3,-1 4,-2 4,-2 7,-4 13,-4 7,1 11,3 14,5 1,1 2,2 4,2l1 0c2,0 3,-1 4,-2 3,-2 7,-4 14,-5 6,0 9,2 13,4 1,1 3,2 4,2 3,0 4,-1 6,-2 3,-2 6,-3 12,-3 1,0 2,0 3,0l0 1c-5,6 -11,13 -16,19 -2,0 -3,0 -5,0 -6,0 -9,-2 -13,-4 -2,-1 -3,-2 -3,-2 -3,0 -4,1 -5,2 -4,2 -7,5 -15,4 -7,1 -10,-2 -14,-4 -1,-1 -2,-2 -5,-2 0,0 -2,1 -3,2 -4,2 -7,4 -13,4 -7,0 -11,-2 -15,-4 -1,-1 -2,-1 -3,-1l0 0c-3,-1 -4,0 -5,1 -3,2 -7,4 -15,4 -8,0 -11,-2 -14,-4 -2,-1 -3,-2 -5,-1l-1 0c-1,0 -2,0 -3,1 -3,2 -7,4 -14,4 -6,0 -10,-2 -13,-4 -2,-1 -3,-2 -4,-2 -2,0 -3,1 -5,2 -3,2 -6,5 -14,4 -7,1 -11,-2 -14,-4 -1,-1 -3,-2 -5,-2 0,0 -2,1 -3,2 -4,2 -8,4 -13,4 -8,0 -11,-2 -15,-4 -1,-1 -2,-1 -3,-1l-1 0c-2,-1 -3,0 -4,1 -3,2 -7,4 -15,4 -8,0 -11,-2 -15,-4 -1,-1 -2,-2 -4,-1l-1 0c-1,0 -2,0 -3,1 -1,0 -1,0 -2,1 -3,-4 -7,-8 -10,-12z"/>
    </g>
    <g>
     <path class="fil5" d="M199 434c3,-1 5,-3 11,-3 7,0 8,6 18,6 6,0 10,-7 16,-6 10,0 10,6 19,6 10,0 9,-6 19,-6 6,-1 10,6 17,6 9,0 11,-6 18,-6 10,0 8,6 19,6 11,0 10,-6 20,-6 7,0 8,6 18,6 7,0 11,-7 17,-6 10,0 9,6 18,6 9,0 9,-4 15,-6"/>
     <path class="fil0" d="M210 421c5,-1 9,1 14,4 1,0 2,1 3,1 1,0 3,-1 3,-1 5,-3 9,-5 15,-5 3,0 6,1 10,2 2,1 4,2 6,3 0,1 1,1 2,1l0 0 0 0 0 0c1,0 2,0 3,-1 2,-1 3,-2 6,-3 3,-1 6,-2 10,-2 6,0 9,2 14,5 1,0 2,1 3,1 1,0 3,-1 4,-1 4,-3 8,-5 14,-4 6,-1 10,0 15,4 1,0 1,0 1,0 1,1 2,1 3,1l0 0 1 0 0 0c1,0 2,0 3,-1 0,0 0,0 0,0 5,-4 10,-5 16,-4 6,-1 9,1 14,4 1,0 2,1 4,1 0,0 2,-1 2,-1 5,-3 9,-5 15,-5 3,0 7,1 10,2 2,1 4,2 6,3 1,1 1,1 2,1l0 0 1 0 0 0c1,0 1,0 2,-1 2,-1 4,-2 6,-3 3,-1 7,-2 10,-2 3,0 5,0 8,1 -10,10 -21,18 -33,26 -3,-1 -6,-2 -9,-4 0,0 -1,0 -1,-1 -1,0 -1,-1 -2,-1 -1,1 -2,1 -2,1 -5,3 -9,5 -15,5 -7,0 -11,-1 -17,-5 0,0 0,0 -1,0l0 0 -1 0c-1,0 -1,0 -2,0 -2,2 -4,3 -6,4 -4,1 -7,1 -11,1 -3,0 -7,0 -10,-1 -3,-1 -4,-2 -7,-4 0,0 -1,0 -2,0l0 0 -1 0c0,0 -1,0 -1,0 -5,4 -9,5 -16,5 -6,0 -10,-2 -15,-5 -1,0 -2,0 -2,-1 -1,0 -2,1 -3,1 0,1 0,1 0,1 -5,3 -9,5 -16,5 -6,0 -10,-2 -15,-5 -1,0 -1,0 -1,-1 -1,0 -2,-1 -2,-1 -1,1 -2,1 -2,1 -5,3 -9,5 -15,5 -7,0 -11,-1 -17,-5 0,0 -1,0 -1,0l-1 0c-7,-5 -13,-11 -20,-16 1,0 1,0 1,0l0 0 0 0 0 0c2,0 2,0 3,-1 1,0 1,0 1,0 5,-4 9,-5 16,-4z"/>
     <path class="fil6" d="M193 429c1,0 2,-1 2,-1 4,-2 7,-5 15,-4 5,0 8,1 12,3 1,1 3,2 6,2 1,0 2,-1 4,-2 4,-2 7,-4 13,-4 7,1 10,3 14,5 1,1 2,2 4,2l0 0c2,0 4,-1 5,-2 3,-2 6,-4 14,-5 5,0 9,2 12,4 2,1 4,2 5,2 2,0 4,-1 6,-2 3,-2 6,-3 12,-3 7,-1 11,2 14,4 1,1 2,2 5,1l0 0c3,1 5,0 6,-1 3,-2 6,-5 14,-4 6,0 9,1 12,3 2,1 3,2 6,2 1,0 3,-1 4,-2 4,-2 7,-4 13,-4 7,1 11,3 14,5 1,1 2,2 4,2l1 0c2,0 3,-1 4,-2 3,-2 7,-4 14,-5 2,0 3,0 5,1 -8,7 -17,14 -26,20 -6,0 -9,-2 -12,-4 -1,-1 -2,-2 -5,-2 0,0 -2,1 -3,2 -4,2 -7,4 -13,4 -7,0 -11,-2 -15,-4 -1,-1 -2,-2 -3,-1l0 0c-3,-1 -4,0 -5,1 -3,2 -7,4 -15,4 -8,0 -11,-2 -14,-4 -2,-1 -3,-2 -5,-1l-1 0c-1,-1 -2,0 -3,1 -3,2 -7,4 -14,4 -6,0 -10,-2 -13,-4 -2,-1 -3,-2 -4,-2 -2,0 -3,1 -5,2 -3,2 -6,4 -14,4 -7,0 -11,-2 -14,-4 -1,-1 -3,-2 -5,-2 0,0 -2,1 -3,2 -4,2 -8,4 -13,4 -8,0 -11,-2 -15,-4 -1,-1 -2,-2 -3,-1l-1 0c-1,-1 -2,0 -3,0 -5,-3 -9,-6 -13,-10z"/>
    </g>
   </g>
  </g>
 </g>
</svg>
